<svg width="166" height="166" viewBox="0 0 166 166" fill="none" xmlns="http://www.w3.org/2000/svg">
<g clip-path="url(#clip0_3_1369)">
<path d="M123.798 0C90.137 0 81.7511 30.5767 82.1194 80.0473H82.1207C82.1207 80.0473 81.8736 88.6219 91.9795 95.0671H155.615C165.721 88.6219 165.474 80.0473 165.474 80.0473H165.477C165.845 30.5767 157.459 0 123.798 0Z" fill="#CF8151"/>
<path d="M123.797 82.3545C112.504 82.3545 100.077 85.6975 91.98 95.0661C93.6014 96.1004 95.4884 97.0799 97.6866 97.9604H149.908C152.106 97.0802 153.993 96.1004 155.614 95.0661C147.517 85.6975 135.09 82.3545 123.797 82.3545Z" fill="#BD6E45"/>
<path d="M109.387 32.0591C107.729 35.6083 103.927 42.0518 97.1398 45.1403C96.5419 45.4124 96.1548 46.0054 96.1548 46.6622V53.8125V56.2273C96.1548 71.4945 108.531 84.5621 123.798 84.5621C139.065 84.5621 151.442 71.4945 151.442 56.2273V53.8125V44.6634C151.442 43.7154 150.657 42.9574 149.709 42.9911C143.604 43.208 122.873 43.0404 112.124 31.6246C111.31 30.7603 109.889 30.9836 109.387 32.0591Z" fill="#F0C69E"/>
<path d="M123.798 81.4557C108.531 81.4557 96.1548 69.0793 96.1548 53.8125V59.8368C96.1548 75.104 108.531 87.4801 123.798 87.4801C139.065 87.4801 151.442 75.1037 151.442 59.8368V53.8125C151.442 69.0793 139.065 81.4557 123.798 81.4557Z" fill="#E6BA94"/>
<path d="M77.6207 135.235C77.8943 130.528 77.8642 126.248 77.5678 122.359H12.1295C11.8331 126.248 11.803 130.528 12.0766 135.235H77.6207Z" fill="#26457D"/>
<path d="M11.4771 136.461C11.4771 141.746 14.1499 144.724 17.656 144.724L20.0458 141.677L22.9557 136.461L20.0377 131.244C19.7566 131.215 19.471 131.2 19.1821 131.2C15.676 131.2 12.6815 133.382 11.4771 136.461Z" fill="#E2AE84"/>
<path d="M19.1821 141.722C15.676 141.722 12.6815 139.541 11.4767 136.461C11.1113 137.395 10.9087 138.41 10.9087 139.473C10.9087 144.042 14.6126 147.746 19.1821 147.746C19.7602 147.746 20.3243 147.687 20.8687 147.574L22.9554 144.723L20.0455 141.677C19.7618 141.707 19.4739 141.722 19.1821 141.722Z" fill="#D7A379"/>
<path d="M78.2223 136.461C78.2223 141.746 75.5494 144.724 72.0433 144.724L69.6535 141.677L66.7437 136.461L69.6616 131.244C69.943 131.215 70.2284 131.2 70.5172 131.2C74.0233 131.2 77.0178 133.382 78.2223 136.461Z" fill="#E2AE84"/>
<path d="M70.5174 141.722C74.0235 141.722 77.018 139.541 78.2228 136.461C78.5882 137.395 78.7908 138.41 78.7908 139.473C78.7908 144.042 75.0866 147.746 70.5174 147.746C69.9393 147.746 69.3752 147.687 68.8308 147.574L66.7441 144.723L69.654 141.677C69.9377 141.707 70.2256 141.722 70.5174 141.722Z" fill="#D7A379"/>
<path d="M61.5016 122.359L44.566 119.441L28.1979 122.359C23.472 130.14 20.0389 131.243 20.0376 131.244V136.461V137.876C20.0376 151.579 31.1463 163.082 44.8497 163.082C58.5532 163.082 69.6619 151.579 69.6619 137.876V136.444V131.244C69.6619 131.244 66.2281 130.14 61.5016 122.359Z" fill="#F0C69E"/>
<path d="M44.8497 159.976C31.1463 159.976 20.0376 148.867 20.0376 135.164V141.188C20.0376 154.891 31.1463 166 44.8497 166C58.5532 166 69.6619 154.891 69.6619 141.188V135.164C69.6619 148.867 58.5528 159.976 44.8497 159.976Z" fill="#E6BA94"/>
<path d="M78.5469 116.334C75.1543 94.1547 59.6543 87.48 44.8489 87.48C30.0434 87.48 14.5435 94.1547 11.1509 116.334L44.8498 119.252L78.5469 116.334Z" fill="#DC4955"/>
<path d="M11.1488 116.334C10.9423 117.685 10.7805 119.092 10.6667 120.56C10.5915 121.529 11.3644 122.359 12.3371 122.359H34.2993L44.8497 119.441L55.4001 122.359H77.3607C78.3337 122.359 79.1063 121.529 79.0311 120.56C78.9173 119.092 78.7555 117.685 78.549 116.334H11.1488Z" fill="#D82F3C"/>
<path d="M55.3845 113.866C55.0875 108.305 50.4849 103.887 44.8499 103.887C39.215 103.887 34.6124 108.305 34.3154 113.866L44.849 116.784L55.3845 113.866Z" fill="#26457D"/>
<path d="M34.2993 116.334V113.866H55.4001V116.334L44.8497 119.252L34.2993 116.334Z" fill="#F6E080"/>
<path d="M34.2993 116.334H55.4001V122.359H34.2993V116.334Z" fill="#ECCD61"/>
<path d="M97.5572 144.53L92.3249 142.437C92.3249 142.437 85.2044 145.972 85.5471 159.061C94.1399 160.344 99.223 152.606 97.5572 144.53Z" fill="#CF8151"/>
<path d="M155.563 133.768C162.912 97.6505 141.627 87.48 123.798 87.48C105.968 87.48 84.6837 97.6505 92.0324 133.768H155.563Z" fill="#CF8151"/>
<path d="M100.554 145.728L97.5572 144.53C96.4244 152.906 89.265 157.314 85.5469 159.061C85.5858 160.551 85.7207 162.163 85.9742 163.908C86.1347 165.015 87.3139 165.657 88.33 165.191C92.6067 163.231 102.109 157.495 100.554 145.728Z" fill="#BD6E45"/>
<path d="M91.4873 134.864C91.4873 138.209 93.8084 142.832 97.1718 142.832L99.7536 139.828L102.566 137.374L99.7487 129.9C99.4761 129.872 99.1995 129.857 98.9194 129.857C95.5559 129.857 92.6782 131.928 91.4873 134.864Z" fill="#E2AE84"/>
<path d="M98.9196 139.871C95.5565 139.871 92.6784 137.799 91.4876 134.864C91.1102 135.794 90.9004 136.81 90.9004 137.876C90.9004 142.304 94.4908 145.895 98.9196 145.895C99.4799 145.895 100.027 145.837 100.555 145.728L103.336 142.437L99.7538 139.827C99.4795 139.856 99.2014 139.871 98.9196 139.871Z" fill="#D7A379"/>
<path d="M150.04 144.53L155.272 142.437C155.272 142.437 162.392 145.972 162.05 159.061C153.457 160.344 148.374 152.606 150.04 144.53Z" fill="#CF8151"/>
<path d="M147.043 145.728L150.04 144.53C151.172 152.906 158.332 157.314 162.05 159.061C162.011 160.551 161.876 162.163 161.623 163.908C161.462 165.015 160.283 165.657 159.267 165.191C154.99 163.231 145.489 157.495 147.043 145.728Z" fill="#BD6E45"/>
<path d="M156.11 134.864C156.11 138.209 153.789 142.832 150.425 142.832L147.843 139.828L145.031 137.374L147.848 129.9C148.121 129.872 148.397 129.857 148.677 129.857C152.041 129.857 154.918 131.928 156.11 134.864Z" fill="#E2AE84"/>
<path d="M148.678 139.871C152.041 139.871 154.919 137.799 156.11 134.864C156.487 135.794 156.697 136.81 156.697 137.876C156.697 142.304 153.106 145.895 148.678 145.895C148.117 145.895 147.571 145.837 147.043 145.728L144.261 142.437L147.843 139.827C148.118 139.856 148.396 139.871 148.678 139.871Z" fill="#D7A379"/>
<path d="M125.204 110.314C133.807 123.596 147.848 129.905 147.848 129.905V133.514V136.62C147.848 149.903 137.081 160.67 123.798 160.67C110.516 160.67 99.7485 149.903 99.7485 136.62V133.514V129.905C99.7485 129.905 113.79 123.596 122.393 110.314C123.057 109.29 124.54 109.29 125.204 110.314Z" fill="#F0C69E"/>
<path d="M123.798 157.564C110.516 157.564 99.7485 146.797 99.7485 133.514V139.538C99.7485 152.82 110.516 163.588 123.798 163.588C137.081 163.588 147.848 152.821 147.848 139.538V133.514C147.848 146.796 137.081 157.564 123.798 157.564Z" fill="#E6BA94"/>
<path d="M82.45 49.9161C94.3161 11.4634 63.2232 10.0874 63.2232 10.0874C63.2232 10.0874 59.5258 0 42.8869 0C26.9123 0 16.8083 4.91613 2.93859 2.7377C1.98019 2.58727 1.08859 3.26423 0.998784 4.23041C0.37596 10.9521 -1.09113 34.8483 7.89557 48.0113L82.45 49.9161Z" fill="#26457D"/>
<path d="M16.2522 42.6847C12.5526 42.6847 9.3639 44.8654 7.89648 48.0106C8.61204 49.0585 9.39275 50.0393 10.2467 50.937L21.2348 51.1588L17.2055 42.7333C16.8919 42.7012 16.5742 42.6847 16.2522 42.6847Z" fill="#21386B"/>
<path d="M81.3611 53.204C81.759 52.0767 82.1156 50.9841 82.4453 49.9148C81.5362 45.7797 77.8531 42.6844 73.445 42.6844C73.1231 42.6844 72.8053 42.7012 72.4918 42.7333L69.2788 52.9213L81.3611 53.204Z" fill="#21386B"/>
<path d="M7.54102 54.9142C7.54102 59.6439 10.1973 64.315 14.2326 64.315L17.2355 61.0666L22.4976 58.6019L17.2053 48.758C16.8918 48.7259 16.5741 48.709 16.2521 48.709C12.2169 48.7087 8.78958 51.3031 7.54102 54.9142Z" fill="#E2AE84"/>
<path d="M16.2524 61.1194C12.2168 61.1194 8.7895 58.525 7.54126 54.9142C7.21477 55.8583 7.03516 56.8712 7.03516 57.9262C7.03516 63.0168 11.1618 67.1437 16.2527 67.1437C16.8966 67.1437 17.5253 67.0773 18.1319 66.9515L20.011 63.6159L17.2361 61.0666C16.9125 61.101 16.5847 61.1194 16.2524 61.1194Z" fill="#D7A379"/>
<path d="M82.1564 54.9142C82.1564 59.6439 79.5001 64.315 75.4649 64.315L72.4619 61.0666L67.2002 58.6019L72.4924 48.758C72.8056 48.7259 73.1237 48.709 73.4456 48.709C77.4808 48.7087 80.9082 51.3031 82.1564 54.9142Z" fill="#E2AE84"/>
<path d="M73.4457 61.1194C77.4812 61.1194 80.9085 58.525 82.1568 54.9142C82.4833 55.8583 82.6629 56.8712 82.6629 57.9262C82.6629 63.0168 78.5362 67.1437 73.4454 67.1437C72.8015 67.1437 72.1728 67.0773 71.5662 66.9515L69.687 63.6159L72.462 61.0666C72.7852 61.101 73.1134 61.1194 73.4457 61.1194Z" fill="#D7A379"/>
<path d="M72.4925 42.4545V53.8125V56.2785C72.4925 71.5457 60.1161 84.5621 44.8493 84.5621C29.5821 84.5621 17.2061 71.5457 17.2061 56.2785V53.8125V28.7676C17.2061 27.4963 18.5668 26.6864 19.6808 27.2992C24.7869 30.1082 37.8251 34.9916 59.0737 27.9574C59.917 27.6782 60.8294 28.1055 61.1571 28.9313C62.2413 31.6619 65.1888 37.4703 71.619 40.9868C72.1556 41.2808 72.4925 41.842 72.4925 42.4545Z" fill="#F0C69E"/>
<path d="M44.8486 81.4557C29.5815 81.4557 17.2051 69.0793 17.2051 53.8125V59.8368C17.2051 75.104 29.5815 87.4801 44.8483 87.4801C60.1154 87.4801 72.4915 75.1037 72.4915 59.8368V53.8125C72.4922 69.0793 60.1158 81.4557 44.8486 81.4557Z" fill="#E6BA94"/>
<path d="M31.0562 48.7626C29.6592 48.7626 28.5264 49.8886 28.5264 51.2776V57.4867C28.5264 58.8757 29.6592 60.0017 31.0562 60.0017C32.4533 60.0017 33.5861 58.8757 33.5861 57.4867V51.2776C33.5861 49.8886 32.4533 48.7626 31.0562 48.7626Z" fill="#5E6B75"/>
<path d="M58.0572 48.7625C56.6602 48.7625 55.5273 49.8885 55.5273 51.2775V57.4866C55.5273 58.8755 56.6602 60.0016 58.0572 60.0016C59.4543 60.0016 60.5871 58.8755 60.5871 57.4866V51.2775C60.5871 49.8885 59.4543 48.7625 58.0572 48.7625Z" fill="#5E6B75"/>
<path d="M110.629 48.7625C109.231 48.7625 108.099 49.8885 108.099 51.2775V57.4866C108.099 58.8755 109.231 60.0016 110.629 60.0016C112.026 60.0016 113.158 58.8755 113.158 57.4866V51.2775C113.158 49.8885 112.026 48.7625 110.629 48.7625Z" fill="#5E6B75"/>
<path d="M137.629 60.0012C139.026 60.0012 140.159 58.8752 140.159 57.4863V51.2771C140.159 49.8882 139.026 48.7622 137.629 48.7622C136.232 48.7622 135.099 49.8882 135.099 51.2771V57.4863C135.099 58.8755 136.232 60.0012 137.629 60.0012Z" fill="#5E6B75"/>
<path d="M32.4395 131.142C31.0425 131.142 29.9097 132.268 29.9097 133.657V139.23C29.9097 140.619 31.0425 141.745 32.4395 141.745C33.8369 141.745 34.9694 140.619 34.9694 139.23V133.657C34.9694 132.269 33.8369 131.142 32.4395 131.142Z" fill="#5E6B75"/>
<path d="M56.6754 131.142C55.2783 131.142 54.1455 132.268 54.1455 133.657V139.23C54.1455 140.619 55.2783 141.745 56.6754 141.745C58.0724 141.745 59.2053 140.619 59.2053 139.23V133.657C59.2053 132.269 58.0724 131.142 56.6754 131.142Z" fill="#5E6B75"/>
<path d="M112.383 129.724C110.986 129.724 109.854 130.85 109.854 132.239V137.641C109.854 139.03 110.986 140.156 112.383 140.156C113.78 140.156 114.913 139.03 114.913 137.641V132.239C114.913 130.85 113.78 129.724 112.383 129.724Z" fill="#5E6B75"/>
<path d="M135.874 129.724C134.477 129.724 133.344 130.85 133.344 132.239V137.641C133.344 139.03 134.477 140.156 135.874 140.156C137.271 140.156 138.404 139.03 138.404 137.641V132.239C138.404 130.85 137.271 129.724 135.874 129.724Z" fill="#5E6B75"/>
<path d="M130.401 144.965C129.107 144.436 127.628 145.048 127.096 146.333C127.091 146.346 126.439 147.574 124.137 147.574C121.836 147.574 121.183 146.346 121.178 146.333C120.646 145.048 119.167 144.436 117.874 144.965C116.582 145.494 115.965 146.964 116.497 148.249C117.168 149.868 119.531 152.606 124.137 152.606C128.743 152.606 131.107 149.867 131.777 148.249C132.309 146.964 131.693 145.493 130.401 144.965Z" fill="#DC4955"/>
<path d="M132.557 69.4571C132.708 69.1338 132.795 68.7752 132.795 68.3956C132.795 67.0011 131.658 65.8705 130.255 65.8705C129.193 65.8705 128.282 66.5174 127.903 67.4378C127.902 67.4375 127.903 67.4381 127.903 67.4378C127.816 67.6155 126.969 69.1724 124.102 69.1724C121.235 69.1724 120.389 67.6155 120.302 67.4378C120.302 67.4381 120.302 67.4375 120.302 67.4378C119.922 66.5177 119.012 65.8705 117.95 65.8705C116.547 65.8705 115.41 67.0008 115.41 68.3956C115.41 68.7765 115.497 69.1364 115.649 69.4603C116.405 71.2454 119.016 74.2221 124.102 74.2221C129.192 74.2221 131.803 71.2416 132.557 69.4571Z" fill="#DC4955"/>
<path d="M50.0845 146.561C49.0165 146.561 48.1048 147.219 47.732 148.148C47.7316 148.148 47.7297 148.146 47.7297 148.146C47.6574 148.29 46.9532 149.552 44.5656 149.552C42.1784 149.552 41.4742 148.29 41.4019 148.146C41.4019 148.146 41.4022 148.146 41.4019 148.146C41.0291 147.217 40.1148 146.561 39.0468 146.561C37.6471 146.561 36.5127 147.689 36.5127 149.08C36.5127 149.459 36.598 149.817 36.7487 150.139C37.4335 151.792 39.8502 154.589 44.5656 154.589C49.2811 154.589 51.6981 151.792 52.3826 150.139L52.3816 150.139C52.532 149.817 52.6186 149.459 52.6186 149.08C52.6186 147.689 51.4841 146.561 50.0845 146.561Z" fill="#DC4955"/>
<path d="M50.7344 65.8991C49.6399 65.8991 48.7103 66.591 48.3569 67.5575C48.3553 67.5562 48.3514 67.5539 48.3518 67.5532C48.2652 67.7299 47.4235 69.2781 44.571 69.2781C41.7189 69.2781 40.8772 67.7296 40.7906 67.5532C40.4372 66.5864 39.5025 65.8991 38.408 65.8991C37.0096 65.8991 35.8765 67.0257 35.8765 68.4157C35.8765 68.8177 35.9692 69.198 36.1375 69.5352C36.8721 71.3093 39.4753 74.3116 44.5714 74.3116C49.6674 74.3116 52.2706 71.3093 53.0053 69.5352C53.1739 69.198 53.2663 68.8177 53.2663 68.4157C53.2663 67.0261 52.1328 65.8991 50.7344 65.8991Z" fill="#DC4955"/>
</g>
<defs>
<clipPath id="clip0_3_1369">
<rect width="166" height="166" fill="white"/>
</clipPath>
</defs>
</svg>
