<svg width="278" height="188" viewBox="0 0 278 188" fill="none" xmlns="http://www.w3.org/2000/svg">
<rect width="278" height="188" rx="25" fill="white"/>
<path d="M120.133 73.412C115.141 73.4083 110.002 73.4322 105.381 75.319C100.76 77.2057 96.7274 81.4354 96.6363 86.4262C96.6028 88.271 97.0966 90.136 96.7302 91.9444C96.3237 93.9505 94.9118 95.6023 93.3844 96.965C87.1675 102.512 78.6864 104.599 70.5626 106.449C62.4392 108.299 53.9543 110.266 47.5992 115.653C41.2437 121.04 37.9224 131.01 42.5959 137.907C45.4296 142.089 50.4736 144.225 55.4233 145.235C60.3731 146.244 65.4888 146.354 70.3836 147.603C80.929 150.296 89.5195 158.001 99.7957 161.587C108.594 164.657 118.139 164.55 127.455 164.349C134.22 164.202 141.019 164.021 147.672 162.777C159.176 160.627 170.002 155.348 181.633 154.052C189.467 153.18 197.419 154.149 205.255 153.29C213.632 152.371 221.931 149.226 228.063 143.445C234.196 137.665 237.907 129.077 236.808 120.721C235.61 111.608 228.916 103.871 220.812 99.5346C212.708 95.1983 203.336 93.8414 194.15 93.5285C189.719 93.3774 184.943 93.3463 181.372 90.7203C178.535 88.6346 176.985 85.2735 174.793 82.5194C170.362 76.9546 163.308 73.9836 156.257 73.0413C149.609 72.1528 143.311 73.3636 136.706 73.6209C131.245 73.8338 125.627 73.4161 120.133 73.412Z" fill="#A5D9EF"/>
<path d="M130.276 79.5161L128.213 84.6135H144.876L142.575 79.5599L130.276 79.5161Z" stroke="white" stroke-width="0.932337" stroke-miterlimit="10"/>
<path d="M121.309 84.7403H151.779L155.429 90.9164H119.167L121.309 84.7403Z" stroke="white" stroke-width="0.932337" stroke-miterlimit="10"/>
<path d="M136.941 84.7403V90.9164" stroke="white" stroke-width="0.932337" stroke-miterlimit="10"/>
<path d="M128.893 90.8039L126.424 97.8639H146.368L143.614 90.8648L128.893 90.8039Z" stroke="white" stroke-width="0.932337" stroke-miterlimit="10"/>
<path d="M118.161 98.0397H154.631L159 106.593H115.597L118.161 98.0397Z" stroke="white" stroke-width="0.932337" stroke-miterlimit="10"/>
<path d="M136.871 98.0397V106.593" stroke="white" stroke-width="0.932337" stroke-miterlimit="10"/>
<path d="M126.189 106.769L122.925 117.617H149.287L145.646 106.863L126.189 106.769Z" stroke="white" stroke-width="0.932337" stroke-miterlimit="10"/>
<path d="M123.975 131.133L119.982 153.897H152.229L147.775 131.364L123.975 131.133Z" stroke="white" stroke-width="0.932337" stroke-miterlimit="10"/>
<path d="M112.004 117.887H160.208L165.982 131.03H108.614L112.004 117.887Z" stroke="white" stroke-width="0.932337" stroke-miterlimit="10"/>
<path d="M136.734 117.887V131.03" stroke="white" stroke-width="0.932337" stroke-miterlimit="10"/>
<mask id="mask0_5_1772" style="mask-type:luminance" maskUnits="userSpaceOnUse" x="135" y="80" width="3" height="4">
<path d="M135.258 83.0189L135.132 80.0845L136.91 80.0873L137.036 83.0217L135.258 83.0189Z" fill="white"/>
</mask>
<g mask="url(#mask0_5_1772)">
<path d="M136.91 80.0873L136.295 80.0864L135.146 80.4279L135.299 80.73L136.213 80.4559H136.23L136.34 83.0204L137.036 83.0217L136.91 80.0873Z" fill="#EB745C"/>
</g>
<mask id="mask1_5_1772" style="mask-type:luminance" maskUnits="userSpaceOnUse" x="134" y="92" width="5" height="4">
<path d="M134.55 95.6781L134.383 92.2717L138.284 92.2627L138.452 95.6691L134.55 95.6781Z" fill="white"/>
</mask>
<g mask="url(#mask1_5_1772)">
<path d="M135.216 94.3863L135.216 94.3772L136.461 93.2162C136.601 93.0586 136.725 92.9116 136.88 92.7112H136.903C136.895 92.8899 136.898 93.0685 136.907 93.2457L136.963 94.3825L135.216 94.3863ZM137.538 92.2643L136.758 92.2661L134.489 94.4469L134.504 94.7508L136.98 94.7452L137.026 95.6729L137.705 95.6713L137.66 94.7436L138.406 94.7418L138.388 94.3791L137.642 94.381L137.538 92.2643Z" fill="#495638"/>
</g>
<mask id="mask2_5_1772" style="mask-type:luminance" maskUnits="userSpaceOnUse" x="134" y="109" width="6" height="7">
<path d="M139.104 109.323L134.263 109.363L134.314 115.57L139.156 115.529L139.104 109.323Z" fill="white"/>
</mask>
<g mask="url(#mask2_5_1772)">
<path d="M139.099 109.319L134.258 109.363L134.263 110.06L138.017 110.025L138.017 110.046L134.734 115.566L135.808 115.556L139.104 109.873L139.099 109.319Z" fill="#E35F0C"/>
</g>
<path d="M133.662 136.629C133.464 138.257 133.365 139.92 133.365 141.617C133.365 143.305 133.434 144.823 133.573 146.173L131.578 145.98C131.508 144.818 131.474 143.687 131.474 142.585C131.474 141.473 131.513 140.421 131.593 139.429L130.759 140.545L129.627 139.592C130.253 138.679 130.913 137.557 131.608 136.227L133.662 136.629ZM139.251 137.969C138.904 137.969 138.621 138.401 138.403 139.265C138.184 140.128 138.075 141.007 138.075 141.9C138.075 142.784 138.174 143.444 138.373 143.88C138.581 144.317 138.859 144.535 139.207 144.535C139.475 144.535 139.723 144.193 139.951 143.508C140.189 142.813 140.309 142.034 140.309 141.171C140.309 139.036 139.956 137.969 139.251 137.969ZM136.14 142.153C136.14 141.21 136.254 140.307 136.482 139.443C136.72 138.57 137.083 137.835 137.569 137.24C138.055 136.634 138.631 136.332 139.296 136.332C139.961 136.332 140.522 136.555 140.979 137.002C141.822 137.845 142.244 139.235 142.244 141.171C142.244 142.014 142.095 142.828 141.797 143.612C141.5 144.387 141.117 145.007 140.651 145.474C140.184 145.94 139.703 146.173 139.207 146.173C138.254 146.173 137.504 145.806 136.958 145.072C136.412 144.337 136.14 143.364 136.14 142.153Z" fill="#46B1E0"/>
<mask id="mask3_5_1772" style="mask-type:luminance" maskUnits="userSpaceOnUse" x="126" y="86" width="4" height="3">
<path d="M126.373 88.9007L126.125 86.1341L129.525 86.062L129.774 88.8286L126.373 88.9007Z" fill="white"/>
</mask>
<g mask="url(#mask3_5_1772)">
<path d="M127.765 86.0993C127.151 86.1124 126.636 86.2407 126.281 86.407L126.534 86.6618C126.77 86.5524 127.161 86.4182 127.645 86.4079C128.438 86.3911 128.724 86.641 128.749 86.9167C128.777 87.3281 128.194 87.6924 126.895 88.382L126.353 88.6738L126.374 88.9007L129.774 88.8286L129.747 88.5231L127.355 88.5737L127.355 88.565L127.761 88.3546C128.835 87.7785 129.511 87.3577 129.466 86.8551C129.43 86.4657 128.911 86.0751 127.765 86.0993Z" fill="#E35F0C"/>
</g>
<mask id="mask4_5_1772" style="mask-type:luminance" maskUnits="userSpaceOnUse" x="142" y="85" width="5" height="5">
<path d="M142.925 89.2562L142.559 85.6658L145.953 85.6729L146.319 89.2634L142.925 89.2562Z" fill="white"/>
</mask>
<g mask="url(#mask4_5_1772)">
<path d="M144.189 85.6692C143.604 85.668 143.065 85.8004 142.795 85.9334L143.022 86.2759C143.245 86.1696 143.651 86.0474 144.086 86.0484C144.763 86.0499 145.064 86.2961 145.092 86.5739C145.134 86.9854 144.475 87.16 143.94 87.1591L143.53 87.1582L143.566 87.5109L143.976 87.5118C144.686 87.5134 145.393 87.7232 145.451 88.2092C145.489 88.4976 145.235 88.8817 144.29 88.8799C143.78 88.879 143.282 88.7441 143.064 88.6583L142.901 89.0213C143.18 89.1341 143.727 89.2581 144.338 89.2593C145.642 89.2621 146.269 88.7773 146.213 88.2217C146.163 87.7356 145.587 87.4136 144.91 87.3269L144.909 87.3164C145.561 87.1628 145.865 86.8589 145.828 86.5012C145.785 86.0785 145.259 85.6717 144.189 85.6692Z" fill="#2585AF"/>
</g>
<mask id="mask5_5_1772" style="mask-type:luminance" maskUnits="userSpaceOnUse" x="124" y="99" width="5" height="6">
<path d="M124.815 104.322L124.672 99.5691L128.686 99.5787L128.829 104.331L124.815 104.322Z" fill="white"/>
</mask>
<g mask="url(#mask5_5_1772)">
<path d="M128.557 99.5784L125.466 99.571L125.116 101.813C125.353 101.791 125.64 101.764 126.009 101.764C127.301 101.768 127.87 102.202 127.899 102.804C127.918 103.431 127.222 103.816 126.398 103.814C125.811 103.812 125.281 103.668 125.009 103.554L124.806 104.035C125.117 104.179 125.717 104.324 126.425 104.326C127.825 104.329 128.808 103.648 128.781 102.736C128.763 102.145 128.334 101.742 127.819 101.532C127.417 101.36 126.917 101.277 126.422 101.276C126.182 101.276 126.045 101.291 125.895 101.305L126.108 100.105L128.573 100.11L128.557 99.5784Z" fill="#EB745C"/>
</g>
<mask id="mask6_5_1772" style="mask-type:luminance" maskUnits="userSpaceOnUse" x="142" y="99" width="6" height="6">
<path d="M142.909 104.554L142.598 99.3711L147.289 99.4672L147.601 104.65L142.909 104.554Z" fill="white"/>
</mask>
<g mask="url(#mask6_5_1772)">
<path d="M145.296 104.078C144.329 104.058 143.777 103.436 143.705 102.609C143.698 102.487 143.733 102.388 143.793 102.311C144.025 101.952 144.525 101.709 145.082 101.721C145.935 101.738 146.518 102.181 146.561 102.899C146.604 103.619 146.096 104.094 145.296 104.078ZM146.616 99.4535C146.448 99.4501 146.218 99.4535 145.946 99.4787C145.087 99.5387 144.345 99.7767 143.801 100.174C143.157 100.655 142.721 101.426 142.781 102.413C142.859 103.72 143.865 104.573 145.328 104.603C146.749 104.633 147.55 103.799 147.495 102.882C147.436 101.9 146.545 101.241 145.336 101.216C144.578 101.201 144.025 101.453 143.718 101.763L143.688 101.762C143.794 100.937 144.516 100.175 145.957 100.026C146.157 100.007 146.343 100 146.505 100.004C146.555 100.005 146.604 100.007 146.649 100.01L146.616 99.4535Z" fill="#46B1E0"/>
</g>
<path d="M124.498 128.025C123.868 128.025 123.323 127.819 122.864 127.407C122.405 126.995 122.176 126.458 122.176 125.797C122.176 125.136 122.487 124.525 123.109 123.965C122.604 123.498 122.351 122.95 122.351 122.32C122.351 121.69 122.588 121.134 123.063 120.652C123.537 120.169 124.093 119.928 124.731 119.928C125.369 119.928 125.878 120.162 126.26 120.628C126.648 121.087 126.843 121.558 126.843 122.04C126.843 122.787 126.481 123.436 125.758 123.988C126.077 124.167 126.333 124.408 126.528 124.712C126.73 125.015 126.831 125.357 126.831 125.739C126.831 126.299 126.602 126.82 126.143 127.302C125.684 127.784 125.136 128.025 124.498 128.025ZM124.509 126.742C124.758 126.742 124.972 126.664 125.151 126.509C125.338 126.353 125.431 126.159 125.431 125.925C125.431 125.684 125.369 125.478 125.244 125.307C125.12 125.136 124.996 125.007 124.871 124.922C124.747 124.829 124.579 124.724 124.369 124.607C123.84 124.957 123.576 125.361 123.576 125.82C123.576 126.092 123.669 126.314 123.856 126.485C124.043 126.656 124.261 126.742 124.509 126.742ZM124.649 121.212C124.408 121.212 124.198 121.309 124.019 121.503C123.84 121.69 123.751 121.896 123.751 122.122C123.751 122.347 123.813 122.569 123.938 122.787C124.07 123.005 124.218 123.164 124.381 123.265C124.716 123.063 124.976 122.868 125.163 122.682C125.349 122.495 125.443 122.301 125.443 122.098C125.443 121.888 125.369 121.69 125.221 121.503C125.081 121.309 124.891 121.212 124.649 121.212Z" fill="#495638"/>
<path d="M147.604 124.568C147.005 124.568 146.511 124.35 146.122 123.915C145.741 123.472 145.55 122.946 145.55 122.34C145.55 121.593 145.815 120.916 146.344 120.31C146.873 119.703 147.472 119.4 148.141 119.4C148.677 119.4 149.171 119.613 149.622 120.041C149.856 120.267 150.042 120.59 150.182 121.01C150.33 121.422 150.404 121.908 150.404 122.468C150.404 123.705 149.521 125.42 147.756 127.613L146.647 126.832C147.324 126.062 147.935 125.241 148.479 124.37C148.113 124.502 147.822 124.568 147.604 124.568ZM147.721 123.285C148.086 123.285 148.498 123.11 148.957 122.76C148.988 122.573 149.004 122.437 149.004 122.351C149.004 121.768 148.915 121.344 148.736 121.08C148.565 120.815 148.347 120.683 148.082 120.683C147.818 120.683 147.561 120.854 147.312 121.196C147.071 121.539 146.951 121.92 146.951 122.34C146.951 122.596 147.021 122.818 147.161 123.005C147.308 123.191 147.495 123.285 147.721 123.285Z" fill="#ED6351"/>
<path d="M190.799 103.801C191.25 108.949 191.701 114.096 192.152 119.244C192.186 119.633 192.225 120.038 192.428 120.373C192.886 121.126 193.979 121.203 194.806 120.9C195.633 120.596 196.336 120.016 197.163 119.712C196.82 116.658 197.298 113.393 197.284 110.32C197.276 108.77 197.144 107.22 196.889 105.691C195.277 104.756 192.663 103.762 190.799 103.801Z" fill="#FF9688"/>
<path d="M197.149 118.585C197.198 118.535 197.158 118.434 197.088 118.43C196.074 118.756 194.993 118.869 193.933 118.768C193.865 118.523 193.796 118.278 193.727 118.033C193.609 117.612 193.477 117.167 193.155 116.872C192.832 116.576 192.253 116.516 191.99 116.866C191.811 117.105 191.837 117.435 191.882 117.729C191.933 118.058 191.96 118.426 192.076 118.726C191.978 119.619 191.319 120.654 190.697 121.169C189.828 121.888 188.719 122.272 187.856 122.999C187.401 123.382 187.002 123.911 187.015 124.507C187.03 125.227 187.665 125.816 188.359 126.007C189.053 126.199 189.791 126.079 190.496 125.932C193.069 125.396 195.381 124.654 197.724 123.461C197.687 121.765 197.489 120.248 197.149 118.585Z" fill="#46B1E0"/>
<path d="M190.496 125.932C193.069 125.396 195.381 124.654 197.724 123.461C197.719 123.235 197.704 123.018 197.693 122.796C197.685 122.79 197.678 122.782 197.668 122.777C197.574 122.73 197.461 122.768 197.363 122.808C196.356 123.21 195.348 123.613 194.341 124.015C193.233 124.458 192.169 125.032 190.975 125.005C190.948 124.27 190.558 123.558 189.954 123.138C189.442 122.783 188.788 122.647 188.175 122.753C188.066 122.831 187.959 122.912 187.856 122.999C187.401 123.382 187.002 123.911 187.015 124.507C187.03 125.226 187.665 125.815 188.359 126.007C189.053 126.199 189.791 126.079 190.496 125.932Z" fill="white"/>
<path d="M190.007 121.912C190.548 121.863 191.107 122.121 191.42 122.566" stroke="white" stroke-width="0.310779" stroke-miterlimit="10"/>
<path d="M190.61 121.358C191.224 121.286 191.867 121.588 192.202 122.107" stroke="white" stroke-width="0.310779" stroke-miterlimit="10"/>
<path d="M191.271 120.707C191.821 120.683 192.376 120.926 192.732 121.346" stroke="white" stroke-width="0.310779" stroke-miterlimit="10"/>
<path d="M192.452 119.249C192.413 118.946 192.375 118.643 192.336 118.34C192.313 118.16 192.306 117.941 192.453 117.835C192.596 117.734 192.804 117.808 192.926 117.935C193.115 118.133 193.168 118.424 193.186 118.697C193.201 118.942 193.195 119.188 193.168 119.431C192.885 119.477 192.584 119.412 192.345 119.253" fill="#349DC1"/>
<path d="M195.137 120.83C195.012 121.12 195.169 121.499 195.463 121.615C195.757 121.731 196.131 121.561 196.237 121.263C196.343 120.965 196.16 120.598 195.859 120.502C195.58 120.412 195.212 120.537 195.137 120.83Z" fill="white"/>
<path d="M204.507 103.587C204.514 108.754 204.521 113.921 204.528 119.088C204.529 119.479 204.526 119.886 204.353 120.237C203.964 121.028 202.881 121.202 202.031 120.973C201.18 120.743 200.428 120.228 199.578 119.999C199.648 116.926 198.883 113.717 198.625 110.655C198.495 109.11 198.49 107.555 198.608 106.009C200.132 104.934 202.647 103.713 204.507 103.587Z" fill="#FF9688"/>
<path d="M199.557 118.565C199.509 118.515 199.548 118.413 199.618 118.41C200.632 118.735 201.713 118.849 202.773 118.748C202.842 118.502 202.91 118.257 202.979 118.012C203.097 117.591 203.229 117.147 203.551 116.851C203.874 116.556 204.453 116.496 204.716 116.846C204.895 117.084 204.869 117.414 204.824 117.709C204.773 118.038 204.746 118.406 204.631 118.706C204.728 119.598 205.388 120.634 206.009 121.148C206.878 121.867 207.987 122.252 208.85 122.978C209.306 123.362 209.704 123.891 209.691 124.486C209.676 125.206 209.041 125.795 208.347 125.987C207.653 126.179 206.915 126.058 206.211 125.912C203.638 125.376 201.325 124.633 198.982 123.441C199.019 121.745 199.217 120.227 199.557 118.565Z" fill="#46B1E0"/>
<path d="M206.211 125.911C203.638 125.376 201.325 124.633 198.982 123.441C198.987 123.214 199.003 122.997 199.013 122.776C199.022 122.769 199.028 122.761 199.038 122.756C199.132 122.709 199.245 122.748 199.343 122.787C200.35 123.189 201.358 123.592 202.365 123.994C203.473 124.437 204.538 125.011 205.731 124.985C205.759 124.25 206.148 123.537 206.752 123.117C207.264 122.762 207.918 122.626 208.531 122.732C208.64 122.81 208.747 122.891 208.85 122.978C209.306 123.361 209.704 123.89 209.691 124.486C209.676 125.206 209.041 125.794 208.347 125.986C207.654 126.179 206.915 126.058 206.211 125.911Z" fill="white"/>
<path d="M206.7 121.891C206.158 121.843 205.599 122.101 205.286 122.545" stroke="white" stroke-width="0.310779" stroke-miterlimit="10"/>
<path d="M206.096 121.338C205.482 121.265 204.839 121.568 204.504 122.087" stroke="white" stroke-width="0.310779" stroke-miterlimit="10"/>
<path d="M205.436 120.686C204.885 120.663 204.33 120.906 203.974 121.325" stroke="white" stroke-width="0.310779" stroke-miterlimit="10"/>
<path d="M204.254 119.229C204.293 118.926 204.331 118.622 204.37 118.319C204.393 118.139 204.401 117.92 204.252 117.815C204.109 117.713 203.901 117.788 203.78 117.914C203.591 118.113 203.538 118.403 203.52 118.677C203.505 118.921 203.511 119.167 203.538 119.411C203.821 119.457 204.122 119.391 204.361 119.232" fill="#349DC1"/>
<path d="M201.569 120.809C201.695 121.099 201.537 121.478 201.243 121.594C200.949 121.71 200.576 121.54 200.47 121.242C200.364 120.945 200.546 120.577 200.847 120.481C201.127 120.392 201.495 120.516 201.569 120.809Z" fill="white"/>
<path d="M189.214 90.1509C189.311 94.481 189.409 98.8111 189.507 103.141C189.515 103.492 189.525 103.854 189.671 104.174C189.854 104.575 190.225 104.855 190.597 105.093C192.396 106.239 194.573 106.779 196.698 106.608C196.667 106.608 196.823 106.618 196.792 106.618C199.946 108.014 203.456 108.04 206.695 106.858C205.964 101.779 205.43 96.5421 205.006 91.4282C200.105 93.3364 193.738 92.8354 189.214 90.1509Z" fill="#E35F0C"/>
<path d="M196.706 106.432C196.528 104.427 196.298 102.428 196.017 100.436C195.997 100.29 195.974 100.14 195.895 100.017C195.797 99.8668 195.631 99.7795 195.474 99.6934C195.032 99.4497 194.614 99.1635 194.227 98.8397C194.179 98.7996 194.127 98.7381 194.156 98.683C194.185 98.6277 194.286 98.7179 194.225 98.7309" stroke="#0D1106" stroke-width="0.310779" stroke-miterlimit="10" stroke-linecap="round" stroke-linejoin="round"/>
<path d="M188.17 74.2633C186.498 76.9587 184.796 79.7261 184.154 82.8321C183.854 84.2806 183.969 86.1123 185.277 86.8023C186.184 87.2802 187.344 86.9701 188.138 86.3221C188.931 85.6741 189.439 84.7486 189.926 83.8477C191.492 80.9559 193.092 77.9463 193.297 74.6645C193.344 73.9065 193.303 73.1025 192.899 72.4601C191.336 69.9779 189.03 72.8763 188.17 74.2633Z" fill="#FFAA9C"/>
<path d="M188.828 72.9157C187.673 74.1321 186.832 75.6121 186.114 77.1277C186.047 77.2688 185.979 77.4161 185.979 77.5724C185.977 77.7595 186.071 77.9329 186.17 78.0918C187.065 79.5282 188.624 80.5314 190.302 80.7502C190.97 79.057 191.639 77.3636 192.308 75.6705C192.745 74.5626 194.075 72.0027 192.67 71.0756C191.466 70.2803 189.588 72.1155 188.828 72.9157Z" fill="#FFBD63"/>
<path d="M185.963 80.5553C181.658 79.5996 178.107 75.8703 177.363 71.5237C177.239 70.7999 177.175 70.0342 176.776 69.4179C176.707 69.3125 176.621 69.2069 176.5 69.1749C176.178 69.0897 175.997 69.5323 175.963 69.8639C175.909 70.3875 175.856 70.9112 175.802 71.4348C174.977 70.7872 174.494 69.7355 173.565 69.2498C173.441 69.1851 173.296 69.1376 173.163 69.1801C172.834 69.2852 172.881 69.7657 173.019 70.0817C173.333 70.795 173.774 71.4519 174.315 72.0123C173.609 71.3805 172.662 71.1256 171.715 71.1542C171.624 71.6421 172.052 72.0763 172.495 72.3004C172.938 72.5244 173.448 72.6509 173.797 73.004C173.232 72.9981 172.643 72.9269 172.078 72.921C171.862 72.9188 171.621 72.9263 171.468 73.0786C171.252 73.2942 171.356 73.6933 171.603 73.8729C171.85 74.0528 172.178 74.0675 172.483 74.0491C172.788 74.0308 173.1 73.987 173.393 74.0734C172.851 74.1001 172.324 74.2803 171.941 74.6651C171.742 74.864 171.583 75.1953 171.765 75.4097C171.883 75.5486 172.088 75.5642 172.27 75.5688C172.793 75.5828 173.354 75.5859 173.786 75.2916C175.512 78.7869 177.812 82.0178 180.533 84.8092C181.124 85.4155 181.742 86.0066 182.464 86.4504C183.521 87.1 184.784 87.4086 186.021 87.3191C186.519 87.283 187.029 87.1774 187.438 86.8905C188.291 86.2926 188.469 85.1091 188.44 84.0677C188.419 83.3333 188.328 82.5822 187.992 81.9283C187.657 81.2754 186.68 80.7144 185.963 80.5553Z" fill="#FF9688"/>
<path d="M177.363 71.5237C177.239 70.7999 177.175 70.0342 176.776 69.4179C176.707 69.3125 176.621 69.2069 176.5 69.1749C176.178 69.0897 175.997 69.5323 175.963 69.8639C175.909 70.3875 175.856 70.9112 175.802 71.4348C174.977 70.7872 174.494 69.7355 173.565 69.2498C173.441 69.1851 173.296 69.1376 173.163 69.1801C172.834 69.2852 172.881 69.7657 173.019 70.0817C173.333 70.795 173.774 71.4519 174.315 72.0123C173.609 71.3805 172.662 71.1256 171.715 71.1542C171.624 71.6421 172.052 72.0763 172.495 72.3004C172.938 72.5244 173.448 72.6509 173.797 73.004C173.232 72.9981 172.643 72.9269 172.078 72.921C171.862 72.9188 171.621 72.9263 171.468 73.0786C171.252 73.2942 171.356 73.6933 171.603 73.8729C171.85 74.0528 172.178 74.0675 172.483 74.0491C172.788 74.0308 173.1 73.987 173.393 74.0734C172.851 74.1001 172.324 74.2803 171.941 74.6651C171.742 74.864 171.583 75.1953 171.765 75.4097C171.883 75.5486 172.088 75.5642 172.27 75.5688C172.793 75.5828 173.354 75.5859 173.786 75.2916" stroke="#0D1106" stroke-width="0.310779" stroke-miterlimit="10" stroke-linecap="round" stroke-linejoin="round"/>
<path d="M193.229 70.6551C192.488 70.8062 192.134 71.6369 191.911 72.3588C190.2 77.8935 189.225 83.655 189.018 89.4442C188.995 90.0732 188.987 90.7296 189.26 91.2971C189.852 92.5312 191.445 92.8261 192.807 92.9666C197.063 93.4063 201.701 93.76 205.285 91.4223C203.686 85.4765 202.849 79.2525 202.027 73.1507C201.906 72.2494 201.732 71.2403 200.989 70.716C200.409 70.3071 199.643 70.3154 198.935 70.34C197.421 70.3922 195.908 70.4444 194.395 70.4966C193.89 70.5143 193.57 70.2806 193.229 70.6551Z" fill="#46B1E0"/>
<path d="M195.567 91.3315C194.418 91.3067 193.261 91.2044 192.142 90.9365C191.153 90.7 190.032 89.8196 189.074 89.7522C189.052 89.7506 189.032 89.7519 189.01 89.7512C189.001 90.2833 189.032 90.8219 189.26 91.2974C189.852 92.5315 191.445 92.8264 192.807 92.9669C197.063 93.4066 201.701 93.7603 205.285 91.4226C205.168 90.9853 205.062 90.5437 204.952 90.1033C201.909 90.9807 198.733 91.3999 195.567 91.3315Z" fill="#FFBD63"/>
<path d="M193.193 69.67C193.422 71.0213 193.129 72.5721 193.993 73.6365C194.539 74.3106 195.469 74.6102 196.33 74.5073C197.192 74.4044 197.983 73.9386 198.595 73.3232C198.801 73.1156 198.995 72.8829 199.085 72.6041C199.239 72.1249 199.064 71.6084 198.89 71.1357C198.558 70.2341 198.227 69.3325 197.896 68.4313C197.838 68.2759 197.776 68.1124 197.647 68.008C197.47 67.8641 197.218 67.8703 196.99 67.8855C195.638 67.9763 194.2 68.058 192.887 68.3996C192.917 68.8042 193.119 69.2396 193.193 69.67Z" fill="#FFAA9C"/>
<path d="M197.234 70.1945C197.609 70.0053 197.968 69.7588 198.276 69.4664C198.149 69.1211 198.022 68.7761 197.896 68.4309C197.838 68.2755 197.776 68.112 197.647 68.0076C197.47 67.8637 197.218 67.8699 196.99 67.8851C195.638 67.9759 194.2 68.0576 192.887 68.3992C192.917 68.8041 193.119 69.2392 193.193 69.6699C193.24 69.9493 193.265 70.2377 193.282 70.528C193.574 70.6181 193.843 70.6803 194.034 70.7117C195.118 70.8897 196.253 70.6899 197.234 70.1945Z" fill="black"/>
<path d="M194.622 69.1798C199.102 68.8308 203.285 66.1731 205.401 62.3312C205.891 61.4411 206.219 60.4233 205.926 59.4413C206.203 59.486 206.487 59.4848 206.762 59.4375C207.397 59.3288 207.963 58.9798 208.432 58.5521C208.941 58.0872 209.359 57.5098 209.541 56.8497C209.872 55.6448 209.3 54.2438 208.204 53.5735C207.108 52.9031 205.579 53.0193 204.629 53.8454C203.97 49.6996 201.044 45.8646 197.248 43.8554C195.716 43.0446 194.004 42.5119 192.274 42.5247C190.545 42.5374 188.799 43.1307 187.59 44.3182C186.181 45.7014 184.126 46.3469 182.779 47.7877C181.098 49.5855 180.195 52.0081 180.035 54.4555C179.875 56.9028 180.426 59.3735 181.378 61.6621C181.935 63.0009 182.635 64.2956 183.569 65.421C186.106 68.4775 190.645 69.49 194.622 69.1798Z" fill="#FF9688"/>
<path d="M207.168 55.3915C206.695 55.1556 206.086 55.2187 205.684 55.5454C205.282 55.872 205.11 56.4432 205.264 56.938C205.337 56.4836 205.87 56.1644 206.323 56.3034C206.776 56.4423 207.04 57.0051 206.847 57.4231C206.654 57.8411 206.052 58.012 205.649 57.7631" stroke="#0D1106" stroke-width="0.310779" stroke-miterlimit="10" stroke-linecap="round" stroke-linejoin="round"/>
<path d="M183.201 52.5333C183.588 52.349 184.003 52.2216 184.429 52.1566C184.637 52.1249 184.855 52.1091 185.052 52.179C185.249 52.2489 185.419 52.4251 185.418 52.629C185.418 52.7891 185.316 52.9317 185.206 53.051C184.838 53.4504 184.32 53.7173 183.774 53.7898C183.513 53.8243 183.235 53.8124 183.007 53.6866C182.778 53.5607 182.616 53.2984 182.675 53.0495C182.744 52.7601 183.056 52.6004 183.335 52.4783C183.348 52.5494 183.361 52.6209 183.374 52.6921" fill="#843914"/>
<path d="M194.676 50.8417C195.103 50.8094 195.537 50.8405 195.957 50.9337C196.162 50.9791 196.371 51.0431 196.53 51.1795C196.689 51.316 196.784 51.5416 196.709 51.7315C196.65 51.8803 196.504 51.977 196.358 52.0485C195.871 52.2881 195.292 52.3502 194.756 52.22C194.5 52.1579 194.245 52.0466 194.078 51.8468C193.91 51.647 193.854 51.3439 193.999 51.1329C194.167 50.8877 194.516 50.8517 194.82 50.8383C194.807 50.9095 194.793 50.9806 194.78 51.0521" fill="#843914"/>
<path d="M193.634 61.2954C193.841 62.821 195.273 63.9153 196.833 63.74C198.392 63.5647 199.489 62.1858 199.282 60.6602C199.075 59.1345 197.643 58.04 196.084 58.2156C194.524 58.3909 193.427 59.7698 193.634 61.2954Z" fill="#EB745C"/>
<path d="M189.139 56.804C189.934 58.3371 190.235 60.1219 189.985 61.8309C190.231 62.0543 190.628 61.8908 190.886 61.6811C191.305 61.3408 191.638 60.8951 191.845 60.3966" stroke="#0D1106" stroke-width="0.310779" stroke-miterlimit="10" stroke-linecap="round" stroke-linejoin="round"/>
<path d="M186.883 61.834C186.676 60.3083 185.244 59.2141 183.684 59.3894C182.485 59.5243 181.562 60.3721 181.293 61.4498C181.322 61.5207 181.349 61.5919 181.378 61.6624C181.825 62.7362 182.366 63.7801 183.044 64.7326C183.472 64.8998 183.947 64.9688 184.433 64.9141C185.993 64.7385 187.09 63.3596 186.883 61.834Z" fill="#EB745C"/>
<path d="M183.342 58.2675C183.29 59.6296 184.342 60.8071 185.693 60.8979C187.043 60.9883 188.18 59.9575 188.232 58.5953C188.284 57.2332 187.231 56.0556 185.881 55.9649C184.53 55.8741 183.394 56.905 183.342 58.2675Z" fill="white"/>
<path d="M185.264 60.8286C185.615 60.8003 185.962 60.6831 186.27 60.4671C187.196 59.8189 187.421 58.5431 186.773 57.6176C186.124 56.6921 184.849 56.4674 183.923 57.1157C183.751 57.2363 183.603 57.3789 183.481 57.5365C183.399 57.7646 183.351 58.0101 183.341 58.2671C183.295 59.4817 184.127 60.547 185.264 60.8286Z" fill="black"/>
<path d="M192.52 57.4685C192.468 58.8306 193.521 60.0082 194.871 60.0989C196.222 60.1893 197.359 59.1585 197.41 57.7963C197.462 56.4342 196.41 55.2567 195.059 55.1659C193.709 55.0755 192.572 56.1063 192.52 57.4685Z" fill="white"/>
<path d="M194.444 60.0299C194.794 60.0016 195.142 59.8845 195.45 59.6685C196.376 59.0202 196.6 57.7444 195.952 56.8189C195.304 55.8934 194.028 55.6688 193.103 56.3167C192.931 56.4373 192.783 56.58 192.66 56.7378C192.579 56.9659 192.53 57.2115 192.52 57.4685C192.474 58.6827 193.306 59.748 194.444 60.0299Z" fill="black"/>
<path d="M190.858 63.707C192.407 63.8466 194.006 63.1548 194.965 61.9309" stroke="#0D1106" stroke-width="0.310779" stroke-miterlimit="10" stroke-linecap="round" stroke-linejoin="round"/>
<path d="M204.242 54.1279C203.913 55.0033 202.665 55.2085 201.854 54.7426C201.043 54.2771 200.59 53.3805 200.244 52.5115C199.677 51.0882 199.275 49.5998 199.047 48.0848C197.204 49.0653 194.594 48.0009 193.962 46.0116C193.544 47.2898 192.303 48.2551 190.961 48.3455C189.619 48.436 188.259 47.6463 187.673 46.4358C186.976 48.7374 184.94 50.5791 182.581 51.0431C181.515 51.2526 180.03 50.8389 180.067 49.7531C179.897 50.6437 178.619 50.9694 177.889 50.4312C177.159 49.8929 176.986 48.8307 177.245 47.9614C177.503 47.0922 178.104 46.3724 178.701 45.6902C180.743 43.3582 183.011 41.0805 185.892 39.938C185.658 39.5005 186.168 39.0591 186.647 38.9296C189.996 38.0243 193.552 37.6923 196.944 38.4208C200.336 39.1496 203.552 41.0087 205.53 43.8585C207.509 46.7084 208.102 50.5816 206.679 53.7459C205.847 53.8295 204.907 53.6201 204.242 54.1279Z" fill="#843914"/>
<path d="M201.151 71.7261C202.331 71.1918 203.762 71.5501 204.817 72.3019C205.872 73.0534 206.628 74.143 207.361 75.2114C210.049 79.1347 212.723 83.1111 214.599 87.4797C214.814 87.9795 215.354 88.2405 215.89 88.1436C216.846 87.9701 217.828 87.9403 218.793 88.0531C218.99 88.0761 219.212 88.1212 219.315 88.2899C219.43 88.4767 219.333 88.7344 219.161 88.8702C218.989 89.006 218.765 89.0504 218.55 89.0908C217.965 89.2005 217.381 89.3099 216.797 89.4196C216.835 89.4448 216.873 89.4697 216.91 89.4948C217.573 89.4125 218.156 89.3652 218.811 89.4979C219.002 89.5368 219.2 89.589 219.344 89.7198C219.488 89.851 219.558 90.0838 219.45 90.246C219.379 90.3538 219.249 90.4063 219.127 90.4489C218.21 90.7684 217.223 90.8846 216.257 90.7864C217.303 90.903 218.407 91.2796 219.361 91.7244C219.563 91.8185 219.799 92.0168 219.699 92.2163C219.642 92.3313 219.499 92.3698 219.372 92.3928C218.271 92.593 217.129 92.5566 216.043 92.2866C215.979 92.2704 216.054 92.2645 216.083 92.3245C216.112 92.3845 216.18 92.4127 216.242 92.4364C216.914 92.6934 217.557 93.0262 218.155 93.4259C218.5 93.6568 218.306 94.1947 217.891 94.1724C217.598 94.1565 217.298 94.0847 217.021 93.9977C216.185 93.7345 215.385 93.3619 214.645 92.8926C214.782 93.4038 214.759 93.7727 214.896 94.2839C214.958 94.5158 214.946 94.8623 214.707 94.8819C214.596 94.8909 214.5 94.8123 214.418 94.7377C213.606 93.9971 212.891 93.1508 212.297 92.2272C210.116 88.8397 206.231 86.7705 204.038 83.3914C201.845 80.0123 200.347 75.6736 201.151 71.7261Z" fill="#FF9688"/>
<path d="M214.598 87.4797C214.813 87.9795 215.353 88.2405 215.889 88.1436C216.845 87.9701 217.827 87.9403 218.793 88.0531C218.989 88.0761 219.211 88.1212 219.315 88.2899C219.429 88.4767 219.332 88.7344 219.16 88.8702C218.989 89.006 218.764 89.0504 218.549 89.0908C217.965 89.2005 217.38 89.3099 216.796 89.4196C216.834 89.4448 216.872 89.4697 216.91 89.4948C217.572 89.4125 218.156 89.3652 218.81 89.4979C219.001 89.5368 219.199 89.589 219.343 89.7198C219.488 89.851 219.558 90.0838 219.45 90.246C219.378 90.3538 219.249 90.4063 219.126 90.4489C218.209 90.7684 217.222 90.8846 216.256 90.7864C217.302 90.903 218.406 91.2796 219.36 91.7244C219.563 91.8185 219.798 92.0168 219.698 92.2163C219.641 92.3313 219.498 92.3698 219.371 92.3928C218.271 92.593 217.128 92.5566 216.043 92.2866C215.978 92.2704 216.054 92.2645 216.082 92.3245C216.111 92.3845 216.179 92.4127 216.242 92.4364C216.913 92.6934 217.556 93.0262 218.154 93.4259C218.499 93.6568 218.305 94.1947 217.89 94.1724C217.597 94.1565 217.297 94.0847 217.02 93.9977C216.185 93.7345 215.384 93.3619 214.644 92.8926C214.781 93.4038 214.759 93.7727 214.895 94.2839C214.957 94.5158 214.946 94.8623 214.706 94.8819C214.596 94.8909 214.499 94.8123 214.417 94.7377C213.606 93.9971 212.891 93.1508 212.296 92.2272" stroke="#0D1106" stroke-width="0.310779" stroke-miterlimit="10" stroke-linecap="round" stroke-linejoin="round"/>
<path d="M204.92 71.8327C206.615 72.9381 207.76 74.6896 208.855 76.3905C209.273 77.0404 209.709 77.7577 209.63 78.5265C209.56 79.2171 209.084 79.7954 208.578 80.27C207.586 81.2005 206.39 81.9128 205.099 82.3426C204.688 82.4793 204.242 82.5881 203.826 82.47C203.266 82.3115 202.897 81.7885 202.608 81.2831C201.148 78.7257 200.58 75.783 200.145 72.9039C199.996 71.9191 199.776 70.6797 201.062 70.4786C202.216 70.2983 203.992 71.2269 204.92 71.8327Z" fill="#FFBD63"/>
<path d="M124.427 98.6538C124.132 99.4034 123.829 100.274 124.219 100.979C124.548 101.574 125.256 101.828 125.903 102.035C126.788 102.318 127.82 102.583 128.591 102.063C129.11 101.713 129.363 101.092 129.589 100.507C130.278 98.7191 130.968 96.9315 131.657 95.1436C131.715 94.9935 131.77 94.8135 131.679 94.6811C131.619 94.5944 131.513 94.5553 131.413 94.5226C130.268 94.1463 127.473 93.3261 126.323 94.0179C125.228 94.6765 124.896 97.4642 124.427 98.6538Z" fill="#AA5F35"/>
<path d="M122.907 101.716C122.141 102.492 121.079 103.183 121.001 104.271C120.989 104.425 121.002 104.588 121.08 104.722C121.166 104.871 121.32 104.965 121.47 105.047C122.144 105.411 122.887 105.645 123.647 105.732C124.048 105.777 124.466 105.78 124.84 105.627C125.215 105.474 125.511 105.177 125.795 104.888C126.654 104.017 127.513 103.145 128.372 102.273C128.986 101.649 129.652 100.861 129.457 100.007C129.076 100.686 128.32 101.138 127.542 101.151C127.427 101.153 127.303 101.143 127.214 101.07C127.055 100.939 127.092 100.693 127.102 100.487C127.142 99.7294 126.55 98.9898 125.802 98.862C124.151 98.5789 123.797 100.813 122.907 101.716Z" fill="#495638"/>
<path d="M122.474 102.127C123.186 102.168 124.149 102.216 124.674 102.7C124.9 102.909 125.067 103.187 125.331 103.345C125.595 103.503 126.02 103.463 126.114 103.17C126.15 103.057 126.128 102.934 126.098 102.82C125.798 101.682 124.674 100.817 123.497 100.819C123.202 101.235 122.769 101.712 122.474 102.127Z" fill="#C7D976"/>
<path d="M125.94 102.837C125.94 103.032 125.782 103.19 125.588 103.19C125.393 103.19 125.235 103.032 125.235 102.837C125.235 102.643 125.393 102.485 125.588 102.485C125.782 102.485 125.94 102.642 125.94 102.837Z" fill="#495638"/>
<path d="M149.455 97.9838C149.75 98.7334 150.052 99.6036 149.663 100.309C149.334 100.904 148.626 101.158 147.979 101.365C147.094 101.648 146.061 101.913 145.291 101.393C144.772 101.043 144.518 100.422 144.293 99.8373C143.603 98.0494 142.914 96.2618 142.225 94.4738C142.167 94.3237 142.111 94.1441 142.203 94.0114C142.263 93.9247 142.369 93.8855 142.469 93.8529C143.614 93.4766 146.409 92.6564 147.559 93.3482C148.654 94.0067 148.986 96.7941 149.455 97.9838Z" fill="#AA5F35"/>
<path d="M150.975 101.046C151.74 101.822 152.802 102.513 152.881 103.6C152.892 103.756 152.879 103.918 152.801 104.052C152.715 104.201 152.562 104.295 152.411 104.376C151.738 104.741 150.995 104.975 150.234 105.062C149.834 105.107 149.415 105.11 149.042 104.957C148.667 104.804 148.371 104.507 148.086 104.218C147.228 103.347 146.369 102.475 145.51 101.603C144.895 100.979 144.23 100.191 144.424 99.3372C144.805 100.016 145.562 100.467 146.34 100.481C146.455 100.483 146.579 100.473 146.667 100.4C146.826 100.269 146.79 100.023 146.779 99.8171C146.74 99.0594 147.331 98.3197 148.079 98.192C149.73 97.9089 150.085 100.143 150.975 101.046Z" fill="#495638"/>
<path d="M151.408 101.458C150.695 101.498 149.732 101.547 149.208 102.031C148.982 102.24 148.815 102.517 148.551 102.675C148.287 102.833 147.861 102.794 147.768 102.5C147.732 102.388 147.754 102.264 147.784 102.15C148.084 101.012 149.208 100.147 150.385 100.149C150.68 100.565 151.113 101.042 151.408 101.458Z" fill="#C7D976"/>
<path d="M147.941 102.167C147.941 102.362 148.099 102.52 148.294 102.52C148.488 102.52 148.646 102.362 148.646 102.167C148.646 101.973 148.488 101.815 148.294 101.815C148.099 101.815 147.941 101.973 147.941 102.167Z" fill="#495638"/>
<path d="M129.647 74.6306C127.293 80.5435 125.557 86.7025 124.477 92.9746C124.409 93.3721 124.345 93.7929 124.489 94.1696C124.67 94.6407 125.133 94.935 125.579 95.1703C127.656 96.2658 130.023 96.8053 132.369 96.7183C133.426 93.3404 134.764 89.6652 135.328 86.1708C135.364 85.9464 135.437 85.6776 135.656 85.6182C135.758 85.5908 135.865 85.6188 135.967 85.6427C136.581 85.7876 137.227 85.796 137.844 85.667C138.937 89.0094 139.92 92.3748 141.169 95.6616C141.263 95.9075 141.373 96.1729 141.603 96.3003C141.779 96.3979 141.991 96.3948 142.192 96.3861C144.85 96.2714 147.483 95.6041 149.874 94.4393C147.929 84.8005 146.693 81.0041 144.804 74.6474C140.619 74.1184 133.839 74.1666 129.647 74.6306Z" fill="#7777CF"/>
<path d="M135.044 84.9426C135.044 84.9426 136.729 86.2718 139.354 84.9426" stroke="#0D1106" stroke-width="0.310779" stroke-miterlimit="10" stroke-linecap="round" stroke-linejoin="round"/>
<path d="M150.386 63.0532C150.419 62.9236 150.451 62.7943 150.484 62.6647C152.695 65.5043 155.191 68.1204 157.925 70.4603C158.715 70.1756 159.594 69.9783 160.426 70.0932C160.776 70.1417 160.827 70.6312 160.502 70.7692C159.872 71.0368 159.232 71.2807 158.584 71.5011C159.038 71.4457 159.249 71.5433 159.695 71.645C159.945 71.7018 160.19 71.8184 160.382 71.9862C160.599 72.1755 160.477 72.5347 160.193 72.5838C159.534 72.6985 158.858 72.7153 158.194 72.6323C159.031 72.6649 159.455 73.0786 160.025 73.6914C160.082 73.753 160.139 73.8235 160.143 73.9074C160.152 74.0858 159.932 74.1753 159.755 74.1986C159.066 74.2884 158.35 74.1626 157.733 73.8428C157.665 73.8074 157.587 73.748 157.604 73.6728C157.621 73.5979 157.774 73.6541 157.714 73.7029C158.402 74.0162 158.568 74.2555 159.038 74.8478C159.175 75.0216 159.307 75.2503 159.217 75.4532C159.094 75.7342 158.69 75.7056 158.394 75.6217C157.385 75.3348 156.404 74.9501 155.469 74.4746C155.084 74.2785 154.632 74.5697 154.658 75.0014L154.714 75.9349C154.732 76.224 154.709 76.5839 154.444 76.7023C154.068 76.8707 153.756 76.3629 153.675 75.9586C153.509 75.1294 153.461 74.2766 153.536 73.4344C151.757 71.066 149.32 68.875 146.993 67.0433C145.97 66.2386 144.813 65.1447 145.339 63.8164C145.442 63.5585 145.609 63.3282 145.812 63.1392C146.503 62.4969 147.402 62.3157 148.281 62.1463C148.71 62.0636 149.154 61.9819 149.581 62.077C150.008 62.1724 150.328 62.6199 150.386 63.0532Z" fill="#AA5F35"/>
<path d="M157.924 70.4603C158.714 70.1756 159.594 69.9782 160.425 70.0932C160.775 70.1417 160.827 70.6312 160.502 70.7692C159.872 71.0368 159.232 71.2807 158.583 71.5011C159.037 71.4457 159.248 71.5433 159.694 71.645C159.945 71.7018 160.19 71.8184 160.382 71.9862C160.598 72.1755 160.476 72.5347 160.193 72.5838C159.534 72.6985 158.858 72.7153 158.194 72.6323C159.03 72.6649 159.454 73.0786 160.024 73.6914C160.081 73.753 160.139 73.8235 160.143 73.9074C160.151 74.0858 159.932 74.1753 159.754 74.1986C159.065 74.2884 158.349 74.1626 157.732 73.8428C157.664 73.8074 157.586 73.748 157.603 73.6728C157.62 73.5979 157.773 73.6541 157.714 73.7029C158.401 74.0162 158.568 74.2555 159.037 74.8478C159.175 75.0216 159.306 75.2503 159.217 75.4532C159.093 75.7342 158.689 75.7056 158.394 75.6217C157.385 75.3348 156.404 74.9501 155.469 74.4746C155.083 74.2785 154.631 74.5697 154.657 75.0014L154.714 75.9349C154.731 76.224 154.708 76.5839 154.444 76.7023C154.067 76.8707 153.755 76.3629 153.674 75.9586C153.508 75.1294 153.461 74.2766 153.535 73.4344" stroke="#0D1106" stroke-width="0.310779" stroke-miterlimit="10" stroke-linecap="round" stroke-linejoin="round"/>
<path d="M124.772 64.5029C124.724 64.3783 124.675 64.254 124.627 64.1294C122.782 67.2185 120.624 70.1212 118.199 72.779C117.38 72.5935 116.483 72.5052 115.672 72.7215C115.331 72.8126 115.339 73.3048 115.679 73.4018C116.337 73.5898 117.002 73.7539 117.672 73.8931C117.215 73.8941 117.017 74.0168 116.587 74.1722C116.346 74.2595 116.117 74.405 115.947 74.5952C115.755 74.8096 115.921 75.1512 116.208 75.1651C116.876 75.1981 117.549 75.1319 118.198 74.9678C117.372 75.103 117.001 75.5651 116.511 76.2435C116.462 76.3116 116.413 76.3887 116.42 76.4723C116.433 76.6504 116.662 76.7122 116.841 76.7134C117.536 76.7181 118.231 76.5052 118.804 76.1121C118.867 76.0686 118.937 75.9999 118.911 75.9275C118.886 75.8551 118.741 75.93 118.805 75.971C118.162 76.3663 118.026 76.6243 117.633 77.2694C117.517 77.4587 117.415 77.7017 117.528 77.8922C117.686 78.1561 118.083 78.0781 118.366 77.9584C119.332 77.5501 120.258 77.0478 121.128 76.4614C121.487 76.2196 121.971 76.453 121.998 76.8847L122.056 77.8183C122.074 78.1073 122.141 78.4616 122.418 78.5467C122.812 78.6676 123.06 78.1253 123.09 77.7142C123.154 76.871 123.095 76.0189 122.919 75.1922C124.393 72.6236 126.543 70.1501 128.628 68.0464C129.544 67.1225 130.559 65.8949 129.873 64.6412C129.74 64.3979 129.545 64.1897 129.321 64.0271C128.556 63.4743 127.642 63.4047 126.749 63.3444C126.313 63.3148 125.862 63.2884 125.451 63.4351C125.039 63.5827 124.776 64.066 124.772 64.5029Z" fill="#AA5F35"/>
<path d="M118.199 72.7793C117.38 72.5938 116.483 72.5055 115.672 72.7218C115.331 72.8129 115.339 73.3051 115.679 73.4021C116.337 73.5901 117.002 73.7542 117.672 73.8935C117.215 73.8944 117.017 74.0171 116.587 74.1725C116.346 74.2599 116.117 74.4053 115.947 74.5955C115.755 74.8099 115.921 75.1515 116.208 75.1655C116.876 75.1984 117.549 75.1322 118.198 74.9681C117.372 75.1033 117.001 75.5654 116.511 76.2439C116.462 76.3119 116.413 76.389 116.42 76.4726C116.433 76.6507 116.662 76.7125 116.841 76.7138C117.536 76.7184 118.231 76.5055 118.804 76.1124C118.867 76.0689 118.937 76.0002 118.911 75.9278C118.886 75.8554 118.741 75.9303 118.805 75.9713C118.162 76.3666 118.026 76.6246 117.633 77.2698C117.517 77.459 117.415 77.702 117.528 77.8926C117.686 78.1564 118.083 78.0784 118.366 77.9588C119.332 77.5504 120.258 77.0482 121.128 76.4617C121.487 76.2199 121.971 76.4533 121.998 76.885L122.056 77.8186C122.074 78.1076 122.141 78.4619 122.418 78.5471C122.812 78.6679 123.06 78.1256 123.09 77.7145C123.154 76.8713 123.095 76.0192 122.919 75.1925" stroke="#0D1106" stroke-width="0.310779" stroke-miterlimit="10" stroke-linecap="round" stroke-linejoin="round"/>
<path d="M151.284 62.6628C151.088 64.9191 149.239 66.9276 147.007 67.309C146.406 66.4438 145.196 66.6153 144.93 65.5956C145.324 69.5581 146.378 72.2737 146.276 76.2547C140.516 78.4753 133.875 77.8089 128.418 74.924C128.886 71.9324 129.574 68.9751 130.475 66.0842C129.881 67.014 129.183 67.8777 128.398 68.6537C126.578 67.9669 124.926 66.8397 123.623 65.3955C125.389 60.8382 129.508 57.2674 134.27 56.1651C140.483 54.7261 147.772 57.3395 151.284 62.6628Z" fill="#EB745C"/>
<path d="M139.798 70.073C138.882 71.3941 137.068 71.723 135.747 70.8071C134.426 69.8912 134.097 68.0778 135.013 66.7567C135.929 65.4356 137.742 65.1068 139.064 66.0226C140.385 66.9382 140.714 68.7519 139.798 70.073Z" fill="white"/>
<path d="M137.297 65.0857C137.312 65.1354 137.325 65.1854 137.335 65.2358" stroke="#EB745C" stroke-width="0.310779" stroke-miterlimit="10"/>
<path d="M137.37 65.5608C137.378 66.1529 137.099 66.7511 136.695 67.199C136.182 67.768 135.494 68.1422 134.82 68.5058C134.73 68.5539 134.635 68.6027 134.537 68.6329" stroke="#EB745C" stroke-width="0.310779" stroke-miterlimit="10" stroke-dasharray="0.33 0.33"/>
<path d="M134.376 68.6627C134.324 68.6649 134.273 68.659 134.223 68.6425" stroke="#EB745C" stroke-width="0.310779" stroke-miterlimit="10"/>
<path d="M140.685 67.4346C140.633 67.438 140.582 67.4436 140.531 67.4517" stroke="#EB745C" stroke-width="0.310779" stroke-miterlimit="10"/>
<path d="M140.215 67.5331C139.658 67.7329 139.196 68.2044 138.918 68.7398C138.565 69.4198 138.456 70.1958 138.352 70.9547C138.339 71.0554 138.327 71.162 138.333 71.264" stroke="#EB745C" stroke-width="0.310779" stroke-miterlimit="10" stroke-dasharray="0.33 0.33"/>
<path d="M138.36 71.4246C138.376 71.4737 138.4 71.5197 138.433 71.5611" stroke="#EB745C" stroke-width="0.310779" stroke-miterlimit="10"/>
<path d="M133.707 58.1746C134.057 58.8595 134.749 59.3272 135.489 59.5376C136.229 59.7477 137.016 59.725 137.779 59.6215C138.739 59.4913 139.81 59.128 140.173 58.2296C140.334 57.8305 140.325 57.3839 140.272 56.9569C140.217 56.5231 140.105 56.0684 139.79 55.7651C139.382 55.372 138.755 55.3387 138.189 55.3636C136.629 55.4322 132.39 55.5976 133.707 58.1746Z" fill="white"/>
<path d="M151.285 62.6628C151.062 62.3256 150.824 61.9993 150.573 61.6842C149.841 63.7891 148.548 65.1021 147.05 66.7026C146.95 66.8092 146.858 66.9267 146.777 67.0492C146.86 67.1247 146.938 67.2092 147.007 67.3087C149.24 66.9276 151.089 64.9191 151.285 62.6628Z" fill="white"/>
<path d="M129.188 67.8012C128.613 67.3882 127.955 67.0942 127.324 66.7667C126.204 66.1855 125.199 65.4527 124.252 64.6232C124.182 64.5626 124.115 64.4936 124.047 64.4231C123.895 64.7423 123.752 65.0651 123.624 65.3952C124.927 66.8394 126.579 67.9666 128.399 68.6534C128.674 68.3808 128.935 68.0943 129.188 67.8012Z" fill="white"/>
<path d="M139.351 54.2686C139.358 54.1716 139.362 54.065 139.304 53.987C139.246 53.9106 139.145 53.8845 139.051 53.8637C137.682 53.5575 135.852 53.5153 134.594 54.1331C134.442 55.1394 134.291 56.146 134.139 57.1523C134.112 57.3273 134.086 57.5075 134.125 57.6803C134.167 57.8634 134.278 58.0234 134.408 58.1596C134.849 58.6232 135.488 58.8389 136.113 58.975C136.63 59.0875 137.171 59.1565 137.687 59.0403C137.687 59.0403 138.213 58.92 138.627 58.6121C139.04 58.3041 139.187 56.1485 139.187 56.1485L139.293 54.9744L139.351 54.2686Z" fill="#AA5F35"/>
<path d="M134.593 54.1329C134.5 54.7544 134.406 55.376 134.312 55.9975C134.386 56.0373 134.457 56.0728 134.521 56.101C135.332 56.4606 136.24 56.5408 137.128 56.5371C137.724 56.5346 138.33 56.4942 138.888 56.2847C138.99 56.2462 139.09 56.1992 139.187 56.1483C139.248 55.4916 139.309 54.8355 139.351 54.2684C139.358 54.1714 139.362 54.0648 139.304 53.9868C139.246 53.9104 139.144 53.8843 139.051 53.8634C137.682 53.5573 135.852 53.5147 134.593 54.1329Z" fill="black"/>
<path d="M139.247 54.9807C135.2 55.5603 130.907 53.9934 128.185 50.9424C127.554 50.2354 127.04 49.3808 127.082 48.4345C126.847 48.5302 126.595 48.5858 126.341 48.5982C125.754 48.6265 125.175 48.4245 124.666 48.1314C124.112 47.8129 123.614 47.3741 123.308 46.8137C122.749 45.7907 122.946 44.4096 123.77 43.5844C124.593 42.759 125.974 42.5589 126.998 43.1158C126.669 39.2354 128.416 35.1832 131.338 32.6077C132.516 31.5685 133.916 30.7449 135.452 30.4108C136.987 30.0767 138.665 30.2641 139.999 31.0964C141.552 32.0657 145.275 30.3888 146.787 31.4224C148.673 32.7122 149.05 34.5992 149.53 38.2002C149.832 40.4652 149.666 43.278 149.327 45.5377C149.129 46.8594 148.794 48.17 148.214 49.3743C146.639 52.6436 142.84 54.466 139.247 54.9807Z" fill="#AA5F35"/>
<path d="M125.127 44.8894C125.464 44.6069 125.971 44.5479 126.364 44.7449C126.757 44.9419 127.013 45.3845 126.988 45.8233C126.836 45.4597 126.339 45.2925 125.998 45.4911C125.657 45.6893 125.557 46.2049 125.799 46.5163C126.04 46.8277 126.564 46.8591 126.841 46.5788" stroke="#0D1106" stroke-width="0.310779" stroke-miterlimit="10" stroke-linecap="round" stroke-linejoin="round"/>
<path d="M140.746 45.1253C140.742 45.7338 140.819 46.3429 140.976 46.9309C141.413 46.9079 141.864 47.0515 142.178 47.3551C142.493 47.6587 142.654 48.1262 142.553 48.5513C142.456 48.9609 142.125 49.2972 141.728 49.4392C141.332 49.5812 140.882 49.5393 140.499 49.3631" stroke="#0D1106" stroke-width="0.310779" stroke-miterlimit="10" stroke-linecap="round" stroke-linejoin="round"/>
<path d="M145.773 38.7425C145.42 38.6872 145.058 38.6853 144.704 38.7372C144.531 38.7627 144.354 38.8034 144.215 38.9094C144.076 39.0154 143.985 39.2015 144.038 39.3684C144.079 39.4993 144.195 39.5909 144.312 39.6615C144.705 39.8977 145.183 39.9881 145.635 39.9123C145.851 39.8762 146.068 39.7979 146.218 39.6385C146.367 39.4791 146.43 39.2245 146.321 39.0353C146.193 38.8152 145.905 38.7618 145.653 38.7307C145.661 38.7922 145.668 38.8538 145.676 38.9156" fill="black"/>
<path d="M136.373 38.2229C136.019 38.1675 135.657 38.1657 135.304 38.2176C135.131 38.2431 134.953 38.2838 134.815 38.3897C134.676 38.4957 134.585 38.6819 134.637 38.8488C134.678 38.9796 134.794 39.0713 134.912 39.1418C135.305 39.378 135.783 39.4685 136.235 39.3926C136.45 39.3563 136.668 39.2783 136.818 39.1188C136.967 38.9594 137.03 38.7049 136.92 38.5156C136.793 38.2956 136.505 38.2421 136.253 38.211C136.26 38.2726 136.268 38.3341 136.276 38.396" fill="black"/>
<path opacity="0.58" d="M137.094 47.9369C137.054 49.2474 135.958 50.2774 134.648 50.2367C133.337 50.1963 132.307 49.1008 132.348 47.7902C132.388 46.4796 133.484 45.4497 134.794 45.4904C136.105 45.5312 137.134 46.6263 137.094 47.9369Z" fill="#FFBD63"/>
<path opacity="0.58" d="M147.768 48.7073C147.727 50.0179 146.632 51.0478 145.321 51.0071C144.011 50.9667 142.981 49.8712 143.022 48.5606C143.062 47.2501 144.158 46.2202 145.468 46.2609C146.779 46.3013 147.808 47.3968 147.768 48.7073Z" fill="#FFBD63"/>
<path d="M137.325 46.1266C136.705 47.2522 135.29 47.6618 134.164 47.0418C133.039 46.4218 132.629 45.0069 133.249 43.8812C133.869 42.7556 135.284 42.346 136.41 42.966C137.535 43.586 137.945 45.001 137.325 46.1266Z" fill="white"/>
<path d="M137.325 46.1266C137.345 46.0899 137.361 46.052 137.379 46.015C137.446 45.0914 136.788 44.2619 135.857 44.1323C134.887 43.9974 133.992 44.6743 133.857 45.6443C133.778 46.2133 133.98 46.7556 134.354 47.1348C135.445 47.6127 136.739 47.1895 137.325 46.1266Z" fill="black"/>
<path d="M146.791 46.4918C146.171 47.6174 144.756 48.027 143.63 47.407C142.505 46.787 142.095 45.372 142.715 44.2464C143.335 43.1208 144.75 42.7111 145.876 43.3312C147.001 43.9512 147.411 45.3664 146.791 46.4918Z" fill="white"/>
<path d="M146.792 46.4918C146.812 46.4551 146.828 46.4172 146.846 46.3802C146.913 45.4566 146.254 44.6271 145.324 44.4975C144.354 44.3626 143.459 45.0395 143.324 46.0094C143.244 46.5785 143.446 47.1208 143.821 47.4999C144.911 47.9782 146.206 47.555 146.792 46.4918Z" fill="black"/>
<path d="M136.441 49.7584C136.269 49.6919 136.08 49.6325 135.904 49.6844C135.642 49.7612 135.505 50.0555 135.48 50.3268C135.42 50.9993 135.844 51.6249 136.345 52.0774C136.961 52.6325 137.765 53.034 138.592 52.9768C139.419 52.9196 140.231 52.3065 140.333 51.4838C140.362 51.2483 140.33 50.9928 140.182 50.8063C139.84 50.3762 138.902 50.6279 138.424 50.5363C137.73 50.4029 137.094 50.011 136.441 49.7584Z" fill="black"/>
<path d="M140.181 50.8063C139.84 50.3762 138.901 50.6279 138.424 50.5363C137.731 50.4029 137.094 50.011 136.441 49.7584C136.269 49.6919 136.08 49.6325 135.904 49.6844C135.776 49.722 135.678 49.8128 135.608 49.9268C135.688 50.0692 135.815 50.2267 136.012 50.4032C136.91 51.211 138.417 51.5419 139.587 51.486C139.844 51.4736 140.109 51.4357 140.341 51.3331C140.342 51.1435 140.298 50.9533 140.181 50.8063Z" fill="white"/>
<path d="M149.077 28.3236C149.483 28.2046 149.621 27.666 149.485 27.2663C149.215 26.4779 148.071 26.164 147.436 26.7044C147.769 26.4213 146.856 25.9026 146.197 26.1488C146.194 26.1435 146.192 26.1379 146.189 26.1329C146.033 25.8722 145.762 25.7047 145.495 25.5592C145.493 25.5583 145.492 25.5574 145.49 25.5561C145.131 25.361 144.669 25.4974 144.483 25.8616C144.446 25.9337 144.414 26.0083 144.388 26.0851C144.259 25.6593 144.128 25.2261 143.879 24.8569C143.879 24.8569 143.878 24.8562 143.877 24.8559C143.551 24.7447 143.221 24.644 142.885 24.566C142.154 24.396 141.174 24.4336 140.917 25.1381C140.055 24.1405 138.373 24.0007 137.358 24.8423C136.883 24.4743 136.377 24.0936 135.782 24.0131C135.186 23.9326 134.487 24.2798 134.407 24.8755C134.291 24.7997 134.129 24.8019 134.014 24.8814C133.574 24.5563 132.793 24.5237 132.311 24.7835C131.83 25.0433 131.52 25.594 131.55 26.1407C131.143 25.737 130.414 25.8041 129.994 26.1935C129.573 26.5829 129.43 27.2045 129.495 27.7741C129.272 27.4168 128.703 27.5622 128.396 27.8503C127.818 28.3929 127.617 29.3001 127.911 30.0363C127.74 29.7174 127.239 29.8492 126.978 30.1003C126.234 30.8154 126.254 32.1683 127.019 32.861C126.027 35.883 125.944 39.4765 126.15 42.6508C126.877 42.9688 127.565 43.378 128.192 43.8663C128.349 43.424 128.351 42.9445 128.367 42.4755C128.453 40.0136 129.003 37.5687 129.981 35.3077C130.178 34.8531 130.396 34.3978 130.733 34.0348C131.37 33.3489 132.331 33.0844 133.248 32.8986C138.348 31.864 143.743 32.3348 148.586 34.2368C148.993 33.5842 148.815 32.6037 148.881 31.837C148.907 31.5333 148.994 31.2278 149.066 30.9254C149.071 30.9233 149.076 30.9217 149.081 30.9195C149.65 30.651 150.152 30.137 150.205 29.5098C150.257 28.8821 149.697 28.2164 149.077 28.3236Z" fill="black"/>
<path d="M64.5951 47.7349C62.314 50.4713 60.3209 53.5213 57.4758 55.665C56.4912 56.4065 55.4041 57.0405 54.6011 57.9756C53.798 58.9108 53.3259 60.2667 53.8303 61.3911C54.6057 63.1193 57.1724 63.4298 57.9705 65.1478C58.2726 65.7979 58.2627 66.5444 58.4274 67.2421C58.8668 69.1053 60.7066 70.537 62.6207 70.505C63.8374 70.4848 65.0227 69.9425 66.2332 70.0687C67.7249 70.2241 68.9053 71.3398 70.2037 72.0912C72.3904 73.3567 75.3285 73.5466 77.3653 72.0514C78.0683 71.5352 78.692 70.8204 79.5501 70.6657C80.2835 70.5333 81.0135 70.8459 81.715 71.098C84.364 72.0493 87.2972 72.1925 90.0261 71.5042C90.9501 71.2711 91.9023 70.909 92.485 70.1548C93.3592 69.0232 93.1277 67.3981 92.6538 66.0491C92.4443 65.4533 92.21 64.7435 92.586 64.2363C92.761 64.0004 93.0354 63.8646 93.2878 63.7142C94.2798 63.1221 95.066 62.141 95.2848 61.0064C95.5844 59.4522 94.7997 57.8644 93.7101 56.7164C92.6205 55.5683 91.2403 54.7467 89.987 53.7801C88.3492 52.5171 86.9143 50.9918 85.7535 49.28C85.2693 48.5662 84.8315 47.8185 84.2864 47.15C83.5778 46.2817 82.7008 45.5631 81.7697 44.9388C79.3649 43.3265 75.5404 41.5578 72.5451 41.9652C69.3755 42.3966 66.5222 45.4233 64.5951 47.7349Z" fill="#AA5F35"/>
<path d="M68.7284 128.144C68.8164 128.312 68.945 128.454 69.078 128.588C69.9153 129.435 70.9769 130.036 72.096 130.441C73.2154 130.846 74.3945 131.062 75.5758 131.208C76.037 131.265 76.5119 131.31 76.961 131.191C77.2351 131.117 77.4911 130.984 77.7211 130.817C78.0617 130.571 78.3694 130.188 78.3048 129.772C76.6536 129.65 74.9614 129.854 73.3624 129.425C72.2129 129.117 71.1798 128.494 70.2344 127.786C69.9221 127.552 69.3602 126.88 68.9394 126.901C68.4201 126.927 68.5671 127.838 68.7284 128.144Z" fill="#E35F0C"/>
<path d="M73.9323 124.643C73.9211 124.934 73.9118 125.235 74.0268 125.502C74.1521 125.792 74.4069 126.002 74.653 126.2C75.788 127.113 76.923 128.027 78.0579 128.94C78.2435 129.089 78.4414 129.259 78.4828 129.493C78.5747 130.013 77.8948 130.294 77.3692 130.343C75.7348 130.497 74.0722 130.342 72.494 129.89C71.5692 129.624 70.6474 129.241 69.9665 128.561C68.7771 127.374 68.5521 125.557 68.3924 123.884C68.1854 121.716 67.9784 119.548 67.7714 117.381C67.7326 116.975 67.7053 116.525 67.9511 116.199C68.1665 115.914 68.5357 115.801 68.8812 115.71C70.6838 115.237 73.67 114.94 74.1856 117.295C74.662 119.468 74.019 122.425 73.9323 124.643Z" fill="#F2986B"/>
<path d="M75.0315 130.314C74.9634 129.139 75.8836 128.343 76.9962 127.957C76.1751 127.329 75.3519 126.61 74.4789 126.056C73.205 126.573 71.9125 127.636 71.6586 128.987C71.6213 129.185 71.4998 129.49 71.6717 129.384C71.4998 129.466 71.3783 129.515 71.5362 129.622C72.4791 130.261 73.9006 130.447 75.0315 130.314Z" fill="#E35F0C"/>
<path d="M76.1818 106.513C75.9394 110.019 75.5882 113.517 75.1295 117.002C75.104 117.196 75.076 117.396 74.9756 117.565C74.7957 117.867 74.4296 117.996 74.089 118.083C71.788 118.67 69.2623 118.323 67.2049 117.137C67.1459 113.436 67.1229 109.64 67.5555 105.964C69.4584 105.414 71.2479 105.047 73.2288 105.027C74.2441 105.016 75.5291 105.735 76.1818 106.513Z" fill="#E35F0C"/>
<mask id="mask7_5_1772" style="mask-type:luminance" maskUnits="userSpaceOnUse" x="67" y="105" width="10" height="14">
<path d="M76.1818 106.513C75.9394 110.019 75.5882 113.517 75.1295 117.002C75.104 117.196 75.076 117.396 74.9756 117.565C74.7957 117.867 74.4296 117.996 74.089 118.083C71.788 118.67 69.2623 118.323 67.2049 117.137C67.1459 113.436 67.1229 109.64 67.5555 105.964C69.4584 105.414 71.2479 105.047 73.2288 105.027C74.2441 105.016 75.5291 105.735 76.1818 106.513Z" fill="white"/>
</mask>
<g mask="url(#mask7_5_1772)">
<path d="M66.5 107.891C66.5 107.891 72.5704 110.6 76.9966 106.905" stroke="white" stroke-width="0.310779" stroke-miterlimit="10"/>
<path d="M66.5 109.835C66.5 109.835 72.5704 112.545 76.9966 108.849" stroke="white" stroke-width="0.310779" stroke-miterlimit="10"/>
<path d="M66.5 111.779C66.5 111.779 72.5704 114.489 76.9966 110.793" stroke="white" stroke-width="0.310779" stroke-miterlimit="10"/>
<path d="M66.5 113.723C66.5 113.723 72.5704 116.433 76.9966 112.737" stroke="white" stroke-width="0.310779" stroke-miterlimit="10"/>
<path d="M66.5 115.667C66.5 115.667 72.5704 118.377 76.9966 114.681" stroke="white" stroke-width="0.310779" stroke-miterlimit="10"/>
</g>
<path d="M78.5946 123.779C78.6826 123.946 78.8112 124.088 78.9443 124.223C79.7815 125.069 80.8431 125.671 81.9622 126.076C83.0813 126.481 84.2607 126.696 85.442 126.842C85.9032 126.899 86.3781 126.945 86.8272 126.825C87.1013 126.752 87.3574 126.618 87.5873 126.452C87.9279 126.205 88.2356 125.822 88.171 125.407C86.5198 125.285 84.8276 125.489 83.2286 125.06C82.0791 124.751 81.0461 124.129 80.1007 123.42C79.7883 123.186 79.2264 122.514 78.8056 122.535C78.2863 122.561 78.4333 123.472 78.5946 123.779Z" fill="#E35F0C"/>
<path d="M83.7976 120.278C83.7864 120.568 83.7771 120.87 83.892 121.137C84.0173 121.427 84.2724 121.636 84.5183 121.834C85.6532 122.748 86.7882 123.661 87.9232 124.575C88.1084 124.724 88.3067 124.893 88.348 125.128C88.44 125.647 87.7597 125.928 87.2345 125.978C85.6001 126.131 83.9374 125.977 82.3593 125.524C81.4344 125.259 80.5126 124.875 79.8317 124.195C78.6424 123.009 78.4174 121.191 78.2576 119.519C78.0506 117.351 77.8437 115.183 77.6367 113.015C77.5978 112.609 77.5705 112.16 77.8163 111.834C78.0317 111.549 78.4009 111.436 78.7465 111.345C80.549 110.871 83.5353 110.574 84.0509 112.929C84.527 115.103 83.8843 118.059 83.7976 120.278Z" fill="#F2986B"/>
<path d="M84.8967 125.949C84.8287 124.773 85.7489 123.978 86.8615 123.592C86.0404 122.964 85.2171 122.245 84.3442 121.691C83.0706 122.208 81.7777 123.271 81.5238 124.622C81.4865 124.82 81.365 125.124 81.5369 125.018C81.365 125.1 81.2435 125.15 81.4014 125.256C82.3443 125.895 83.7658 126.082 84.8967 125.949Z" fill="#E35F0C"/>
<path d="M86.0467 102.148C85.8043 105.653 85.4531 109.152 84.9944 112.636C84.9689 112.83 84.941 113.031 84.8406 113.199C84.6606 113.501 84.2945 113.631 83.9539 113.718C81.6529 114.305 79.1272 113.958 77.0702 112.771C77.0111 109.07 76.9881 105.274 77.4207 101.598C79.3236 101.048 81.1131 100.682 83.094 100.661C84.109 100.651 85.3941 101.369 86.0467 102.148Z" fill="#E35F0C"/>
<mask id="mask8_5_1772" style="mask-type:luminance" maskUnits="userSpaceOnUse" x="77" y="100" width="10" height="14">
<path d="M86.0467 102.148C85.8043 105.653 85.4531 109.152 84.9944 112.636C84.9689 112.83 84.941 113.031 84.8406 113.199C84.6606 113.501 84.2945 113.631 83.9539 113.718C81.6529 114.305 79.1272 113.958 77.0702 112.771C77.0111 109.07 76.9881 105.274 77.4207 101.598C79.3236 101.048 81.1131 100.682 83.094 100.661C84.109 100.651 85.3941 101.369 86.0467 102.148Z" fill="white"/>
</mask>
<g mask="url(#mask8_5_1772)">
<path d="M76.3643 103.526C76.3643 103.526 82.4347 106.235 86.8608 102.539" stroke="white" stroke-width="0.310779" stroke-miterlimit="10"/>
<path d="M76.3643 105.47C76.3643 105.47 82.4347 108.179 86.8608 104.483" stroke="white" stroke-width="0.310779" stroke-miterlimit="10"/>
<path d="M76.3643 107.414C76.3643 107.414 82.4347 110.123 86.8608 106.427" stroke="white" stroke-width="0.310779" stroke-miterlimit="10"/>
<path d="M76.3643 109.358C76.3643 109.358 82.4347 112.067 86.8608 108.372" stroke="white" stroke-width="0.310779" stroke-miterlimit="10"/>
<path d="M76.3643 111.302C76.3643 111.302 82.4347 114.011 86.8608 110.315" stroke="white" stroke-width="0.310779" stroke-miterlimit="10"/>
</g>
<path d="M85.0818 81.9504C85.1135 82.3699 85.1511 82.8087 85.3764 83.164C85.6409 83.5813 86.1158 83.8091 86.5723 83.9984C87.794 84.505 89.0666 84.8888 90.3647 85.1421C91.0814 85.2819 91.8409 85.3972 92.4137 85.85C93.2158 86.4837 93.4337 87.6 93.4921 88.6203C93.5328 89.3339 93.5195 90.0695 93.2553 90.7336C92.9911 91.3977 92.4324 91.9823 91.7278 92.1026C90.7936 92.2623 89.9427 91.6128 89.0818 91.2169C87.3785 90.4334 85.2459 90.5549 83.8418 89.3127C82.7932 88.3851 82.4281 86.9275 82.116 85.5629C81.8848 84.5513 81.6536 83.5397 81.4224 82.5281C81.175 81.4454 80.9258 80.3461 80.9789 79.2363C81.032 78.1269 81.4267 76.9863 82.273 76.2665C83.2982 75.3942 84.5265 75.5107 84.749 76.839C85.0234 78.4793 84.9566 80.2846 85.0818 81.9504Z" fill="#F2986B"/>
<path d="M91.7152 86.5757C91.7611 86.6637 91.6446 86.747 91.5486 86.7715C91.3077 86.8334 91.0529 86.8383 90.8099 86.7861C90.5308 86.7261 90.271 86.5928 89.99 86.5434C89.7091 86.494 89.3772 86.5549 89.224 86.7958C89.0347 87.0935 89.2159 87.4953 89.4704 87.7396C89.6432 87.9055 89.8471 88.0354 90.0522 88.1591C90.2293 88.266 90.4096 88.3698 90.6023 88.4463C91.5278 88.8133 92.6904 88.4277 93.2125 87.5798" stroke="#0D1106" stroke-width="0.310779" stroke-miterlimit="10" stroke-linecap="round" stroke-linejoin="round"/>
<path d="M89.4747 87.7041C89.2898 87.715 89.1288 87.8567 89.0598 88.0286C88.9908 88.2005 89.0027 88.3963 89.0536 88.5743C89.2068 89.1082 89.696 89.4973 90.2274 89.658C90.7592 89.8187 91.3301 89.7826 91.8792 89.6987C92.1766 89.6534 92.484 89.589 92.7224 89.405C92.9707 89.2136 93.1115 88.9184 93.2439 88.6343" stroke="#0D1106" stroke-width="0.310779" stroke-miterlimit="10" stroke-linecap="round" stroke-linejoin="round"/>
<path d="M89.1765 88.8313C88.8962 88.9075 88.761 89.2568 88.834 89.5381C88.9071 89.8193 89.1311 90.0356 89.3686 90.2031C90.4084 90.9372 91.9005 90.9596 92.9621 90.2575" stroke="#0D1106" stroke-width="0.310779" stroke-miterlimit="10" stroke-linecap="round" stroke-linejoin="round"/>
<path d="M89.0065 89.9191C88.6873 90.0232 88.6018 90.4747 88.7697 90.7656C88.9375 91.0565 89.266 91.2122 89.5839 91.3197C90.387 91.5914 91.2559 91.665 92.0934 91.5326C92.393 91.4851 92.7128 91.3968 92.8974 91.156" stroke="#0D1106" stroke-width="0.310779" stroke-miterlimit="10" stroke-linecap="round" stroke-linejoin="round"/>
<path d="M88.9636 86.2615C88.7433 86.59 88.8331 87.0487 89.0578 87.3741C89.2828 87.6995 89.6175 87.9285 89.9249 88.1771C90.2326 88.4258 90.5315 88.721 90.6356 89.1023C90.6704 89.2298 90.6795 89.3749 90.6074 89.4855C90.5486 89.5757 90.4464 89.6269 90.3451 89.6639C89.8543 89.8432 89.2766 89.7612 88.8549 89.4526C88.4331 89.1443 88.1802 88.6181 88.2025 88.0963" fill="#FFAA9C"/>
<path d="M88.9636 86.2615C88.7433 86.59 88.8331 87.0487 89.0578 87.3741C89.2828 87.6995 89.6175 87.9285 89.9249 88.1771C90.2326 88.4258 90.5315 88.721 90.6356 89.1023C90.6704 89.2298 90.6795 89.3749 90.6074 89.4855C90.5486 89.5757 90.4464 89.6269 90.3451 89.6639C89.8543 89.8432 89.2766 89.7612 88.8549 89.4526C88.4331 89.1443 88.1802 88.6181 88.2025 88.0963" stroke="#0D1106" stroke-width="0.310779" stroke-miterlimit="10" stroke-linecap="round" stroke-linejoin="round"/>
<path d="M82.0147 69.6665C82.2508 69.5826 82.5038 69.5102 82.7496 69.559C82.9958 69.6075 83.2276 69.8145 83.2217 70.065C83.2174 70.2564 83.0834 70.4174 82.9569 70.5613C82.5762 70.9932 82.1955 71.4249 81.8148 71.8569C82.8848 71.4588 84.0661 71.3637 85.1862 71.5853C85.5986 71.667 86.089 71.8998 86.0793 72.3203C86.0722 72.6332 85.7797 72.8564 85.5038 73.0043C85.0513 73.247 84.5627 73.422 84.0593 73.5214C84.7486 73.481 85.5613 73.4956 85.9671 74.0544C86.2242 74.4081 86.2214 74.9286 85.9606 75.2795C85.7002 75.6304 85.2023 75.7836 84.7896 75.64C85.2032 75.9725 85.5218 76.4173 85.7173 76.9102C85.9426 77.4783 85.3372 78.0308 84.7908 77.757C84.292 77.5072 83.8026 77.2377 83.3246 76.9503C83.2714 77.4152 83.1133 77.9948 82.6496 78.0597C82.3525 78.1014 82.0818 77.8932 81.8714 77.6793C81.0761 76.8716 80.5751 75.8271 80.0881 74.8037C79.6487 73.8795 78.9003 72.3694 79.4178 71.336C79.8243 70.5252 81.2169 69.9497 82.0147 69.6665Z" fill="#E35F0C"/>
<path d="M80.1129 71.9026C81.246 73.6392 82.0304 75.6021 82.4061 77.6414C83.0183 80.9652 84.8473 88.221 85.3837 91.5578C85.8766 94.6239 87.1996 97.485 88.4915 100.309C88.906 101.215 89.324 102.25 88.9533 103.175C88.6994 103.808 88.1244 104.246 87.575 104.651C84.7671 106.718 79.6153 104.971 76.4149 106.354C73.2142 107.737 69.5949 108.402 66.2117 107.559C65.1137 107.285 63.9378 106.742 63.5549 105.677C63.3299 105.052 63.4256 104.362 63.5241 103.705C63.7382 102.276 63.9521 100.848 64.1662 99.4189C64.6078 96.4718 65.0513 93.5145 65.8835 90.6534C67.0589 86.6124 69.0072 82.7643 69.5169 78.5865C69.6918 77.1513 69.6946 75.6897 70.0284 74.2828C70.3622 72.8759 71.0925 71.4796 72.3474 70.7614C74.3461 69.6168 78.8231 69.926 80.1129 71.9026Z" fill="#C7D976"/>
<path d="M76.2133 90.0782C76.1363 89.9203 76.0962 89.7456 76.0089 89.593C75.7254 89.0967 75.0458 88.9889 74.4829 89.089C73.9201 89.1893 73.3822 89.4395 72.8106 89.4488C72.1207 89.46 71.4796 89.1207 70.8739 88.7903C69.715 88.1585 68.5623 87.2488 67.4034 86.617C67.8494 85.5197 69.7041 79.2127 69.8955 78.0408C69.7964 78.0591 69.6777 78.0793 69.5319 78.1085C69.2917 78.1567 71.097 72.0592 70.8561 72.0148C68.9389 71.662 66.6292 71.9862 65.6587 73.2374C64.8727 74.6732 61.1561 83.1021 60.3698 84.5376C59.8987 85.3982 59.4123 86.3302 59.5227 87.3048C59.6283 88.2408 60.2688 89.0268 60.96 89.6667C63.9528 92.4367 68.1393 93.4138 72.1226 94.2877C72.6922 94.4126 73.2028 94.867 73.5804 95.3117C73.7358 95.4947 73.876 95.7064 74.0935 95.8083C74.3524 95.9298 74.6579 95.8661 74.9292 95.7757C75.9085 95.4491 76.7923 94.7632 77.2231 93.8249C77.6538 92.8867 77.5705 91.6967 76.9042 90.9083C76.6711 90.632 76.3718 90.4029 76.2133 90.0782Z" fill="#F2986B"/>
<path d="M74.5996 89.4805C75.1248 89.7288 75.6448 89.9883 76.1588 90.259C76.5382 90.4589 76.9286 90.6767 77.1741 91.0285C77.4572 91.4341 77.5051 91.9559 77.5122 92.4506C77.5225 93.1558 77.4109 93.9672 76.8201 94.3523C76.6147 93.9834 76.6041 93.5427 76.5336 93.1263C76.463 92.7098 76.2927 92.262 75.9117 92.0796" stroke="#0D1106" stroke-width="0.310779" stroke-miterlimit="10" stroke-linecap="round" stroke-linejoin="round"/>
<path d="M74.665 92.4547C75.1809 92.9507 75.226 93.7416 75.3823 94.4399C75.4588 94.7818 75.6449 95.1793 75.9949 95.2001C76.2196 95.2135 76.425 95.0491 76.5266 94.8483C76.6282 94.6475 76.6469 94.4163 76.6577 94.1913" stroke="#0D1106" stroke-width="0.310779" stroke-miterlimit="10" stroke-linecap="round" stroke-linejoin="round"/>
<path d="M73.1182 93.2711C73.667 93.5769 73.9887 94.1751 74.1817 94.7731C74.2802 95.0783 74.3715 95.4179 74.6354 95.6001C74.8178 95.7259 75.0667 95.7496 75.2697 95.6597C75.4726 95.5699 75.6227 95.3704 75.6523 95.1504" stroke="#0D1106" stroke-width="0.310779" stroke-miterlimit="10" stroke-linecap="round" stroke-linejoin="round"/>
<path d="M72.0107 94.1111C72.43 94.2037 72.7544 94.5303 73.0257 94.8632C73.2971 95.1957 73.5525 95.559 73.922 95.7778C74.2915 95.9963 74.8211 96.0205 75.108 95.7014" stroke="#0D1106" stroke-width="0.310779" stroke-miterlimit="10" stroke-linecap="round" stroke-linejoin="round"/>
<path d="M75.0391 88.9491C75.5438 89.1293 75.9618 89.5377 76.1538 90.038" stroke="#0D1106" stroke-width="0.310779" stroke-miterlimit="10" stroke-linecap="round" stroke-linejoin="round"/>
<path d="M66.3202 70.8913C65.9177 70.9404 65.4957 71.0057 65.1749 71.2537C64.8542 71.5017 64.6851 71.994 64.9207 72.3243C65.0497 72.5055 65.2666 72.6 65.4761 72.6752C66.3898 73.0037 67.3749 73.1317 68.3421 73.0475C67.8433 73.2318 67.3442 73.4161 66.8451 73.6004C65.5727 74.0703 64.0912 74.7969 63.9629 76.1472C65.5643 76.1643 67.0763 75.4672 68.5251 74.7844C67.2413 75.47 66.2244 76.6404 65.725 78.0072C65.6775 78.1374 65.6343 78.2816 65.6821 78.4115C65.7315 78.5461 65.8667 78.6297 66.0004 78.6816C67.0297 79.0791 68.0639 78.1719 68.7967 77.3471C68.361 77.7713 67.9107 78.2185 67.7174 78.795C67.5241 79.3715 67.6814 80.1146 68.2243 80.3887C68.7343 80.6463 69.3854 80.3872 69.7456 79.9434C70.1057 79.4999 70.2406 78.919 70.3472 78.3578C70.6599 76.711 71.9135 73.7554 71.4735 72.1332C70.8787 69.9413 68.0347 70.6815 66.3202 70.8913Z" fill="#E35F0C"/>
<path d="M73.0014 69.3272C72.8895 70.1473 72.7655 70.9656 72.6291 71.782C72.5551 72.2249 72.7291 72.6746 73.089 72.9431C74.2709 73.8241 75.8521 74.1694 77.2796 73.7399C77.7053 73.6119 78.0904 73.3629 78.3567 73.0068C78.435 72.902 78.5022 72.7864 78.5354 72.6596C78.5637 72.5515 78.5665 72.4384 78.5693 72.3265C78.5942 71.2605 78.6193 70.1949 78.6442 69.1292C77.3147 68.8843 75.9199 68.898 74.5916 69.1503C74.3048 69.2047 74.0179 69.2709 73.7261 69.2787C73.4738 69.2852 73.2298 69.2196 73.0014 69.3272Z" fill="#F2986B"/>
<path d="M76.1414 72.0269C77.0977 71.9784 78.0465 71.4827 78.6071 70.7278C78.6171 70.3036 78.627 69.8797 78.6369 69.4555C77.5023 69.1252 76.2539 69.2936 75.0689 69.4701C74.6764 69.5285 74.2839 69.587 73.8917 69.6454C73.497 69.7041 73.1505 69.7912 72.9171 69.9158C72.8795 70.1775 72.8418 70.4388 72.8018 70.7002C72.8891 70.799 73.0075 70.9053 73.1629 71.0206C74.0188 71.6552 75.0614 72.0816 76.1414 72.0269Z" fill="black"/>
<path d="M78.5922 70.9143C74.4976 71.1098 70.3609 69.1392 67.9328 65.8365C67.3702 65.0714 66.9373 64.1695 67.07 63.2288C66.8258 63.3021 66.5687 63.3338 66.3139 63.322C65.7256 63.295 65.1671 63.0383 64.6867 62.6976C64.1642 62.3272 63.7087 61.8424 63.456 61.2538C62.9948 60.1797 63.3227 58.8201 64.2227 58.0742C65.1227 57.3283 66.5196 57.259 67.4893 57.912C67.5278 54.0076 69.6554 50.1285 72.8151 47.8343C74.0902 46.9085 75.5649 46.2189 77.1293 46.0309C78.6938 45.8429 80.3509 46.1888 81.603 47.1453C83.0618 48.2598 85.0048 48.6184 86.4157 49.7929C88.1763 51.2585 89.3178 53.3911 89.7911 55.6324C90.2644 57.8737 90.0994 60.2189 89.5468 62.4419C89.2236 63.7425 88.7655 65.0185 88.0728 66.1659C86.1916 69.2812 82.2273 70.7406 78.5922 70.9143Z" fill="#F2986B"/>
<path d="M65.5283 59.831C65.9239 59.5588 66.4821 59.5466 66.8892 59.8015C67.2963 60.0566 67.5288 60.5641 67.4564 61.0387C67.3287 60.6275 66.8047 60.3945 66.4137 60.575C66.0231 60.7556 65.8609 61.306 66.0915 61.6696C66.322 62.0332 66.8886 62.1215 67.219 61.8452" stroke="#0D1106" stroke-width="0.310779" stroke-miterlimit="10" stroke-linecap="round" stroke-linejoin="round"/>
<path d="M86.7136 55.0758C86.3233 55.0954 85.9361 55.1743 85.569 55.3086C85.3897 55.3741 85.2092 55.4574 85.0842 55.6016C84.9593 55.7458 84.9037 55.9652 84.9966 56.1321C85.0696 56.263 85.2144 56.3351 85.3558 56.3845C85.8285 56.5495 86.36 56.5399 86.8264 56.3577C87.049 56.271 87.2646 56.1386 87.389 55.9348C87.5133 55.7309 87.5235 55.4447 87.3641 55.2666C87.1792 55.0599 86.8591 55.0665 86.5828 55.0895C86.6046 55.1538 86.6266 55.2178 86.6484 55.2821" fill="black"/>
<path d="M76.489 55.4525C76.0987 55.472 75.7115 55.551 75.3444 55.6852C75.1651 55.7508 74.9845 55.8341 74.8596 55.9783C74.7347 56.1225 74.679 56.3419 74.772 56.5088C74.845 56.6396 74.9898 56.7117 75.1312 56.7611C75.6039 56.9262 76.1354 56.9165 76.6018 56.7344C76.8244 56.6477 77.04 56.5153 77.1643 56.3114C77.2887 56.1076 77.2989 55.8213 77.1395 55.6433C76.9546 55.4363 76.6345 55.4431 76.3579 55.4661C76.3796 55.5305 76.4017 55.5945 76.4234 55.6588" fill="black"/>
<path opacity="0.58" d="M78.8376 63.0084C78.8907 64.4402 77.7735 65.6438 76.3417 65.697C74.91 65.7501 73.7063 64.6329 73.6532 63.2011C73.6 61.7693 74.7173 60.5657 76.1491 60.5126C77.5808 60.4591 78.7845 61.5767 78.8376 63.0084Z" fill="#EB745C"/>
<path d="M79.3789 61.2702C78.8112 62.4164 77.422 62.8853 76.2758 62.3176C75.1297 61.7498 74.6607 60.3606 75.2285 59.2144C75.7963 58.0683 77.1855 57.5993 78.3316 58.1671C79.4775 58.7349 79.9464 60.1241 79.3789 61.2702Z" fill="white"/>
<path d="M79.3788 61.2702C79.5665 60.8911 79.6386 60.4855 79.6125 60.0914C79.2735 59.4823 78.6236 59.0696 77.8768 59.0696C76.7801 59.0696 75.8906 59.9587 75.8906 61.0558C75.8906 61.5586 76.079 62.0164 76.3872 62.3663C77.5107 62.8515 78.8294 62.3797 79.3788 61.2702Z" fill="black"/>
<path d="M78.6387 64.9147C79.8551 66.2365 81.8493 66.7819 83.5692 66.2632" stroke="#0D1106" stroke-width="0.310779" stroke-miterlimit="10" stroke-linecap="round" stroke-linejoin="round"/>
<path opacity="0.58" d="M87.8405 60.5595C86.4087 60.6126 85.2915 61.8163 85.3446 63.248C85.3977 64.6798 86.6014 65.797 88.0331 65.7439C88.1335 65.7402 88.232 65.7293 88.329 65.7147C88.8806 64.6885 89.2648 63.5746 89.546 62.4422C89.6371 62.0758 89.7132 61.705 89.7822 61.333C89.289 60.833 88.5975 60.5315 87.8405 60.5595Z" fill="#EB745C"/>
<path d="M88.4571 61.2702C87.8893 62.4164 86.5001 62.8853 85.3539 62.3176C84.2078 61.7498 83.7388 60.3606 84.3066 59.2144C84.8744 58.0683 86.2636 57.5993 87.4097 58.1671C88.5559 58.7349 89.0249 60.1241 88.4571 61.2702Z" fill="white"/>
<path d="M88.4576 61.2702C88.6453 60.8911 88.7177 60.4855 88.6913 60.0914C88.3522 59.4823 87.7024 59.0696 86.9556 59.0696C85.8589 59.0696 84.9697 59.9587 84.9697 61.0558C84.9697 61.5586 85.1581 62.0164 85.4663 62.3663C86.5895 62.8515 87.9081 62.3797 88.4576 61.2702Z" fill="black"/>
<path d="M81.0781 62.3713C81.0029 61.8651 81.5623 61.425 82.0698 61.4915C82.7125 61.5757 83.1551 62.3583 82.8959 62.9525" stroke="#0D1106" stroke-width="0.310779" stroke-miterlimit="10" stroke-linecap="round" stroke-linejoin="round"/>
<path d="M82.2164 42.2779C86.3249 43.5695 89.9387 47.1298 90.2149 51.4275C90.2358 51.7498 90.2165 52.1221 89.9632 52.3226C89.7404 52.4991 89.4231 52.4711 89.1428 52.4236C85.6614 51.8309 82.557 49.5753 79.0294 49.4081C79.3305 50.0701 78.7326 50.8551 78.0299 51.0428C77.3273 51.2305 76.5888 51.0127 75.8849 50.8293C75.1813 50.6459 74.405 50.502 73.7502 50.8181C73.1787 51.0941 72.8182 51.664 72.4878 52.206C71.6798 53.5318 70.8718 54.8576 70.0637 56.1834C69.4297 57.2236 68.4101 58.4207 67.2518 58.0434C66.3969 56.4218 66.3583 54.4775 66.7002 52.6766C67.042 50.8756 67.736 49.1641 68.2914 47.4169C68.6907 46.1614 68.9064 44.2843 69.688 43.2074C70.4056 42.2185 71.718 42.1688 72.8819 41.9606C75.9679 41.4087 79.1981 41.3288 82.2164 42.2779Z" fill="#AA5F35"/>
</svg>
