<svg width="278" height="188" viewBox="0 0 278 188" fill="none" xmlns="http://www.w3.org/2000/svg">
<rect width="278" height="188" rx="25" fill="white"/>
<path d="M159.643 101.24C159.643 101.24 160.086 95.1421 164.795 93.825C169.504 92.5075 172.102 92.4915 172.102 92.4915C172.102 92.4915 170.272 97.5505 167.702 99.3768C165.132 101.203 159.643 101.24 159.643 101.24Z" fill="#548B37"/>
<path d="M159.643 101.24C159.643 101.24 160.168 100.031 163.374 97.6738C166.58 95.3169 172.101 92.4912 172.101 92.4912L168.054 95.7232L169.355 95.7152C169.355 95.7152 165.013 97.5597 164.655 97.8455C164.297 98.1312 166.217 98.221 166.217 98.221C166.217 98.221 162.696 99.0054 162.596 99.2195C162.496 99.4333 163.577 99.6977 163.577 99.6977C163.577 99.6977 160.504 100.529 159.643 101.24Z" fill="#3F7937"/>
<path d="M159.643 101.24C159.643 101.24 161.482 97.5278 161.792 97.2804C161.792 97.2804 161.655 98.1673 161.939 98.1427C162.224 98.1181 164.112 95.8673 164.112 95.8673C164.112 95.8673 163.751 96.932 164.086 96.9358C164.421 96.9397 167.844 93.5974 167.844 93.5974C167.844 93.5974 167.215 94.5952 167.491 94.7921C167.766 94.989 172.101 92.4912 172.101 92.4912C172.101 92.4912 166.187 96.3065 164.449 97.39C162.711 98.4738 159.643 101.24 159.643 101.24Z" fill="#549837"/>
<path d="M159.899 99.721C159.899 99.721 161.435 93.1183 160.345 91.765C160.345 91.765 161.974 91.3671 162.625 91.9398C163.275 92.5126 160.699 99.9367 160.699 99.9367C160.699 99.9367 160.192 100.376 159.899 99.721Z" fill="#865F1A"/>
<path d="M160.274 99.6373C160.143 99.6104 160.014 99.573 159.887 99.5225C159.003 99.1732 158.568 98.2488 157.87 97.6591C155.79 95.8999 153.01 96.1473 150.818 97.5853C148.538 99.0818 146.522 101.755 146.159 104.503C145.596 108.765 146.987 114.265 150.638 116.888C153.446 118.904 157.436 119.312 160.775 119.63C164.383 119.972 166.883 118.153 168.902 115.283C171.143 112.098 172.626 107.398 171.252 103.581C170.554 101.642 168.943 100.263 167.004 99.6449C164.644 98.8929 162.513 100.097 160.274 99.6373Z" fill="#F67C17"/>
<path d="M170.023 107.194C170.121 104.481 168.639 101.873 165.64 101.287C160.579 100.299 159.598 101.643 155.691 99.3464C151.784 97.0503 148.004 98.7145 147.782 104.746C147.56 110.778 152.358 116.406 160.63 115.844C164.255 115.598 167.963 113.177 169.437 109.778C169.797 108.948 169.992 108.066 170.023 107.194Z" fill="#F68F17"/>
<path d="M159.539 102.527C159.539 102.527 155.035 97.981 151.717 99.6993C148.4 101.418 146.864 109.833 154.469 112.733C162.073 115.633 162.796 105.378 159.539 102.527Z" fill="#F69B17"/>
<path d="M161.083 99.7373C160.449 100.72 159.846 101.691 159.279 102.677C158.72 103.666 158.204 104.667 157.763 105.696C157.544 106.21 157.348 106.732 157.171 107.26C156.998 107.79 156.859 108.327 156.733 108.871C156.622 109.417 156.54 109.971 156.494 110.534C156.445 111.099 156.457 111.667 156.471 112.256C156.24 111.717 156.092 111.139 156.003 110.55C155.932 109.96 155.909 109.358 155.96 108.761C156.052 107.565 156.378 106.397 156.843 105.303C157.315 104.212 157.915 103.183 158.63 102.248C159.34 101.312 160.142 100.441 161.083 99.7373Z" fill="#F6AC17"/>
<path d="M155.456 98.9069C154.967 98.9833 154.53 99.0034 154.081 99.0945C153.638 99.1764 153.208 99.3042 152.803 99.4723C151.99 99.8006 151.287 100.317 150.778 100.977C150.524 101.307 150.326 101.678 150.175 102.068C150.027 102.46 149.867 102.842 149.723 103.246C149.564 103.644 149.433 104.061 149.276 104.485C149.211 104.7 149.134 104.916 149.054 105.135C148.978 105.356 148.903 105.579 148.798 105.805L148.676 105.801C148.597 105.567 148.548 105.33 148.497 105.091C148.466 104.852 148.437 104.61 148.425 104.367C148.411 103.882 148.443 103.391 148.55 102.906C148.644 102.42 148.842 101.948 149.1 101.514C149.366 101.082 149.696 100.689 150.048 100.328C150.402 99.9684 150.807 99.659 151.242 99.4158C151.681 99.177 152.147 99.0047 152.618 98.8906C153.56 98.6646 154.542 98.7001 155.427 98.7887L155.456 98.9069Z" fill="#F6F5FD"/>
<path d="M160.345 91.7647C160.345 91.7647 161.492 91.1926 162.625 91.9395C162.625 91.9395 161.385 92.7296 160.345 91.7647Z" fill="#AD5F1A"/>
<path d="M109.884 86.6597C109.495 84.5266 108.642 82.4302 109.099 80.2414C109.619 77.7509 111.28 75.8393 113.489 74.6388C116.025 73.2603 119.243 73.3373 121.631 75.0019C124.629 77.0925 125.536 80.8854 127.899 83.5166C129.695 85.5164 132.021 86.9256 133.713 89.0572C140.906 98.1168 136.603 110.941 124.695 112.02C120.566 112.394 116.208 111.372 113.05 108.684C106.085 102.755 110.846 94.9903 110.008 87.4875C109.977 87.2107 109.934 86.9349 109.884 86.6597Z" fill="#549837"/>
<path d="M111.844 85.9722C111.455 83.8391 110.602 81.7427 111.059 79.5539C111.578 77.0634 113.239 75.1515 115.448 73.9513C117.985 72.5728 121.203 72.6498 123.59 74.3144C126.589 76.405 127.496 80.1983 129.859 82.8291C131.655 84.8289 133.981 86.2381 135.673 88.3697C142.866 97.4293 138.563 110.254 126.655 111.333C122.525 111.707 118.167 110.684 115.01 107.996C108.045 102.067 112.806 94.3028 111.968 86.8C111.937 86.5232 111.894 86.2474 111.844 85.9722Z" fill="#7EAD2B"/>
<path d="M112.948 86.5926C112.598 84.672 111.83 82.785 112.241 80.8142C112.709 78.572 114.204 76.8509 116.193 75.7702C118.477 74.5292 121.374 74.5985 123.523 76.0969C126.223 77.9788 127.039 81.394 129.166 83.7627C130.784 85.5631 132.877 86.8317 134.401 88.751C140.876 96.9074 137.002 108.453 126.282 109.424C122.564 109.761 118.641 108.841 115.798 106.421C109.528 101.082 113.813 94.0925 113.059 87.3379C113.031 87.0886 112.993 86.8403 112.948 86.5926Z" fill="#E3E69A"/>
<path d="M113.711 87.0215C113.388 85.248 112.678 83.5054 113.058 81.6855C113.49 79.615 114.871 78.0255 116.708 77.0276C118.816 75.8815 121.492 75.9457 123.477 77.3294C125.97 79.0675 126.723 82.2208 128.688 84.408C130.181 86.0707 132.114 87.2421 133.521 89.0144C139.501 96.5462 135.924 107.208 126.024 108.105C122.591 108.416 118.968 107.566 116.343 105.331C110.553 100.402 114.511 93.9474 113.814 87.7097C113.788 87.4795 113.753 87.2504 113.711 87.0215Z" fill="#F2F3D1"/>
<path d="M120.532 86.7061C120.528 86.7109 116.169 91.4374 118.51 98.1539C119.483 100.945 121.826 103.568 125.052 103.834C127.512 104.037 130.253 102.738 131.453 100.592C132.615 98.5141 131.953 95.9965 131.034 94.0059C129.744 91.2102 125.787 85.3362 121.814 86.0326C121.315 86.1199 120.875 86.3337 120.532 86.7061Z" fill="#865F1A"/>
<path d="M122.794 88.1629C122.791 88.1654 120.27 90.8998 121.624 94.7845C122.187 96.3989 123.543 97.9161 125.408 98.0702C126.831 98.1878 128.417 97.4363 129.111 96.1946C129.783 94.9929 129.4 93.5367 128.869 92.3851C128.123 90.7678 125.834 87.3702 123.536 87.7729C123.247 87.8238 122.992 87.9475 122.794 88.1629Z" fill="#AD5F1A"/>
<path d="M123.28 87.8027C123.883 87.9912 124.451 88.2604 125.017 88.548C125.577 88.8475 126.118 89.1905 126.624 89.5948C127.123 89.9988 127.686 90.3983 128.003 91.0024C128.149 91.3099 128.295 91.6148 128.349 91.959C128.433 92.2857 128.422 92.6456 128.364 92.9812L128.255 93.0087C128 92.759 127.837 92.5155 127.628 92.2943C127.447 92.0648 127.239 91.858 127.068 91.6359C126.869 91.4281 126.714 91.1948 126.542 90.9599C126.389 90.7128 126.203 90.4814 126.01 90.257C125.807 90.0407 125.6 89.8246 125.378 89.6223C125.162 89.4136 124.938 89.2087 124.702 89.0163C124.241 88.6167 123.745 88.2508 123.232 87.9056L123.28 87.8027Z" fill="#F6F5FD"/>
<path d="M161.217 86.9819C162.784 83.9759 162.845 80.3862 161.634 76.9547C160.41 73.4865 157.897 70.1836 154.34 67.8206C150.782 65.4577 146.839 64.4713 143.291 64.7692C139.665 65.0735 136.455 66.7227 134.493 69.6274C134.488 69.6345 134.483 69.6415 134.479 69.6485L161.217 86.9819Z" fill="#E4C91B"/>
<path d="M160.128 86.2755C161.546 83.5226 161.595 80.243 160.489 77.1069C159.364 73.9209 157.056 70.8864 153.788 68.7156C150.52 66.5447 146.897 65.6386 143.638 65.9122C140.315 66.1912 137.373 67.6995 135.569 70.3549L160.128 86.2755Z" fill="#F2F3D1"/>
<path d="M147.826 77.5822L144.41 67.1641C147.23 67.0171 150.187 67.8347 152.821 69.49L147.826 77.5822Z" fill="#E4C91B"/>
<path d="M147.083 77.6624L136.943 70.9261C138.468 68.8517 140.831 67.5509 143.662 67.2265L147.083 77.6624Z" fill="#E4C91B"/>
<path d="M158.913 85.4873C160.079 83.1886 160.226 80.4277 159.328 77.6343L148.761 78.7769L156.836 84.1414L158.913 85.4873Z" fill="#E4C91B"/>
<path d="M153.515 69.9515C156.066 71.7401 158.019 74.1846 159.07 76.9033L148.521 78.0437L153.515 69.9515Z" fill="#E4C91B"/>
<path d="M141.141 73.1257C141.141 73.1257 138.617 71.6264 138.707 71.2802C138.798 70.9341 141.141 73.1257 141.141 73.1257Z" fill="#F5D71D"/>
<path d="M144.997 75.7865C144.997 75.7865 142.758 73.8752 142.929 73.57C143.1 73.2651 144.997 75.7865 144.997 75.7865Z" fill="#F5D71D"/>
<path d="M144.12 72.7917C144.12 72.7917 142.686 70.3421 142.986 70.1507C143.286 69.9589 144.12 72.7917 144.12 72.7917Z" fill="#F5D71D"/>
<path d="M142.474 72.6792C142.474 72.6792 140.499 70.5256 140.723 70.2581C140.946 69.9902 142.474 72.6792 142.474 72.6792Z" fill="#F5D71D"/>
<path d="M146.429 71.2495C146.429 71.2495 145.42 68.6855 145.762 68.5535C146.104 68.4212 146.429 71.2495 146.429 71.2495Z" fill="#F5D71D"/>
<path d="M147.687 75.3726C147.687 75.3726 147.237 72.7728 147.616 72.7185C147.994 72.6642 147.687 75.3726 147.687 75.3726Z" fill="#F5D71D"/>
<path d="M149.228 73.095C149.228 73.095 149.875 70.7423 150.277 70.8398C150.68 70.9373 149.228 73.095 149.228 73.095Z" fill="#F5D71D"/>
<path d="M147.908 71.9083C147.908 71.9083 147.868 69.3529 148.264 69.3555C148.659 69.358 147.908 71.9083 147.908 71.9083Z" fill="#F5D71D"/>
<path d="M152.375 73.8055C152.375 73.8055 153.473 71.6791 153.865 71.8383C154.258 71.9978 152.375 73.8055 152.375 73.8055Z" fill="#F5D71D"/>
<path d="M150.298 76.9762C150.298 76.9762 151.9 75.2109 152.265 75.4391C152.63 75.6673 150.298 76.9762 150.298 76.9762Z" fill="#F5D71D"/>
<path d="M153.353 76.7499C153.353 76.7499 155.702 75.8722 155.972 76.2017C156.241 76.5309 153.353 76.7499 153.353 76.7499Z" fill="#F5D71D"/>
<path d="M153.133 75.1841C153.133 75.1841 155.051 73.724 155.386 73.9951C155.722 74.2664 153.133 75.1841 153.133 75.1841Z" fill="#F5D71D"/>
<path d="M155.497 79.2972C155.497 79.2972 158.059 78.8539 158.272 79.2113C158.486 79.5686 155.497 79.2972 155.497 79.2972Z" fill="#F5D71D"/>
<path d="M151.302 79.6575C151.302 79.6575 154.018 79.7607 154.155 80.1378C154.292 80.515 151.302 79.6575 151.302 79.6575Z" fill="#F5D71D"/>
<path d="M154.082 81.6154C154.082 81.6154 156.758 82.7271 156.736 83.0953C156.714 83.4635 154.082 81.6154 154.082 81.6154Z" fill="#F5D71D"/>
<path d="M155.091 80.5879C155.091 80.5879 157.844 81.0782 157.923 81.4592C158.002 81.8401 155.091 80.5879 155.091 80.5879Z" fill="#F5D71D"/>
<path d="M188.043 95.3694L185.895 91.5189C185.895 91.5189 187.331 89.8054 188.585 90.6857C189.838 91.5659 191.218 93.2327 191.218 93.2327C191.218 93.2327 196.308 94.4997 200.464 100.513C204.619 106.527 203.957 117.521 192.689 127.453C181.422 137.384 166.789 131.32 165.532 130.214C164.274 129.109 165.538 127.229 166.037 126.714C166.535 126.199 183.886 123.037 188.783 112.705C193.679 102.372 186.617 97.6464 188.043 95.3694Z" fill="#E4C91B"/>
<path d="M166.036 126.714C166.036 126.714 167.683 128.671 166.016 130.529C166.016 130.529 163.376 129.751 166.036 126.714Z" fill="#865F1A"/>
<path d="M188.042 95.3694C188.042 95.3694 185.776 91.6471 185.894 91.5189C186.012 91.3907 186.889 89.8227 188.512 90.4354C190.134 91.0481 191.217 93.2324 191.217 93.2324C191.217 93.2324 190.477 92.9406 190.179 93.6089C189.881 94.2769 190.545 95.2208 190.067 95.2121C189.59 95.2032 189.191 94.2628 188.617 94.8161C188.042 95.3694 188.042 95.3694 188.042 95.3694Z" fill="#549837"/>
<path d="M192.113 96.3621C190.953 95.7743 189.849 95.6139 189.268 96.5542C188.941 97.0825 189.811 98.4202 190.017 98.8731C191.196 101.456 192.37 104.278 192.139 107.178C191.742 112.158 188.336 116.2 184.741 119.385C181.044 122.66 176.572 125.187 171.736 126.295C171.403 126.371 171.068 126.44 170.732 126.503C170.024 126.634 167.835 126.948 168.111 128.092C168.341 129.048 170.302 129.503 171.059 129.706C179.876 132.069 188.562 127.501 194.022 120.733C196.967 117.083 199.694 111.77 199.289 106.953C199.06 104.239 197.81 101.597 196.063 99.5321C195.532 98.905 193.766 97.1995 192.113 96.3621Z" fill="#F5D71D"/>
<path d="M191.006 99.316C191.514 99.8482 191.937 100.449 192.311 101.083C192.685 101.716 192.997 102.39 193.251 103.088C193.748 104.488 193.978 106.004 193.884 107.514C193.841 108.267 193.75 109.024 193.581 109.765C193.407 110.504 193.149 111.226 192.786 111.889C192.441 112.561 192.002 113.176 191.532 113.754C191.296 114.043 191.031 114.308 190.776 114.575C190.5 114.827 190.222 115.074 189.926 115.299L189.827 115.218C189.973 114.873 190.144 114.553 190.306 114.23C190.46 113.902 190.624 113.585 190.779 113.266C191.08 112.623 191.379 111.991 191.631 111.347C191.9 110.709 192.134 110.066 192.366 109.42C192.606 108.774 192.761 108.101 192.867 107.419C192.967 106.735 192.986 106.039 192.946 105.345C192.911 104.65 192.808 103.955 192.64 103.272C192.314 101.904 191.732 100.572 190.91 99.4007L191.006 99.316Z" fill="#F6F5FD"/>
<path d="M71.0457 97.7055L118.554 122.093C118.554 122.093 102.907 141.571 86.1577 133.552C69.4083 125.533 71.0457 97.7055 71.0457 97.7055Z" fill="#E90D11"/>
<path d="M116.783 121.184C113.081 125.13 101.604 135.693 89.4687 129.884C77.2803 124.049 76.1383 106.315 76.1105 100.305L71.0458 97.7055C71.0458 97.7055 69.408 125.533 86.1577 133.552C102.907 141.571 118.554 122.093 118.554 122.093L116.783 121.184Z" fill="#F2F3D1"/>
<path d="M117.32 121.459C114.228 124.902 101.754 137.391 88.5226 131.056C75.2497 124.702 74.6447 104.704 74.7128 99.5877L71.0458 97.7055C71.0458 97.7055 69.408 125.533 86.1577 133.552C102.907 141.571 118.554 122.093 118.554 122.093L117.32 121.459Z" fill="#548B37"/>
<path d="M89.355 131.638C102.586 137.972 115.061 125.484 118.152 122.041L118.465 122.202C118.523 122.132 118.554 122.093 118.554 122.093L117.319 121.459C114.228 124.902 101.753 137.391 88.5217 131.056C87.7869 130.704 87.0969 130.305 86.4375 129.874C87.3372 130.536 88.3022 131.134 89.355 131.638Z" fill="#8EBF3F"/>
<path d="M71.8789 98.2872L74.7113 99.7412C74.712 99.692 74.712 99.6348 74.7126 99.5881L71.0456 97.7059C71.0456 97.7059 69.5683 122.84 83.801 132.217C70.4613 122.427 71.8789 98.2872 71.8789 98.2872Z" fill="#8EBF3F"/>
<path d="M81.7697 103.21C81.7697 103.21 81.6674 118.089 86.4649 118.377C91.2621 118.665 90.4464 113.403 96.106 117.864C101.765 122.324 104.174 124.719 108.311 123.322C112.448 121.926 114.069 119.79 114.069 119.79L81.7697 103.21Z" fill="#E91B31"/>
<path d="M106.623 120.833C106.623 120.833 105.553 123.516 106.698 123.693C107.843 123.87 106.623 120.833 106.623 120.833Z" fill="#E91B31"/>
<path d="M106.534 120.595C106.534 120.595 105.465 123.278 106.609 123.455C107.754 123.632 106.534 120.595 106.534 120.595Z" fill="#865F1A"/>
<path d="M106.313 122.282C106.302 122.382 106.303 122.484 106.314 122.58C106.319 122.675 106.337 122.769 106.373 122.843C106.409 122.923 106.474 122.953 106.505 123.008C106.539 123.069 106.604 123.119 106.688 123.221L106.684 123.251C106.574 123.314 106.432 123.321 106.313 123.244C106.188 123.171 106.15 123.018 106.137 122.903C106.108 122.661 106.185 122.455 106.285 122.272L106.313 122.282Z" fill="#F6F5FD"/>
<path d="M97.951 123.563C97.951 123.563 96.0116 125.703 97.0222 126.269C98.0332 126.835 97.951 123.563 97.951 123.563Z" fill="#E91B31"/>
<path d="M97.951 123.31C97.951 123.31 96.0116 125.45 97.0222 126.016C98.0332 126.582 97.951 123.31 97.951 123.31Z" fill="#865F1A"/>
<path d="M97.1549 124.813C97.1095 124.903 97.0743 124.998 97.051 125.092C97.0232 125.184 97.0072 125.277 97.0145 125.359C97.02 125.446 97.0705 125.498 97.0807 125.56C97.0916 125.629 97.1347 125.698 97.1779 125.824L97.1638 125.851C97.0382 125.871 96.903 125.828 96.8183 125.714C96.7266 125.602 96.7448 125.446 96.7726 125.333C96.8301 125.097 96.9739 124.931 97.1312 124.794L97.1549 124.813Z" fill="#F6F5FD"/>
<path d="M100.397 116.422C100.397 116.422 99.2857 119.088 100.427 119.283C101.569 119.478 100.397 116.422 100.397 116.422Z" fill="#E91B31"/>
<path d="M100.312 116.184C100.312 116.184 99.2008 118.849 100.342 119.045C101.484 119.24 100.312 116.184 100.312 116.184Z" fill="#865F1A"/>
<path d="M100.065 117.867C100.052 117.967 100.051 118.068 100.06 118.164C100.064 118.26 100.081 118.353 100.115 118.428C100.15 118.508 100.215 118.54 100.245 118.596C100.278 118.657 100.342 118.708 100.425 118.812L100.42 118.842C100.309 118.903 100.167 118.907 100.049 118.829C99.9253 118.753 99.8901 118.6 99.8786 118.484C99.8537 118.242 99.9336 118.038 100.036 117.856L100.065 117.867Z" fill="#F6F5FD"/>
<path d="M93.4533 113.127C93.4533 113.127 90.8455 114.368 91.565 115.276C92.2841 116.184 93.4533 113.127 93.4533 113.127Z" fill="#E91B31"/>
<path d="M93.549 112.893C93.549 112.893 90.9412 114.134 91.6607 115.042C92.3802 115.95 93.549 112.893 93.549 112.893Z" fill="#865F1A"/>
<path d="M92.2412 113.98C92.1652 114.046 92.0964 114.121 92.0392 114.199C91.9788 114.272 91.9286 114.353 91.904 114.432C91.8759 114.514 91.9031 114.581 91.8887 114.643C91.8727 114.711 91.8861 114.791 91.8781 114.924L91.8548 114.943C91.7311 114.914 91.6225 114.823 91.5873 114.686C91.5451 114.547 91.6215 114.409 91.6899 114.316C91.8331 114.119 92.0293 114.02 92.2269 113.953L92.2412 113.98Z" fill="#F6F5FD"/>
<path d="M89.273 118.552C89.273 118.552 86.7173 119.898 87.4726 120.776C88.2282 121.654 89.273 118.552 89.273 118.552Z" fill="#E91B31"/>
<path d="M89.3599 118.314C89.3599 118.314 86.8042 119.66 87.5595 120.538C88.3151 121.416 89.3599 118.314 89.3599 118.314Z" fill="#865F1A"/>
<path d="M88.0959 119.453C88.0223 119.522 87.9568 119.6 87.9028 119.68C87.8453 119.756 87.7983 119.838 87.7769 119.918C87.7523 120.002 87.782 120.068 87.7702 120.13C87.7567 120.198 87.7737 120.278 87.7708 120.411L87.7484 120.431C87.6238 120.407 87.5113 120.32 87.4707 120.185C87.4231 120.048 87.4937 119.907 87.5586 119.811C87.6938 119.608 87.8859 119.502 88.0805 119.427L88.0959 119.453Z" fill="#F6F5FD"/>
<path d="M84.8287 109.62C84.8287 109.62 82.273 110.966 83.0283 111.844C83.7838 112.722 84.8287 109.62 84.8287 109.62Z" fill="#E91B31"/>
<path d="M84.9156 109.382C84.9156 109.382 82.3599 110.727 83.1152 111.605C83.8704 112.484 84.9156 109.382 84.9156 109.382Z" fill="#865F1A"/>
<path d="M83.6515 110.521C83.578 110.59 83.5125 110.668 83.4585 110.748C83.4009 110.824 83.354 110.906 83.3325 110.986C83.3079 111.07 83.3377 111.136 83.3258 111.198C83.3124 111.266 83.3293 111.346 83.3268 111.479L83.3041 111.499C83.1794 111.475 83.0669 111.388 83.0263 111.253C82.9787 111.116 83.0494 110.975 83.1142 110.879C83.2494 110.676 83.4415 110.57 83.6362 110.495L83.6515 110.521Z" fill="#F6F5FD"/>
<path d="M82.8421 57.0785C89.4301 51.9035 100.88 56.5767 104.267 63.6403C106.243 67.7637 104.004 71.4854 101.821 74.9597C98.9676 79.5028 98.6198 81.8961 98.8058 87.1529C98.9219 90.4367 96.9418 93.2909 93.4407 93.056C86.8424 92.6123 81.8011 86.9947 79.1303 81.377C76.0837 74.969 76.2854 67.6196 79.5234 61.2758C80.4344 59.4904 81.545 58.0975 82.8421 57.0785Z" fill="#F67C17"/>
<path d="M83.556 57.3387C89.1075 52.9778 98.7562 56.9158 101.61 62.8681C103.276 66.343 101.389 69.4791 99.5495 72.4065C97.1444 76.235 96.8516 78.2518 97.0082 82.6814C97.106 85.4483 95.4376 87.8538 92.4872 87.6556C86.927 87.282 82.6786 82.5481 80.4282 77.8142C77.861 72.4142 78.031 66.2212 80.7593 60.8756C81.5271 59.3711 82.4632 58.1975 83.556 57.3387Z" fill="#F68F17"/>
<path d="M95.4205 69.5657C95.4205 69.5657 98.3096 61.4004 94.2628 58.3691C90.2158 55.3378 79.0559 58.419 79.9975 69.3938C80.9395 80.3686 93.864 75.2134 95.4205 69.5657Z" fill="#F69B17"/>
<path d="M89.5674 58.3768C89.0307 58.4199 88.5542 58.4065 88.0594 58.4692C87.571 58.5222 87.0938 58.6261 86.6409 58.776C85.7319 59.0668 84.9268 59.5706 84.3205 60.2456C84.0168 60.5841 83.7723 60.9708 83.5774 61.3819C83.3849 61.7945 83.1801 62.1966 82.9909 62.6239C82.7866 63.0432 82.6095 63.4856 82.4053 63.9337C82.3168 64.1616 82.2155 64.3901 82.1109 64.6218C82.0103 64.8549 81.9112 65.0911 81.7789 65.3276L81.6465 65.3135C81.5794 65.053 81.5455 64.7919 81.5104 64.5276C81.495 64.2658 81.4835 64.0008 81.4902 63.7365C81.5136 63.2085 81.588 62.6773 81.7437 62.1595C81.885 61.6388 82.1387 61.1431 82.4545 60.6928C82.778 60.2446 83.1679 59.8448 83.5793 59.4814C83.9935 59.1193 84.4579 58.8159 84.9504 58.5871C85.4462 58.3634 85.9659 58.2141 86.4872 58.1284C87.0104 58.0495 87.5339 58.0278 88.0482 58.0591C88.3055 58.0719 88.5606 58.0997 88.8127 58.1332C89.0601 58.1665 89.3248 58.2266 89.546 58.2451L89.5674 58.3768Z" fill="#F6F5FD"/>
<path d="M99.9391 54.4308C99.9391 54.4308 106.175 56.7605 106.11 62.0844C106.045 67.4083 105.267 70.128 105.267 70.128C105.267 70.128 100.54 66.6671 99.4184 63.423C98.2965 60.1788 99.9391 54.4308 99.9391 54.4308Z" fill="#548B37"/>
<path d="M99.9395 54.4308C99.9395 54.4308 101.042 55.3497 102.523 59.4213C104.005 63.493 105.267 70.1283 105.267 70.1283L103.129 64.9089L102.739 66.2708C102.739 66.2708 102.14 61.1687 101.951 60.7072C101.762 60.2456 101.081 62.2244 101.081 62.2244C101.081 62.2244 101.339 58.3052 101.146 58.1355C100.953 57.9658 100.346 59.0141 100.346 59.0141C100.346 59.0141 100.418 55.5485 99.9395 54.4308Z" fill="#3F7937"/>
<path d="M99.9395 54.4308C99.9395 54.4308 103.255 57.4892 103.419 57.8888C103.419 57.8888 102.533 57.4742 102.472 57.7791C102.41 58.084 104.185 60.7458 104.185 60.7458C104.185 60.7458 103.183 60.0424 103.076 60.3917C102.97 60.7411 105.415 65.3404 105.415 65.3404C105.415 65.3404 104.564 64.3783 104.274 64.6056C103.984 64.8328 105.267 70.1283 105.267 70.1283C105.267 70.1283 103.091 62.7796 102.491 60.6317C101.89 58.4839 99.9395 54.4308 99.9395 54.4308Z" fill="#549837"/>
<path d="M95.9756 57.7539C96.276 58.8732 96.9066 59.414 98.1349 58.9077C99.361 56.6164 100.314 54.519 99.9811 54.0543C99.1801 52.9366 96.5177 52.9698 96.5177 52.9698C96.9575 53.8782 96.602 55.7483 95.9756 57.7539Z" fill="#865F1A"/>
<path d="M96.5176 52.9701C96.5176 52.9701 98.4963 52.4948 99.981 54.0546C99.981 54.0546 97.7823 54.8338 96.5176 52.9701Z" fill="#AD5F1A"/>
<path d="M167.261 63.7672C166.584 61.9776 165.509 60.2939 165.557 58.3215C165.612 56.0771 166.749 54.1533 168.475 52.7598C170.458 51.1595 173.263 50.7142 175.6 51.7786C178.536 53.1158 179.926 56.2638 182.396 58.171C184.274 59.6208 186.516 60.4735 188.324 62.0544C196.01 68.7728 194.316 80.5888 184.153 83.4207C180.628 84.4029 176.683 84.2095 173.514 82.3787C166.525 78.3409 169.421 70.8446 167.5 64.4656C167.429 64.2307 167.348 63.998 167.261 63.7672Z" fill="#7EAD2B"/>
<path opacity="0.52" d="M167.577 63.0551C167.036 61.6267 166.179 60.283 166.217 58.7089C166.261 56.9177 167.168 55.3823 168.546 54.2703C170.128 52.9931 172.367 52.6377 174.232 53.4873C176.575 54.5545 177.684 57.0667 179.655 58.589C181.154 59.7461 182.944 60.4269 184.387 61.6884C190.52 67.0504 189.169 76.4804 181.057 78.7405C178.244 79.5242 175.095 79.3698 172.567 77.9091C166.989 74.6867 169.3 68.7037 167.767 63.6132C167.711 63.4249 167.646 63.2392 167.577 63.0551Z" fill="#8EBF3F"/>
<path d="M168.185 63.4003C167.786 62.3443 167.152 61.3512 167.181 60.1875C167.213 58.8633 167.884 57.7283 168.902 56.9062C170.072 55.9621 171.727 55.6993 173.106 56.3274C174.838 57.1162 175.658 58.9735 177.115 60.0989C178.223 60.9542 179.546 61.4576 180.613 62.3903C185.147 66.3542 184.148 73.3255 178.152 74.9961C176.072 75.5756 173.745 75.4615 171.875 74.3815C167.752 71.9993 169.46 67.5764 168.327 63.8129C168.285 63.6739 168.237 63.5368 168.185 63.4003Z" fill="#8EBF3F"/>
<path d="M169.657 56.4799C169.002 57.1571 168.552 58.0681 168.383 58.9726C168.327 59.1979 168.316 59.4296 168.293 59.6566C168.287 59.7707 168.294 59.8857 168.294 59.9992C168.293 60.113 168.296 60.2261 168.316 60.339L168.355 60.6758C168.373 60.7871 168.405 60.897 168.429 61.007C168.469 61.2288 168.556 61.4407 168.632 61.6529C168.698 61.8677 168.831 62.0623 168.925 62.2656C169.023 62.458 169.168 62.6994 169.287 62.9151C169.41 63.1382 169.51 63.376 169.611 63.6112C169.698 63.8551 169.781 64.0983 169.84 64.3537C169.966 64.8577 170.018 65.3941 169.981 65.9298C169.963 66.1976 169.912 66.4667 169.823 66.7253C169.727 66.9807 169.609 67.2335 169.389 67.4195L169.299 67.3502C169.343 67.1203 169.339 66.8822 169.311 66.6556C169.29 66.4287 169.24 66.2046 169.187 65.9841C169.073 65.5427 168.928 65.1118 168.757 64.6816C168.593 64.2514 168.426 63.8183 168.265 63.3737L168.015 62.6866C167.933 62.4334 167.819 62.1966 167.771 61.9326C167.49 60.9152 167.481 59.8036 167.837 58.8233C168.009 58.334 168.243 57.8728 168.54 57.4614C168.838 57.0488 169.165 56.6719 169.601 56.382L169.657 56.4799Z" fill="#F6F5FD"/>
<path opacity="0.64" d="M168.101 54.4429C168.101 54.4429 168.855 55.498 170.599 54.6836C172.344 53.8692 171.91 51.846 170.847 52.6799C169.784 53.5138 170.212 53.7116 169.392 53.7091C168.573 53.7062 167.971 53.7126 168.101 54.4429Z" fill="#549837"/>
<path d="M168.891 51.6916C168.891 51.6916 166.157 47.1396 168.842 43.8488C171.527 40.558 173.364 39.2469 173.364 39.2469C173.364 39.2469 174.595 43.7551 173.684 46.3374C172.772 48.9199 168.891 51.6916 168.891 51.6916Z" fill="#548B37"/>
<path d="M168.891 51.6916C168.891 51.6916 168.66 50.5704 169.758 47.293C170.856 44.0156 173.364 39.2469 173.364 39.2469L172.106 43.5669L173.026 42.9107C173.026 42.9107 170.865 46.3923 170.754 46.7743C170.642 47.1562 172.051 46.2597 172.051 46.2597C172.051 46.2597 169.943 48.5779 169.979 48.7796C170.015 48.9813 170.915 48.6284 170.915 48.6284C170.915 48.6284 169.148 50.7564 168.891 51.6916Z" fill="#3F7937"/>
<path d="M168.892 51.6916C168.892 51.6916 168.342 48.1355 168.438 47.805C168.438 47.805 168.785 48.5034 168.974 48.3436C169.164 48.1838 169.379 45.6409 169.379 45.6409C169.379 45.6409 169.655 46.5777 169.895 46.4128C170.135 46.2475 170.894 42.1621 170.894 42.1621C170.894 42.1621 170.947 43.1853 171.241 43.1875C171.535 43.1897 173.365 39.2469 173.365 39.2469C173.365 39.2469 171.072 44.915 170.38 46.5537C169.687 48.1927 168.892 51.6916 168.892 51.6916Z" fill="#549837"/>
<path d="M169.667 54.2144C169.667 54.2144 166.364 48.8774 164.765 48.7006C164.765 48.7006 165.575 47.3755 166.376 47.3266C167.177 47.278 170.332 53.8344 170.332 53.8344C170.332 53.8344 170.287 54.4538 169.667 54.2144Z" fill="#865F1A"/>
<path d="M164.765 48.7006C164.765 48.7006 165.144 47.5756 166.376 47.3266C166.376 47.3266 166.078 48.6546 164.765 48.7006Z" fill="#AD5F1A"/>
<path d="M118.377 133.584C118.377 133.584 112.994 133.173 108.996 141.287C104.998 149.4 108.275 154.278 108.275 154.278C108.275 154.278 108.051 155.564 108.921 156.51C109.792 157.456 111.238 157.218 111.238 157.218C111.238 157.218 119.427 167.076 132.361 157.763L118.377 133.584Z" fill="#F68F17"/>
<path d="M134.42 143.476C132.7 140.178 129.876 137.165 126.393 135.265C122.91 133.365 119.454 132.951 116.719 133.818C114.15 134.633 112.218 136.578 111.508 139.495C111.478 139.619 111.454 139.745 111.429 139.87C110.82 142.888 111.603 146.325 113.382 149.456C115.122 152.519 117.813 155.287 121.085 157.072C124.357 158.858 127.606 159.33 130.255 158.662C132.962 157.979 135.039 156.102 135.87 153.205C135.904 153.085 135.94 152.965 135.97 152.842C136.68 149.924 136.037 146.575 134.42 143.476Z" fill="#F68F17"/>
<path d="M133.551 143.695C131.971 140.666 129.377 137.897 126.177 136.152C122.978 134.406 119.802 134.026 117.29 134.823C114.93 135.572 113.155 137.358 112.503 140.038C112.475 140.152 112.453 140.267 112.43 140.383C111.87 143.155 112.59 146.312 114.224 149.188C115.823 152.002 118.294 154.545 121.3 156.185C124.306 157.825 127.291 158.259 129.725 157.646C132.211 157.018 134.12 155.294 134.883 152.633C134.914 152.522 134.947 152.412 134.975 152.299C135.627 149.619 135.036 146.542 133.551 143.695Z" fill="#F2F3D1"/>
<path d="M126.255 137.321C128.806 138.793 130.972 141.01 132.41 143.622L124.149 145.97L126.255 137.321Z" fill="#F68F17"/>
<path d="M118.195 135.867C120.419 135.253 123.03 135.642 125.615 136.973L123.51 145.621L118.195 135.867Z" fill="#F68F17"/>
<path d="M124.503 146.62L132.75 144.276C134.01 146.841 134.406 149.462 133.863 151.692C133.86 151.702 133.858 151.712 133.856 151.723L124.503 146.62Z" fill="#F68F17"/>
<path d="M123.814 147.346L128.843 156.577C126.717 157.025 124.263 156.599 121.862 155.364L123.814 147.346Z" fill="#F68F17"/>
<path d="M124.364 147.189L133.692 152.278C133.005 154.361 131.496 155.823 129.402 156.436L124.364 147.189Z" fill="#F68F17"/>
<path d="M113.607 140.675C113.61 140.665 113.612 140.655 113.615 140.645C114.158 138.415 115.587 136.789 117.654 136.039L122.96 145.778L113.607 140.675Z" fill="#F68F17"/>
<path d="M114.991 148.573C113.652 146.087 113.126 143.514 113.495 141.259L122.822 146.348L114.991 148.573Z" fill="#F68F17"/>
<path d="M121.223 155.015C118.855 153.648 116.793 151.61 115.358 149.219L123.175 146.997L121.223 155.015Z" fill="#F68F17"/>
<path d="M126.27 141.021C126.27 141.021 126.618 138.938 126.955 139.041C127.293 139.144 126.27 141.021 126.27 141.021Z" fill="#F6AC17"/>
<path d="M125.413 144.175C125.413 144.175 126.231 142.37 126.564 142.54C126.896 142.709 125.413 144.175 125.413 144.175Z" fill="#F6AC17"/>
<path d="M127.7 143.628C127.7 143.628 129.297 142.558 129.579 142.832C129.862 143.106 127.7 143.628 127.7 143.628Z" fill="#F6AC17"/>
<path d="M127.17 142.208C127.17 142.208 128.301 140.649 128.621 140.862C128.941 141.074 127.17 142.208 127.17 142.208Z" fill="#F6AC17"/>
<path d="M129.934 145.74C129.934 145.74 131.793 145.047 132.039 145.353C132.285 145.659 129.934 145.74 129.934 145.74Z" fill="#F6AC17"/>
<path d="M126.804 146.537C126.804 146.537 128.908 146.332 129.101 146.664C129.293 146.997 126.804 146.537 126.804 146.537Z" fill="#F6AC17"/>
<path d="M129.387 148.035C129.387 148.035 131.694 148.764 131.762 149.106C131.831 149.448 129.387 148.035 129.387 148.035Z" fill="#F6AC17"/>
<path d="M129.922 146.975C129.922 146.975 132.144 147.122 132.293 147.465C132.442 147.808 129.922 146.975 129.922 146.975Z" fill="#F6AC17"/>
<path d="M129.967 150.715C129.967 150.715 132.248 151.818 132.259 152.148C132.269 152.477 129.967 150.715 129.967 150.715Z" fill="#F6AC17"/>
<path d="M126.397 148.688C126.397 148.688 128.555 150.203 128.495 150.504C128.435 150.804 126.397 148.688 126.397 148.688Z" fill="#F6AC17"/>
<path d="M127.763 151.354C127.763 151.354 129.429 153.454 129.243 153.664C129.058 153.874 127.763 151.354 127.763 151.354Z" fill="#F6AC17"/>
<path d="M129.05 151.275C129.05 151.275 131.061 153.043 130.952 153.314C130.843 153.586 129.05 151.275 129.05 151.275Z" fill="#F6AC17"/>
<path d="M126.352 153.032C126.352 153.032 127.718 155.285 127.487 155.445C127.256 155.605 126.352 153.032 126.352 153.032Z" fill="#F6AC17"/>
<path d="M124.434 149.368C124.434 149.368 125.381 151.717 125.103 151.809C124.825 151.901 124.434 149.368 124.434 149.368Z" fill="#F6AC17"/>
<path d="M123.781 151.64C123.781 151.64 123.83 153.882 123.499 153.837C123.169 153.792 123.781 151.64 123.781 151.64Z" fill="#F6AC17"/>
<path d="M125.066 152.588C125.066 152.588 125.689 154.941 125.385 154.982C125.082 155.024 125.066 152.588 125.066 152.588Z" fill="#F6AC17"/>
<path d="M121.204 151.334C121.204 151.334 120.856 153.417 120.519 153.313C120.181 153.21 121.204 151.334 121.204 151.334Z" fill="#F6AC17"/>
<path d="M122.061 148.179C122.061 148.179 121.243 149.985 120.911 149.815C120.578 149.645 122.061 148.179 122.061 148.179Z" fill="#F6AC17"/>
<path d="M119.774 148.727C119.774 148.727 118.177 149.797 117.895 149.523C117.612 149.249 119.774 148.727 119.774 148.727Z" fill="#F6AC17"/>
<path d="M120.304 150.147C120.304 150.147 119.173 151.706 118.853 151.493C118.533 151.28 120.304 150.147 120.304 150.147Z" fill="#F6AC17"/>
<path d="M117.542 146.614C117.542 146.614 115.682 147.307 115.436 147.002C115.19 146.696 117.542 146.614 117.542 146.614Z" fill="#F6AC17"/>
<path d="M120.672 145.817C120.672 145.817 118.567 146.023 118.375 145.69C118.182 145.358 120.672 145.817 120.672 145.817Z" fill="#F6AC17"/>
<path d="M118.088 144.319C118.088 144.319 115.781 143.591 115.712 143.249C115.644 142.907 118.088 144.319 118.088 144.319Z" fill="#F6AC17"/>
<path d="M117.553 145.379C117.553 145.379 115.331 145.232 115.182 144.889C115.033 144.547 117.553 145.379 117.553 145.379Z" fill="#F6AC17"/>
<path d="M117.508 141.639C117.508 141.639 115.227 140.536 115.216 140.207C115.205 139.877 117.508 141.639 117.508 141.639Z" fill="#F6AC17"/>
<path d="M121.077 143.666C121.077 143.666 118.919 142.151 118.98 141.851C119.04 141.55 121.077 143.666 121.077 143.666Z" fill="#F6AC17"/>
<path d="M119.712 141.001C119.712 141.001 118.046 138.9 118.231 138.69C118.417 138.48 119.712 141.001 119.712 141.001Z" fill="#F6AC17"/>
<path d="M118.425 141.079C118.425 141.079 116.414 139.312 116.523 139.04C116.632 138.769 118.425 141.079 118.425 141.079Z" fill="#F6AC17"/>
<path d="M121.124 139.322C121.124 139.322 119.757 137.069 119.988 136.909C120.22 136.75 121.124 139.322 121.124 139.322Z" fill="#F6AC17"/>
<path d="M123.042 142.986C123.042 142.986 122.094 140.638 122.372 140.546C122.65 140.453 123.042 142.986 123.042 142.986Z" fill="#F6AC17"/>
<path d="M123.694 140.714C123.694 140.714 123.645 138.472 123.976 138.518C124.307 138.563 123.694 140.714 123.694 140.714Z" fill="#F6AC17"/>
<path d="M122.408 139.766C122.408 139.766 121.786 137.413 122.089 137.372C122.393 137.33 122.408 139.766 122.408 139.766Z" fill="#F6AC17"/>
<path d="M128.186 159.328C128.205 159.51 120.212 163.105 115.648 159.447C111.793 156.356 111.615 156.698 110.864 156.489C110.113 156.279 109.374 156.433 109.029 154.794C108.684 153.155 106.974 150.669 108.444 145.852C108.444 145.852 108.898 144.163 110.342 145.698C111.786 147.233 111.341 153.678 117.028 156.481C122.714 159.284 128.186 159.328 128.186 159.328Z" fill="#F67C17"/>
<path d="M111.476 139.906C111.218 140.415 110.962 140.922 110.737 141.44C110.505 141.954 110.283 142.468 110.088 142.985C109.985 143.242 109.921 143.513 109.851 143.776C109.784 144.04 109.693 144.289 109.581 144.53C109.517 144.65 109.466 144.771 109.406 144.891L109.215 145.252C109.158 145.374 109.075 145.497 109.011 145.624C108.942 145.75 108.874 145.881 108.776 146.021H108.659C108.578 145.877 108.528 145.725 108.476 145.568C108.434 145.412 108.417 145.257 108.401 145.099C108.378 144.937 108.39 144.786 108.399 144.631C108.409 144.476 108.425 144.32 108.459 144.173C108.556 143.56 108.945 143.072 109.242 142.57C109.392 142.318 109.554 142.075 109.715 141.832C109.885 141.596 110.056 141.361 110.235 141.133C110.603 140.684 110.968 140.239 111.382 139.834L111.476 139.906Z" fill="#F6F5FD"/>
<path d="M135.82 35.4645C137.429 35.7087 138.979 36.3601 140.369 37.3864C144.575 40.4915 148.216 45.5233 146.728 50.999C145.296 56.266 139.303 58.3631 134.505 59.2743C131.933 59.763 129.31 59.981 126.693 60.0037C124.168 60.0254 120.591 60.3019 118.605 58.4238C117.872 57.7302 117.566 56.6783 117.565 55.6693C117.565 50.1977 121.176 44.1566 124.805 40.3134C126.513 38.505 128.506 36.9056 130.83 36.02C132.483 35.3894 134.182 35.2161 135.82 35.4645Z" fill="#D70D11"/>
<path d="M133.974 37.1291C132.476 37.0297 130.918 37.3864 129.393 38.3369C127.291 39.6474 125.593 41.5414 124.225 43.5864C119.519 50.6228 119.118 52.6144 120.671 55.3158C122.224 58.0172 127.39 52.9989 132.699 52.903C138.008 52.8071 144.878 49.2532 142.274 43.5979C140.668 40.1102 137.49 37.3627 133.974 37.1291Z" fill="#E90D11"/>
<path d="M133.818 38.0576C132.764 37.9876 131.668 38.2385 130.595 38.9071C129.116 39.8289 127.922 41.1611 126.96 42.5997C123.649 47.549 123.367 48.9499 124.46 50.8501C125.552 52.7502 129.186 49.2203 132.92 49.1529C136.655 49.0854 141.487 46.5857 139.656 42.6077C138.526 40.1543 136.29 38.2218 133.818 38.0576Z" fill="#E91B31"/>
<path d="M136.876 38.7588C136.17 38.4993 135.425 38.3513 134.694 38.3468C134.33 38.3356 133.968 38.3622 133.615 38.4101L133.09 38.5012L132.581 38.6476C132.41 38.6882 132.254 38.7802 132.094 38.8486L131.857 38.9592C131.781 39.0011 131.708 39.0519 131.633 39.0973C131.484 39.1881 131.332 39.2667 131.178 39.3444C131.03 39.4351 130.879 39.5205 130.72 39.594L130.478 39.7033L130.244 39.8334C130.084 39.9171 129.922 40.0002 129.747 40.0731C129.416 40.2444 129.082 40.4279 128.672 40.5627L128.577 40.4749C128.719 40.0833 128.914 39.7132 129.155 39.3811C129.281 39.2191 129.419 39.0672 129.561 38.9161L129.778 38.6939C129.857 38.6281 129.941 38.567 130.023 38.5031C130.664 37.9511 131.543 37.791 132.342 37.6401C133.157 37.4883 133.993 37.5343 134.777 37.7057C135.558 37.893 136.301 38.1896 136.942 38.6485L136.876 38.7588Z" fill="#F6F5FD"/>
<path d="M120.446 55.2669C120.446 55.2669 118.961 55.6587 119.248 56.2037C119.534 56.749 120.446 55.2669 120.446 55.2669Z" fill="#E91B31"/>
<path d="M120.52 55.1537C120.52 55.1537 119.035 55.5456 119.322 56.0906C119.608 56.6355 120.52 55.1537 120.52 55.1537Z" fill="#F7A10C"/>
<path d="M119.728 55.5929C119.638 55.6492 119.552 55.7188 119.508 55.7959C119.487 55.8371 119.491 55.8732 119.479 55.9045C119.46 55.9391 119.465 55.9816 119.446 56.0503L119.432 56.0583C119.368 56.0311 119.326 55.972 119.317 55.8972C119.31 55.8211 119.361 55.7553 119.407 55.714C119.502 55.6252 119.614 55.5929 119.723 55.5776L119.728 55.5929Z" fill="#F6F5FD"/>
<path d="M124.385 56.9427C124.385 56.9427 122.901 57.3345 123.187 57.8795C123.473 58.4248 124.385 56.9427 124.385 56.9427Z" fill="#E91B31"/>
<path d="M124.459 56.8295C124.459 56.8295 122.974 57.2214 123.26 57.7663C123.547 58.3116 124.459 56.8295 124.459 56.8295Z" fill="#F7A10C"/>
<path d="M123.668 57.269C123.578 57.3253 123.491 57.3949 123.447 57.472C123.426 57.5132 123.431 57.5493 123.418 57.5806C123.399 57.6152 123.404 57.6577 123.385 57.7264L123.371 57.7344C123.307 57.7072 123.266 57.6481 123.257 57.5733C123.249 57.4972 123.3 57.4314 123.347 57.3901C123.441 57.3013 123.553 57.269 123.663 57.254L123.668 57.269Z" fill="#F6F5FD"/>
<path d="M124.01 53.2194C124.01 53.2194 122.526 53.6112 122.812 54.1562C123.098 54.7015 124.01 53.2194 124.01 53.2194Z" fill="#E91B31"/>
<path d="M124.084 53.1062C124.084 53.1062 122.599 53.4981 122.885 54.043C123.172 54.5883 124.084 53.1062 124.084 53.1062Z" fill="#F7A10C"/>
<path d="M123.293 53.5457C123.203 53.602 123.116 53.6717 123.072 53.7487C123.051 53.7899 123.056 53.826 123.043 53.8574C123.024 53.8919 123.029 53.9344 123.01 54.0031L122.996 54.0111C122.932 53.9839 122.89 53.9248 122.882 53.85C122.874 53.7739 122.925 53.7081 122.972 53.6669C123.066 53.578 123.178 53.5457 123.288 53.5307L123.293 53.5457Z" fill="#F6F5FD"/>
<path d="M121.53 49.6447C121.53 49.6447 120.045 50.0366 120.332 50.5816C120.618 51.1268 121.53 49.6447 121.53 49.6447Z" fill="#E91B31"/>
<path d="M121.603 49.5319C121.603 49.5319 120.118 49.9238 120.405 50.4687C120.692 51.0137 121.603 49.5319 121.603 49.5319Z" fill="#F7A10C"/>
<path d="M120.812 49.9711C120.722 50.0273 120.636 50.097 120.592 50.174C120.57 50.2153 120.575 50.2514 120.563 50.2827C120.544 50.3172 120.549 50.3597 120.53 50.4285L120.515 50.4364C120.452 50.4093 120.41 50.3501 120.401 50.2754C120.394 50.1993 120.445 50.1334 120.491 50.0922C120.585 50.0034 120.698 49.9711 120.807 49.9561L120.812 49.9711Z" fill="#F6F5FD"/>
<path d="M128.896 56.7525C128.896 56.7525 127.411 57.1443 127.698 57.6893C127.984 58.2346 128.896 56.7525 128.896 56.7525Z" fill="#E91B31"/>
<path d="M128.969 56.6393C128.969 56.6393 127.485 57.0312 127.771 57.5761C128.057 58.1214 128.969 56.6393 128.969 56.6393Z" fill="#F7A10C"/>
<path d="M128.179 57.0788C128.089 57.1351 128.002 57.2047 127.958 57.2818C127.937 57.323 127.942 57.3591 127.929 57.3904C127.91 57.425 127.915 57.4675 127.896 57.5362L127.882 57.5442C127.818 57.517 127.776 57.4579 127.767 57.3831C127.76 57.307 127.811 57.2412 127.857 57.2C127.952 57.1111 128.064 57.0788 128.174 57.0635L128.179 57.0788Z" fill="#F6F5FD"/>
<path d="M128.953 53.0014C128.953 53.0014 127.468 53.3933 127.754 53.9382C128.041 54.4835 128.953 53.0014 128.953 53.0014Z" fill="#E91B31"/>
<path d="M129.026 52.8883C129.026 52.8883 127.541 53.2801 127.828 53.8251C128.114 54.3704 129.026 52.8883 129.026 52.8883Z" fill="#F7A10C"/>
<path d="M128.235 53.3278C128.145 53.384 128.059 53.4537 128.014 53.5307C127.993 53.5719 127.998 53.6081 127.986 53.6394C127.967 53.6739 127.972 53.7164 127.952 53.7851L127.938 53.7931C127.875 53.766 127.833 53.7068 127.824 53.632C127.817 53.556 127.867 53.4901 127.914 53.4489C128.008 53.36 128.121 53.3278 128.23 53.3127L128.235 53.3278Z" fill="#F6F5FD"/>
<path d="M126.273 49.172C126.273 49.172 124.788 49.5639 125.075 50.1089C125.361 50.6541 126.273 49.172 126.273 49.172Z" fill="#E91B31"/>
<path d="M126.346 49.0589C126.346 49.0589 124.862 49.4508 125.148 49.9957C125.435 50.5407 126.346 49.0589 126.346 49.0589Z" fill="#F7A10C"/>
<path d="M125.556 49.4981C125.465 49.5543 125.379 49.624 125.335 49.701C125.313 49.7422 125.318 49.7784 125.306 49.8097C125.287 49.8442 125.292 49.8867 125.273 49.9554L125.259 49.9634C125.195 49.9363 125.153 49.8771 125.144 49.8023C125.137 49.7263 125.188 49.6604 125.234 49.6192C125.329 49.5303 125.441 49.4981 125.551 49.4827L125.556 49.4981Z" fill="#F6F5FD"/>
<path d="M125.596 44.0143C125.596 44.0143 124.112 44.4062 124.398 44.9511C124.685 45.4964 125.596 44.0143 125.596 44.0143Z" fill="#E91B31"/>
<path d="M125.67 43.9012C125.67 43.9012 124.185 44.2927 124.471 44.838C124.758 45.3829 125.67 43.9012 125.67 43.9012Z" fill="#F7A10C"/>
<path d="M124.879 44.3403C124.789 44.3966 124.702 44.4663 124.658 44.5433C124.637 44.5845 124.642 44.6206 124.629 44.652C124.61 44.6865 124.615 44.729 124.596 44.7977L124.582 44.8057C124.518 44.7785 124.476 44.7194 124.468 44.6446C124.46 44.5685 124.511 44.5027 124.558 44.4615C124.652 44.3726 124.764 44.3403 124.874 44.325L124.879 44.3403Z" fill="#F6F5FD"/>
<path d="M130.006 44.1281C130.006 44.1281 128.522 44.52 128.808 45.0649C129.095 45.6102 130.006 44.1281 130.006 44.1281Z" fill="#E91B31"/>
<path d="M130.08 44.015C130.08 44.015 128.595 44.4068 128.881 44.9518C129.168 45.4971 130.08 44.015 130.08 44.015Z" fill="#F7A10C"/>
<path d="M129.289 44.4545C129.199 44.5107 129.112 44.5804 129.068 44.6574C129.047 44.6986 129.052 44.7348 129.039 44.7661C129.021 44.8006 129.025 44.8431 129.006 44.9118L128.992 44.9198C128.928 44.8927 128.887 44.8335 128.878 44.7587C128.87 44.6827 128.921 44.6168 128.968 44.5756C129.062 44.4867 129.174 44.4545 129.284 44.4391L129.289 44.4545Z" fill="#F6F5FD"/>
<path d="M132.554 48.326C132.554 48.326 131.07 48.7179 131.356 49.2628C131.642 49.8081 132.554 48.326 132.554 48.326Z" fill="#E91B31"/>
<path d="M132.628 48.2129C132.628 48.2129 131.143 48.6044 131.429 49.1497C131.716 49.6949 132.628 48.2129 132.628 48.2129Z" fill="#F7A10C"/>
<path d="M131.837 48.6523C131.747 48.7086 131.66 48.7783 131.616 48.8553C131.595 48.8965 131.6 48.9326 131.587 48.964C131.568 48.9985 131.573 49.041 131.554 49.1097L131.54 49.1177C131.476 49.0905 131.434 49.0314 131.426 48.9566C131.418 48.8805 131.469 48.8147 131.516 48.7735C131.61 48.6846 131.722 48.6523 131.832 48.637L131.837 48.6523Z" fill="#F6F5FD"/>
<path d="M135.161 53.0021C135.161 53.0021 133.676 53.3939 133.962 53.9389C134.249 54.4838 135.161 53.0021 135.161 53.0021Z" fill="#E91B31"/>
<path d="M135.234 52.8889C135.234 52.8889 133.749 53.2808 134.036 53.8257C134.322 54.371 135.234 52.8889 135.234 52.8889Z" fill="#F7A10C"/>
<path d="M134.443 53.3281C134.353 53.3843 134.267 53.454 134.222 53.531C134.201 53.5723 134.206 53.6084 134.194 53.6397C134.175 53.6742 134.18 53.7167 134.16 53.7854L134.146 53.7934C134.083 53.7663 134.041 53.7071 134.032 53.6324C134.025 53.5563 134.075 53.4904 134.122 53.4492C134.216 53.3604 134.329 53.3281 134.438 53.313L134.443 53.3281Z" fill="#F6F5FD"/>
<path d="M133.399 56.9423C133.399 56.9423 131.914 57.3342 132.201 57.8791C132.487 58.4244 133.399 56.9423 133.399 56.9423Z" fill="#E91B31"/>
<path d="M133.472 56.8292C133.472 56.8292 131.988 57.221 132.274 57.766C132.56 58.3113 133.472 56.8292 133.472 56.8292Z" fill="#F7A10C"/>
<path d="M132.682 57.2687C132.591 57.3249 132.505 57.3946 132.461 57.4716C132.44 57.5129 132.444 57.549 132.432 57.5803C132.413 57.6148 132.418 57.6573 132.399 57.726L132.385 57.734C132.321 57.7069 132.279 57.6477 132.27 57.5729C132.263 57.4969 132.314 57.431 132.36 57.3898C132.455 57.3009 132.567 57.2687 132.676 57.2533L132.682 57.2687Z" fill="#F6F5FD"/>
<path d="M139.567 54.72C139.567 54.72 138.082 55.1119 138.369 55.6568C138.655 56.2021 139.567 54.72 139.567 54.72Z" fill="#E91B31"/>
<path d="M139.64 54.6069C139.64 54.6069 138.156 54.9987 138.442 55.5437C138.728 56.089 139.64 54.6069 139.64 54.6069Z" fill="#F7A10C"/>
<path d="M138.85 55.046C138.759 55.1023 138.673 55.172 138.629 55.249C138.608 55.2902 138.612 55.3263 138.6 55.3577C138.581 55.3922 138.586 55.4347 138.567 55.5034L138.553 55.5114C138.489 55.4842 138.447 55.4251 138.438 55.3503C138.431 55.2742 138.482 55.2084 138.528 55.1672C138.623 55.0783 138.735 55.046 138.844 55.0307L138.85 55.046Z" fill="#F6F5FD"/>
<path d="M139.025 48.1489C139.025 48.1489 137.54 48.5408 137.827 49.0857C138.113 49.631 139.025 48.1489 139.025 48.1489Z" fill="#E91B31"/>
<path d="M139.098 48.0358C139.098 48.0358 137.614 48.4277 137.9 48.9726C138.186 49.5179 139.098 48.0358 139.098 48.0358Z" fill="#F7A10C"/>
<path d="M138.308 48.475C138.217 48.5312 138.131 48.6009 138.087 48.6779C138.066 48.7191 138.07 48.7553 138.058 48.7866C138.039 48.8211 138.044 48.8636 138.025 48.9323L138.011 48.9403C137.947 48.9132 137.905 48.854 137.896 48.7792C137.889 48.7032 137.94 48.6373 137.986 48.5961C138.081 48.5072 138.193 48.475 138.302 48.4596L138.308 48.475Z" fill="#F6F5FD"/>
<path d="M143.548 50.9227C143.548 50.9227 142.064 51.3145 142.35 51.8595C142.637 52.4047 143.548 50.9227 143.548 50.9227Z" fill="#E91B31"/>
<path d="M143.622 50.8095C143.622 50.8095 142.137 51.2014 142.423 51.7463C142.71 52.2916 143.622 50.8095 143.622 50.8095Z" fill="#F7A10C"/>
<path d="M142.831 51.249C142.741 51.3052 142.654 51.3749 142.61 51.4519C142.589 51.4932 142.594 51.5293 142.581 51.5606C142.562 51.5951 142.567 51.6376 142.548 51.7064L142.534 51.7144C142.47 51.6872 142.428 51.6281 142.42 51.5533C142.412 51.4772 142.463 51.4114 142.51 51.3701C142.604 51.2813 142.716 51.249 142.826 51.234L142.831 51.249Z" fill="#F6F5FD"/>
<path d="M136.392 43.112C136.392 43.112 134.908 43.5039 135.194 44.0489C135.48 44.5941 136.392 43.112 136.392 43.112Z" fill="#E91B31"/>
<path d="M136.465 42.9989C136.465 42.9989 134.981 43.3908 135.267 43.9357C135.554 44.481 136.465 42.9989 136.465 42.9989Z" fill="#F7A10C"/>
<path d="M135.675 43.4381C135.585 43.4943 135.498 43.564 135.454 43.641C135.432 43.6822 135.438 43.7184 135.425 43.7497C135.406 43.7842 135.411 43.8267 135.392 43.8954L135.378 43.9034C135.314 43.8763 135.272 43.8171 135.263 43.7423C135.256 43.6663 135.307 43.6004 135.353 43.5592C135.448 43.4703 135.56 43.4381 135.67 43.423L135.675 43.4381Z" fill="#F6F5FD"/>
<path d="M132.82 39.8858C132.82 39.8858 131.335 40.2777 131.622 40.8226C131.908 41.3679 132.82 39.8858 132.82 39.8858Z" fill="#E91B31"/>
<path d="M132.893 39.7726C132.893 39.7726 131.409 40.1645 131.695 40.7095C131.982 41.2547 132.893 39.7726 132.893 39.7726Z" fill="#F7A10C"/>
<path d="M132.102 40.2118C132.012 40.2681 131.926 40.3377 131.882 40.4148C131.861 40.456 131.865 40.4921 131.853 40.5234C131.834 40.5579 131.839 40.6005 131.82 40.6692L131.806 40.6772C131.742 40.65 131.7 40.5909 131.691 40.5161C131.684 40.44 131.735 40.3742 131.781 40.3329C131.876 40.2441 131.988 40.2118 132.097 40.1965L132.102 40.2118Z" fill="#F6F5FD"/>
<path d="M138.976 38.8694C138.976 38.8694 137.492 39.2609 137.778 39.8062C138.065 40.3515 138.976 38.8694 138.976 38.8694Z" fill="#E91B31"/>
<path d="M139.049 38.7563C139.049 38.7563 137.565 39.1481 137.851 39.6931C138.138 40.2383 139.049 38.7563 139.049 38.7563Z" fill="#F7A10C"/>
<path d="M138.259 39.1957C138.169 39.252 138.082 39.3217 138.038 39.3987C138.017 39.4399 138.022 39.476 138.009 39.5074C137.99 39.5419 137.995 39.5844 137.976 39.6531L137.962 39.6611C137.898 39.6339 137.856 39.5748 137.847 39.5C137.84 39.4239 137.891 39.3581 137.938 39.3169C138.032 39.228 138.144 39.1957 138.254 39.1804L138.259 39.1957Z" fill="#F6F5FD"/>
<path d="M143.07 43.7027C143.07 43.7027 141.585 44.0942 141.872 44.6395C142.158 45.1848 143.07 43.7027 143.07 43.7027Z" fill="#E91B31"/>
<path d="M143.143 43.5896C143.143 43.5896 141.659 43.9814 141.945 44.5264C142.232 45.0716 143.143 43.5896 143.143 43.5896Z" fill="#F7A10C"/>
<path d="M142.352 44.029C142.262 44.0853 142.176 44.155 142.132 44.232C142.11 44.2732 142.115 44.3094 142.103 44.3407C142.084 44.3752 142.089 44.4177 142.07 44.4864L142.056 44.4944C141.992 44.4672 141.95 44.4081 141.941 44.3333C141.934 44.2573 141.985 44.1914 142.031 44.1502C142.126 44.0613 142.238 44.029 142.347 44.014L142.352 44.029Z" fill="#F6F5FD"/>
<path d="M128.847 38.3257C128.847 38.3257 127.363 38.7176 127.649 39.2625C127.936 39.8078 128.847 38.3257 128.847 38.3257Z" fill="#E91B31"/>
<path d="M128.92 38.2126C128.92 38.2126 127.436 38.6044 127.722 39.1494C128.009 39.6947 128.92 38.2126 128.92 38.2126Z" fill="#F7A10C"/>
<path d="M128.13 38.6521C128.04 38.7083 127.953 38.778 127.909 38.855C127.888 38.8963 127.893 38.9324 127.88 38.9637C127.861 38.9982 127.866 39.0407 127.847 39.1094L127.833 39.1174C127.769 39.0903 127.727 39.0311 127.718 38.9563C127.711 38.8803 127.762 38.8144 127.809 38.7732C127.903 38.6843 128.015 38.6521 128.125 38.6367L128.13 38.6521Z" fill="#F6F5FD"/>
<path d="M140.018 37.3931C140.018 37.3931 139.988 35.9768 137.685 34.9205C137.685 34.9205 138.072 34.3471 139.527 35.1708C139.527 35.1708 139.605 32.6499 138.544 32.0452C138.544 32.0452 141.113 32.5422 141.71 34.8531L142.036 33.0967C142.036 33.0967 143.695 34.2937 143.471 38.0873C143.471 38.0873 144.871 36.4716 144.836 35.0212C144.836 35.0212 145.938 36.5467 145.754 37.8239C145.754 37.8239 146.439 36.8855 148.013 36.7701C149.586 36.6548 150.588 36.9185 150.588 36.9185C150.588 36.9185 150.015 38.6546 148.341 39.0458C146.668 39.4371 146.668 39.4371 146.668 39.4371C146.668 39.4371 149.197 39.0132 150.13 40.2275C150.13 40.2275 147.455 40.713 147.407 41.4456C147.36 42.1781 149.789 41.8534 150.77 44.0537C150.77 44.0537 148.235 43.2882 147.57 43.8277C147.57 43.8277 149.788 45.2906 149.344 48.3164C149.344 48.3164 147.304 44.387 146.08 44.6606C146.08 44.6606 146.735 46.8986 145.116 48.3414C145.116 48.3414 145.004 43.9255 144.178 42.5C143.353 41.0748 139.376 42.1283 139.376 42.1283C139.376 42.1283 139.876 40.1537 142.508 40.0485C142.508 40.0485 139.04 38.0688 137.404 38.786C137.404 38.7866 138.35 37.255 140.018 37.3931Z" fill="#548B37"/>
<path d="M166.782 142.546C166.782 142.546 162.039 142.258 161.797 146.406C161.554 150.554 167.123 156.947 172.447 153.52C177.772 150.093 177.56 144.951 174.236 141.362C170.912 137.773 168.154 139.841 166.782 142.546Z" fill="#D70D11"/>
<path d="M167.149 143.016C167.149 143.016 165.416 142.206 163.59 144.471C161.764 146.737 165.732 153.267 170.41 150.991C175.088 148.714 175.106 144.555 173.025 141.638C170.943 138.72 168.686 140.297 167.149 143.016Z" fill="#E90D11"/>
<path d="M168.229 142.933C168.229 142.933 169.299 141.232 170.811 141.245C172.322 141.259 175.593 146.465 171.664 148.539C167.734 150.613 166.095 145.207 168.229 142.933Z" fill="#E91B31"/>
<path d="M169.547 141.222C169.905 140.94 170.36 140.784 170.854 140.77C171.101 140.765 171.354 140.81 171.594 140.895C171.72 140.93 171.827 140.995 171.941 141.054C171.996 141.085 172.054 141.114 172.109 141.148L172.259 141.26C172.471 141.407 172.649 141.575 172.835 141.75C173.002 141.931 173.13 142.143 173.213 142.369C173.356 142.826 173.393 143.307 173.224 143.805L173.116 143.836C172.893 143.68 172.732 143.518 172.594 143.353C172.447 143.193 172.311 143.043 172.206 142.88C171.953 142.595 171.892 142.2 171.652 141.93C171.426 141.658 171.141 141.44 170.784 141.331C170.608 141.263 170.413 141.248 170.212 141.238C170.013 141.245 169.802 141.266 169.602 141.321L169.547 141.222Z" fill="#F6F5FD"/>
<path d="M167.954 142.578C167.954 142.578 167.753 143.673 167.046 144.04C166.339 144.407 165.951 143.89 166.132 143.609C166.313 143.327 166.941 143.564 167.018 143.195C167.094 142.825 167.679 142.223 167.954 142.578Z" fill="#D70D11"/>
<path d="M151.827 147.794C151.827 147.794 148.025 144.943 145.54 148.273C143.055 151.603 144.186 160.006 150.517 160.075C156.849 160.144 159.503 155.734 158.702 150.908C157.902 146.082 154.462 146.291 151.827 147.794Z" fill="#D70D11"/>
<path d="M151.875 148.388C151.875 148.388 150.873 146.758 148.102 147.645C145.331 148.531 145.05 156.168 150.209 156.842C155.367 157.515 157.672 154.053 157.539 150.472C157.407 146.89 154.654 146.964 151.875 148.388Z" fill="#E90D11"/>
<path d="M152.822 148.913C152.822 148.913 154.652 148.083 155.906 148.926C157.161 149.768 157.027 155.915 152.605 155.485C148.183 155.054 149.789 149.638 152.822 148.913Z" fill="#E91B31"/>
<path d="M154.864 148.21C155.319 148.172 155.784 148.292 156.205 148.553C156.413 148.684 156.6 148.861 156.754 149.064C156.84 149.162 156.893 149.276 156.955 149.388C156.985 149.444 157.017 149.501 157.045 149.558L157.108 149.735C157.205 149.974 157.261 150.212 157.32 150.461C157.36 150.704 157.35 150.952 157.295 151.186C157.163 151.646 156.929 152.068 156.514 152.391L156.406 152.357C156.306 152.104 156.261 151.881 156.237 151.667C156.202 151.452 156.172 151.252 156.173 151.058C156.119 150.681 156.285 150.318 156.233 149.961C156.194 149.609 156.076 149.27 155.839 148.983C155.729 148.829 155.574 148.709 155.412 148.59C155.243 148.486 155.054 148.388 154.857 148.323L154.864 148.21Z" fill="#F6F5FD"/>
<path d="M152.788 148.466C152.788 148.466 152.017 149.27 151.225 149.187C150.433 149.104 150.394 148.459 150.7 148.324C151.005 148.188 151.4 148.731 151.667 148.465C151.935 148.199 152.754 148.018 152.788 148.466Z" fill="#D70D11"/>
<path d="M167.186 143.606C167.186 143.606 160.202 125.633 149.63 125.178L148.69 126.267C148.69 126.267 153.964 143.479 150.888 148.912C150.888 148.912 151.774 149.048 152.312 148.33C152.849 147.612 153.072 136.676 149.489 126.727C149.489 126.727 149.029 126.927 150.125 126.558C151.221 126.19 157.828 126.093 166.75 143.507C166.75 143.507 166.76 143.741 167.186 143.606Z" fill="#865F1A"/>
<path d="M148.788 126.22C148.788 126.22 142.266 128.469 142.192 133.987C142.118 139.505 142.852 142.344 142.852 142.344C142.852 142.344 147.841 138.883 149.09 135.551C150.338 132.219 148.788 126.22 148.788 126.22Z" fill="#548B37"/>
<path d="M148.789 126.22C148.789 126.22 147.622 127.143 145.979 131.322C144.336 135.502 142.853 142.343 142.853 142.343L145.207 136.992L145.574 138.413C145.574 138.413 146.329 133.142 146.537 132.669C146.746 132.196 147.399 134.265 147.399 134.265C147.399 134.265 147.236 130.197 147.44 130.026C147.645 129.856 148.246 130.958 148.246 130.958C148.246 130.958 148.263 127.365 148.789 126.22Z" fill="#3F7937"/>
<path d="M148.788 126.22C148.788 126.22 145.272 129.301 145.092 129.71C145.092 129.71 146.02 129.304 146.075 129.622C146.131 129.94 144.222 132.65 144.222 132.65C144.222 132.65 145.279 131.948 145.38 132.313C145.482 132.677 142.826 137.378 142.826 137.378C142.826 137.378 143.733 136.404 144.027 136.647C144.322 136.89 142.852 142.343 142.852 142.343C142.852 142.343 145.302 134.787 145.981 132.577C146.66 130.367 148.788 126.22 148.788 126.22Z" fill="#549837"/>
<path d="M182.636 99.2771C183.18 100.177 182.892 101.348 181.991 101.893C181.091 102.437 179.92 102.149 179.376 101.248C178.831 100.348 179.12 99.177 180.02 98.6327C180.92 98.0887 182.091 98.377 182.636 99.2771Z" fill="#8EBF3F"/>
<path d="M130.74 124.852C131.284 125.752 130.996 126.923 130.096 127.467C129.196 128.012 128.025 127.723 127.48 126.823C126.936 125.923 127.224 124.752 128.124 124.207C129.025 123.663 130.195 123.952 130.74 124.852Z" fill="#8EBF3F"/>
<path d="M100.657 143.334C101.201 144.234 100.913 145.405 100.013 145.949C99.1126 146.494 97.9415 146.205 97.3972 145.305C96.8529 144.405 97.1412 143.234 98.0416 142.69C98.9416 142.145 100.112 142.434 100.657 143.334Z" fill="#8EBF3F"/>
<path d="M146.627 85.9962C147.171 86.8962 146.883 88.0673 145.982 88.6116C145.082 89.1559 143.911 88.8676 143.367 87.9673C142.823 87.0672 143.111 85.8961 144.011 85.3518C144.911 84.8075 146.082 85.0961 146.627 85.9962Z" fill="#8EBF3F"/>
<path d="M157.127 47.3403C157.671 48.2404 157.383 49.4115 156.482 49.9558C155.582 50.5001 154.411 50.2118 153.867 49.3114C153.323 48.4114 153.611 47.2403 154.511 46.696C155.411 46.152 156.582 46.4403 157.127 47.3403Z" fill="#8EBF3F"/>
<path d="M110.347 49.4466C110.892 50.3467 110.603 51.5178 109.703 52.0621C108.803 52.6064 107.632 52.3181 107.088 51.4177C106.543 50.5177 106.832 49.3466 107.732 48.8023C108.632 48.2583 109.803 48.5466 110.347 49.4466Z" fill="#8EBF3F"/>
<path d="M104.992 92.8191C105.536 93.7192 105.248 94.8903 104.348 95.4346C103.448 95.9789 102.276 95.6906 101.732 94.7902C101.188 93.8902 101.476 92.7191 102.377 92.1748C103.277 91.6305 104.448 91.9191 104.992 92.8191Z" fill="#8EBF3F"/>
<path d="M185.068 138.854C185.612 139.754 185.324 140.925 184.424 141.469C183.524 142.014 182.353 141.725 181.808 140.825C181.264 139.925 181.552 138.754 182.453 138.209C183.353 137.665 184.524 137.953 185.068 138.854Z" fill="#8EBF3F"/>
<path d="M176.094 109.902C176.491 109.568 177.083 109.619 177.417 110.016C177.751 110.413 177.7 111.006 177.303 111.34C176.906 111.674 176.314 111.622 175.98 111.225C175.646 110.828 175.698 110.236 176.094 109.902Z" fill="#8EBF3F"/>
<path d="M157.333 136.184C157.73 135.85 158.322 135.901 158.656 136.298C158.99 136.695 158.939 137.287 158.542 137.621C158.145 137.955 157.553 137.904 157.219 137.507C156.885 137.11 156.936 136.517 157.333 136.184Z" fill="#8EBF3F"/>
<path d="M140.537 115.704C140.934 115.37 141.526 115.421 141.86 115.818C142.194 116.215 142.143 116.807 141.746 117.141C141.349 117.475 140.757 117.424 140.423 117.027C140.089 116.63 140.14 116.038 140.537 115.704Z" fill="#8EBF3F"/>
<path d="M104.81 107.328C105.207 106.995 105.799 107.045 106.133 107.442C106.467 107.839 106.416 108.432 106.019 108.766C105.622 109.1 105.03 109.049 104.696 108.652C104.362 108.255 104.413 107.662 104.81 107.328Z" fill="#8EBF3F"/>
<path d="M77.9996 92.1134C78.3966 91.7794 78.9889 91.8305 79.3229 92.2275C79.6569 92.6245 79.6057 93.2167 79.2088 93.5507C78.8118 93.8844 78.2195 93.8336 77.8859 93.4366C77.5515 93.0397 77.6027 92.4471 77.9996 92.1134Z" fill="#8EBF3F"/>
<path d="M115.106 65.839C115.503 65.505 116.095 65.5561 116.429 65.9531C116.763 66.3501 116.712 66.9423 116.315 67.276C115.918 67.61 115.326 67.5589 114.992 67.1619C114.658 66.7649 114.709 66.1727 115.106 65.839Z" fill="#8EBF3F"/>
<path d="M157.333 61.5609C157.73 61.2272 158.322 61.278 158.656 61.675C158.99 62.072 158.939 62.6642 158.542 62.9982C158.145 63.3322 157.553 63.2811 157.219 62.8841C156.885 62.4871 156.936 61.8949 157.333 61.5609Z" fill="#8EBF3F"/>
<path d="M167.822 85.557C168.219 85.223 168.811 85.2742 169.145 85.6711C169.479 86.0681 169.428 86.6604 169.031 86.9944C168.634 87.3284 168.042 87.2772 167.708 86.8803C167.374 86.4833 167.425 85.8907 167.822 85.557Z" fill="#8EBF3F"/>
<path d="M132.288 76.9158C132.685 76.5818 133.277 76.6329 133.611 77.0299C133.945 77.4268 133.894 78.0191 133.497 78.3531C133.1 78.6871 132.508 78.636 132.174 78.239C131.84 77.842 131.891 77.2494 132.288 76.9158Z" fill="#8EBF3F"/>
<path d="M194.397 84.2268C194.794 83.8931 195.386 83.9439 195.72 84.3409C196.054 84.7378 196.003 85.3301 195.606 85.6641C195.209 85.9978 194.617 85.947 194.283 85.55C193.949 85.153 194 84.5605 194.397 84.2268Z" fill="#8EBF3F"/>
</svg>
