<svg width="285" height="356" viewBox="0 0 285 356" fill="none" xmlns="http://www.w3.org/2000/svg">
<path d="M204.992 61.7119C209.1 62.6724 213.198 63.6359 217.21 64.9486C220.101 65.8949 223.282 67.3059 226.161 68.0086C226.512 68.0942 226.898 67.8446 227.231 67.7124C228.565 71.162 229.889 74.5792 230.614 78.2223C231.622 83.2933 232.113 88.678 232.158 93.848C232.258 105.14 230.075 123.948 225.51 134.269C225 135.422 224.443 136.59 223.737 137.638C223.121 137.228 222.569 136.799 222.019 136.305C220.407 135.244 218.773 134.341 216.972 133.644C217.686 130.531 218.025 127.375 218.166 124.188C217.996 122.322 218.318 120.593 218.327 118.754C218.249 112.55 218.364 106.392 217.737 100.203C216.509 88.0673 211.914 71.8367 204.992 61.7119Z" fill="#231C25"/>
<path d="M218.165 124.188C218.388 122.751 218.324 121.293 218.401 119.844C219.468 123.22 223.181 133.471 222.018 136.304C220.406 135.244 218.772 134.341 216.971 133.644C217.685 130.531 218.024 127.375 218.165 124.188Z" fill="#161924"/>
<path d="M207.111 155.579C210.612 151.443 213.846 147.14 216.192 142.233C220.147 145.038 222.863 148.458 223.709 153.331C224.47 157.718 223.624 162.5 221.028 166.163C219.087 168.901 216.415 171.005 213.032 171.531C210.553 171.918 207.817 171.496 205.396 170.933C206.093 166.738 207.655 159.715 207.111 155.579Z" fill="#CC734A"/>
<path d="M198.455 88.8887C198.881 88.7905 198.981 88.708 199.368 88.9627C201.692 90.4917 212.305 106.971 214.024 109.987C215.234 112.109 216.248 114.259 217.127 116.534C217.323 117.04 217.797 118.709 218.249 118.791L218.326 118.754C218.318 120.593 217.995 122.322 218.165 124.188C218.024 127.375 217.685 130.531 216.971 133.644C217.046 136.622 217.281 139.388 216.193 142.233C213.847 147.14 210.613 151.443 207.112 155.579C205.625 157.234 204.089 158.844 202.505 160.408C202.949 157.915 203.612 155.474 204.023 152.97C206.647 136.965 207.826 118.466 203.605 102.616C202.336 97.849 200.497 93.3691 198.455 88.8887Z" fill="url(#paint0_linear_924_1624)"/>
<path d="M0.347656 354.952C1.14492 344.522 4.00533 333.928 7.9332 324.258C12.2903 313.531 19.5418 304.225 29.293 297.89C33.9974 294.834 39.1689 292.341 44.0927 289.652C52.8169 284.887 61.7275 280.279 70.8862 276.398C71.983 281.38 72.5897 286.509 73.36 291.551C75.2077 303.645 76.717 315.812 78.651 327.887C77.9865 328.926 78.92 332.92 79.1225 334.19C83.069 330.96 87.1265 327.862 91.0517 324.607C94.2468 321.958 97.2635 319.153 100.587 316.651C103.642 318.935 106.223 321.829 109.084 324.347L133.907 346.306C135.62 347.811 140.383 352.46 142.067 353.266C141.798 353.657 141.529 353.964 141.533 354.462C142.055 354.88 142.882 354.827 143.55 354.986C138.086 355.173 132.522 354.944 127.049 354.923L96.8082 354.882L0.347656 354.952Z" fill="#902332"/>
<path d="M58.874 13.761C69.5397 17.6574 78.8359 17.1018 89.0824 12.2072C92.3583 10.6423 95.4336 8.72881 98.7532 7.23267C99.3642 6.95885 99.9782 6.69237 100.595 6.43342C101.213 6.17447 101.833 5.92304 102.457 5.67921C103.08 5.43531 103.706 5.19909 104.335 4.9704C104.964 4.74171 105.596 4.52071 106.231 4.30741C106.865 4.09411 107.502 3.88859 108.142 3.69077C108.781 3.49294 109.423 3.3029 110.067 3.12072C110.711 2.93846 111.358 2.76416 112.006 2.59763C112.654 2.43111 113.305 2.27254 113.957 2.12175C114.609 1.97104 115.263 1.82829 115.919 1.69341C116.574 1.55862 117.232 1.43178 117.89 1.3129C118.549 1.19401 119.209 1.08325 119.871 0.980364C120.532 0.877561 121.195 0.782799 121.859 0.696078C122.522 0.609357 123.187 0.530764 123.853 0.460211C124.519 0.389658 125.185 0.327233 125.852 0.272849C126.519 0.218551 127.187 0.172294 127.855 0.134164C128.524 0.0960343 129.193 0.0660333 129.861 0.0441585C130.531 0.0222837 131.2 0.00853451 131.869 0.0029145C132.539 -0.00270551 133.208 -0.000197637 133.877 0.0104372C134.547 0.021072 135.216 0.0398342 135.885 0.0667238C136.553 0.0936134 137.222 0.128717 137.89 0.171862C138.558 0.215006 139.225 0.266277 139.892 0.325589C140.559 0.384988 141.225 0.452429 141.89 0.527997C142.555 0.603564 143.219 0.687173 143.882 0.778909C144.546 0.870559 145.207 0.970335 145.868 1.07807C146.529 1.1858 147.188 1.30166 147.846 1.42547C148.504 1.54928 149.16 1.68105 149.815 1.82077C150.469 1.96049 151.122 2.10817 151.773 2.2638C152.424 2.41944 153.074 2.58293 153.72 2.7543C154.367 2.92567 155.012 3.1049 155.655 3.29192C156.298 3.47894 156.939 3.67382 157.577 3.87649C158.214 4.07907 158.85 4.28943 159.483 4.50748C160.116 4.72554 160.746 4.95129 161.373 5.18465C173.796 9.91255 185.773 17.9412 193.302 29.0639C195.592 32.4466 197.445 36.2321 199.119 39.9519C201.053 40.4715 202.98 40.9807 204.825 41.7753C215.386 46.3221 223.158 57.3364 227.23 67.7125C228.564 71.1621 229.888 74.5793 230.613 78.2224C231.621 83.2934 232.112 88.6782 232.157 93.8481C232.257 105.14 230.074 123.949 225.51 134.269C224.999 135.422 224.443 136.59 223.736 137.638C223.12 137.228 222.568 136.799 222.018 136.305C220.406 135.244 218.772 134.341 216.971 133.644C217.685 130.531 218.024 127.375 218.165 124.188C217.995 122.322 218.317 120.593 218.326 118.754L218.249 118.791C217.797 118.709 217.323 117.04 217.127 116.534C216.248 114.259 215.234 112.109 214.024 109.987C212.305 106.971 201.692 90.4919 199.368 88.9628C198.981 88.708 198.881 88.7906 198.455 88.8889C197.112 86.9329 196.148 84.6622 194.828 82.665C191.967 78.3397 188.688 74.3208 185.48 70.2528C183.422 67.643 181.44 64.8378 179.157 62.4267C171.337 70.2155 163.065 77.0953 153.24 82.2444C151.308 83.2677 149.341 84.2189 147.34 85.0978C146.069 85.6428 144.671 86.0904 143.458 86.7468L143.179 86.901C139.151 88.4215 135.052 89.4914 130.894 90.5759C132.454 89.6248 133.974 88.6125 135.452 87.5391C136.931 86.4654 138.364 85.3339 139.751 84.1444C141.139 82.9551 142.476 81.712 143.763 80.4149C145.05 79.1176 146.283 77.7706 147.461 76.3739C146.966 76.2812 146.928 76.3649 146.508 76.6525C145.361 77.4374 144.327 78.389 143.175 79.1821C139.871 81.4576 136.351 83.5694 132.855 85.537C120.318 92.5947 103.815 97.8707 89.6704 100.108C86.7333 100.572 83.7802 100.696 80.8364 101.057C80.8457 99.13 81.3186 97.2196 81.7591 95.355C80.9686 94.733 77.6747 95.2997 76.5319 95.3904C72.6273 95.7005 68.853 95.8212 64.9312 95.7861C63.6521 95.7749 58.7907 95.4215 57.887 95.6203C57.7962 95.6401 57.7181 95.6987 57.6337 95.7379L57.4645 96.7922C57.4044 96.3917 57.4388 96.033 57.3304 95.6322C55.2515 94.8373 51.9546 94.7449 49.6776 94.3781C47.9827 94.105 46.2807 93.6608 44.6074 93.2719C36.5803 91.4073 29.789 88.9223 22.1094 86.0902C22.9845 85.7904 23.8536 85.4735 24.7166 85.1398C25.5793 84.8058 26.4353 84.4554 27.2846 84.0885C28.1339 83.7214 28.9757 83.338 29.81 82.9383C30.6444 82.5386 31.4706 82.1226 32.2887 81.6906C33.1068 81.2587 33.9162 80.8111 34.717 80.3476C35.5177 79.8843 36.3091 79.4057 37.091 78.9115C37.8731 78.4172 38.6453 77.908 39.4076 77.3839C40.1699 76.8597 40.9218 76.3209 41.6633 75.7674C42.4045 75.2138 43.1347 74.6461 43.854 74.0643C44.5733 73.4825 45.2809 72.887 45.977 72.2775C46.6732 71.668 47.3572 71.0454 48.0291 70.4096C48.7011 69.7735 49.3603 69.1246 50.0069 68.4629C50.6537 67.8014 51.2873 67.1275 51.9076 66.4411C52.528 65.7549 53.1349 65.0568 53.7281 64.3468C54.3213 63.637 54.9006 62.9159 55.466 62.1834C56.0311 61.4512 56.5818 60.7081 57.1183 59.9543C45.9121 53.423 36.4646 47.6602 29.4099 36.2514C30.9705 36.6265 32.5428 36.9433 34.1268 37.2018C47.6888 39.4097 62.8446 36.7195 74.0972 28.5971C68.1448 24.8889 61.9837 20.2296 58.874 13.761Z" fill="#452E3B"/>
<path d="M81.7588 95.3552C81.8974 95.0623 82.0237 95.0575 82.352 94.9813C83.9576 94.6081 85.7236 94.5386 87.3606 94.2969C89.5397 93.9756 91.7344 93.4735 93.9008 93.0577C111.143 89.7508 130.764 82.1847 145.307 72.2822C147.968 70.4703 150.41 68.4478 152.866 66.3726C151.746 69.8517 150.057 73.7332 147.461 76.374C146.966 76.2813 146.928 76.365 146.508 76.6527C145.36 77.4376 144.327 78.3891 143.175 79.1822C139.87 81.4577 136.35 83.5695 132.855 85.5372C120.317 92.5949 103.814 97.8708 89.67 100.108C86.7329 100.572 83.7798 100.696 80.8359 101.057C80.8454 99.1302 81.3184 97.2198 81.7588 95.3552Z" fill="#E9986B"/>
<path d="M123.862 16.6533C125.846 16.6126 127.828 16.6447 129.809 16.7494C131.79 16.8542 133.764 17.0314 135.732 17.2811C137.7 17.5308 139.656 17.8523 141.6 18.2456C143.545 18.6389 145.472 19.1029 147.382 19.6376C157.741 22.5788 166.668 28.1522 171.985 37.7853C175.956 44.9805 175.666 52.1286 173.457 59.8131C172.257 51.5821 170.105 46.6796 165.466 39.8603C165.009 40.8469 164.566 41.8425 163.952 42.7447C161.414 46.4772 157.954 49.7097 154.526 52.6045C138.794 65.892 117.024 74.1959 96.9773 78.0864C99.1892 76.1706 101.69 74.5041 104.082 72.8185C108.088 69.9699 112.2 67.2825 116.418 64.7566C120.636 62.2308 124.946 59.8741 129.348 57.6867C132.743 55.9768 136.266 54.5363 139.642 52.8058C137.34 52.7352 135.051 52.4502 132.745 52.3897C128.198 51.9818 123.459 52.3333 118.934 52.8604C102.219 54.8078 83.6472 60.973 70.291 71.4101C70.5099 71.1139 70.7378 70.8251 70.9747 70.5434C73.7167 67.2753 77.2475 64.305 80.5021 61.5487C95.1553 49.1402 112.471 39.8956 131.436 36.3586C134.941 35.7048 138.539 35.2255 142.1 35.0473C144.937 34.905 147.784 34.9647 150.615 34.7144C132.706 25.2761 112.324 22.876 92.3632 22.5218C102.49 18.7808 113.12 17.1331 123.862 16.6533Z" fill="#5C3F4D"/>
<path d="M104.184 231.055C104.204 230.224 104.23 229.394 104.216 228.562C109.73 235.421 114.064 240.216 121.165 245.52C123.765 247.461 126.468 249.323 129.555 250.405C132.702 253.001 138.599 253.85 142.547 253.922C143.785 253.855 145.018 253.733 146.245 253.555C161.743 251.292 171.487 241.502 180.34 229.527C180.407 229.774 180.456 230.022 180.506 230.274C180.417 232.127 180.088 234.655 180.507 236.452C183.64 239.348 186.805 242.208 190.003 245.031C195.923 250.641 201.794 256.302 207.616 262.014C209.905 264.23 212.335 266.334 214.569 268.598C213.938 271.463 213.441 274.456 213.276 277.39C219.906 279.44 226.41 282.457 232.68 285.414C243.468 290.504 255.357 296.138 264.198 304.293C268.483 308.246 271.834 312.9 274.54 318.044C280.078 328.571 283.982 343.158 284.689 355.021C272.716 354.9 260.743 354.869 248.77 354.928L178.57 354.895C166.905 354.927 155.212 355.191 143.55 354.986C142.882 354.828 142.055 354.88 141.533 354.462C141.529 353.964 141.798 353.657 142.067 353.266C140.383 352.461 135.62 347.811 133.907 346.306L109.084 324.348C106.223 321.829 103.642 318.935 100.587 316.651C97.2636 319.153 94.2469 321.958 91.0517 324.607C87.1265 327.862 83.069 330.96 79.1225 334.19C78.92 332.92 77.9865 328.927 78.6511 327.887C76.7171 315.812 75.2078 303.645 73.36 291.551C72.5897 286.509 71.983 281.38 70.8862 276.398C70.4139 274 70.0449 271.593 69.6836 269.176C71.6924 267.014 73.9309 265.037 76.0184 262.946L94.409 244.64C97.5359 241.639 100.541 238.444 103.764 235.555C104.409 234.646 104.164 232.221 104.184 231.055Z" fill="#691423"/>
<path d="M165.931 300.595C163.85 305.462 161.424 310.177 159.161 314.96C155.923 321.831 152.735 328.725 149.596 335.642C147.714 339.717 145.521 343.768 143.945 347.971L143.316 349.273C143.021 348.939 142.857 348.698 142.814 348.243C142.628 346.279 142.782 344.144 142.794 342.16C142.832 335.863 143.154 329.601 143.491 323.315C143.759 317.565 143.818 311.812 143.67 306.058C151.632 305.972 158.886 304.309 165.931 300.595Z" fill="#83DEDA"/>
<path d="M118.615 300.145C125.633 304.496 134.313 306.059 142.499 305.894L143.671 306.058C143.819 311.812 143.759 317.565 143.492 323.315C143.155 329.601 142.832 335.862 142.794 342.16C142.782 344.144 142.628 346.279 142.814 348.243C142.858 348.698 143.021 348.939 143.317 349.273L141.969 352.412C140.427 347.974 138.387 343.772 136.549 339.457C133.355 331.959 130.185 324.405 126.649 317.06C124.831 313.299 123.032 309.529 121.252 305.75C120.373 303.904 119.321 302.06 118.615 300.145Z" fill="#B1EFEC"/>
<path d="M142.547 253.922C143.785 253.855 145.017 253.733 146.244 253.555C161.742 251.292 171.486 241.502 180.339 229.527C180.407 229.774 180.455 230.022 180.506 230.274C180.416 232.127 180.087 234.655 180.507 236.452C183.639 239.348 186.804 242.208 190.002 245.031C195.922 250.641 201.793 256.302 207.615 262.014C209.904 264.23 212.334 266.334 214.568 268.598C213.937 271.463 213.44 274.456 213.275 277.39C212.784 278.9 212.696 280.701 212.468 282.275L211.046 292.112C209.36 303.731 207.5 315.335 206.036 326.983C197.571 321.278 189.169 315.48 180.832 309.59C176.086 306.291 171.352 302.755 166.383 299.804L165.931 300.595C158.886 304.309 151.632 305.972 143.67 306.058L142.498 305.894C141.979 301.25 142.419 296.213 142.44 291.526C142.476 283.78 142.293 275.983 142.543 268.243L142.632 268.189C142.337 266.921 142.55 265.136 142.55 263.819L142.547 253.922Z" fill="#B04A47"/>
<path d="M142.547 253.922C143.785 253.855 145.017 253.733 146.244 253.555C161.742 251.292 171.486 241.502 180.339 229.527C180.407 229.774 180.455 230.022 180.506 230.274C180.416 232.127 180.087 234.655 180.507 236.452C183.639 239.348 186.804 242.208 190.002 245.031C188.347 248.684 187.125 252.508 185.64 256.231C185.184 257.376 184.77 258.687 184.181 259.766L170.972 289.746C169.501 293.106 167.736 296.403 166.383 299.804L165.931 300.595C158.886 304.309 151.632 305.972 143.67 306.058L142.498 305.894C141.979 301.25 142.419 296.213 142.44 291.526C142.476 283.78 142.293 275.983 142.543 268.243L142.632 268.189C142.337 266.921 142.55 265.136 142.55 263.819L142.547 253.922Z" fill="#E9986B"/>
<path d="M180.507 236.452C183.64 239.348 186.805 242.208 190.003 245.031C188.348 248.684 187.126 252.508 185.641 256.231C185.185 257.376 184.771 258.687 184.182 259.766L180.434 259.775C180.362 254.97 180.464 250.16 180.439 245.354C180.429 242.417 180.245 239.373 180.507 236.452Z" fill="#691423"/>
<path d="M142.547 253.922C143.785 253.855 145.018 253.733 146.245 253.555C161.743 251.292 171.487 241.502 180.34 229.527C180.407 229.774 180.456 230.022 180.506 230.274C180.417 232.127 180.088 234.655 180.507 236.452C180.246 239.373 180.429 242.417 180.439 245.354C178.889 247.687 177.469 250.08 175.777 252.319C170.115 259.813 162.499 265.947 153.133 267.827C152.27 267.995 151.401 268.129 150.527 268.229C149.653 268.328 148.776 268.393 147.897 268.423C147.018 268.454 146.139 268.45 145.26 268.41C144.381 268.371 143.505 268.297 142.632 268.189C142.338 266.921 142.551 265.136 142.551 263.82L142.547 253.922Z" fill="#CC734A"/>
<path d="M104.184 231.055C104.204 230.224 104.23 229.394 104.216 228.562C109.73 235.421 114.064 240.216 121.165 245.52C123.765 247.461 126.468 249.323 129.555 250.405C132.702 253.001 138.599 253.85 142.547 253.922L142.551 263.82C142.551 265.136 142.338 266.921 142.632 268.189L142.544 268.243C142.294 275.983 142.477 283.78 142.441 291.526C142.42 296.213 141.98 301.25 142.499 305.894C134.313 306.059 125.633 304.496 118.615 300.145C108.884 306.457 99.4569 313.419 89.9578 320.087C86.6128 322.436 82.1347 326.129 78.6511 327.887C76.7171 315.812 75.2078 303.645 73.36 291.551C72.5897 286.509 71.983 281.38 70.8862 276.398C70.4139 274 70.0449 271.593 69.6836 269.176C71.6924 267.014 73.9309 265.037 76.0184 262.946L94.409 244.64C97.5359 241.639 100.541 238.444 103.764 235.555C104.409 234.646 104.164 232.221 104.184 231.055Z" fill="#B04A47"/>
<path d="M104.185 231.055C104.205 230.224 104.232 229.394 104.217 228.562C109.731 235.421 114.065 240.216 121.166 245.52C123.766 247.461 126.469 249.323 129.556 250.405C132.703 253.001 138.6 253.85 142.548 253.922L142.552 263.82C142.552 265.136 142.339 266.921 142.634 268.189L142.545 268.243C142.295 275.983 142.478 283.78 142.442 291.526C142.421 296.213 141.981 301.25 142.5 305.894C134.314 306.059 125.635 304.496 118.617 300.145C116.551 296.356 114.827 292.367 113.026 288.448C108.639 278.905 104.554 269.184 99.8917 259.777C97.9009 254.798 96.2351 249.682 94.4102 244.64C97.537 241.639 100.542 238.444 103.765 235.555C104.41 234.646 104.165 232.221 104.185 231.055Z" fill="#FCC594"/>
<path d="M103.765 235.555L104.069 235.614C103.82 239.809 104.002 244.103 104.009 248.307C104.014 252.093 103.792 256.025 104.185 259.784L99.8917 259.777C97.9009 254.797 96.2351 249.682 94.4102 244.64C97.537 241.639 100.542 238.444 103.765 235.555Z" fill="#691423"/>
<path d="M104.184 231.055C104.203 230.224 104.23 229.394 104.216 228.562C109.729 235.421 114.063 240.216 121.164 245.52C123.764 247.461 126.467 249.323 129.554 250.405C132.702 253.001 138.598 253.85 142.547 253.922L142.55 263.82C142.551 265.136 142.338 266.921 142.632 268.189L142.543 268.243C139.764 267.49 137.064 267.116 134.348 266.025C123.709 261.749 115.019 251.356 108.318 242.396C106.846 240.428 105.794 237.52 104.221 235.764C104.173 235.711 104.119 235.664 104.067 235.614L103.764 235.555C104.408 234.646 104.164 232.221 104.184 231.055Z" fill="#E9986B"/>
<path d="M179.157 62.4268C181.44 64.8378 183.422 67.6431 185.48 70.2528C188.688 74.3208 191.967 78.3397 194.828 82.665C196.148 84.6622 197.112 86.9328 198.455 88.8889C198.881 88.7907 198.98 88.7081 199.368 88.9628C201.692 90.4919 212.305 106.971 214.024 109.987C215.234 112.109 216.248 114.259 217.127 116.534C217.322 117.04 217.797 118.709 218.249 118.791L218.326 118.754C218.317 120.593 217.994 122.322 218.165 124.188C218.024 127.375 217.685 130.531 216.971 133.644C218.772 134.341 220.406 135.244 222.018 136.305C222.568 136.799 223.12 137.228 223.736 137.638C227.613 140.552 231.293 147.398 231.992 152.211C232.931 158.675 231.498 165.697 227.506 170.942C224.341 175.1 219.813 177.982 214.6 178.66C210.922 179.137 207.413 178.595 203.948 177.332C201.186 187.906 197.781 198.481 192.881 208.277C190.721 212.594 188.35 216.99 185.759 221.059C184.214 223.487 182.287 225.781 180.939 228.319C180.621 228.918 180.576 229.611 180.506 230.273C180.455 230.022 180.407 229.774 180.34 229.527C171.487 241.502 161.742 251.292 146.245 253.554C145.018 253.732 143.785 253.855 142.547 253.922C138.599 253.85 132.702 253.001 129.555 250.405C126.468 249.323 123.765 247.461 121.165 245.519C114.064 240.216 109.729 235.421 104.216 228.562C104.23 229.393 104.204 230.224 104.184 231.055C104.082 230.316 104.072 229.556 104.031 228.811C102 226.06 99.9311 223.304 98.0868 220.422C93.3674 213.05 89.1896 204.674 86.1573 196.465C84.2913 191.415 82.9416 186.182 81.0844 181.15C80.1453 181.211 79.2049 181.241 78.2635 181.239C71.3795 181.214 64.8449 178.721 60.0172 173.759C55.2077 168.816 52.7615 161.888 52.9214 155.028C53.1284 146.165 56.4237 141.246 62.6319 135.38C61.4312 131.355 60.8738 127.058 60.2488 122.914C58.8551 114.256 57.9271 105.549 57.4645 96.7921L57.6337 95.7379C57.7181 95.6986 57.7962 95.64 57.8869 95.6202C58.7906 95.4214 63.652 95.7749 64.9311 95.786C68.853 95.8211 72.6273 95.7005 76.5319 95.3904C77.6747 95.2996 80.9685 94.7329 81.759 95.3549C81.3186 97.2195 80.8456 99.1299 80.8363 101.057C83.7801 100.696 86.7332 100.572 89.6704 100.108C103.815 97.8706 120.318 92.5946 132.855 85.537C136.351 83.5693 139.87 81.4574 143.175 79.182C144.327 78.3889 145.361 77.4374 146.508 76.6525C146.928 76.3648 146.966 76.2811 147.461 76.3738C146.283 77.7705 145.05 79.1175 143.763 80.4149C142.476 81.712 141.139 82.9551 139.751 84.1443C138.364 85.3338 136.931 86.4654 135.452 87.5391C133.974 88.6125 132.454 89.6248 130.894 90.5758C135.052 89.4914 139.151 88.4214 143.179 86.901L143.458 86.7467C144.671 86.0903 146.069 85.6428 147.34 85.0977C149.341 84.2188 151.308 83.2677 153.239 82.2443C163.065 77.0953 171.337 70.2155 179.157 62.4268Z" fill="#FCC594"/>
<path d="M155.468 171.412C155.01 169.456 153.838 167.605 153.047 165.759C150.943 160.844 149.55 154.488 149.841 149.166C150.784 154.407 151.986 159.267 154.027 164.209C154.706 165.851 157.511 170.31 157.693 171.428C156.951 171.427 156.209 171.422 155.468 171.412Z" fill="#E9986B"/>
<path d="M135.638 228.286C141.718 228.069 147.796 228.12 153.872 228.441C153.019 229.381 152.15 230.252 151.203 231.098C150.558 231.533 149.91 231.968 149.221 232.332C146.53 233.748 144.063 233.765 141.232 232.856C139.311 232.24 136.565 230.806 135.68 228.947C135.516 228.603 135.496 228.665 135.638 228.286Z" fill="#E9986B"/>
<path d="M130.5 172.437C134.047 175.793 137.672 178.097 142.72 177.978C142.925 177.973 143.131 177.963 143.336 177.949C143.542 177.934 143.746 177.915 143.951 177.891C144.155 177.867 144.359 177.839 144.562 177.805C144.765 177.772 144.967 177.734 145.169 177.691C145.37 177.648 145.57 177.601 145.769 177.549C145.968 177.497 146.166 177.44 146.363 177.379C146.559 177.318 146.754 177.252 146.948 177.182C147.141 177.111 147.332 177.037 147.522 176.957C147.712 176.878 147.9 176.795 148.086 176.707C148.273 176.619 148.456 176.527 148.638 176.43C148.82 176.334 149 176.233 149.177 176.128C149.354 176.024 149.529 175.915 149.701 175.802C149.873 175.69 150.042 175.573 150.209 175.452C150.375 175.331 150.539 175.207 150.7 175.078C150.861 174.95 151.019 174.818 151.174 174.682C151.328 174.547 151.48 174.408 151.628 174.265C152.432 173.493 153.1 172.579 153.904 171.816C154.424 171.322 154.792 171.417 155.468 171.412C156.209 171.422 156.951 171.427 157.693 171.428C157.638 171.739 157.579 172.049 157.519 172.358C157.109 174.554 156.139 176.341 154.561 177.911C151.244 181.21 146.261 183.05 141.616 183.028C138.198 183.011 134.613 181.74 132.231 179.213C130.272 177.134 130.446 175.099 130.5 172.437Z" fill="#E9986B"/>
<path d="M161.279 105.581C161.595 103.392 162.34 101.553 164.153 100.162C167.026 97.9591 171.042 98.0977 174.436 98.6421C180.903 99.6799 187.007 102.562 190.9 107.987C193.839 112.08 194.669 116.67 193.876 121.579C193.474 118.099 192.061 115.005 189.791 112.325C185.777 107.584 179.271 105.279 173.244 104.739C169.318 104.441 164.997 104.075 161.279 105.581Z" fill="url(#paint1_linear_924_1624)"/>
<path d="M90.6018 123.049C90.489 118.743 90.814 114.235 92.7741 110.319C95.4064 105.061 100.18 101.513 105.69 99.7071C109.661 98.406 115.591 97.0932 119.507 99.202C122.152 100.626 123.006 102.886 123.8 105.593C120.283 105.074 116.899 104.938 113.355 105.111C106.655 105.835 99.5867 106.878 95.1101 112.474C93.2534 114.796 92.2948 117.398 91.4949 120.227C91.2373 121.139 91.0538 122.222 90.6018 123.049Z" fill="#452E3B"/>
<path d="M103.907 155.606C107.007 155.12 111.025 155.692 113.771 157.249C115.059 157.979 116.285 159.076 116.66 160.564C116.938 161.666 116.661 162.785 116.032 163.714C114.446 166.055 111.447 166.933 108.82 167.441C105.584 167.958 101.987 167.845 99.0904 166.146C97.6193 165.284 96.1227 163.882 95.7506 162.151C95.5063 161.015 95.7894 159.862 96.4724 158.93C98.1083 156.695 101.313 155.955 103.907 155.606Z" fill="#E9986B"/>
<path d="M176.241 156.181C179.807 155.768 184.367 156.2 187.345 158.386C188.493 159.228 189.479 160.402 189.656 161.86C189.795 163.004 189.362 164.143 188.652 165.029C186.817 167.321 183.446 168.224 180.657 168.542C177.215 169.127 172.692 168.244 169.844 166.186C168.6 165.287 167.489 163.985 167.314 162.407C167.188 161.273 167.589 160.186 168.319 159.324C170.202 157.101 173.491 156.435 176.241 156.181Z" fill="#E9986B"/>
<path d="M71.0447 143.296C71.6996 145.286 72.5218 147.174 73.3845 149.081C73.7711 149.936 74.318 150.875 74.5892 151.766C74.0142 154.983 77.7968 168.745 78.9635 172.738C77.0669 172.61 75.2352 172.397 73.4233 171.787C69.1391 170.346 65.2654 167.043 63.2757 162.971C63.1789 162.769 63.087 162.564 63 162.357C62.9131 162.15 62.8312 161.942 62.7545 161.731C62.6781 161.52 62.6068 161.307 62.5409 161.093C62.4746 160.879 62.4138 160.663 62.3585 160.445C62.303 160.228 62.2529 160.009 62.2083 159.79C62.1637 159.57 62.1246 159.349 62.0907 159.127C62.057 158.906 62.0287 158.683 62.0058 158.46C61.9832 158.237 61.966 158.013 61.9543 157.789C61.9424 157.565 61.9361 157.341 61.9356 157.117C61.9348 156.892 61.9398 156.668 61.9502 156.444C61.9606 156.22 61.9765 155.997 61.998 155.773C62.0194 155.55 62.0463 155.327 62.0786 155.105C62.1111 154.883 62.1488 154.662 62.1922 154.442C62.2356 154.222 62.2844 154.003 62.3387 153.786C62.3927 153.568 62.4522 153.352 62.5169 153.137C62.5817 152.922 62.6518 152.709 62.7272 152.498C62.8171 152.249 62.913 152.002 63.0148 151.757C63.1167 151.512 63.2244 151.27 63.3379 151.03C63.4515 150.791 63.571 150.554 63.6963 150.32C63.8215 150.087 63.9523 149.856 64.0885 149.629C64.225 149.401 64.3668 149.178 64.514 148.957C64.6612 148.737 64.8138 148.52 64.9716 148.307C65.1295 148.094 65.2924 147.885 65.4602 147.68C65.6283 147.475 65.8013 147.274 65.9792 147.077C66.1568 146.881 66.3392 146.688 66.5265 146.501C66.7135 146.313 66.905 146.13 67.101 145.951C67.297 145.773 67.4973 145.599 67.7018 145.43C67.9062 145.262 68.1147 145.098 68.3271 144.94C68.5396 144.781 68.7557 144.628 68.9757 144.48C69.1956 144.331 69.419 144.189 69.6459 144.052C69.8727 143.915 70.1027 143.783 70.3358 143.657C70.5694 143.531 70.8057 143.41 71.0447 143.296Z" fill="#E9986B"/>
<path d="M90.6 123.049C91.052 122.222 91.2355 121.139 91.4932 120.227C92.2931 117.398 93.2517 114.796 95.1084 112.474C99.585 106.878 106.653 105.835 113.353 105.111L113.299 105.593C114.358 106.464 116.222 106.477 117.505 106.993C124.25 109.707 129.979 114.837 130.759 122.431C131.17 126.439 130.141 133.084 127.604 136.305C127.277 136.721 127.044 136.845 126.519 136.9C126.95 135.241 126.809 133.571 126.881 131.876L127.091 131.982L126.856 131.852L127.22 131.746C127.168 130.774 127.076 129.828 126.866 128.875C125.903 124.51 123.525 120.955 119.742 118.543C119.517 118.401 119.289 118.265 119.057 118.134C118.826 118.003 118.591 117.878 118.353 117.758C118.115 117.639 117.874 117.526 117.631 117.419C117.387 117.312 117.141 117.21 116.893 117.115C116.644 117.02 116.394 116.931 116.141 116.848C115.888 116.766 115.633 116.689 115.376 116.619C115.119 116.549 114.861 116.486 114.601 116.429C114.342 116.371 114.08 116.32 113.818 116.276C113.556 116.232 113.292 116.194 113.028 116.163C112.764 116.132 112.499 116.107 112.234 116.089C111.968 116.071 111.702 116.059 111.436 116.054C111.171 116.049 110.904 116.051 110.639 116.059C110.373 116.067 110.107 116.082 109.842 116.103C109.576 116.125 109.312 116.153 109.048 116.187C108.784 116.222 108.522 116.263 108.26 116.31C107.998 116.358 107.737 116.412 107.478 116.473C102.948 117.53 99.6684 120.228 97.2611 124.131C94.9535 124.085 92.5424 125.091 90.3984 125.855C90.4035 124.912 90.5058 123.985 90.6 123.049Z" fill="#E9986B"/>
<path d="M173.244 104.739C179.27 105.279 185.777 107.584 189.791 112.325C192.061 115.005 193.474 118.099 193.876 121.579C193.964 122.255 193.719 122.783 193.324 123.322C192.177 124.884 189.994 125.565 188.511 126.764C186.316 122.308 183.845 119.093 178.992 117.429C174.864 116.014 170.058 116.307 166.151 118.261C162.473 120.1 159.779 123.001 158.517 126.93C158.148 128.079 157.762 129.366 157.769 130.579L157.855 130.542L157.855 130.704C157.837 132.662 157.511 134.433 157.896 136.396L157.593 136.228C157.238 137.416 157.506 138.448 157.741 139.629C157.066 138.737 156.457 137.802 155.915 136.823C153.168 131.845 152.152 125.224 153.802 119.723C155.672 113.488 161.204 108.321 167.507 106.789C169.64 106.27 172.18 106.224 174.122 105.188C173.718 105.044 173.872 105.121 173.502 104.899C173.415 104.847 173.33 104.792 173.244 104.739Z" fill="#E9986B"/>
<path d="M132.107 218.471C130.849 218.44 129.886 218.314 128.968 217.373C127.375 215.743 127.451 212.953 127.538 210.825C127.549 210.553 127.567 210.281 127.592 210.01C127.617 209.739 127.648 209.468 127.687 209.198C127.725 208.929 127.77 208.66 127.822 208.393C127.874 208.125 127.932 207.859 127.997 207.594C128.062 207.33 128.134 207.067 128.212 206.806C128.29 206.545 128.375 206.286 128.466 206.029C128.557 205.772 128.655 205.518 128.759 205.266C128.863 205.014 128.973 204.765 129.089 204.519C129.205 204.272 129.328 204.029 129.456 203.789C129.585 203.548 129.719 203.311 129.86 203.078C130 202.845 130.146 202.615 130.298 202.388C130.45 202.162 130.607 201.94 130.77 201.721C130.933 201.503 131.101 201.289 131.275 201.079C131.449 200.869 131.628 200.664 131.812 200.463C131.996 200.262 132.184 200.065 132.378 199.874C132.572 199.682 132.77 199.496 132.974 199.314C135.767 196.787 139.301 195.514 143.061 195.728C146.769 195.939 150.076 197.424 152.537 200.228C152.727 200.444 152.911 200.664 153.09 200.889C153.27 201.114 153.443 201.343 153.61 201.577C153.778 201.81 153.94 202.048 154.096 202.29C154.252 202.531 154.401 202.777 154.545 203.026C154.689 203.275 154.826 203.527 154.957 203.783C155.088 204.039 155.213 204.298 155.331 204.56C155.449 204.823 155.56 205.088 155.665 205.355C155.77 205.623 155.868 205.893 155.959 206.166C156.05 206.438 156.135 206.713 156.213 206.99C156.29 207.267 156.361 207.545 156.425 207.826C156.489 208.106 156.546 208.388 156.595 208.671C156.645 208.954 156.688 209.239 156.723 209.524C156.759 209.809 156.787 210.095 156.808 210.382C156.83 210.668 156.844 210.956 156.851 211.243C156.858 211.531 156.858 211.818 156.85 212.106C156.843 212.393 156.829 212.68 156.807 212.967C156.69 214.644 156.379 216.496 155.075 217.686C154.277 218.415 153.324 218.432 152.294 218.483C145.635 218.259 138.761 218.181 132.107 218.471Z" fill="#691423"/>
<path d="M132.107 218.471C132.647 216.417 133.933 215.184 135.745 214.14C138.926 212.31 142.606 212.079 146.12 213.031C148.357 213.636 150.705 214.778 151.882 216.871C152.176 217.393 152.26 217.887 152.294 218.483C145.636 218.259 138.762 218.182 132.107 218.471Z" fill="#C20904"/>
<path d="M157.856 130.542L157.77 130.579C157.762 129.366 158.148 128.079 158.517 126.93C159.779 123.001 162.473 120.101 166.152 118.261C170.058 116.307 174.864 116.014 178.992 117.429C183.845 119.093 186.316 122.308 188.512 126.764C189.352 129.33 189.854 132.194 189.283 134.872L189.061 134.997C187.869 139.894 185.885 143.733 181.446 146.429C177.88 148.595 173.193 149.185 169.163 148.157C165.177 147.14 161.758 144.371 159.698 140.835C158.882 139.433 158.317 137.959 157.896 136.396C157.511 134.433 157.837 132.662 157.855 130.704L157.856 130.542Z" fill="#FEFEFE"/>
<path d="M157.856 130.542L157.77 130.579C157.762 129.366 158.148 128.079 158.517 126.93C159.779 123.001 162.473 120.101 166.152 118.261C170.058 116.307 174.864 116.014 178.992 117.429C183.845 119.093 186.316 122.308 188.512 126.764C189.352 129.33 189.854 132.194 189.283 134.872L189.061 134.997C189.177 132.079 188.765 129.323 187.455 126.682C185.717 123.177 182.325 120.278 178.613 119.053C178.362 118.971 178.11 118.894 177.856 118.824C177.602 118.754 177.346 118.69 177.089 118.632C176.832 118.574 176.574 118.523 176.314 118.478C176.054 118.433 175.793 118.395 175.532 118.362C175.27 118.33 175.008 118.305 174.745 118.286C174.482 118.267 174.219 118.254 173.955 118.248C173.692 118.242 173.428 118.243 173.165 118.25C172.901 118.257 172.638 118.27 172.376 118.29C172.113 118.31 171.85 118.337 171.589 118.369C171.327 118.402 171.067 118.442 170.807 118.488C170.548 118.533 170.289 118.586 170.032 118.644C169.775 118.703 169.52 118.767 169.266 118.839C169.012 118.91 168.76 118.987 168.51 119.071C168.261 119.155 168.013 119.245 167.767 119.34C167.522 119.436 167.279 119.538 167.039 119.646C166.798 119.754 166.56 119.868 166.325 119.987C161.76 122.288 159.424 125.799 157.856 130.542Z" fill="#902332"/>
<path d="M173.272 128.155C174.914 128.217 176.503 128.597 177.902 129.486C179.603 130.567 180.773 132.256 181.128 134.246C181.15 134.369 181.169 134.492 181.186 134.615C181.201 134.739 181.214 134.863 181.224 134.987C181.234 135.111 181.24 135.235 181.244 135.36C181.247 135.484 181.247 135.609 181.244 135.734C181.241 135.858 181.235 135.983 181.225 136.107C181.216 136.231 181.203 136.355 181.187 136.478C181.171 136.602 181.152 136.725 181.13 136.848C181.108 136.97 181.082 137.092 181.054 137.214C181.026 137.335 180.994 137.455 180.959 137.575C180.925 137.695 180.887 137.813 180.846 137.931C180.805 138.049 180.762 138.166 180.715 138.281C180.668 138.396 180.618 138.511 180.566 138.623C180.513 138.737 180.457 138.848 180.399 138.958C180.341 139.068 180.279 139.177 180.216 139.284C180.152 139.39 180.085 139.496 180.015 139.599C179.946 139.703 179.874 139.804 179.8 139.904C178.278 141.946 176.175 142.792 173.746 143.173C171.961 143.142 170.306 142.821 168.838 141.746C167.18 140.534 166.219 138.619 165.93 136.613C165.65 134.664 166.056 132.713 167.287 131.151C168.778 129.258 170.942 128.402 173.272 128.155Z" fill="#2F969C"/>
<path d="M170.233 135.526C169.584 135.467 168.999 135.41 168.454 135.023C167.947 134.665 167.589 134.169 167.486 133.55C167.472 133.467 167.462 133.383 167.456 133.298C167.451 133.214 167.45 133.13 167.453 133.045C167.457 132.96 167.465 132.876 167.478 132.792C167.49 132.709 167.507 132.626 167.529 132.544C167.551 132.462 167.576 132.382 167.607 132.302C167.637 132.223 167.672 132.146 167.71 132.071C167.749 131.996 167.791 131.923 167.838 131.852C167.885 131.781 167.935 131.713 167.989 131.648C168.038 131.588 168.09 131.531 168.144 131.477C168.199 131.422 168.256 131.37 168.316 131.321C168.376 131.273 168.438 131.227 168.502 131.184C168.566 131.141 168.632 131.102 168.7 131.065C168.769 131.029 168.838 130.996 168.91 130.967C168.981 130.937 169.054 130.912 169.128 130.89C169.202 130.867 169.276 130.849 169.352 130.834C169.428 130.819 169.504 130.808 169.581 130.801C170.712 130.683 171.385 131.278 172.191 131.982C172.35 132.721 172.463 133.447 172.086 134.147C171.692 134.88 170.959 135.213 170.233 135.526Z" fill="#FEFEFE"/>
<path d="M172.191 131.982C173.734 131.947 174.942 131.912 176.137 133.061C176.846 133.744 177.267 134.708 177.22 135.699C177.175 136.638 176.705 137.491 175.981 138.082C175.177 138.736 173.804 139.227 172.763 139.13C171.614 139.024 170.336 138.038 169.685 137.129C169.47 136.83 169.179 136.349 169.226 135.967C169.24 135.855 169.29 135.75 169.322 135.641C169.629 135.591 169.922 135.548 170.233 135.526C170.958 135.212 171.692 134.88 172.086 134.147C172.463 133.447 172.35 132.721 172.191 131.982Z" fill="#161924"/>
<path d="M97.2628 124.131C99.6701 120.228 102.949 117.53 107.48 116.472C107.739 116.412 108 116.358 108.262 116.31C108.523 116.263 108.786 116.222 109.05 116.187C109.314 116.153 109.578 116.125 109.843 116.103C110.109 116.082 110.374 116.067 110.64 116.059C110.906 116.051 111.172 116.049 111.438 116.054C111.704 116.059 111.97 116.071 112.235 116.089C112.501 116.107 112.766 116.131 113.03 116.163C113.294 116.194 113.557 116.232 113.82 116.276C114.082 116.32 114.343 116.371 114.603 116.428C114.863 116.486 115.121 116.549 115.378 116.619C115.635 116.689 115.889 116.766 116.142 116.848C116.395 116.931 116.646 117.02 116.894 117.115C117.143 117.21 117.389 117.312 117.632 117.419C117.876 117.526 118.117 117.639 118.355 117.758C118.592 117.878 118.827 118.003 119.059 118.134C119.29 118.265 119.519 118.401 119.744 118.543C123.527 120.955 125.905 124.51 126.867 128.875C127.077 129.828 127.169 130.774 127.222 131.746L126.858 131.852L127.093 131.982L126.882 131.876C126.811 133.571 126.952 135.241 126.52 136.9C125.854 138.593 125.176 140.28 124.209 141.829C124.076 142.042 123.938 142.253 123.795 142.46C123.652 142.667 123.504 142.87 123.351 143.069C123.198 143.268 123.04 143.464 122.877 143.655C122.714 143.847 122.546 144.034 122.374 144.217C122.201 144.4 122.024 144.578 121.843 144.753C121.661 144.927 121.476 145.096 121.286 145.261C121.096 145.426 120.902 145.586 120.704 145.741C120.506 145.896 120.305 146.046 120.099 146.191C119.894 146.336 119.685 146.476 119.473 146.611C119.26 146.745 119.044 146.874 118.826 146.998C118.607 147.121 118.385 147.239 118.16 147.352C117.935 147.465 117.708 147.571 117.477 147.673C117.247 147.774 117.014 147.869 116.78 147.958C116.544 148.048 116.307 148.132 116.068 148.209C115.829 148.287 115.588 148.358 115.345 148.423C115.102 148.489 114.858 148.548 114.612 148.602C110.58 149.491 106.395 148.998 102.895 146.743C100.141 144.969 97.4867 142.093 96.5662 138.903C96.14 137.426 96.0137 135.974 95.6849 134.498L95.6139 134.191C94.7665 130.593 95.7467 127.398 97.2628 124.131Z" fill="#FEFEFE"/>
<path d="M97.2627 124.131C99.6701 120.228 102.949 117.53 107.48 116.472C107.739 116.412 108 116.358 108.262 116.31C108.523 116.263 108.786 116.222 109.05 116.187C109.314 116.153 109.578 116.125 109.843 116.103C110.109 116.082 110.374 116.067 110.64 116.059C110.906 116.051 111.172 116.049 111.438 116.054C111.704 116.059 111.97 116.071 112.235 116.089C112.501 116.107 112.766 116.131 113.03 116.163C113.294 116.194 113.557 116.232 113.82 116.276C114.082 116.32 114.343 116.371 114.603 116.428C114.863 116.486 115.121 116.549 115.378 116.619C115.635 116.689 115.889 116.766 116.142 116.848C116.395 116.931 116.646 117.02 116.894 117.115C117.143 117.21 117.389 117.312 117.632 117.419C117.876 117.526 118.117 117.639 118.355 117.758C118.592 117.878 118.827 118.003 119.059 118.134C119.29 118.265 119.519 118.401 119.744 118.543C123.527 120.955 125.905 124.51 126.867 128.875C127.077 129.828 127.169 130.774 127.221 131.746L126.858 131.852L127.093 131.982L126.882 131.876C126.41 127.75 124.408 123.988 121.138 121.393C117.734 118.692 113.282 117.729 109.01 118.252C104.936 118.751 101.214 121.039 98.711 124.261C96.449 127.174 95.5614 130.543 95.614 134.191C94.7665 130.593 95.7467 127.398 97.2627 124.131Z" fill="#902332"/>
<path d="M109.624 128.112C111.298 128.02 112.72 128.159 114.221 128.996C114.332 129.058 114.441 129.122 114.549 129.189C114.656 129.256 114.762 129.326 114.866 129.398C114.971 129.471 115.073 129.546 115.174 129.623C115.274 129.7 115.373 129.78 115.469 129.862C115.566 129.944 115.661 130.029 115.753 130.115C115.846 130.202 115.936 130.291 116.024 130.382C116.112 130.474 116.198 130.567 116.282 130.662C116.366 130.758 116.447 130.855 116.526 130.954C116.605 131.054 116.681 131.155 116.755 131.258C116.829 131.361 116.9 131.466 116.969 131.573C117.037 131.679 117.103 131.787 117.167 131.897C117.23 132.007 117.291 132.118 117.349 132.231C117.407 132.344 117.462 132.458 117.515 132.574C117.567 132.689 117.617 132.806 117.663 132.924C117.71 133.042 117.754 133.161 117.795 133.281C117.836 133.401 117.874 133.522 117.908 133.644C117.942 133.762 117.973 133.88 118 133.999C118.028 134.118 118.052 134.237 118.074 134.357C118.095 134.477 118.113 134.598 118.129 134.719C118.144 134.84 118.156 134.961 118.164 135.083C118.173 135.205 118.179 135.327 118.182 135.449C118.184 135.571 118.184 135.693 118.18 135.815C118.177 135.937 118.17 136.059 118.16 136.181C118.15 136.302 118.137 136.423 118.121 136.544C118.104 136.665 118.085 136.786 118.063 136.906C118.04 137.026 118.015 137.145 117.986 137.264C117.957 137.382 117.926 137.5 117.891 137.617C117.857 137.734 117.819 137.85 117.778 137.965C117.738 138.08 117.694 138.194 117.648 138.307C117.601 138.42 117.552 138.532 117.5 138.642C117.447 138.752 117.392 138.861 117.335 138.969C117.277 139.076 117.216 139.182 117.153 139.286C115.948 141.235 114.177 142.114 112.031 142.631C110.302 142.769 108.666 142.677 107.107 141.827C107 141.769 106.896 141.708 106.792 141.644C106.689 141.581 106.588 141.515 106.488 141.446C106.388 141.378 106.29 141.306 106.193 141.233C106.097 141.159 106.003 141.083 105.91 141.005C105.818 140.926 105.728 140.846 105.639 140.762C105.551 140.679 105.465 140.594 105.381 140.507C105.297 140.419 105.215 140.33 105.136 140.238C105.057 140.147 104.98 140.053 104.905 139.958C104.83 139.862 104.758 139.765 104.688 139.666C104.619 139.566 104.552 139.466 104.487 139.363C104.423 139.26 104.361 139.156 104.302 139.05C104.242 138.945 104.186 138.838 104.132 138.729C104.078 138.62 104.027 138.51 103.979 138.399C103.931 138.288 103.886 138.175 103.843 138.062C103.801 137.948 103.761 137.834 103.724 137.718C103.688 137.603 103.654 137.486 103.624 137.369C103.124 135.462 103.431 133.302 104.456 131.617C105.619 129.705 107.5 128.631 109.624 128.112Z" fill="#2F969C"/>
<path d="M106.454 134.696C106.353 134.476 106.252 134.256 106.167 134.03C105.909 133.347 105.905 132.394 106.301 131.756C106.531 131.385 106.923 131.18 107.334 131.075C108.358 130.814 108.887 131.087 109.743 131.619C110.062 132.337 110.409 133.11 110.104 133.901C109.916 134.386 109.636 134.752 109.15 134.97C108.241 135.376 107.302 135.095 106.454 134.696Z" fill="#FEFEFE"/>
<path d="M109.742 131.619C110.793 131.369 111.848 131.58 112.757 132.158C113.591 132.689 114.334 133.459 114.547 134.452C114.758 135.439 114.427 136.456 113.868 137.271C113.224 138.209 112.289 138.896 111.161 139.1C110.164 139.28 109.035 139.119 108.201 138.516C107.234 137.816 106.584 136.184 106.468 135.028C106.457 134.918 106.458 134.807 106.453 134.696C107.301 135.095 108.24 135.376 109.149 134.97C109.635 134.752 109.916 134.387 110.103 133.901C110.409 133.11 110.061 132.337 109.742 131.619Z" fill="#161924"/>
<path d="M57.4648 96.7925L57.634 95.7383C57.7184 95.699 57.7966 95.6404 57.8873 95.6206C58.791 95.4218 63.6524 95.7753 64.9315 95.7864C68.8533 95.8215 72.6276 95.7009 76.5322 95.3908C77.675 95.3 80.9689 94.7333 81.7594 95.3553C81.3189 97.2199 80.846 99.1303 80.8367 101.058L80.7313 101.157C78.8899 121.235 77.7228 143.875 82.9384 163.546C79.8264 159.822 76.8367 156.094 74.5903 151.766C74.3191 150.875 73.7722 149.936 73.3856 149.081C72.5229 147.174 71.7007 145.286 71.0458 143.296C69.9845 140.206 69.0326 135.217 67.7942 132.609C66.0241 133.421 64.2313 134.257 62.6321 135.38C61.4314 131.355 60.874 127.059 60.249 122.914C58.8554 114.257 57.9273 105.549 57.4648 96.7925Z" fill="#452E3B"/>
<path d="M57.4648 96.7925L57.634 95.7383C57.7184 95.699 57.7966 95.6404 57.8873 95.6206C58.791 95.4218 63.6524 95.7753 64.9315 95.7864C68.8533 95.8215 72.6276 95.7009 76.5322 95.3908C77.675 95.3 80.9689 94.7333 81.7594 95.3553C81.3189 97.2199 80.846 99.1303 80.8367 101.058L80.7313 101.157C78.7222 101.531 76.5236 101.436 74.4805 101.49C70.8291 101.585 67.1139 101.724 63.4633 101.585C63.5179 108.972 64.6722 116.639 65.9958 123.908C66.4146 126.206 67.8057 130.567 67.7942 132.609C66.0241 133.421 64.2313 134.257 62.6321 135.38C61.4314 131.355 60.874 127.059 60.249 122.914C58.8554 114.257 57.9273 105.549 57.4648 96.7925Z" fill="#161924"/>
<path d="M179.157 62.4268C181.44 64.8378 183.422 67.6431 185.48 70.2528C188.688 74.3208 191.967 78.3397 194.828 82.665C196.148 84.6622 197.112 86.9328 198.455 88.8889C198.881 88.7907 198.981 88.7081 199.368 88.9628C201.692 90.4919 212.305 106.971 214.024 109.987C215.234 112.109 216.248 114.259 217.127 116.534C217.323 117.04 217.797 118.709 218.249 118.791L218.326 118.754C218.317 120.593 217.995 122.322 218.165 124.188C218.024 127.375 217.685 130.531 216.971 133.644C218.772 134.341 220.406 135.244 222.018 136.305C222.568 136.799 223.121 137.228 223.736 137.638C227.614 140.552 231.293 147.398 231.992 152.211C232.931 158.675 231.498 165.697 227.506 170.942C224.341 175.1 219.813 177.982 214.6 178.66C210.922 179.137 207.413 178.595 203.948 177.332C201.187 187.906 197.781 198.481 192.881 208.277C190.721 212.594 188.35 216.99 185.76 221.059C184.214 223.487 182.287 225.781 180.939 228.319C180.621 228.918 180.577 229.611 180.506 230.273C180.456 230.022 180.407 229.774 180.34 229.527C171.487 241.502 161.743 251.292 146.245 253.554C145.018 253.732 143.785 253.855 142.547 253.922C138.599 253.85 132.702 253.001 129.555 250.405C133.372 251.118 136.879 251.641 140.77 251.288C152.12 250.257 162.87 243.155 170.058 234.514C185.576 215.858 195.066 191.374 199.088 167.601C199.874 162.956 200.284 158.21 200.727 153.52C201.647 143.783 202.01 134.317 201.124 124.56C200.149 113.834 197.99 101.032 193.583 91.1288C192.193 88.0053 190.409 85.0596 188.704 82.1027C186.096 77.5801 182.853 72.7654 178.823 69.4028C167.319 81.836 147.712 95.0857 130.438 95.8381C133.267 94.2631 142.121 89.9075 143.179 86.901L143.458 86.7467C144.671 86.0903 146.069 85.6428 147.34 85.0977C149.342 84.2188 151.308 83.2677 153.24 82.2443C163.065 77.0953 171.337 70.2155 179.157 62.4268Z" fill="url(#paint2_linear_924_1624)"/>
<defs>
<linearGradient id="paint0_linear_924_1624" x1="216.774" y1="112.848" x2="185.788" y2="135.288" gradientUnits="userSpaceOnUse">
<stop stop-color="#261E28"/>
<stop offset="1" stop-color="#402536"/>
</linearGradient>
<linearGradient id="paint1_linear_924_1624" x1="177.585" y1="117.414" x2="178.049" y2="98.7248" gradientUnits="userSpaceOnUse">
<stop stop-color="#362334"/>
<stop offset="1" stop-color="#502A35"/>
</linearGradient>
<linearGradient id="paint2_linear_924_1624" x1="111.483" y1="133.486" x2="216.941" y2="190.137" gradientUnits="userSpaceOnUse">
<stop stop-color="#D97E4C"/>
<stop offset="1" stop-color="#F2A578"/>
</linearGradient>
</defs>
</svg>
