<svg width="233" height="255" viewBox="0 0 233 255" fill="none" xmlns="http://www.w3.org/2000/svg">
<path d="M60.7689 221.415C58.9113 217.705 58.2419 215.183 58.0784 213.508C53.2333 217.522 51.9657 221.423 48.1073 227.353C43.0326 235.152 37.1777 253.868 37.1777 253.868H69.7555C71.7022 237.097 64.9564 229.781 60.7689 221.415Z" fill="#FFB836"/>
<path d="M69.7546 254.139H37.1769C37.0907 254.139 37.0097 254.099 36.9592 254.029C36.9079 253.96 36.893 253.871 36.9183 253.788C36.9777 253.601 42.843 234.947 47.8798 227.207C48.9817 225.514 49.8518 224.019 50.6951 222.573C52.771 219.011 54.4108 216.196 57.9052 213.301C57.981 213.238 58.088 213.22 58.1801 213.259C58.273 213.297 58.3361 213.383 58.3465 213.483C58.5479 215.538 59.444 218.167 61.0095 221.295C61.774 222.821 62.6084 224.287 63.4918 225.837C67.3034 232.528 71.6233 240.112 70.0228 253.9C70.0072 254.036 69.8921 254.139 69.7546 254.139ZM37.5461 253.599H69.5131C71.0177 240.141 66.9542 233.006 63.0223 226.104C62.1351 224.546 61.2963 223.074 60.5265 221.536C59.0539 218.595 58.1615 216.076 57.8688 214.038C54.7058 216.762 53.1329 219.461 51.1617 222.844C50.3555 224.228 49.4416 225.797 48.3331 227.501C43.7183 234.593 38.379 250.993 37.5461 253.599Z" fill="#CE8100"/>
<path d="M47.5107 236.381C49.042 232.391 50.8832 228.529 52.9651 224.796C54.671 221.738 56.5337 218.74 58.5376 215.855C58.2835 214.934 58.1416 214.156 58.0784 213.508C53.2333 217.522 51.9657 221.424 48.1073 227.353C43.0326 235.152 37.1777 253.869 37.1777 253.869H42.9962C43.8135 247.892 45.35 242.01 47.5107 236.381Z" fill="#FFB836"/>
<path d="M60.7684 221.415C58.9109 217.705 58.2414 215.183 58.078 213.508C55.3482 215.769 53.7544 217.994 52.1934 220.567C52.3197 220.507 52.4437 220.439 52.5738 220.39C53.1422 220.18 53.7514 220.14 54.2604 220.517C54.8466 220.951 55.207 221.665 55.5265 222.301C56.1766 223.595 56.7168 224.942 57.3684 226.236C58.0319 227.553 58.7348 228.852 59.4451 230.145C60.1658 231.457 60.8902 232.767 61.5634 234.103C62.137 235.242 62.7344 236.395 63.0962 237.623C63.4551 238.839 63.5472 240.087 63.5658 241.349C63.5881 242.919 63.6289 244.486 63.5948 246.057C63.5368 248.667 63.351 251.272 63.0895 253.869H69.7557C71.7017 237.098 64.9559 229.782 60.7684 221.415Z" fill="#FFB836"/>
<path d="M166.382 222.693C163.284 227.851 157.058 241.176 157.883 253.869H190.392C190.392 253.869 180.828 230.668 174.973 221.894C173.107 219.097 170.921 216.599 168.262 214.271C168.398 216.638 168.125 219.791 166.382 222.693Z" fill="#FFB836"/>
<path d="M190.391 254.139H157.883C157.741 254.139 157.623 254.029 157.613 253.887C156.819 241.694 162.606 228.454 166.15 222.553C167.897 219.644 168.116 216.452 167.992 214.286C167.985 214.177 168.045 214.076 168.143 214.028C168.241 213.981 168.359 213.997 168.44 214.067C171.087 216.386 173.297 218.898 175.198 221.744C181 230.44 190.546 253.534 190.642 253.766C190.676 253.849 190.666 253.944 190.616 254.019C190.566 254.094 190.481 254.139 190.391 254.139ZM158.137 253.599H189.987C188.728 250.578 180.117 230.089 174.747 222.044C172.989 219.408 170.96 217.064 168.557 214.895C168.606 217.098 168.267 220.08 166.614 222.831C163.126 228.637 157.447 241.608 158.137 253.599Z" fill="#CE8100"/>
<path d="M168.1 217.792C169.726 219.537 171.36 221.275 172.882 223.114C174.019 224.49 175.091 225.921 176.043 227.432C177.002 228.952 177.814 230.579 178.595 232.196C180.202 235.526 181.581 238.961 182.744 242.471C183.98 246.2 184.969 250.013 185.739 253.869H190.392C190.392 253.869 180.828 230.668 174.973 221.894C173.107 219.097 170.922 216.599 168.262 214.271C168.322 215.319 168.292 216.526 168.1 217.792Z" fill="#FFB836"/>
<path d="M163.179 252.395C163.179 249.683 163.212 246.971 163.305 244.261C163.389 241.838 163.367 239.395 163.883 237.015C164.911 232.272 168.031 228.346 170.885 224.547C171.307 223.986 171.76 223.433 172.141 222.843C172.392 222.455 172.602 222.037 172.833 221.637C173.101 221.173 173.397 220.634 173.815 220.263C172.213 218.114 170.391 216.136 168.261 214.271C168.397 216.638 168.124 219.791 166.381 222.692C163.282 227.85 157.056 241.175 157.881 253.868H163.186C163.185 253.378 163.179 252.887 163.179 252.395Z" fill="#FFB836"/>
<path d="M166.381 222.693C168.124 219.791 168.397 216.638 168.261 214.271C162.578 209.294 154.726 205.097 143.158 200.448C124.616 197.718 94.7298 197.774 82.3484 200.183C82.3484 200.183 74.0653 203.957 63.9159 209.611C61.4841 210.966 59.605 212.242 58.0781 213.508C58.2416 215.183 58.911 217.705 60.7685 221.415C64.9561 229.781 71.7018 237.097 69.7552 253.869H157.883C157.055 241.176 163.282 227.851 166.381 222.693Z" fill="#E23C34"/>
<path d="M157.882 254.139H69.754C69.6767 254.139 69.6032 254.107 69.5519 254.049C69.5006 253.992 69.4768 253.915 69.4858 253.839C71.0661 240.226 66.9759 233.047 63.0216 226.105C62.1345 224.547 61.2956 223.075 60.5259 221.537C58.9299 218.348 58.0153 215.656 57.808 213.534C57.7991 213.446 57.8355 213.358 57.9046 213.301C59.5124 211.969 61.4346 210.685 63.7832 209.376C73.8257 203.781 82.1525 199.975 82.2357 199.938C95.1462 197.418 125.313 197.547 143.197 200.181C155.359 205.061 162.89 209.209 168.439 214.068C168.494 214.116 168.527 214.183 168.53 214.256C168.659 216.497 168.431 219.805 166.613 222.832C163.101 228.678 157.368 241.791 158.151 253.852C158.157 253.926 158.131 254 158.079 254.055C158.028 254.108 157.956 254.139 157.882 254.139ZM70.0564 253.599H157.594C156.909 241.485 162.632 228.407 166.149 222.553C167.866 219.693 168.107 216.561 167.997 214.399C162.505 209.615 155.035 205.513 143.057 200.699C125.279 198.09 95.2041 197.956 82.3992 200.449C82.3776 200.467 74.0694 204.264 64.047 209.847C61.7823 211.11 59.9203 212.346 58.3608 213.625C58.5889 215.659 59.479 218.239 61.0096 221.296C61.7741 222.822 62.6085 224.288 63.492 225.838C67.2753 232.479 71.5595 240.002 70.0564 253.599Z" fill="#9B0603"/>
<path d="M115.033 253.869C113.549 253.768 112.064 253.664 110.58 253.547C105.438 253.143 100.301 252.626 95.2075 251.801C91.413 251.187 87.4706 250.629 83.8633 249.247C81.1038 248.189 78.7359 246.508 76.888 244.197C75.7921 242.826 74.896 241.315 74.0839 239.763C72.9211 237.542 71.736 235.332 70.5606 233.116C66.8485 226.124 63.1959 219.021 60.8636 211.458C59.8153 212.152 58.8947 212.832 58.0781 213.508C58.2416 215.183 58.911 217.705 60.7685 221.415C64.9561 229.781 71.7018 237.097 69.7552 253.869H115.033Z" fill="#E23C34"/>
<path d="M168.261 214.271C162.578 209.293 154.726 205.096 143.158 200.447C124.616 197.717 94.7296 197.773 82.3481 200.182C82.3481 200.182 75.3847 203.356 66.4062 208.24C68.639 207.533 71.0054 207.203 73.2716 207.956C76.0631 208.882 78.2884 211.174 80.2447 213.269C82.4537 215.635 84.4709 218.215 86.9072 220.359C88.1792 221.478 89.6192 222.341 91.0955 223.165C92.8483 224.143 94.659 225.016 96.512 225.785C100.29 227.354 104.242 228.489 108.259 229.253C112.655 230.089 117.209 230.604 121.689 230.433C125.65 230.282 129.547 229.536 133.346 228.428C137.237 227.294 141.021 225.832 144.821 224.435C146.438 223.841 148.203 223.406 149.938 223.574C151.174 223.692 152.353 224.18 153.252 225.046C154.26 226.017 154.869 227.31 155.264 228.634C156.276 232.032 156.001 235.79 155.571 239.259C155.038 243.555 154.072 247.795 152.957 251.975C152.788 252.608 152.609 253.238 152.432 253.868H157.882C157.056 241.175 163.283 227.85 166.381 222.692C168.124 219.791 168.397 216.638 168.261 214.271Z" fill="#E23C34"/>
<path d="M87.5992 197.692C84.9585 199.934 88.7211 206.199 93.0788 209.892C97.4358 213.585 106.414 218.003 116.515 216.816C126.615 215.629 134.405 210.815 137.376 206.265C140.347 201.714 141.271 199.076 137.838 197.098C134.405 195.12 130.115 193.075 130.115 193.075L130.159 192.275C129.268 192.137 128.308 192.007 127.198 191.848C122.063 191.111 104.405 190.881 96.2901 192.091L96.1824 193.933C96.1809 193.933 90.2398 195.45 87.5992 197.692Z" fill="#E23C34"/>
<path d="M113.111 217.285C104.531 217.285 97.0278 213.595 92.9027 210.098C89.7761 207.448 86.4519 202.939 86.4512 199.802C86.4504 198.813 86.7774 198.035 87.4223 197.486C89.843 195.431 94.8612 194.007 95.9208 193.722L96.0181 192.075C96.0248 191.948 96.1214 191.843 96.2477 191.824C104.202 190.639 121.875 190.811 127.233 191.581L128.218 191.721C128.929 191.821 129.579 191.913 130.197 192.007C130.335 192.028 130.433 192.151 130.426 192.289L130.392 192.911C131.21 193.305 134.944 195.121 137.97 196.864C139.236 197.593 139.968 198.441 140.211 199.455C140.643 201.256 139.532 203.452 137.6 206.412C134.714 210.831 127.085 215.845 116.544 217.084C115.385 217.221 114.239 217.285 113.111 217.285ZM96.5456 192.327L96.4498 193.949C96.4431 194.066 96.3614 194.166 96.2469 194.195C96.1882 194.21 90.3349 195.722 87.7737 197.898C87.2551 198.338 86.9921 198.979 86.9928 199.801C86.9936 202.412 89.6847 206.662 93.2526 209.686C97.8377 213.572 106.669 217.698 116.482 216.549C126.849 215.33 134.333 210.431 137.149 206.117C138.952 203.356 140.073 201.188 139.688 199.58C139.482 198.718 138.832 197.984 137.703 197.333C134.319 195.382 130.04 193.34 129.998 193.32C129.898 193.273 129.838 193.17 129.844 193.061L129.875 192.504C129.331 192.422 128.761 192.342 128.146 192.255L127.159 192.116C121.875 191.358 104.56 191.181 96.5456 192.327Z" fill="#9B0603"/>
<path d="M87.5992 197.692C84.9585 199.934 88.7211 206.199 93.0788 209.892C97.4358 213.585 106.414 218.003 116.515 216.816C126.615 215.629 134.405 210.815 137.376 206.265C140.347 201.714 141.271 199.076 137.838 197.098C134.405 195.12 130.115 193.075 130.115 193.075L130.159 192.275C129.268 192.137 128.308 192.007 127.198 191.848C122.063 191.111 104.405 190.881 96.2901 192.091L96.1824 193.933C96.1809 193.933 90.2398 195.45 87.5992 197.692Z" fill="#E23C34"/>
<path d="M96.1596 187.419C96.1596 187.419 96.1596 191.728 96.1596 195.08C96.1596 198.432 95.3207 199.749 87.0519 202.981C78.783 206.213 94.3638 222.091 113.655 221.735C130.911 221.416 137.968 212.588 140.258 209.325C142.415 206.253 142.175 205.255 138.461 203.221C134.746 201.186 131.031 200.109 130.432 196.757C129.833 193.405 130.432 187.3 130.432 187.3C130.432 187.3 111.977 190.651 96.1596 187.419Z" fill="#FDD4B5"/>
<path d="M113.019 222.011C98.479 222.011 85.8078 212.899 84.6027 206.83C84.2245 204.926 85.0596 203.47 86.9535 202.73C95.1964 199.509 95.8897 198.222 95.8897 195.082V187.419C95.8897 187.338 95.9261 187.261 95.9892 187.21C96.0516 187.159 96.1334 187.139 96.2143 187.155C111.797 190.338 130.2 187.067 130.384 187.034C130.467 187.018 130.553 187.043 130.615 187.101C130.678 187.159 130.71 187.242 130.702 187.326C130.696 187.386 130.113 193.432 130.699 196.709C131.154 199.255 133.573 200.454 136.374 201.844C137.096 202.202 137.843 202.573 138.592 202.982C140.413 203.981 141.594 204.818 141.847 205.905C142.084 206.923 141.5 208.028 140.48 209.48C134.883 217.453 125.61 221.783 113.661 222.005C113.446 222.009 113.232 222.011 113.019 222.011ZM96.4298 187.749V195.08C96.4298 198.695 95.3376 200.032 87.1504 203.232C85.5047 203.875 84.807 205.082 85.1324 206.724C86.3205 212.708 99.1292 221.74 113.65 221.464C125.418 221.245 134.543 216.995 140.037 209.17C141.124 207.618 141.485 206.737 141.319 206.028C141.139 205.257 140.301 204.536 138.33 203.456C137.59 203.05 136.849 202.683 136.131 202.327C133.2 200.873 130.668 199.617 130.165 196.803C129.642 193.876 130.012 188.984 130.13 187.625C127.522 188.057 110.854 190.607 96.4298 187.749Z" fill="#B4715A"/>
<path d="M96.1596 187.419C96.1596 187.419 96.1596 191.728 96.1596 195.08C96.1596 198.432 95.3207 199.749 87.0519 202.981C78.783 206.213 94.3638 222.091 113.655 221.735C130.911 221.416 137.968 212.588 140.258 209.325C142.415 206.253 142.175 205.255 138.461 203.221C134.746 201.186 131.031 200.109 130.432 196.757C129.833 193.405 130.432 187.3 130.432 187.3C130.432 187.3 111.977 190.651 96.1596 187.419Z" fill="#FDD4B5"/>
<path d="M138.46 203.22C134.745 201.185 131.03 200.108 130.432 196.756C129.833 193.404 130.432 187.3 130.432 187.3C130.432 187.3 111.978 190.651 96.159 187.419C96.159 187.419 96.159 190.366 96.159 193.281C96.665 193.435 97.1717 193.585 97.6814 193.719C102.203 194.9 106.922 195.367 111.589 195.298C115.962 195.233 120.371 194.699 124.574 193.471C124.666 193.444 124.731 193.494 124.756 193.579C125.086 194.661 125.348 195.761 125.519 196.879C125.853 199.067 125.853 201.328 125.335 203.489C124.863 205.459 123.909 207.228 122.756 208.878C121.18 211.133 119.178 213.04 116.828 214.476C111.946 217.457 106.057 218.203 100.435 217.945C98.923 217.876 97.4161 217.731 95.916 217.532C100.849 220.067 107.033 221.858 113.655 221.735C130.911 221.416 137.967 212.588 140.258 209.325C142.415 206.253 142.175 205.255 138.46 203.22Z" fill="#FDD4B5"/>
<path d="M140.376 195.679C135.605 193.343 133.332 192.763 130.156 192.275L130.112 193.076C130.112 193.076 134.402 195.12 137.835 197.099C141.268 199.077 140.343 201.715 137.373 206.265C134.402 210.816 126.613 215.63 116.512 216.817C106.411 218.003 97.4328 213.585 93.0758 209.892C88.7188 206.199 84.9555 199.935 87.5961 197.693C90.2368 195.451 96.1786 193.933 96.1786 193.933L96.2863 192.091C96.2863 192.091 87.5285 193.883 83.9339 197.115C80.5785 200.227 80.8184 201.425 82.1365 205.375C83.4546 209.325 91.8431 222.373 111.376 224.767C125.636 225.486 140.256 216.268 143.492 208.009C145.05 202.861 146.488 198.671 140.376 195.679Z" fill="#E23C34"/>
<path d="M112.958 225.077C112.423 225.077 111.892 225.063 111.364 225.037C91.828 222.644 83.3221 209.778 81.8814 205.46C80.5344 201.425 80.2996 200.119 83.7516 196.918C87.3626 193.671 95.8737 191.901 96.234 191.828C96.3165 191.811 96.4012 191.833 96.4651 191.888C96.529 191.943 96.5632 192.024 96.558 192.108L96.4495 193.95C96.4428 194.066 96.3611 194.166 96.2467 194.195C96.188 194.21 90.3346 195.723 87.7734 197.899C87.2548 198.339 86.9918 198.98 86.9925 199.802C86.9933 202.413 89.6845 206.662 93.2524 209.687C97.8374 213.573 106.669 217.699 116.482 216.549C126.849 215.331 134.332 210.432 137.148 206.118C138.952 203.357 140.073 201.189 139.688 199.581C139.481 198.719 138.832 197.984 137.703 197.333C134.318 195.383 130.04 193.34 129.998 193.32C129.898 193.274 129.838 193.17 129.844 193.061L129.888 192.26C129.893 192.184 129.929 192.113 129.988 192.065C130.047 192.017 130.124 191.996 130.199 192.007C133.521 192.518 135.797 193.134 140.497 195.436C146.673 198.46 145.37 202.756 143.861 207.73L143.753 208.087C142.119 212.261 137.616 216.704 131.702 219.99C125.755 223.295 119.161 225.077 112.958 225.077ZM95.9978 192.431C94.3468 192.802 87.2147 194.53 84.1164 197.316C80.8917 200.307 81.0797 201.35 82.3941 205.29C83.0056 207.123 85.3178 211.324 90.1035 215.451C94.0741 218.874 100.994 223.223 111.41 224.499C125.404 225.207 140.009 216.16 143.24 207.91L143.341 207.573C144.838 202.64 146.02 198.742 140.257 195.921C135.76 193.718 133.518 193.081 130.409 192.587L130.391 192.911C131.21 193.305 134.944 195.121 137.97 196.864C139.235 197.593 139.968 198.441 140.211 199.455C140.643 201.256 139.532 203.452 137.599 206.412C134.713 210.831 127.084 215.845 116.543 217.084C106.558 218.257 97.5692 214.055 92.9017 210.098C89.7751 207.448 86.4509 202.939 86.4502 199.802C86.4494 198.813 86.7763 198.035 87.4213 197.486C89.842 195.431 94.8602 194.007 95.9197 193.722L95.9978 192.431Z" fill="#9B0603"/>
<path d="M140.378 195.679C135.606 193.343 133.334 192.763 130.158 192.275L130.113 193.076C130.113 193.076 134.404 195.12 137.837 197.099C141.269 199.077 140.345 201.715 137.375 206.265C134.404 210.816 126.614 215.63 116.513 216.817C106.413 218.003 97.4345 213.585 93.0775 209.892C88.7205 206.199 84.9572 199.935 87.5979 197.693C90.2385 195.451 96.1803 193.933 96.1803 193.933L96.288 192.091C96.288 192.091 87.5302 193.883 83.9356 197.115C80.8016 200.022 80.8046 201.26 81.8923 204.628C82.2638 204.439 82.6532 204.291 83.0663 204.218C83.8672 204.074 84.4854 204.296 85.0486 204.866C85.7047 205.529 86.1824 206.371 86.6513 207.17C87.077 207.895 87.4567 208.669 87.9545 209.349C88.6165 210.252 89.4836 211.065 90.3269 211.798C92.047 213.293 94.0271 214.428 96.1238 215.309C98.6656 216.377 101.343 217.162 104.026 217.787C106.756 218.424 109.535 218.856 112.335 219.027C115.121 219.197 117.925 219.106 120.691 218.72C123.422 218.339 126.243 217.727 128.8 216.673C130.658 215.907 132.217 214.484 133.826 213.316C135.253 212.282 136.991 211.019 138.844 211.074C138.999 211.079 139.108 211.217 139.146 211.361C139.379 212.249 139.416 213.13 139.324 213.999C141.264 212.048 142.712 210.001 143.493 208.009C145.051 202.861 146.49 198.671 140.378 195.679Z" fill="#E23C34"/>
<path d="M119.316 222.189C116.538 222.45 113.79 222.721 110.995 222.578C108.176 222.434 105.366 221.966 102.659 221.165C97.8052 219.729 93.3242 217.17 89.6263 213.716C87.6335 211.855 85.8377 209.776 84.3398 207.494C84.313 207.454 84.1882 207.58 84.212 207.625C86.545 212.024 90.0839 215.643 94.299 218.279C98.8677 221.136 104.108 222.794 109.471 223.24C112.653 223.505 115.979 223.45 119.094 222.691C119.257 222.651 119.621 222.16 119.316 222.189Z" fill="#E23C34"/>
<path d="M172.691 135.717C172.691 135.717 206.436 113.411 201.614 79.2046C171.497 77.4515 155.037 89.937 172.691 135.717Z" fill="#9C430D"/>
<path d="M172.691 135.987C172.663 135.987 172.635 135.982 172.608 135.974C172.53 135.949 172.468 135.89 172.439 135.814C163.767 113.325 162.824 97.9128 169.561 88.6975C175.047 81.1915 185.536 78 201.629 78.9359C201.758 78.9434 201.863 79.0406 201.881 79.1682C206.671 113.15 173.179 135.719 172.84 135.942C172.795 135.971 172.743 135.987 172.691 135.987ZM196.374 79.316C183.408 79.316 174.753 82.5075 169.997 89.0152C163.41 98.0278 164.331 113.169 172.819 135.299C176.037 133.051 205.717 111.331 201.375 79.4622C199.643 79.3649 197.974 79.316 196.374 79.316Z" fill="#622403"/>
<path d="M172.689 135.717C172.689 135.717 206.434 113.411 201.612 79.2046C171.496 77.4515 155.035 89.9369 172.689 135.717Z" fill="#9C430D"/>
<path d="M173.629 133.315C176.39 129.041 178.753 124.474 180.951 119.89C183.008 115.6 185.159 111.117 185.064 106.249C185.061 106.089 185.417 105.507 185.542 105.858C186.52 108.618 186.404 111.543 186.592 114.423C187.379 113.058 187.844 111.431 188.216 109.931C188.32 109.511 188.66 109.99 188.7 110.175C189.074 111.85 189.742 113.414 190.463 114.966C190.787 115.664 191.1 116.355 191.384 117.057C198.198 107.447 203.772 94.5201 201.612 79.2053C171.611 77.4582 155.166 89.8457 172.492 135.195C172.867 134.562 173.235 133.925 173.629 133.315Z" fill="#9C430D"/>
<path d="M169.66 147.471C169.949 145.458 170.173 143.425 170.657 141.462C171.15 139.464 171.831 137.533 172.688 135.717C173.547 133.899 174.593 132.213 175.668 130.568C176.222 129.719 176.822 128.936 177.502 128.225C178.059 127.643 178.747 127.258 179.211 126.554C179.34 126.358 179.24 126.04 179.045 125.965C178.034 125.576 177.048 125.685 176.129 126.09C176.146 126.072 176.162 126.054 176.179 126.034C176.251 125.938 176.315 125.835 176.388 125.74C178.577 122.964 181.684 120.927 184.996 121.113C186.409 121.192 187.807 121.652 188.979 122.618C190.059 123.508 190.891 124.75 191.491 126.121C192.121 127.56 192.524 129.119 192.795 130.698C193.077 132.348 193.255 134.047 193.246 135.726C193.223 139.86 192.12 143.977 190.268 147.451C188.354 151.041 185.57 153.87 182.312 155.669C180.797 156.506 179.2 157.154 177.558 157.55C175.983 157.93 174.297 158.119 172.705 157.708C171.193 157.316 169.819 156.328 169.12 154.652C168.857 154.022 168.673 153.341 168.543 152.638C169.1 150.986 169.408 149.231 169.66 147.471Z" fill="#B4715A"/>
<path d="M170.661 155.992C171.863 157.19 173.577 157.4 175.08 157.319C176.628 157.237 178.161 156.831 179.628 156.27C182.95 154.998 185.975 152.716 188.233 149.579C190.387 146.589 191.843 142.854 192.414 138.982C192.907 135.645 192.675 132.124 191.855 128.862C191.135 125.995 189.741 123.181 187.228 122.119C184.181 120.832 180.792 122.214 178.377 124.456C178.37 124.462 178.363 124.471 178.355 124.478C178.388 124.549 178.388 124.626 178.32 124.691C177.519 125.466 176.773 126.308 176.071 127.195C175.87 127.497 175.679 127.807 175.495 128.122C175.272 128.39 175.06 128.67 174.855 128.958C174.023 130.006 173.3 131.179 172.761 132.464C170.885 136.244 169.664 140.498 169.128 144.826C168.861 146.974 168.798 149.147 169.019 151.311C169.192 152.993 169.5 154.835 170.661 155.992Z" fill="#FDD4B5"/>
<path d="M191.602 138.824C191.829 135.752 191.549 132.483 190.28 129.717C188.807 126.505 186.299 123.871 183.141 123.457C181.643 123.26 180.171 123.547 178.768 124.111C181.149 122.077 184.342 120.898 187.23 122.118C189.742 123.179 191.136 125.994 191.857 128.861C192.677 132.122 192.908 135.644 192.416 138.981C192 141.794 191.113 144.529 189.837 146.964C190.771 144.382 191.395 141.627 191.602 138.824Z" fill="#FDD4B5"/>
<path d="M169.128 144.826C169.664 140.499 170.885 136.244 172.761 132.464C173.3 131.179 174.023 130.007 174.855 128.959C175.06 128.671 175.272 128.391 175.495 128.122C175.68 127.807 175.87 127.497 176.071 127.196C176.773 126.308 177.518 125.466 178.319 124.692C178.388 124.626 178.388 124.55 178.354 124.479C178.362 124.471 178.368 124.463 178.377 124.456C178.871 123.998 179.406 123.578 179.97 123.207C179.444 123.926 178.973 124.698 178.565 125.485C177.535 127.476 176.686 129.905 176.96 132.294C177.014 132.768 177.536 132.706 177.677 132.358C178.681 129.868 180.606 127.892 183.002 127.617C184.801 127.41 186.589 128.321 187.66 130.06C189.068 132.347 189.033 135.499 188.54 138.121C188.015 140.916 186.851 143.679 184.943 145.505C182.972 147.392 180.479 147.682 178.126 146.568C178.015 146.515 177.84 146.539 177.758 146.648C176.509 148.292 175.709 151.125 176.789 153.173C177.516 154.553 178.66 155.486 180.028 155.718C180.284 155.761 180.541 155.773 180.798 155.771C180.412 155.951 180.022 156.119 179.626 156.271C178.159 156.832 176.626 157.238 175.078 157.32C173.575 157.4 171.861 157.19 170.659 155.992C169.498 154.834 169.19 152.994 169.018 151.311C168.798 149.148 168.862 146.974 169.128 144.826Z" fill="#FDD4B5"/>
<path d="M175.654 148.592C175.536 148.057 175.48 147.524 175.577 147.017C175.648 146.838 175.724 146.662 175.813 146.492C176.054 146.028 176.353 145.629 176.673 145.254C176.664 145.238 176.656 145.222 176.646 145.207C176.77 145.071 176.895 144.938 177.022 144.806C177.033 144.812 177.045 144.816 177.057 144.823C177.559 144.28 178.085 143.763 178.526 143.145C178.994 142.492 179.394 141.697 179.029 140.848C178.699 140.081 178.194 139.417 177.811 138.683C177.075 137.272 176.766 135.674 177.004 134.044C177.426 131.15 179.238 128.967 181.558 128.05C183.689 127.208 186.251 127.29 187.79 129.491C188.607 130.661 189.138 132.142 189.403 133.611C189.655 135.002 189.704 136.493 189.221 137.816C189.162 137.979 188.887 137.846 188.932 137.678C189.245 136.523 189.153 135.203 188.937 134.027C188.699 132.728 188.284 131.453 187.644 130.346C187.062 129.34 186.318 128.597 185.29 128.34C184.196 128.067 183.043 128.26 181.995 128.659C179.777 129.503 178.005 131.675 177.688 134.456C177.505 136.07 177.886 137.525 178.647 138.876C179.023 139.544 179.5 140.182 179.767 140.925C180.005 141.586 179.907 142.235 179.609 142.842C179.101 143.879 178.304 144.597 177.549 145.367C177.999 145.81 178.555 146.066 179.131 146.246C179.867 146.477 180.65 146.636 181.411 146.641C183.112 146.654 185.022 145.815 185.82 143.952C185.857 143.867 186.01 143.939 185.977 144.028C185.211 146.127 183.344 147.185 181.463 147.225C180.586 147.244 179.67 147.053 178.829 146.765C178.276 146.576 177.611 146.292 177.117 145.826C176.952 146.01 176.791 146.197 176.641 146.397C176.232 146.944 175.919 147.565 175.728 148.261C175.698 148.371 175.677 148.481 175.654 148.592Z" fill="#B4715A"/>
<path d="M54.3218 147.471C54.0328 145.458 53.8092 143.425 53.3255 141.462C52.8321 139.464 52.1515 137.533 51.2941 135.717C50.4352 133.899 49.3898 132.213 48.3146 130.568C47.7604 129.719 47.16 128.936 46.4802 128.225C45.9229 127.643 45.2349 127.258 44.7712 126.554C44.642 126.358 44.743 126.04 44.9377 125.965C45.9482 125.576 46.9341 125.685 47.8532 126.09C47.8361 126.072 47.8198 126.054 47.8035 126.034C47.7314 125.938 47.6675 125.835 47.5939 125.74C45.4058 122.964 42.2978 120.927 38.9862 121.113C37.573 121.192 36.1754 121.652 35.003 122.618C33.9234 123.508 33.0912 124.75 32.4916 126.121C31.8616 127.56 31.4581 129.119 31.1884 130.698C30.9061 132.348 30.7277 134.047 30.7366 135.726C30.7597 139.86 31.8623 143.977 33.7146 147.451C35.6286 151.041 38.4126 153.87 41.6714 155.669C43.1857 156.506 44.7831 157.154 46.4252 157.55C48.0003 157.93 49.6862 158.119 51.2785 157.708C52.7905 157.316 54.1643 156.328 54.8635 154.652C55.1258 154.022 55.31 153.341 55.44 152.638C54.8828 150.986 54.5752 149.231 54.3218 147.471Z" fill="#B4715A"/>
<path d="M53.3204 155.992C52.1189 157.19 50.4048 157.4 48.9017 157.319C47.3533 157.237 45.8205 156.831 44.3538 156.27C41.0326 154.998 38.007 152.716 35.7483 149.579C33.5951 146.589 32.1388 142.854 31.5674 138.982C31.0748 135.645 31.3066 132.124 32.1262 128.862C32.8469 125.995 34.2408 123.181 36.7536 122.119C39.8007 120.832 43.1895 122.214 45.6043 124.456C45.6117 124.462 45.6184 124.471 45.6266 124.478C45.5939 124.549 45.5931 124.626 45.6615 124.691C46.4624 125.466 47.2084 126.308 47.9098 127.195C48.1104 127.497 48.3014 127.807 48.4856 128.122C48.7085 128.39 48.921 128.67 49.1261 128.958C49.9583 130.006 50.6805 131.179 51.2199 132.464C53.096 136.244 54.3167 140.498 54.8532 144.826C55.1199 146.974 55.1831 149.147 54.9617 151.311C54.7893 152.993 54.4817 154.835 53.3204 155.992Z" fill="#FDD4B5"/>
<path d="M32.381 138.824C32.1544 135.752 32.4353 132.483 33.7036 129.717C35.1762 126.505 37.6846 123.871 40.8423 123.457C42.3402 123.26 43.8121 123.547 45.2157 124.111C42.8343 122.077 39.6409 120.898 36.7536 122.118C34.2408 123.179 32.8469 125.994 32.1262 128.861C31.3066 132.122 31.0748 135.644 31.5674 138.981C31.9828 141.794 32.8699 144.529 34.1464 146.964C33.2124 144.382 32.5883 141.627 32.381 138.824Z" fill="#FDD4B5"/>
<path d="M54.8545 144.826C54.3181 140.499 53.0973 136.244 51.2212 132.464C50.6818 131.179 49.9596 130.007 49.1275 128.959C48.9224 128.671 48.7099 128.391 48.487 128.122C48.3027 127.807 48.1125 127.497 47.9112 127.196C47.2098 126.308 46.4638 125.466 45.6628 124.692C45.5945 124.626 45.5945 124.55 45.6279 124.479C45.6205 124.471 45.6138 124.463 45.6056 124.456C45.1115 123.998 44.5758 123.578 44.0119 123.207C44.5379 123.926 45.009 124.698 45.4169 125.485C46.4474 127.476 47.2967 129.905 47.0225 132.294C46.9683 132.768 46.4467 132.706 46.3055 132.358C45.301 129.868 43.3766 127.892 40.9804 127.617C39.1809 127.41 37.3932 128.321 36.3225 130.06C34.9145 132.347 34.9495 135.499 35.4421 138.121C35.9674 140.916 37.1317 143.679 39.0389 145.505C41.0101 147.392 43.5037 147.682 45.8568 146.568C45.9675 146.515 46.1421 146.539 46.2245 146.648C47.4728 148.292 48.273 151.125 47.1934 153.173C46.466 154.553 45.3218 155.486 43.9547 155.718C43.6983 155.761 43.4412 155.773 43.1842 155.771C43.5705 155.951 43.9613 156.119 44.3566 156.271C45.8233 156.832 47.3561 157.238 48.9046 157.32C50.4077 157.4 52.1218 157.19 53.3232 155.992C54.4845 154.834 54.7921 152.994 54.9645 151.311C55.1844 149.148 55.1213 146.974 54.8545 144.826Z" fill="#FDD4B5"/>
<path d="M48.3272 148.592C48.4454 148.057 48.5011 147.524 48.4045 147.017C48.3339 146.838 48.2574 146.662 48.169 146.492C47.9275 146.028 47.6288 145.629 47.3093 145.254C47.3175 145.238 47.3264 145.222 47.336 145.207C47.2127 145.071 47.0871 144.938 46.9608 144.806C46.9489 144.812 46.9371 144.816 46.9259 144.823C46.4236 144.28 45.8976 143.763 45.4562 143.145C44.9889 142.492 44.5884 141.697 44.9532 140.848C45.2831 140.081 45.7884 139.417 46.171 138.683C46.9073 137.272 47.2164 135.674 46.9787 134.044C46.5566 131.15 44.7444 128.967 42.4248 128.05C40.2939 127.208 37.7312 127.29 36.1925 129.491C35.3752 130.661 34.8447 132.142 34.5794 133.611C34.3275 135.002 34.2785 136.493 34.7614 137.816C34.8216 137.979 35.0958 137.846 35.0505 137.678C34.7377 136.523 34.8298 135.203 35.0453 134.027C35.2838 132.728 35.6991 131.453 36.3388 130.346C36.9206 129.34 37.6644 128.597 38.6919 128.34C39.7864 128.067 40.9395 128.26 41.9872 128.659C44.205 129.503 45.9771 131.675 46.2944 134.456C46.4779 136.07 46.0967 137.525 45.3359 138.876C44.9599 139.544 44.4822 140.182 44.2154 140.925C43.9777 141.586 44.075 142.235 44.3729 142.842C44.8819 143.879 45.6784 144.597 46.4333 145.367C45.9838 145.81 45.4273 146.066 44.8514 146.246C44.1151 146.477 43.332 146.636 42.5712 146.641C40.8704 146.654 38.9602 145.815 38.1629 143.952C38.1265 143.867 37.9727 143.939 38.0054 144.028C38.7714 146.127 40.6386 147.185 42.5199 147.225C43.3966 147.244 44.312 147.053 45.1538 146.765C45.7066 146.576 46.3716 146.292 46.865 145.826C47.0299 146.01 47.1912 146.197 47.3412 146.397C47.7506 146.944 48.0634 147.565 48.2544 148.261C48.2834 148.371 48.3034 148.481 48.3272 148.592Z" fill="#B4715A"/>
<path d="M48.3275 93.3348C48.3275 93.3348 46.6261 124.212 50.3128 148.291C53.9996 172.37 83.4917 191.066 111.567 191.066C139.642 191.066 173.955 173.503 174.805 133.844C175.656 94.1847 177.358 40.0782 120.074 35.5462C62.7901 31.0135 48.6247 74.0975 48.3275 93.3348Z" fill="#FDD4B5"/>
<path d="M111.567 191.336C97.8315 191.336 83.2797 186.814 71.6421 178.931C59.4746 170.689 51.8046 159.821 50.0452 148.331C46.4119 124.601 48.0272 93.8885 48.0576 93.3245C48.2419 81.4632 53.4518 63.0764 67.5288 50.2836C80.4028 38.5849 98.0908 33.5356 120.095 35.2761C177.105 39.7872 175.946 93.5174 175.099 132.749L175.076 133.849C174.585 156.704 163.104 170.224 153.559 177.541C142.124 186.308 126.818 191.336 111.567 191.336ZM111.838 35.4817C93.7658 35.4817 79.0119 40.5792 67.8929 50.6836C53.9415 63.3614 48.7798 81.5856 48.5985 93.3393C48.5985 93.343 48.5985 93.346 48.5978 93.3497C48.5807 93.6584 46.9402 124.476 50.5801 148.25C52.3158 159.591 59.9034 170.327 71.9452 178.484C83.496 186.309 97.937 190.796 111.566 190.796C126.701 190.796 141.886 185.808 153.23 177.113C162.681 169.867 174.049 156.479 174.535 133.838L174.559 132.738C174.992 112.628 175.484 89.8346 168.8 71.087C161.044 49.3343 145.099 37.7959 120.053 35.8149C117.245 35.5923 114.503 35.4817 111.838 35.4817Z" fill="#B4715A"/>
<path d="M66.9727 110.916C66.9727 110.916 73.9547 109.122 84.9274 113.506C96.0992 117.492 97.3786 117.844 96.9157 114.992C96.4528 112.14 97.0703 110.521 94.7551 108.44C92.4399 106.358 92.2088 102.195 92.2853 101.425C93.5975 104.662 93.5202 105.279 95.3718 106.821C97.2241 108.362 98.0726 110.213 98.6127 114.144C99.1529 118.076 102.934 117.536 103.474 115.378C104.014 113.219 104.064 111.783 101.377 107.654C98.6908 103.525 98.4842 98.7767 98.8973 97.1253C98.8973 97.1253 99.0006 100.842 101.584 104.454C104.167 108.066 105.2 110.441 105.717 113.331C106.234 116.221 107.97 115.619 108.602 110.169C109.241 104.662 109.834 100.231 109.834 100.231C109.834 100.231 109.35 111.594 108.993 117.388C108.635 123.183 95.0775 122.224 86.1994 118.808C77.3212 115.393 66.9727 110.916 66.9727 110.916Z" fill="#FDD4B5"/>
<path d="M72.0135 113.68L60.2695 110.328C60.2695 110.328 50.7353 128.968 68.5325 142.777C79.7206 149.571 94.5421 142.41 100.534 132.594C102.451 128.285 119.707 128.285 122.823 131.397C125.938 134.509 130.252 147.198 147.509 144.564C164.765 141.931 168.087 125.274 157.558 109.542C134.087 119.666 117.708 124.514 115.352 117.421C113.236 124.215 107.93 121.551 108.426 117.496C104.608 123.496 92.1459 127.566 72.0135 113.68Z" fill="#FDD4B5"/>
<path d="M120.075 35.5455C62.7919 31.0128 48.6258 74.0975 48.3294 93.3348C48.3294 93.3348 47.1614 114.539 48.8584 135.507C49.0159 125.975 50.253 114.623 53.3647 101.34C65.7209 102.045 85.1385 89.3492 85.1385 89.3492C85.1385 89.3492 84.4327 92.8761 80.549 95.3447C95.3764 93.5812 119.737 83.7069 131.387 67.4844C137.389 59.3727 155.304 80.9555 148.288 111.603C155.747 111.921 160.973 108.505 160.973 108.505C160.973 108.505 161.912 110.183 161.437 115.96C167.439 115.607 169.868 114.037 169.868 114.037C169.868 114.037 188.227 174.343 124.679 187.038C109.899 190.32 89.312 186.574 65.4794 173.827C77.4618 184.366 94.7656 191.066 111.567 191.066C139.642 191.066 173.955 173.503 174.806 133.844C175.657 94.1847 177.359 40.0782 120.075 35.5455Z" fill="#FDD4B5"/>
<path opacity="0.51" d="M129 147.473C129 152.145 121.203 155.932 111.584 155.932C101.966 155.932 94.168 152.145 94.168 147.473C94.168 142.801 102.473 137.271 112.091 137.271C121.71 137.271 129 142.802 129 147.473Z" fill="url(#paint0_radial_926_2855)"/>
<path d="M79.5448 115.451C78.0766 115.321 76.5832 115.365 75.1128 115.442C73.5926 115.522 72.0717 115.692 70.5923 116.061C68.2727 116.64 66.0318 117.711 64.3199 119.406C63.4149 120.302 62.6927 121.352 62.2194 122.536C62.1578 122.69 62.3443 122.584 62.3792 122.505C63.5933 119.781 66.1477 117.929 68.9094 116.969C70.5329 116.405 72.2522 116.135 73.9611 116.002C75.7503 115.862 77.5446 115.951 79.333 115.832C79.4512 115.825 79.7112 115.465 79.5448 115.451Z" fill="#B4715A"/>
<path d="M142.767 115.471C144.235 115.341 145.729 115.384 147.199 115.462C148.719 115.541 150.241 115.712 151.72 116.081C154.039 116.659 156.28 117.731 157.992 119.426C158.897 120.322 159.619 121.371 160.092 122.555C160.154 122.709 159.968 122.603 159.933 122.525C158.719 119.801 156.164 117.948 153.402 116.988C151.78 116.424 150.06 116.154 148.351 116.021C146.562 115.882 144.767 115.97 142.979 115.852C142.86 115.844 142.601 115.485 142.767 115.471Z" fill="#B4715A"/>
<path d="M89.4961 173.877C89.4961 173.877 97.1305 164.491 111.551 165.078C125.971 165.664 129.364 170.293 134.128 173.226C131.714 169.445 126.036 160.711 117.293 161.298C112.268 162.015 112.008 161.428 108.875 161.037C105.743 160.646 102.611 160.646 98.109 163.905C93.6064 167.164 90.2792 171.661 89.4961 173.877Z" fill="#FDD4B5"/>
<path d="M132.179 55.341C132.179 55.341 140.85 49.8078 149.418 58.0709C157.986 66.3347 160.645 87.7312 153.85 98.6513C157.691 97.0281 159.021 92.0107 159.021 92.0107C159.021 92.0107 158.282 99.3891 152.817 107.653C152.817 107.653 170.697 103.944 170.058 75.6932C172.454 95.8034 163.187 114.158 163.187 114.158C163.187 114.158 172.853 111.285 176.928 98.8361C176.928 98.8361 171.828 120.533 174.857 128.957C181.961 116.792 184.357 106.497 184.357 95.724C190.589 120.862 209.043 118.947 215.994 111.765C197.779 106.019 191.068 99.3156 190.829 85.4296C196.581 97.3999 204.251 99.0759 207.845 96.6822C197.3 91.8942 197.3 84.7118 197.3 84.7118C197.3 84.7118 207.845 96.922 218.391 90.697C209.763 90.458 204.969 85.1906 201.614 79.2054C211.201 87.1062 224.622 85.1906 232.532 75.1351C221.747 82.0777 210.003 75.6138 204.73 64.6009C213.838 74.1776 224.382 70.3471 231.093 63.8824C231.093 63.8824 215.515 71.5435 202.094 51.1935C188.673 30.8436 172.135 11.9298 145.532 22.464C145.532 22.464 108.864 -24.6998 43.914 18.3937C52.3025 14.8029 64.5257 7.38079 82.0212 6.42334C59.0111 13.6065 45.3495 25.8166 35.044 38.5054C41.2756 33.2387 49.9034 32.2805 49.9034 32.2805C48.9449 32.7592 41.0356 37.5472 31.2094 46.885C21.3831 56.222 7.24229 61.4888 4.36687 46.1666C0.0529859 56.222 7.48228 75.3748 25.2178 62.9249C22.1024 73.4592 8.68075 76.811 0.292233 66.037C-0.426995 82.3167 16.11 89.9778 26.1763 83.5139C24.4986 93.3297 16.35 100.033 6.28382 99.3149C18.267 104.582 25.457 95.0056 25.457 95.0056C25.457 95.0056 21.6224 103.864 27.374 112.004C26.1755 117.51 19.4647 117.75 19.4647 117.75C19.4647 117.75 26.1755 120.862 32.4064 115.595C32.4064 115.595 37.0018 125.804 48.485 128.121C48.4642 122.538 51.5796 107.933 48.4642 95.963C55.8942 98.3574 93.5214 83.7529 105.505 71.5428C105.505 71.5428 98.7938 81.1195 88.2483 86.865C102.391 87.1055 122.664 69.0653 132.179 55.341Z" fill="#9C430D"/>
<path d="M174.856 129.228C174.848 129.228 174.84 129.227 174.831 129.227C174.727 129.218 174.638 129.148 174.602 129.049C172.26 122.539 174.66 108.474 175.956 102.058C171.434 111.882 163.352 114.391 163.263 114.417C163.161 114.449 163.049 114.414 162.978 114.332C162.909 114.25 162.896 114.133 162.945 114.037C163.028 113.873 170.431 98.9764 170.172 81.55C169.615 88.65 167.546 96.6911 161.87 102.457C157.473 106.922 153.058 107.879 152.872 107.918C152.765 107.941 152.655 107.896 152.593 107.805C152.532 107.714 152.532 107.596 152.592 107.505C156.018 102.324 157.578 97.4556 158.26 94.5973C157.44 96.1493 156.073 98.0063 153.956 98.9007C153.846 98.9467 153.722 98.917 153.645 98.8279C153.568 98.7389 153.559 98.6097 153.621 98.5103C160.165 87.9939 157.826 66.5558 149.231 58.2668C145.745 54.9046 141.845 53.4254 137.64 53.8744C134.743 54.1824 132.693 55.3499 132.37 55.5429C123.109 68.8723 102.823 87.1396 88.5264 87.1396C88.4327 87.1396 88.3391 87.1388 88.2462 87.1373C88.1229 87.1351 88.0174 87.0505 87.9877 86.9318C87.958 86.813 88.0129 86.6891 88.1207 86.6304C95.1161 82.8192 100.457 77.2541 103.21 74.0091C97.2024 79.0153 87.1295 84.6391 75.3811 89.4813C65.2792 93.6465 53.3681 97.293 48.8403 96.3423C50.9772 105.028 49.9347 115.145 49.2408 121.878C48.9785 124.427 48.7519 126.628 48.7571 128.122C48.7571 128.203 48.7214 128.28 48.6582 128.332C48.5943 128.383 48.5111 128.403 48.4331 128.388C38.0897 126.3 33.2179 117.775 32.3166 116.023C26.1014 121.035 19.4203 118.028 19.3519 117.997C19.2382 117.944 19.1766 117.821 19.2011 117.699C19.2256 117.576 19.3311 117.487 19.4559 117.483C19.5206 117.48 25.877 117.187 27.0844 112.064C22.6746 105.736 23.963 98.9318 24.7744 96.1723C22.4621 98.5065 15.8115 103.801 6.17475 99.5657C6.05438 99.513 5.98974 99.3809 6.02095 99.2532C6.05364 99.1263 6.17475 99.0439 6.30255 99.0491C15.9631 99.7334 23.8954 93.6005 25.7997 84.0631C20.9977 86.8538 14.5811 86.7173 9.26862 83.666C3.14626 80.1494 -0.310191 73.5556 0.0219319 66.0274C0.027133 65.9145 0.102176 65.8166 0.209912 65.7817C0.319133 65.7483 0.435785 65.7832 0.505628 65.873C4.39451 70.8673 9.64978 73.1608 14.9325 72.1632C19.4351 71.3127 23.1212 68.0625 24.7142 63.5981C18.2218 67.9267 12.3521 68.4321 8.12811 65.0083C2.82009 60.7065 1.75536 51.5706 4.11811 46.0619C4.16492 45.9528 4.27935 45.8867 4.396 45.9001C4.51413 45.9134 4.60998 46.0017 4.63153 46.1183C5.55806 51.0532 7.70088 54.0963 11.0013 55.1614C16.0404 56.7861 23.8961 53.4625 31.0223 46.6913C38.942 39.1667 45.6847 34.5353 48.5096 32.783C45.8133 33.3003 39.8195 34.824 35.218 38.7132C35.1125 38.8038 34.9558 38.7978 34.854 38.7006C34.7544 38.6026 34.7455 38.446 34.8332 38.3377C43.4253 27.7582 56.2666 14.7198 79.8154 6.85453C66.6768 8.00719 56.5534 12.79 49.055 16.3318C47.2614 17.1794 45.5659 17.9803 44.0182 18.6431C43.8911 18.698 43.741 18.6468 43.6742 18.5236C43.608 18.4011 43.6459 18.2475 43.7626 18.1703C62.3332 5.84884 90.4923 -6.60993 119.171 4.01706C135.246 9.97257 144.442 20.7094 145.617 22.1419C171.898 11.8466 188.4 29.944 202.318 51.0458C206.108 56.7913 212.534 63.8586 221.625 64.8977C227.068 65.5175 230.934 63.659 230.973 63.6404C231.092 63.5818 231.236 63.6189 231.313 63.728C231.39 63.8371 231.376 63.9848 231.28 64.0776C228.67 66.5914 223.264 70.7664 216.584 70.641C212.675 70.5556 209.035 68.9873 205.742 65.9747C208.831 71.5361 213.629 75.6494 218.828 77.1212C223.423 78.4223 228.113 77.6571 232.384 74.9079C232.495 74.8367 232.642 74.8552 232.73 74.9532C232.819 75.0504 232.824 75.1981 232.743 75.3013C228.719 80.4159 223.191 83.5903 217.176 84.239C212.003 84.7957 206.854 83.3936 202.551 80.2719C207.953 89.0998 214.142 90.3088 218.398 90.4268C218.518 90.4305 218.621 90.5129 218.652 90.6295C218.682 90.746 218.632 90.8684 218.527 90.9293C209.31 96.3727 200.019 87.8996 197.663 85.4941C198.02 87.4587 199.737 92.7047 207.956 96.4365C208.045 96.4766 208.106 96.5627 208.114 96.6607C208.121 96.7586 208.076 96.8529 207.994 96.9071C206.459 97.9291 204.415 98.1644 202.241 97.5684C199.82 96.9056 195.25 94.6025 191.137 86.6549C191.728 99.5108 198.197 105.869 216.075 111.508C216.163 111.536 216.232 111.608 216.255 111.699C216.278 111.789 216.253 111.886 216.188 111.952C212.912 115.338 206.645 117.958 200.027 116.178C194.952 114.814 188.272 110.472 184.601 97.6805C184.288 108.656 181.319 118.427 175.091 129.093C175.04 129.178 174.952 129.228 174.856 129.228ZM176.927 98.5667C176.951 98.5667 176.975 98.5696 177 98.5763C177.14 98.6157 177.223 98.7574 177.191 98.8984C177.141 99.11 172.362 119.674 174.926 128.3C181.258 117.296 184.088 107.224 184.088 95.7247C184.088 95.5882 184.19 95.4731 184.325 95.4568C184.467 95.439 184.588 95.5273 184.621 95.6594C188.093 109.666 194.991 114.265 200.167 115.657C206.367 117.325 212.248 115.006 215.488 111.888C197.329 106.085 190.794 99.1285 190.559 85.4347C190.556 85.3078 190.643 85.1965 190.767 85.1675C190.889 85.1378 191.017 85.1994 191.072 85.3137C195.23 93.9664 199.944 96.3794 202.384 97.0481C204.208 97.5461 205.92 97.4259 207.267 96.7126C197.147 91.9135 197.029 85.0079 197.029 84.7125C197.029 84.5997 197.099 84.4988 197.205 84.4594C197.31 84.4201 197.429 84.4505 197.504 84.5359C197.605 84.6532 207.468 95.865 217.418 90.9189C208.514 90.2591 204.011 84.0371 201.378 79.3382C201.314 79.2246 201.34 79.0821 201.44 78.999C201.54 78.9151 201.685 78.9151 201.785 78.9983C206.185 82.624 211.633 84.2962 217.119 83.7039C222.503 83.1227 227.493 80.4634 231.316 76.1667C227.286 78.3377 222.949 78.8506 218.681 77.6422C212.881 76.0005 207.573 71.1694 204.486 64.7188C204.428 64.5993 204.467 64.4554 204.575 64.3797C204.685 64.3054 204.834 64.3203 204.925 64.416C208.425 68.0959 212.352 70.0086 216.596 70.1021C222.306 70.1971 227.051 67.085 229.849 64.6543C228.233 65.1812 225.287 65.8552 221.595 65.4388C212.28 64.3878 205.726 57.1936 201.866 51.3434C188.044 30.3834 171.662 12.4078 145.631 22.7163C145.518 22.7601 145.391 22.7267 145.318 22.631C145.226 22.5137 135.983 10.8135 118.958 4.5136C103.731 -1.12053 79.0694 -3.42584 47.1068 16.6532C47.6678 16.3912 48.2414 16.1196 48.8247 15.8442C56.78 12.0856 67.6754 6.93915 82.005 6.15463C82.135 6.14053 82.2613 6.24221 82.2859 6.37581C82.3096 6.51015 82.2301 6.64078 82.1009 6.6816C58.6673 13.9968 45.5205 26.4081 36.7189 36.8993C42.6808 32.8535 49.795 32.0207 49.8738 32.0118C50.0008 31.9992 50.1257 32.0786 50.1621 32.2033C50.1992 32.3287 50.1413 32.4631 50.0239 32.5217C48.8767 33.0939 41.0254 37.9295 31.3953 47.0802C22.5751 55.462 14.9935 57.0147 10.8356 55.6735C7.54039 54.6099 5.34036 51.7316 4.28678 47.1121C1.98421 53.6027 4.52974 61.3952 8.46915 64.5875C12.6322 67.9616 18.5257 67.2936 25.0627 62.7045C25.157 62.6377 25.2833 62.6392 25.3762 62.706C25.4698 62.7728 25.5107 62.8915 25.4773 63.0021C23.986 68.044 19.985 71.7572 15.0336 72.6924C9.83627 73.6744 4.46658 71.4693 0.542778 66.7777C0.465505 73.7961 3.79268 79.8963 9.53907 83.1962C14.8716 86.2586 21.3461 86.2957 26.03 83.2882C26.1214 83.2303 26.2366 83.2311 26.3258 83.2897C26.4149 83.3491 26.461 83.4552 26.4432 83.5606C24.7967 93.1893 17.2552 99.6124 7.83611 99.6399C18.6164 103.424 25.1734 94.9343 25.2417 94.8452C25.3242 94.7361 25.4743 94.7049 25.5939 94.774C25.712 94.8422 25.7611 94.9885 25.7061 95.1146C25.6689 95.2015 22.0015 103.934 27.5963 111.85C27.6401 111.912 27.655 111.99 27.6394 112.063C26.7233 116.274 22.6717 117.516 20.6425 117.878C22.7482 118.484 27.6483 119.265 32.2334 115.391C32.2973 115.336 32.3842 115.314 32.4674 115.334C32.5499 115.353 32.6198 115.409 32.6539 115.487C32.6993 115.586 37.2435 125.405 48.2184 127.791C48.2429 126.287 48.4569 124.206 48.7028 121.823C49.4042 115.013 50.4652 104.723 48.2035 96.0335C48.179 95.9385 48.2087 95.8368 48.2793 95.7693C48.3514 95.7017 48.4524 95.678 48.5483 95.7084C55.589 97.9825 93.02 83.8813 105.313 71.3564C105.412 71.257 105.572 71.2488 105.679 71.3379C105.787 71.4277 105.808 71.585 105.728 71.7001C105.662 71.7936 99.2605 80.8285 89.3095 86.5822C103.387 85.9387 122.947 68.1835 131.957 55.1896C131.977 55.1599 132.004 55.1354 132.034 55.1161C132.124 55.0582 134.292 53.6948 137.556 53.3415C140.574 53.0171 145.105 53.5389 149.606 57.8794C158.308 66.2716 160.747 86.8694 154.554 97.9907C157.613 96.1322 158.747 91.9899 158.759 91.9447C158.794 91.8096 158.925 91.7242 159.069 91.748C159.208 91.7732 159.303 91.9009 159.289 92.0404C159.281 92.1131 158.519 99.2206 153.431 107.204C154.832 106.758 158.21 105.414 161.507 102.056C168.677 94.7517 169.966 83.6927 169.786 75.7021C169.782 75.5581 169.893 75.4371 170.037 75.4267C170.18 75.4193 170.307 75.521 170.324 75.6642C172.462 93.599 165.265 110.334 163.715 113.68C165.88 112.803 173.277 109.124 176.669 98.7552C176.708 98.6394 176.813 98.5667 176.927 98.5667Z" fill="#622403"/>
<path d="M125.957 124.792C125.957 124.792 121.906 134.034 130.933 136.447C139.96 138.86 154.326 138.479 160.809 131.748C161.826 123.493 157.885 115.492 143.519 117.27C129.153 119.049 125.957 124.792 125.957 124.792Z" fill="#B4715A"/>
<path d="M126.7 125.079C126.7 125.079 122.882 133.79 131.391 136.065C139.899 138.339 153.44 137.98 159.551 131.636C160.51 123.855 156.795 116.314 143.254 117.99C129.712 119.665 126.7 125.079 126.7 125.079Z" fill="#E4E5E6"/>
<path d="M141.709 137.588C137.879 137.588 134.2 137.096 131.32 136.327C128.845 135.665 127.143 134.401 126.262 132.573C124.636 129.197 126.377 125.143 126.452 124.972C126.456 124.965 126.459 124.957 126.463 124.949C126.589 124.723 129.699 119.396 143.22 117.723C149.391 116.959 153.974 118.021 156.839 120.88C159.314 123.35 160.372 127.183 159.82 131.671C159.812 131.729 159.787 131.783 159.747 131.825C155.666 136.059 148.458 137.588 141.709 137.588ZM126.942 125.201C126.832 125.46 125.277 129.282 126.75 132.34C127.56 134.02 129.145 135.186 131.459 135.804C139.258 137.889 153.021 137.928 159.293 131.513C159.801 127.232 158.795 123.594 156.457 121.26C153.716 118.525 149.284 117.515 143.287 118.257C130.355 119.858 127.101 124.939 126.942 125.201Z" fill="#D6A174"/>
<path d="M128.085 125.292C128.085 125.292 124.596 133.253 132.372 135.331C140.146 137.41 152.52 137.082 158.106 131.284C158.982 124.174 155.587 117.282 143.213 118.814C130.839 120.345 128.085 125.292 128.085 125.292Z" fill="white"/>
<path d="M96.0002 122.629C96.0002 122.629 98.9188 126.432 98.1579 131.123C97.3964 135.814 88.0055 140.124 73.7911 137.968C64.9078 136.447 60.8465 133.532 61.8614 126.812C62.8771 120.093 69.984 115.91 77.4712 115.91C84.9585 115.91 93.7155 119.586 96.0002 122.629Z" fill="#B4715A"/>
<path d="M95.3206 123.017C95.3206 123.017 98.0772 126.608 97.3579 131.038C96.6387 135.466 87.771 139.537 74.3501 137.502C65.9616 136.065 62.1269 133.312 63.0854 126.967C64.0439 120.623 70.7547 116.673 77.8251 116.673C84.8955 116.673 93.1637 120.144 95.3206 123.017Z" fill="#E4E5E6"/>
<path d="M81.2929 138.317C79.1285 138.317 76.7925 138.145 74.3086 137.769C65.2165 136.212 61.8893 133.071 62.8181 126.927C63.6086 121.698 69.017 116.403 77.8253 116.403C84.9522 116.403 93.3407 119.932 95.5363 122.854C95.6641 123.022 98.3522 126.599 97.6248 131.08C96.9896 134.99 90.8085 138.317 81.2929 138.317ZM77.8245 116.943C69.3216 116.943 64.1079 122.006 63.3523 127.008C62.4674 132.856 65.5635 135.724 74.3948 137.236C88.2028 139.327 96.4479 134.957 97.0906 130.995C97.7816 126.737 95.1328 123.216 95.1061 123.181L95.1046 123.179C92.9833 120.354 84.8021 116.943 77.8245 116.943Z" fill="#D6A174"/>
<path d="M94.0102 123.394C94.0102 123.394 96.5275 126.674 95.8707 130.719C95.2139 134.764 87.1159 138.481 74.8586 136.622C67.1975 135.31 63.6957 132.796 64.5709 127.002C65.4462 121.207 71.5752 117.6 78.0319 117.6C84.4886 117.6 92.0405 120.77 94.0102 123.394Z" fill="white"/>
<path d="M90.2012 172.679C94.0797 166.573 101.237 162.67 108.489 162.69L111.574 162.602C115.677 162.586 119.965 162.664 123.756 164.456C127.433 166.38 130.524 169.159 133.522 171.974C130.429 169.331 127.225 166.65 123.578 164.831C119.83 163.165 115.628 163.083 111.58 163.142C109.792 163.22 107.199 163.122 105.461 163.418C99.407 164.243 93.7356 167.691 90.2012 172.679Z" fill="#B4715A"/>
<path d="M117.8 94.3932C114.87 99.9056 113.624 106.247 114.092 112.464C114.22 114.168 114.432 115.911 114.934 117.548C114.985 117.714 115.292 117.391 115.269 117.256C115.011 115.779 114.718 114.313 114.566 112.82C114.411 111.3 114.361 109.77 114.414 108.242C114.522 105.172 115.06 102.135 115.98 99.205C116.5 97.5513 117.14 95.9303 117.897 94.371C117.943 94.2789 117.823 94.3487 117.8 94.3932Z" fill="#B4715A"/>
<path d="M124.821 104.62C123.001 106.409 121.89 108.823 121.7 111.369C121.643 112.128 121.718 112.916 121.4 113.629C121.131 114.23 120.679 114.728 120.348 115.292C119.716 116.372 119.586 117.71 120.134 118.85C120.206 118.999 120.501 118.701 120.451 118.572C119.933 117.238 120.141 115.98 120.94 114.817C121.252 114.362 121.582 113.913 121.778 113.393C121.975 112.87 121.993 112.316 122.01 111.764C122.091 109.133 123.094 106.652 124.876 104.707C124.94 104.635 124.913 104.53 124.821 104.62Z" fill="#B4715A"/>
<path d="M110.864 127.152C110.319 126.604 109.819 126.063 109.48 125.359C109.122 124.615 108.928 123.806 108.846 122.986C108.659 121.137 108.888 119.238 108.993 117.388C109.209 113.578 109.428 109.768 109.633 105.957C109.747 103.825 109.842 101.693 109.938 99.5605C109.942 99.4729 109.784 99.6072 109.78 99.6681C109.506 103.586 109.257 107.506 109.027 111.427C108.914 113.365 108.801 115.303 108.687 117.241C108.575 119.159 108.33 121.125 108.47 123.045C108.584 124.606 109.108 126.642 110.583 127.474C110.709 127.546 110.972 127.261 110.864 127.152Z" fill="#B4715A"/>
<path d="M104.101 110.426C103.083 107.396 100.905 104.91 99.9138 101.861C99.3239 100.046 99.069 98.1354 98.8105 96.251C98.803 96.1998 98.67 96.3141 98.676 96.3719C98.8491 97.9588 99.0244 99.5464 99.419 101.097C99.8024 102.602 100.426 103.998 101.176 105.354C102.559 107.854 104.269 110.338 104.408 113.287C104.482 114.85 104.086 116.319 103.076 117.534C102.959 117.674 103.057 117.756 103.184 117.627C105.02 115.765 104.876 112.73 104.101 110.426Z" fill="#B4715A"/>
<path d="M97.782 112.977C97.4915 111.474 97.1839 109.995 96.2328 108.754C95.7833 108.168 95.2565 107.648 94.7907 107.076C94.2817 106.452 93.8723 105.762 93.5372 105.031C92.9057 103.651 92.5394 102.158 92.1656 100.692C92.1515 100.636 92.0267 100.757 92.0356 100.809C92.2949 102.334 92.6248 103.853 93.266 105.27C93.8746 106.617 94.8085 107.625 95.7491 108.739C96.8079 109.992 97.1898 111.435 97.5212 113.006C97.8764 114.691 98.1052 116.402 98.4656 118.084C98.4775 118.139 98.6008 118.023 98.5971 117.98C98.45 116.305 98.1008 114.627 97.782 112.977Z" fill="#B4715A"/>
<path d="M115.361 121.069C115.345 121.002 115.191 121.146 115.202 121.212C115.352 122.127 115.39 123.063 115.337 123.989C115.286 124.894 115.096 125.773 114.913 126.659C114.871 126.859 115.133 126.633 115.164 126.55C115.807 124.819 115.777 122.847 115.361 121.069Z" fill="#B4715A"/>
<path d="M97.5947 132.999C94.5952 136.336 90.161 137.839 85.8998 138.828C81.3423 139.886 76.5603 140.131 71.9871 139.024C69.5255 138.428 67.1264 137.469 64.9746 136.128C64.9456 136.111 64.8788 136.192 64.904 136.21C68.7134 138.917 73.3371 140.085 77.9735 140.125C80.4685 140.146 82.9598 139.843 85.3953 139.311C87.6779 138.812 89.9604 138.15 92.1032 137.212C94.2334 136.279 96.3249 135.01 97.7656 133.149C97.9306 132.936 97.779 132.794 97.5947 132.999Z" fill="#B4715A"/>
<path d="M160.331 133.781C158.495 135.584 156.086 136.599 153.709 137.489C151.186 138.435 148.563 139.13 145.888 139.475C140.956 140.11 135.957 139.441 131.481 137.237C129.178 136.102 127.111 134.487 125.441 132.539C125.41 132.503 125.296 132.622 125.331 132.665C128.296 136.404 132.748 138.789 137.401 139.675C142.655 140.675 148.113 139.846 153.109 138.069C155.724 137.139 158.506 136.009 160.443 133.951C160.57 133.817 160.503 133.612 160.331 133.781Z" fill="#B4715A"/>
<path d="M98.0393 136.059C92.7127 142.451 84.2076 145.942 75.9127 144.944C73.5819 144.663 71.1456 144.055 69.4285 142.356C69.3742 142.303 69.2085 142.484 69.2658 142.543C70.8261 144.142 73.0246 144.829 75.183 145.152C77.2189 145.457 79.2963 145.486 81.3418 145.261C85.4907 144.805 89.5305 143.286 92.9728 140.934C94.9209 139.602 96.6789 138.001 98.1471 136.153C98.2585 136.012 98.1575 135.917 98.0393 136.059Z" fill="#B4715A"/>
<path d="M158.361 138.248C154.925 141.714 150.414 143.962 145.538 144.437C140.832 144.896 136.065 143.58 132.176 140.913C130.061 139.463 128.182 137.646 126.704 135.549C126.674 135.506 126.54 135.641 126.568 135.687C129.091 139.724 133.081 142.698 137.627 144.099C142.314 145.543 147.418 145.152 151.885 143.156C154.391 142.036 156.697 140.443 158.531 138.395C158.713 138.191 158.549 138.058 158.361 138.248Z" fill="#B4715A"/>
<path d="M104.191 154.721C101.578 153.771 99.0128 152.597 96.8202 150.864C95.8431 150.091 94.9055 149.157 94.4418 147.978C93.9217 146.657 94.2524 145.261 95.063 144.133C96.02 142.802 97.5193 141.959 98.908 141.149C98.9608 141.118 99.0492 140.922 98.9385 140.981C96.6263 142.225 93.7947 143.975 93.7813 146.956C93.7672 149.92 96.7355 151.903 99.0291 153.195C100.567 154.062 102.211 154.731 103.939 155.107C104.085 155.137 104.369 154.785 104.191 154.721Z" fill="#B4715A"/>
<path d="M122.26 139.978C117.91 137.043 112.014 136.583 107.047 138.006C105.659 138.403 104.329 138.962 103.084 139.692C103.035 139.721 102.948 139.907 103.054 139.851C107.651 137.449 112.965 136.984 117.909 138.576C119.303 139.025 120.647 139.651 121.928 140.359C122.086 140.447 122.404 140.075 122.26 139.978Z" fill="#B4715A"/>
<path d="M128.904 147.956C128.752 146.486 127.906 145.315 126.988 144.243C126.938 144.185 126.776 144.369 126.825 144.437C127.592 145.501 128.315 146.724 128.485 148.067C128.569 148.725 128.519 149.425 128.249 150.033C127.953 150.703 127.398 151.16 126.802 151.532C124.57 152.927 121.832 153.959 119.328 154.598C119.138 154.646 118.947 154.782 119.213 154.718C120.704 154.36 122.195 154.001 123.641 153.476C124.987 152.986 126.399 152.369 127.51 151.421C128.522 150.556 129.044 149.318 128.904 147.956Z" fill="#B4715A"/>
<path d="M128.023 174.479C126.16 171.059 122.059 169.498 118.343 169.346C115.953 169.247 113.577 169.641 111.261 170.196C109.167 170.698 107.075 171.286 105.068 172.069C102.94 172.898 100.921 174.005 99.2306 175.553C99.1459 175.631 99.1414 175.793 99.2715 175.678C102.386 172.931 106.543 171.753 110.492 170.778C114.581 169.769 119.021 169.192 123.003 170.923C124.892 171.744 126.523 173.071 127.657 174.796C127.766 174.963 128.101 174.622 128.023 174.479Z" fill="#B4715A"/>
<path d="M141.294 150.888C141.294 151.273 141.035 151.586 140.716 151.586C140.396 151.586 140.137 151.273 140.137 150.888C140.137 150.503 140.396 150.19 140.716 150.19C141.035 150.19 141.294 150.503 141.294 150.888Z" fill="#FDD4B5"/>
<path d="M145.847 152.638C145.941 152.892 145.845 153.157 145.634 153.229C145.423 153.301 145.176 153.153 145.083 152.899C144.989 152.644 145.085 152.379 145.296 152.307C145.507 152.235 145.754 152.383 145.847 152.638Z" fill="#FDD4B5"/>
<path d="M155.709 145.766C155.714 145.65 155.67 145.548 155.596 145.481C155.595 145.375 155.563 145.273 155.477 145.204C155.478 144.936 155.374 144.669 155.128 144.536C155.032 144.484 154.929 144.605 154.88 144.671C154.478 145.206 154.459 146.028 154.919 146.536C154.945 146.564 155.01 146.554 155.038 146.539C155.12 146.499 155.19 146.444 155.255 146.382C155.504 146.296 155.698 146.017 155.709 145.766Z" fill="#FDD4B5"/>
<path d="M158.874 156.551C158.781 156.512 158.678 156.489 158.579 156.512C158.432 156.546 158.304 156.643 158.203 156.754C158.202 156.756 158.2 156.758 158.199 156.76C158.059 156.861 157.937 156.992 157.871 157.149C157.802 157.313 157.801 157.49 157.865 157.655C157.92 157.793 158.015 157.915 158.107 158.03C158.209 158.157 158.345 158.273 158.522 158.237C158.78 158.186 158.981 157.95 159.048 157.702C159.076 157.593 159.057 157.488 159.014 157.391C159.014 157.378 159.02 157.365 159.02 157.354C159.019 157.31 159.001 157.27 158.993 157.227C159.059 157.193 159.107 157.129 159.133 157.061C159.215 156.841 159.074 156.637 158.874 156.551Z" fill="#FDD4B5"/>
<path d="M156.108 149.585C156.061 149.524 155.994 149.493 155.921 149.477C155.923 149.475 155.925 149.473 155.926 149.471C155.942 149.444 155.981 149.351 155.92 149.345C155.835 149.337 155.75 149.329 155.665 149.317C155.629 149.311 155.596 149.311 155.561 149.324C155.513 149.341 155.473 149.378 155.438 149.413C155.4 149.45 155.368 149.491 155.336 149.534C155.253 149.649 155.192 149.79 155.168 149.929C155.164 149.948 155.165 149.967 155.163 149.986C155.136 150.049 155.116 150.115 155.108 150.184C155.102 150.244 155.106 150.288 155.119 150.348C155.13 150.394 155.159 150.429 155.185 150.467C155.217 150.491 155.252 150.5 155.292 150.494C155.297 150.493 155.3 150.49 155.305 150.489C155.338 150.517 155.37 150.545 155.413 150.563C155.573 150.632 155.756 150.541 155.881 150.442C156.024 150.328 156.135 150.154 156.175 149.974C156.204 149.839 156.193 149.698 156.108 149.585Z" fill="#FDD4B5"/>
<path d="M159.472 145.719C159.431 145.512 159.242 145.339 159.033 145.31C158.708 145.264 158.43 145.517 158.301 145.795C158.275 145.851 158.254 145.915 158.241 145.979C158.207 146.073 158.184 146.171 158.193 146.269C158.197 146.31 158.205 146.351 158.216 146.39C158.219 146.403 158.223 146.415 158.228 146.427C158.245 146.471 158.274 146.494 158.317 146.511C158.379 146.536 158.446 146.542 158.513 146.546C158.525 146.547 158.537 146.542 158.549 146.542C158.602 146.555 158.657 146.56 158.713 146.557C158.867 146.55 159.005 146.476 159.124 146.386C159.269 146.276 159.381 146.11 159.427 145.933C159.431 145.917 159.428 145.9 159.43 145.883C159.462 145.834 159.484 145.779 159.472 145.719Z" fill="#FDD4B5"/>
<path d="M135.432 146.053C135.424 146.039 135.415 146.026 135.405 146.013C135.389 145.989 135.372 145.966 135.35 145.946C135.315 145.912 135.272 145.889 135.228 145.868V145.866C135.226 145.864 135.223 145.865 135.221 145.863C135.215 145.86 135.211 145.855 135.204 145.853C135.212 145.857 135.22 145.86 135.228 145.865C135.226 145.833 135.231 145.801 135.222 145.771C135.208 145.723 135.179 145.674 135.143 145.639C135.096 145.594 135.035 145.58 134.971 145.584C134.928 145.587 134.871 145.625 134.841 145.653C134.798 145.691 134.753 145.739 134.733 145.794C134.709 145.86 134.682 145.925 134.671 145.994C134.659 146.057 134.65 146.122 134.653 146.186C134.654 146.203 134.66 146.217 134.662 146.234C134.645 146.35 134.637 146.469 134.654 146.586C134.653 146.617 134.664 146.645 134.687 146.667C134.705 146.683 134.726 146.689 134.749 146.687C134.822 146.69 134.887 146.647 134.942 146.602C134.965 146.583 134.986 146.56 135.009 146.539C135.015 146.538 135.02 146.541 135.026 146.54C135.088 146.531 135.15 146.505 135.203 146.471C135.249 146.439 135.292 146.402 135.329 146.36C135.376 146.306 135.425 146.234 135.441 146.163C135.451 146.126 135.451 146.086 135.432 146.053Z" fill="#FDD4B5"/>
<path d="M135.237 145.868L135.229 145.864V145.866L135.237 145.868Z" fill="#FDD4B5"/>
<path d="M129.585 141.179C129.517 141.104 129.438 141.047 129.346 141.004C129.354 141.008 129.363 141.012 129.371 141.016C129.354 141.004 129.334 140.996 129.316 140.986V140.983C129.314 140.983 129.313 140.983 129.311 140.983C129.293 140.973 129.276 140.962 129.256 140.954C129.195 140.928 129.115 140.964 129.063 140.997C128.994 141.042 128.935 141.103 128.89 141.172C128.86 141.219 128.833 141.276 128.822 141.332C128.809 141.407 128.811 141.483 128.839 141.554C128.852 141.587 128.873 141.617 128.894 141.645C128.908 141.662 128.923 141.678 128.941 141.689C128.985 141.715 129.036 141.723 129.086 141.714C129.108 141.71 129.123 141.692 129.143 141.684C129.156 141.688 129.169 141.696 129.183 141.7C129.293 141.728 129.406 141.719 129.518 141.705C129.579 141.698 129.637 141.639 129.671 141.594C129.702 141.553 129.741 141.49 129.724 141.436C129.695 141.342 129.653 141.254 129.585 141.179Z" fill="#FDD4B5"/>
<path d="M132.165 145.337C132.222 145.311 132.289 145.218 132.277 145.174C132.214 144.925 131.909 144.86 131.7 144.965C131.512 145.06 131.357 145.259 131.352 145.475C131.348 145.618 131.427 145.76 131.543 145.841C131.604 145.884 131.68 145.921 131.755 145.927C131.868 145.935 131.983 145.901 132.075 145.834C132.142 145.786 132.197 145.731 132.237 145.659C132.263 145.612 132.299 145.536 132.272 145.482C132.246 145.428 132.201 145.385 132.165 145.337Z" fill="#FDD4B5"/>
<path d="M85.9581 147.162C85.9381 147.144 85.9173 147.135 85.8965 147.122C85.8853 147.11 85.8838 147.092 85.8712 147.082C85.8006 147.024 85.71 146.993 85.6193 146.997C85.5042 147.001 85.3875 147.073 85.3058 147.15C85.1965 147.251 85.0992 147.386 85.0695 147.535C85.0628 147.568 85.0702 147.599 85.0702 147.629C85.0323 147.742 85.0108 147.858 85.0368 147.981C85.0427 148.008 85.0502 148.036 85.0635 148.06C85.0762 148.082 85.091 148.103 85.1066 148.123C85.1386 148.165 85.1817 148.164 85.2307 148.164C85.3169 148.166 85.4068 148.145 85.4863 148.113C85.6149 148.061 85.7233 147.98 85.817 147.879C85.8496 147.844 85.8771 147.802 85.9039 147.76C85.9039 147.761 85.9046 147.763 85.9046 147.763C85.9046 147.766 85.9054 147.772 85.9054 147.773C85.9054 147.779 85.9046 147.786 85.9039 147.792C85.9031 147.798 85.9024 147.804 85.9017 147.81C85.9039 147.786 85.9017 147.809 85.9002 147.814C85.8994 147.816 85.8935 147.837 85.8913 147.844C85.8913 147.844 85.892 147.843 85.889 147.85C85.8883 147.852 85.8861 147.855 85.8846 147.858L85.8831 147.861C85.8786 147.867 85.8742 147.873 85.8697 147.88C85.8504 147.905 85.814 147.98 85.8578 148C85.9017 148.02 85.9656 147.965 85.9886 147.934C86.083 147.812 86.1327 147.666 86.1186 147.511C86.106 147.38 86.0577 147.252 85.9581 147.162Z" fill="#FDD4B5"/>
<path d="M89.7727 149.083C89.7162 149.039 89.6508 149.016 89.5832 149.009C89.5208 148.954 89.4465 148.91 89.364 148.886C89.1731 148.831 88.9643 148.867 88.7964 148.969C88.6775 149.042 88.5816 149.151 88.514 149.272C88.4732 149.345 88.4323 149.429 88.4605 149.513C88.4791 149.568 88.5088 149.617 88.5437 149.663C88.6418 149.797 88.8201 149.859 88.9895 149.868C89.0007 149.879 89.0066 149.896 89.0193 149.906C89.3462 150.179 89.7779 149.781 89.873 149.466C89.9124 149.332 89.8878 149.174 89.7727 149.083Z" fill="#FDD4B5"/>
<path d="M66.0524 147.726C65.8414 147.603 65.5873 147.644 65.3815 147.776C65.2351 147.87 65.1148 147.999 65.0137 148.14C64.9684 148.203 64.9298 148.271 64.8948 148.339C64.8748 148.379 64.851 148.423 64.8406 148.467C64.8243 148.535 64.8532 148.57 64.8911 148.621C65.0657 148.847 65.3369 149.011 65.6312 148.981C65.9715 148.945 66.2887 148.666 66.3794 148.339C66.447 148.093 66.3095 147.794 66.0524 147.726Z" fill="#FDD4B5"/>
<path d="M78.1023 150.401C77.635 150.493 77.2196 150.893 77.1669 151.374C77.1453 151.569 77.1973 151.765 77.314 151.922C77.4284 152.076 77.6194 152.139 77.8066 152.123C78.0302 152.105 78.2479 151.973 78.3869 151.8C78.5147 151.64 78.6031 151.427 78.5503 151.223C78.5548 151.207 78.563 151.193 78.5667 151.178C78.5934 151.08 78.6128 150.982 78.5563 150.89C78.5399 150.864 78.5117 150.853 78.4916 150.832C78.4872 150.824 78.4812 150.818 78.4768 150.81C78.5578 150.859 78.6194 150.931 78.6343 151.035C78.6417 151.091 78.7316 151.037 78.7487 151.024C78.7933 150.99 78.8446 150.93 78.8461 150.871C78.8535 150.488 78.4218 150.337 78.1023 150.401Z" fill="#FDD4B5"/>
<path d="M106.04 136.811C105.997 136.723 105.931 136.643 105.848 136.591C105.761 136.537 105.65 136.497 105.547 136.521C105.533 136.524 105.524 136.535 105.511 136.539C105.498 136.545 105.488 136.546 105.477 136.555C105.449 136.566 105.419 136.575 105.393 136.588C105.383 136.593 105.376 136.604 105.366 136.61C105.284 136.666 105.21 136.734 105.156 136.817C105.087 136.923 105.031 137.063 105.048 137.192C105.061 137.294 105.107 137.393 105.197 137.449C105.239 137.475 105.287 137.498 105.337 137.507C105.412 137.52 105.477 137.509 105.548 137.489C105.601 137.475 105.643 137.442 105.689 137.412C105.749 137.415 105.809 137.408 105.865 137.387C105.914 137.368 105.966 137.325 105.998 137.286C106.031 137.245 106.071 137.194 106.079 137.14C106.098 137.027 106.091 136.914 106.04 136.811Z" fill="#FDD4B5"/>
<path d="M115.501 134.585C115.5 134.581 115.502 134.577 115.501 134.574C115.468 134.439 115.345 134.347 115.216 134.314C115.185 134.306 115.151 134.316 115.119 134.329C115.086 134.318 115.053 134.298 115.02 134.295C114.902 134.281 114.782 134.295 114.674 134.346C114.6 134.381 114.541 134.43 114.492 134.495C114.453 134.546 114.403 134.623 114.411 134.692C114.424 134.799 114.461 134.887 114.535 134.967L114.538 134.968C114.54 134.98 114.535 134.992 114.538 135.005C114.571 135.133 114.679 135.242 114.794 135.302C114.872 135.343 114.953 135.374 115.041 135.386C115.125 135.398 115.211 135.403 115.295 135.406C115.447 135.413 115.59 135.257 115.624 135.118C115.671 134.925 115.619 134.739 115.501 134.585Z" fill="#FDD4B5"/>
<path d="M109.055 133.048C108.996 132.966 108.902 132.913 108.805 132.89C108.548 132.827 108.289 132.951 108.108 133.128C108.095 133.141 108.087 133.158 108.074 133.171C108.026 133.189 107.98 133.209 107.94 133.237C107.801 133.333 107.679 133.464 107.617 133.622C107.572 133.733 107.561 133.859 107.611 133.965C107.583 134.073 107.566 134.185 107.61 134.289C107.659 134.401 107.765 134.471 107.887 134.478C108.074 134.488 108.247 134.379 108.371 134.247C108.463 134.149 108.518 134.028 108.553 133.901C108.729 133.814 108.882 133.672 108.98 133.506C109.026 133.43 109.061 133.352 109.087 133.266C109.096 133.234 109.108 133.195 109.106 133.162C109.105 133.117 109.079 133.082 109.055 133.048Z" fill="#FDD4B5"/>
<path d="M124.87 138.952C124.775 138.826 124.613 138.763 124.458 138.763C124.342 138.763 124.238 138.82 124.148 138.889C124.073 138.947 124.006 139.038 123.993 139.133C123.989 139.163 123.989 139.192 123.994 139.221C124.001 139.274 124.011 139.324 124.038 139.37C124.095 139.474 124.174 139.544 124.28 139.595C124.335 139.621 124.387 139.633 124.448 139.632C124.511 139.632 124.573 139.616 124.632 139.594C124.645 139.589 124.654 139.58 124.665 139.573C124.679 139.569 124.694 139.566 124.708 139.56C124.797 139.529 124.87 139.461 124.916 139.379C124.948 139.321 124.964 139.25 124.96 139.183C124.953 139.094 124.922 139.022 124.87 138.952Z" fill="#FDD4B5"/>
<path d="M59.8343 147.031C59.8647 146.933 59.8863 146.833 59.8967 146.731C59.8997 146.701 59.8811 146.674 59.8529 146.666C59.5244 146.574 59.1923 146.802 59.0095 147.058C58.9508 147.139 58.913 147.234 58.8862 147.333C58.8632 147.398 58.8535 147.464 58.8543 147.531L58.8535 147.534L58.8543 147.536C58.855 147.586 58.8624 147.634 58.878 147.682C58.8988 147.772 58.9308 147.858 58.9873 147.937C59.0259 147.991 59.072 148.04 59.1262 148.077C59.1529 148.096 59.1819 148.115 59.2116 148.127C59.2533 148.144 59.303 148.135 59.3469 148.124C59.5482 148.075 59.7095 147.942 59.8298 147.778C59.9881 147.562 60.055 147.227 59.8343 147.031Z" fill="#FDD4B5"/>
<path d="M69.6303 153.011C69.6125 152.948 69.5775 152.891 69.5374 152.839C69.4616 152.743 69.3517 152.672 69.2291 152.657C69.1548 152.648 69.0872 152.688 69.0329 152.735C69.0307 152.738 69.0277 152.741 69.0255 152.744C68.9824 152.751 68.94 152.793 68.9192 152.825C68.8925 152.867 68.8799 152.913 68.8672 152.959C68.8665 152.96 68.8643 152.962 68.8643 152.962C68.784 153.098 68.7261 153.281 68.7929 153.435C68.8182 153.492 68.8598 153.548 68.9103 153.586C68.9386 153.607 68.9705 153.623 69.0025 153.638C69.027 153.649 69.0522 153.659 69.079 153.662C69.163 153.672 69.2439 153.662 69.3234 153.631C69.4847 153.57 69.6088 153.424 69.6407 153.254C69.6541 153.171 69.6533 153.093 69.6303 153.011Z" fill="#FDD4B5"/>
<path d="M91.1477 144.815C91.0393 144.594 90.7755 144.488 90.5385 144.537C90.4619 144.553 90.3884 144.584 90.3245 144.627C90.2472 144.679 90.1744 144.744 90.1358 144.831C90.1075 144.894 90.1105 144.956 90.132 145.02C90.1744 145.144 90.2784 145.227 90.4025 145.26C90.6009 145.313 90.826 145.188 90.9486 145.04C90.962 145.024 90.9754 145.004 90.9887 144.984C91.0177 145.004 91.0771 144.955 91.0905 144.941C91.1143 144.916 91.167 144.854 91.1477 144.815Z" fill="#FDD4B5"/>
<path d="M72.7683 163.171C72.7854 162.883 72.6071 162.569 72.3359 162.45C72.3693 162.404 72.3894 162.354 72.3612 162.331C72.2066 162.202 72.0276 162.059 71.8232 162.024C71.6219 161.989 71.4168 162.095 71.2927 162.249C71.211 162.351 71.1464 162.476 71.1575 162.611C71.1679 162.729 71.2207 162.827 71.2912 162.921C71.3752 163.033 71.4815 163.129 71.5929 163.218C71.7579 163.457 72.0164 163.632 72.3144 163.646C72.353 163.648 72.3864 163.636 72.4199 163.624C72.4228 163.624 72.4258 163.626 72.4295 163.627C72.515 163.647 72.6183 163.561 72.6673 163.502C72.7245 163.433 72.7802 163.342 72.7579 163.25C72.7565 163.243 72.7527 163.238 72.7505 163.232C72.7557 163.211 72.7669 163.192 72.7683 163.171Z" fill="#FDD4B5"/>
<path d="M151.579 157.601C151.227 157.471 150.842 157.629 150.596 157.889C150.355 158.145 150.24 158.569 150.448 158.88C150.455 158.891 150.466 158.898 150.473 158.908C150.478 158.962 150.49 159.016 150.512 159.069C150.64 159.384 151.004 159.535 151.321 159.429C151.555 159.352 151.76 159.152 151.885 158.944C151.992 158.767 152.056 158.571 152.061 158.363C152.07 158.035 151.895 157.716 151.579 157.601Z" fill="#FDD4B5"/>
<path d="M148.473 127.536C147.899 132.386 143.498 135.853 138.642 135.279C133.787 134.706 130.316 130.309 130.89 125.459C131.465 120.608 135.866 117.141 140.722 117.715C145.577 118.289 149.048 122.686 148.473 127.536Z" fill="#411500"/>
<path d="M147.289 127.396C146.791 131.594 142.983 134.594 138.781 134.097C134.579 133.601 131.576 129.796 132.073 125.599C132.57 121.402 136.379 118.402 140.581 118.898C144.782 119.395 147.786 123.199 147.289 127.396Z" fill="#6C3A23"/>
<path d="M144.156 127.026C143.864 129.495 141.623 131.26 139.151 130.968C136.68 130.676 134.913 128.438 135.205 125.968C135.497 123.5 137.738 121.735 140.21 122.027C142.682 122.319 144.449 124.557 144.156 127.026Z" fill="black"/>
<path d="M138.12 122.95C138.018 123.807 137.241 124.419 136.382 124.318C135.524 124.216 134.911 123.44 135.013 122.582C135.115 121.726 135.892 121.113 136.75 121.215C137.608 121.316 138.221 122.093 138.12 122.95Z" fill="white"/>
<path d="M135.917 126.172C135.857 126.679 135.396 127.042 134.888 126.982C134.38 126.922 134.017 126.462 134.077 125.954C134.137 125.447 134.598 125.084 135.106 125.144C135.614 125.204 135.977 125.664 135.917 126.172Z" fill="white"/>
<path d="M146.128 126.506C146.079 126.219 145.075 126.411 145.028 126.601C144.543 128.557 143.737 130.323 141.864 131.128C140.99 131.504 140.055 131.76 139.076 131.702C138.154 131.647 137.239 131.368 136.455 130.902C135.552 130.365 134.814 129.588 134.383 128.676C134.305 128.511 134.031 128.621 133.95 128.712C133.227 129.514 134.112 130.936 134.671 131.577C137.452 134.765 143.191 134.017 145.279 130.833C145.966 129.783 146.395 128.041 146.128 126.506Z" fill="#5F3D26"/>
<path d="M92.87 127.696C92.2956 132.546 87.8941 136.013 83.0385 135.439C78.183 134.865 74.7124 130.468 75.2868 125.618C75.8611 120.768 80.2627 117.301 85.1182 117.875C89.9737 118.448 93.4443 122.845 92.87 127.696Z" fill="#411500"/>
<path d="M91.6851 127.556C91.188 131.753 87.3793 134.753 83.1777 134.257C78.976 133.76 75.9727 129.956 76.4698 125.758C76.9669 121.561 80.7755 118.561 84.9772 119.058C89.1789 119.554 92.1821 123.359 91.6851 127.556Z" fill="#6C3A23"/>
<path d="M88.5541 127.186C88.2621 129.654 86.0212 131.419 83.5499 131.127C81.0787 130.835 79.3118 128.597 79.6038 126.129C79.8958 123.659 82.1367 121.895 84.608 122.187C87.0799 122.479 88.8468 124.717 88.5541 127.186Z" fill="black"/>
<path d="M82.516 123.109C82.4142 123.967 81.637 124.579 80.7788 124.477C79.9207 124.376 79.3077 123.599 79.4095 122.742C79.5105 121.885 80.2885 121.272 81.1466 121.374C82.0041 121.476 82.6178 122.253 82.516 123.109Z" fill="white"/>
<path d="M80.3143 126.331C80.2541 126.839 79.7935 127.202 79.2853 127.142C78.7771 127.082 78.4137 126.622 78.4732 126.114C78.5333 125.606 78.994 125.243 79.5022 125.303C80.0112 125.364 80.3745 125.824 80.3143 126.331Z" fill="white"/>
<path d="M90.5243 126.665C90.4746 126.378 89.4708 126.57 89.424 126.76C88.9395 128.717 88.1334 130.483 86.2595 131.288C85.385 131.663 84.4503 131.919 83.4717 131.862C82.5489 131.807 81.6343 131.528 80.8504 131.061C79.9469 130.524 79.2091 129.748 78.7774 128.836C78.6994 128.67 78.4267 128.781 78.3443 128.871C77.6213 129.674 78.5063 131.096 79.0657 131.737C81.8461 134.925 87.5858 134.177 89.6736 130.993C90.3624 129.943 90.7911 128.201 90.5243 126.665Z" fill="#5F3D26"/>
<path d="M152.256 38.6323C146.038 37.2785 139.696 39.8325 135.617 44.5997C133.404 47.1871 131.913 50.3838 131.526 53.7757C131.513 53.8878 131.725 53.717 131.735 53.6354C132.512 47.5359 136.884 42.1705 142.565 39.8956C145.383 38.7667 148.449 38.455 151.434 39.025C154.395 39.5905 157.192 40.9517 159.513 42.8659C162.134 45.0272 164.134 47.9181 165.125 51.1735C165.18 51.3516 165.547 51.0132 165.502 50.8469C163.836 44.7222 158.401 39.9713 152.256 38.6323Z" fill="#622403"/>
<path d="M136.476 38.708C137.986 33.4161 134.302 28.2006 129.745 25.8388C127.133 24.485 124.23 23.82 121.324 23.4808C118.531 23.155 115.669 23.0266 112.867 23.3361C109.834 23.6716 106.866 24.5971 104.467 26.5373C104.364 26.6204 104.362 26.7985 104.515 26.679C108.885 23.2693 115.008 23.3316 120.254 23.8749C125.609 24.4294 131.351 26.1261 134.453 30.8695C135.783 32.9047 136.523 35.3562 136.227 37.7699C135.719 36.143 134.793 34.6355 133.667 33.3634C131.738 31.1835 129.191 29.6709 126.418 28.8255C123.233 27.8539 119.844 27.7189 116.542 27.9653C113.208 28.2139 109.898 28.8225 106.66 29.6456C100.114 31.3112 93.8607 33.969 87.8803 37.0804C81.7029 40.2949 75.8168 44.0238 69.9724 47.7987C63.9845 51.6671 58.0122 55.557 51.8282 59.1114C51.0228 59.5746 50.2144 60.0325 49.4016 60.4823C49.3414 60.5157 49.2247 60.7347 49.3458 60.6716C55.5083 57.4682 61.3587 53.7089 67.1965 49.9578C72.9927 46.2333 78.7837 42.4852 84.8235 39.1623C90.6665 35.9478 96.754 33.1259 103.139 31.1627C106.34 30.1785 109.612 29.4185 112.929 28.948C116.233 28.4796 119.615 28.2666 122.93 28.7602C125.967 29.2129 128.919 30.278 131.33 32.2122C133.438 33.9052 135.129 36.1994 135.829 38.8327C136.016 39.5319 136.152 40.2556 136.233 40.974C136.263 41.2375 136.641 40.8701 136.646 40.7142C136.669 40.0373 136.606 39.3694 136.473 38.7155C136.473 38.7132 136.476 38.7103 136.476 38.708Z" fill="#622403"/>
<path d="M135.068 23.0607C132.801 18.7463 129.213 15.1614 124.9 12.8843C122.526 11.6314 119.967 10.7616 117.32 10.3162C117.166 10.2903 116.904 10.6658 117.071 10.697C121.725 11.5579 126.101 13.8068 129.554 17.0355C133.148 20.3969 135.617 24.7946 136.719 29.5826C137.349 32.3213 137.499 35.1818 137.222 37.9762C137.198 38.2264 137.638 37.908 137.66 37.7536C138.389 32.7392 137.421 27.54 135.068 23.0607Z" fill="#622403"/>
<path d="M166.144 41.6695C164.032 38.2642 160.768 35.6783 157.029 34.2555C153.132 32.7726 148.781 32.6828 144.811 33.9475C142.539 34.6712 140.438 35.8179 138.59 37.3209C138.537 37.3646 138.498 37.5242 138.604 37.4441C141.941 34.8857 146.174 33.5081 150.377 33.5623C154.337 33.6135 158.18 34.994 161.336 37.3684C163.057 38.6628 164.565 40.2556 165.784 42.0294C165.873 42.1593 166.228 41.8046 166.144 41.6695Z" fill="#622403"/>
<path d="M183.208 54.2055C180.945 47.4009 176.938 40.974 171.4 36.3553C165.933 31.7973 158.916 29.3005 151.771 29.9166C147.855 30.2543 144.052 31.5992 140.887 33.9423C140.82 33.9921 140.745 34.2006 140.879 34.1049C146.646 30.0042 154.296 29.3985 160.965 31.3743C167.809 33.402 173.412 38.1908 177.432 43.9808C179.689 47.2324 181.446 50.8106 182.878 54.4927C182.939 54.65 183.255 54.345 183.208 54.2055Z" fill="#622403"/>
<path d="M175.151 17.0444C168.311 14.938 160.728 16.3422 154.277 19.0906C151.703 20.1869 149.246 21.5414 146.955 23.1394C147.25 21.1124 147.51 18.9237 146.699 16.9813C146.063 15.4583 144.74 14.1594 143.046 13.9738C142.953 13.9634 142.787 14.2017 142.886 14.2151C144.593 14.4459 145.843 15.8294 146.433 17.3769C147.156 19.2717 146.88 21.3826 146.648 23.3487C145.846 23.9195 145.064 24.5214 144.307 25.153C144.072 25.349 144.107 25.752 144.442 25.4915C149.842 21.2928 156.252 18.243 163.029 17.1268C169.574 16.0491 176.609 16.9664 181.747 21.4427C184.178 23.5595 186.011 26.3636 186.712 29.5269C186.74 29.6538 187.024 29.4 187 29.2738C185.853 23.2982 180.814 18.7886 175.151 17.0444Z" fill="#622403"/>
<path d="M142.364 16.9657C141.315 16.2005 140.168 15.5644 139.011 14.9788C137.802 14.3665 136.523 13.8454 135.177 13.6346C133.728 13.4075 132.221 13.5671 130.91 14.2455C130.787 14.3093 130.585 14.7168 130.818 14.6032C133.945 13.078 137.409 14.7569 140.14 16.3482C142.833 17.918 145.323 20.1691 145.437 23.5024C145.446 23.7562 145.815 23.3895 145.832 23.2522C146.153 20.6537 144.347 18.4123 142.364 16.9657Z" fill="#622403"/>
<path d="M152.358 53.9984C150.467 51.9157 148.095 50.2228 145.401 49.3566C142.887 48.5483 140.162 48.5647 137.664 49.4323C134.984 50.363 132.663 52.2356 131.505 54.8549C131.445 54.99 131.613 54.8942 131.646 54.8267C133.946 50.0906 139.992 48.345 144.802 49.8071C150.296 51.4771 154.103 56.3675 156.092 61.5415C157.402 64.9519 158.073 68.5665 158.595 72.17C158.639 72.4787 159.121 72.0779 159.093 71.8634C158.3 65.5108 156.786 58.874 152.358 53.9984Z" fill="#622403"/>
<path d="M145.508 112.719C146.875 112.019 151.18 110.435 152.687 110.141C155.112 109.666 155.922 109.733 157.538 109.456C158.781 109.243 159.861 109.097 160.973 108.504C156.112 113.36 131.974 125.919 122.587 125.416C113.871 124.914 114.709 115.202 114.709 115.202C114.928 115.933 115.135 116.689 115.353 117.42C115.328 117.085 115.378 116.744 115.499 116.43C115.737 117.112 116.135 117.739 116.652 118.245C116.536 117.548 116.575 116.825 116.767 116.145C117.078 117.066 117.869 117.767 118.757 118.164C119.645 118.561 120.627 118.76 121.599 118.756C132.476 118.712 145.508 112.719 145.508 112.719Z" fill="#9C430D"/>
<path d="M123.14 125.7C122.945 125.7 122.756 125.695 122.572 125.686C120.09 125.542 118.126 124.655 116.732 123.046C114.06 119.964 114.423 115.373 114.439 115.179C114.45 115.05 114.552 114.947 114.681 114.933C114.81 114.915 114.93 115 114.967 115.125C115.077 115.492 115.184 115.866 115.291 116.239C115.293 116.244 115.294 116.248 115.296 116.252C115.347 116.193 115.448 116.17 115.503 116.159C115.617 116.161 115.717 116.234 115.754 116.34C115.89 116.728 116.08 117.097 116.316 117.434C116.318 116.974 116.382 116.513 116.507 116.07C116.54 115.957 116.642 115.877 116.76 115.874C116.763 115.874 116.766 115.874 116.768 115.874C116.883 115.874 116.987 115.947 117.024 116.057C117.285 116.831 117.957 117.509 118.868 117.916C119.702 118.288 120.637 118.485 121.573 118.485C121.581 118.485 121.591 118.485 121.599 118.485C132.212 118.442 145.076 112.618 145.39 112.474C146.787 111.761 151.126 110.168 152.635 109.874C154.072 109.592 154.966 109.499 155.753 109.415C156.309 109.356 156.835 109.301 157.493 109.188L157.801 109.135C158.909 108.948 159.865 108.787 160.846 108.264C160.965 108.202 161.11 108.234 161.19 108.342C161.27 108.45 161.259 108.599 161.164 108.694C156.15 113.703 132.843 125.7 123.14 125.7ZM115.038 117.31C115.207 118.885 115.713 121.049 117.142 122.695C118.437 124.188 120.273 125.012 122.602 125.147C126.696 125.373 134.242 123.024 143.361 118.726C150.073 115.563 156.516 111.818 159.647 109.312C159.071 109.47 158.49 109.568 157.891 109.67L157.584 109.722C156.909 109.838 156.376 109.894 155.81 109.954C154.995 110.041 154.153 110.13 152.739 110.406C151.26 110.695 146.998 112.261 145.631 112.96C145.628 112.962 145.624 112.963 145.622 112.966C145.491 113.026 132.41 118.983 121.601 119.027C121.591 119.027 121.581 119.027 121.572 119.027C120.559 119.027 119.549 118.814 118.646 118.411C117.895 118.076 117.282 117.572 116.881 116.976C116.838 117.385 116.849 117.799 116.917 118.202C116.936 118.317 116.879 118.432 116.775 118.485C116.672 118.54 116.546 118.521 116.462 118.439C116.132 118.116 115.848 117.746 115.619 117.345C115.62 117.365 115.621 117.383 115.623 117.403C115.633 117.54 115.538 117.664 115.402 117.688C115.26 117.713 115.133 117.632 115.094 117.5C115.075 117.436 115.057 117.374 115.038 117.31Z" fill="#622403"/>
<path d="M115.276 118.756C116.435 119.764 117.62 120.866 119.084 121.398C119.215 120.813 119.536 120.296 120.163 120.095C120.908 119.856 121.759 120.107 122.489 120.291C123.211 120.474 123.95 120.72 124.702 120.725C126.012 120.733 127.327 120.52 128.608 120.268C131.285 119.743 133.858 118.848 136.443 118.001C137.844 117.541 139.238 117.1 140.61 116.557C141.971 116.019 143.316 115.442 144.655 114.849C145.903 114.296 147.072 113.626 148.288 113.009C149.409 112.439 150.623 111.929 151.897 111.9C152.043 111.898 152.086 112.013 152.106 112.143C152.231 112.969 152.139 113.801 151.92 114.616C156.112 112.252 159.468 110.009 160.973 108.505C159.861 109.097 158.78 109.243 157.538 109.456C155.921 109.734 155.113 109.667 152.687 110.141C151.18 110.436 146.875 112.02 145.508 112.72C145.508 112.72 132.476 118.713 121.599 118.757C120.626 118.761 119.645 118.562 118.757 118.165C117.869 117.768 117.078 117.067 116.767 116.146C116.575 116.826 116.535 117.549 116.651 118.246C116.135 117.739 115.737 117.114 115.499 116.431C115.378 116.745 115.328 117.086 115.353 117.421C115.135 116.689 114.927 115.934 114.709 115.203C114.709 115.203 114.57 116.827 114.999 118.78C115.097 118.727 115.205 118.695 115.276 118.756Z" fill="#9C430D"/>
<path d="M79.566 113.404C86.8088 116.363 94.3733 119.376 102.179 118.831C103.15 118.764 104.133 118.636 105.021 118.239C105.909 117.842 106.7 117.141 107.011 116.22C107.203 116.9 107.243 117.623 107.127 118.32C107.643 117.814 108.041 117.188 108.279 116.505C108.4 116.819 108.45 117.16 108.425 117.495C108.644 116.763 108.851 116.008 109.069 115.277C109.069 115.277 109.907 124.989 101.191 125.491C101.191 125.491 95.4388 125.491 74.9876 117.192C66.2001 113.202 59.7924 110.337 56.4043 109.605C63.5461 109.239 66.2194 109.617 66.2194 109.617C73.3292 110.323 79.566 113.404 79.566 113.404Z" fill="#9C430D"/>
<path d="M101.206 125.761C100.931 125.761 95.1106 125.648 74.886 117.442C65.8258 113.328 59.647 110.581 56.3481 109.868C56.2158 109.839 56.1252 109.718 56.1356 109.583C56.1467 109.447 56.2559 109.341 56.3912 109.335C63.4779 108.971 66.1476 109.333 66.2583 109.349C73.1987 110.038 79.4013 113.022 79.6777 113.157C86.5133 115.949 94.2628 119.11 102.161 118.561C103.027 118.501 104.03 118.386 104.912 117.992C105.823 117.585 106.494 116.907 106.756 116.133C106.793 116.023 106.896 115.949 107.012 115.949C107.014 115.949 107.017 115.949 107.019 115.949C107.137 115.952 107.24 116.032 107.272 116.146C107.397 116.588 107.461 117.048 107.463 117.509C107.699 117.173 107.89 116.804 108.025 116.415C108.062 116.308 108.163 116.236 108.276 116.234C108.365 116.231 108.433 116.268 108.484 116.327C108.485 116.322 108.487 116.317 108.488 116.311C108.595 115.938 108.702 115.566 108.812 115.199C108.848 115.074 108.971 114.993 109.098 115.007C109.228 115.021 109.329 115.124 109.341 115.253C109.357 115.448 109.72 120.038 107.048 123.121C105.654 124.729 103.69 125.617 101.209 125.76C101.207 125.761 101.206 125.761 101.206 125.761ZM58.1476 109.797C61.7237 110.916 67.3691 113.436 75.1008 116.946C95.2042 125.104 101.136 125.221 101.194 125.221C103.506 125.087 105.343 124.263 106.637 122.77C108.065 121.125 108.571 118.963 108.74 117.388C108.722 117.45 108.704 117.512 108.685 117.573C108.646 117.705 108.516 117.787 108.377 117.761C108.241 117.736 108.146 117.613 108.156 117.475C108.158 117.456 108.159 117.437 108.16 117.417C107.931 117.819 107.647 118.189 107.317 118.512C107.233 118.595 107.106 118.614 107.002 118.559C106.898 118.505 106.841 118.39 106.86 118.275C106.928 117.872 106.939 117.458 106.896 117.05C106.496 117.646 105.883 118.149 105.131 118.485C104.172 118.913 103.11 119.036 102.198 119.1C94.1588 119.663 86.3558 116.469 79.4637 113.654C79.4577 113.651 79.4518 113.648 79.4458 113.645C79.3842 113.615 73.1675 110.579 66.1921 109.885C66.1587 109.881 63.8888 109.576 58.1476 109.797Z" fill="#622403"/>
<path d="M109.07 115.277C108.851 116.009 108.645 116.764 108.426 117.495C108.451 117.16 108.402 116.819 108.281 116.505C108.043 117.187 107.645 117.814 107.128 118.319C107.244 117.622 107.205 116.899 107.012 116.219C106.702 117.141 105.91 117.841 105.022 118.238C104.135 118.635 103.151 118.763 102.181 118.831C94.3745 119.376 86.81 116.362 79.5672 113.404C79.5672 113.404 73.3304 110.323 66.2213 109.616C66.2213 109.616 63.548 109.238 56.4062 109.604C58.0654 109.963 60.4534 110.835 63.4856 112.099C65.462 111.817 67.4332 111.372 69.4222 111.687C72.1379 112.117 74.4858 113.671 76.9704 114.737C79.6809 115.901 82.7599 115.955 85.5855 116.737C87.0388 117.139 88.452 117.662 89.86 118.198C91.2598 118.732 92.676 119.344 94.1367 119.691C97.1771 120.414 100.339 120.403 103.444 120.547C103.586 120.554 103.612 120.682 103.617 120.803C103.64 121.241 103.761 121.63 103.786 122.046C104.245 121.764 104.803 121.567 105.289 121.866C105.682 122.107 105.876 122.602 105.937 123.039C105.974 123.298 105.961 123.558 105.928 123.817C109.553 120.912 109.07 115.277 109.07 115.277Z" fill="#9C430D"/>
<path d="M127.623 145.382C127.217 145.695 126.675 145.881 126.16 145.888C125.161 145.901 124.214 145.479 123.233 145.293C119.456 144.576 118.297 150.095 112.518 150.07C108.197 150.052 106.877 147.593 104.849 146.718C102.819 145.844 101.409 143.619 99.2775 144.198C98.1585 144.502 96.7929 145.095 95.9882 144.261C95.8039 144.07 95.6954 143.83 95.6457 143.573C94.7823 144.656 94.2949 145.919 94.2949 147.437C93.8342 152.385 103.741 154.686 103.741 154.686C113.762 157.908 116.297 155.146 122.172 153.766C129.296 152.685 129.289 148.289 127.623 145.382Z" fill="#FDD4B5"/>
<path d="M123.5 150.32C122.791 149.424 121.611 149.943 119.486 152.018C117.361 154.093 115 156.074 111.365 156.074C107.729 156.074 105.652 153.622 102.536 150.744C99.4195 147.867 98.0502 150.508 100.222 152.678C100.872 153.327 101.697 153.886 102.532 154.353C103.267 154.576 103.74 154.686 103.74 154.686C109.265 156.462 112.513 156.418 115.301 155.792C117.311 154.665 120.045 153.67 121.374 153.055C123.31 152.159 124.208 151.216 123.5 150.32Z" fill="#FDD4B5"/>
<path d="M100.313 152.761C100.576 152.644 100.833 152.549 101.047 152.477C101.952 152.173 102.915 152.024 103.871 151.998C103.443 151.594 103.002 151.175 102.536 150.745C99.4195 147.868 98.0502 150.509 100.222 152.678C100.25 152.707 100.284 152.733 100.313 152.761Z" fill="#E2AB86"/>
<path d="M122.354 152.183C122.474 152.221 122.593 152.264 122.713 152.31C123.674 151.645 124.014 150.971 123.5 150.32C122.824 149.465 121.708 149.915 119.762 151.76C120.645 151.742 121.515 151.912 122.354 152.183Z" fill="#E2AB86"/>
<path opacity="0.51" d="M64.6671 170.116C67.6243 173.168 71.1312 176.212 75.376 176.464C81.2792 176.814 86.0285 171.682 88.9098 166.524C91.604 161.699 93.4087 155.385 90.1759 150.904C87.6014 147.335 82.7541 146.303 78.3532 146.157C73.9524 146.011 69.3718 146.442 65.3061 144.754C59.4683 142.329 51.2945 138.079 52.0375 147.843C52.6802 156.305 59.0255 164.294 64.6671 170.116Z" fill="url(#paint1_radial_926_2855)"/>
<path opacity="0.51" d="M161.26 166.888C158.565 170.173 155.32 173.494 151.11 174.094C145.256 174.928 140.1 170.204 136.804 165.299C133.722 160.713 131.403 154.568 134.255 149.836C136.526 146.068 141.273 144.642 145.647 144.134C150.02 143.626 154.622 143.681 158.534 141.663C164.152 138.767 171.948 133.86 172.012 143.652C172.069 152.14 166.403 160.622 161.26 166.888Z" fill="url(#paint2_radial_926_2855)"/>
<path d="M84.8236 182.277C81.3879 180.871 74.7566 177.607 71.6308 175.565C68.6075 173.59 65.8428 171.211 63.4131 168.542C58.0591 162.662 54.5201 155.459 52.3112 147.869C50.9923 143.336 50.1409 138.632 49.7396 133.931C49.7226 133.73 49.3867 134.032 49.3927 134.167C49.7716 142.614 51.3304 150.945 54.9355 158.645C58.1869 165.591 63.1011 171.856 69.4233 176.261C72.8218 178.629 76.7553 180.752 80.8893 181.409C81.2913 181.473 85.3437 182.49 84.8236 182.277Z" fill="#FDD1AB"/>
<path opacity="0.51" d="M128.284 175.358C128.618 179.222 122.332 176.538 114.595 177.204C106.858 177.871 100.602 181.638 100.267 177.773C99.9336 173.909 105.934 170.235 113.671 169.569C121.408 168.902 127.95 171.494 128.284 175.358Z" fill="url(#paint3_radial_926_2855)"/>
<path d="M113.998 161.249C111.934 160.978 109.858 160.665 107.778 160.546C105.9 160.439 104.152 160.677 102.382 161.316C102.311 161.342 102.169 161.594 102.283 161.558C104.034 161.008 106.029 161.117 107.834 161.287C109.786 161.47 111.724 161.855 113.692 161.786C113.854 161.78 114.225 161.278 113.998 161.249Z" fill="#FDD1AB"/>
<path d="M122.68 161.368C120.558 160.691 118.171 160.652 115.987 161.018C115.844 161.042 115.561 161.46 115.784 161.434C116.89 161.305 118.012 161.259 119.124 161.328C120.223 161.396 121.309 161.593 122.388 161.804C122.544 161.834 122.869 161.428 122.68 161.368Z" fill="#FDD1AB"/>
<path d="M121.17 141.654C121.063 142.659 119.3 143.297 117.233 143.077C115.166 142.857 113.578 141.864 113.685 140.858C113.792 139.852 115.554 139.215 117.621 139.434C119.688 139.654 121.278 140.648 121.17 141.654Z" fill="#FDD1AB"/>
<path d="M66.2227 137.344C66.2227 137.344 80.3056 145.037 96.8374 134.256C90.6407 142.134 74.9544 146.488 66.2227 137.344Z" fill="#FDD4B5"/>
<path d="M129.197 136.2C129.197 136.2 140.899 144.847 158.033 135.723C152.302 143.893 136.301 145.86 129.197 136.2Z" fill="#FDD4B5"/>
<path d="M148.678 110.752C148.678 110.752 131.902 117.106 123.513 117.595C121.066 117.665 120.227 116.827 121.626 114.941C123.024 113.056 122.814 112.637 122.744 110.333C122.674 108.028 124.144 106.062 124.877 104.706C121.206 106.981 122.057 109.822 121.702 111.369C121.346 112.917 119.669 114.034 119.389 115.779C119.11 117.525 117.082 116.268 117.082 113.685C116.104 114.313 115.474 115.779 115.055 112.288C114.636 108.797 114.636 102.373 117.362 95.5993C117.362 95.5993 114.147 99.0209 113.658 105.235C113.168 111.45 113.728 116.408 115.825 120.039C117.921 123.67 145.183 116.478 148.678 110.752Z" fill="#FDD4B5"/>
<path d="M181.707 76.7494C181.996 85.9981 180.839 103.05 180.839 103.05C180.839 103.05 180.839 91.7784 177.657 80.5064C176.499 92.3559 173.028 99.5813 173.028 99.5813C173.028 99.5813 179.103 71.2577 165.506 57.3851C170.713 67.5007 164.638 91.489 164.638 91.489C164.638 91.489 170.135 42.3568 141.203 45.5357C152.776 34.8419 165.126 51.1735 165.126 51.1735C165.126 51.1735 164.349 35.9982 145.543 37.7328C145.543 37.7328 154.332 30.9297 163.529 39.2417C160.354 33.445 153.018 32.6791 146.777 33.445C153.018 28.1954 170.317 30.7107 179.515 46.4605C176.997 37.3825 166.486 28.6325 155.646 28.8507C166.157 22.2881 183.94 29.2478 196.882 48.241C207.77 64.2201 217.641 69.3517 228.967 65.732C229.71 65.1486 230.422 64.5296 231.094 63.8831C231.094 63.8831 215.515 71.5442 202.094 51.1943C188.673 30.8443 172.135 11.9305 145.533 22.4647C145.533 22.4647 108.864 -24.6991 43.9145 18.3945C52.303 14.8036 64.5261 7.38152 82.0217 6.42407C69.3408 10.383 59.5027 15.8702 51.4976 22.1218C89.818 -4.60074 123.556 9.12053 123.556 9.12053C123.556 9.12053 110.536 6.23035 103.593 11.722C130.21 7.9649 129.749 25.8396 129.749 25.8396C116.846 16.8358 102.435 27.9066 102.435 27.9066C102.435 27.9066 117.19 23.2827 126.421 28.8262C118.004 26.2775 89.7043 30.5081 67.2002 49.9585C92.7232 34.7276 119.216 26.751 127.895 34.2652C136.575 41.7793 125.87 58.5422 110.826 69.8141C116.033 63.1669 123.267 47.2709 123.267 47.2709C123.267 47.2709 121.241 50.7393 105.618 66.0571C80.7363 90.3341 46.8857 93.5137 43.1247 78.7734C44.2421 104.629 31.6972 114.68 22.6133 118.562C25.1454 118.878 28.8553 118.603 32.4113 115.597C32.4113 115.597 37.0068 125.805 48.4899 128.123C48.4691 122.54 51.5845 107.936 48.4691 95.9652C55.8991 98.3596 93.5263 83.7551 105.51 71.545C105.51 71.545 98.7987 81.1217 88.2532 86.8672C102.393 87.1062 122.666 69.066 132.183 55.3425C132.183 55.3425 140.853 49.8093 149.422 58.0724C157.989 66.3361 160.649 87.7326 153.854 98.6528C157.694 97.0296 159.024 92.0122 159.024 92.0122C159.024 92.0122 158.286 99.3905 152.82 107.654C152.82 107.654 170.7 103.945 170.061 75.6947C172.458 95.8049 163.19 114.16 163.19 114.16C163.19 114.16 172.857 111.287 176.932 98.8376C176.932 98.8376 171.832 120.535 174.861 128.959C181.965 116.793 184.361 106.499 184.361 95.7255C190.592 120.863 209.046 118.949 215.997 111.766C215.393 111.575 214.803 111.384 214.224 111.191C204.167 112.255 189.311 107.858 181.707 76.7494Z" fill="#9C430D"/>
<path d="M32.2298 54.5453C14.0188 65.7995 6.64147 56.0075 3.8879 47.4802C0.69818 57.7769 8.22853 74.8508 25.2188 62.9249C25.1824 63.0481 25.1378 63.1654 25.0984 63.2864C27.6737 60.9276 29.9926 57.8987 32.2298 54.5453Z" fill="#9C430D"/>
<path d="M29.8544 71.6117C13.064 81.835 3.00892 73.4539 0.289525 66.3695C-0.188226 82.4183 16.1809 89.934 26.1773 83.5146C26.1654 83.5851 26.1498 83.6541 26.1364 83.7246C28.3104 79.8963 27.5704 78.4549 29.8544 71.6117Z" fill="#9C430D"/>
<path d="M8.06055 99.9939C18.973 103.631 25.4595 95.0062 25.4595 95.0062C25.4595 95.0062 25.3725 95.2081 25.2455 95.5733C28.2138 91.3657 30.0252 86.6734 30.8849 82.0346C24.1027 96.9018 14.8776 100.095 8.06055 99.9939Z" fill="#9C430D"/>
<path d="M232.446 75.2375C225.687 79.4406 211.08 85.0859 195.617 68.3535C197.464 72.1142 199.524 76.3968 202.606 79.975C212.074 86.9384 224.797 84.861 232.446 75.2375Z" fill="#9C430D"/>
<path d="M50.7637 64.2706C50.7637 64.2706 73.9201 44.2806 98.7915 38.2835C85.0697 45.9936 71.3471 55.989 89.0715 48.2789C106.796 40.568 87.0706 73.4094 113.657 43.9956C97.3619 70.2684 93.6454 81.406 54.7655 81.9768C63.0559 79.978 74.2055 78.2642 79.0654 72.2672C83.9254 66.2701 61.6271 83.119 70.2029 69.6969C78.7786 56.2747 50.7629 74.2659 59.0534 64.5563C67.3446 54.8467 60.769 58.5592 50.7637 64.2706Z" fill="#9C430D"/>
<path d="M42.0215 34.4054C46.273 32.685 49.904 32.2805 49.904 32.2805C49.4166 32.5239 47.1244 33.8888 43.7029 36.3938C55.0671 29.823 71.5916 22.2094 89.3501 20.4696C70.113 16.5664 53.4526 25.202 42.0215 34.4054Z" fill="#9C430D"/>
<path d="M42.0558 62.2866C42.0558 62.2866 63.4662 39.6224 98.9365 30.3648C87.7491 29.1498 72.3117 37.7335 84.1961 29.8757C95.4206 22.4543 61.1867 40.6378 74.91 28.7468C81.6119 22.939 98.9365 20.4697 98.9365 20.4697C98.9365 20.4697 56.0897 22.1493 36.1133 47.4261C48.7652 39.3107 58.4874 35.7184 50.8961 43.4352C43.3048 51.1512 69.0083 37.3156 56.3564 44.6324C43.7046 51.9498 42.0558 62.2866 42.0558 62.2866Z" fill="#9C430D"/>
<path d="M166.363 46.0069C166.363 46.0069 174.672 56.5412 175.95 73.779C175.95 73.779 178.187 70.5868 177.548 63.564C176.909 56.5412 181.382 74.7365 182.341 64.8406C183.299 54.9447 188.093 77.9287 188.093 77.9287C188.093 77.9287 188.413 52.7106 172.755 41.8572C180.743 50.795 183.3 62.9257 175.631 52.0723C167.961 41.2182 181.382 63.8831 166.363 46.0069Z" fill="#9C430D"/>
<path d="M178.066 39.9416C178.066 39.9416 194.484 71.7832 208.984 76.2127C199.756 68.9109 190.29 56.3415 195.682 59.8128C201.075 63.2842 201.674 63.8831 198.678 57.299C195.682 50.7155 199.637 58.6156 205.868 62.2072C198.558 53.8276 191.249 39.9423 184.777 36.3508C190.53 42.6952 194.005 50.2368 187.893 43.8924C181.781 37.5472 191.008 56.3415 178.066 39.9416Z" fill="#9C430D"/>
<path d="M145.767 116.704C143.861 117.483 142.036 118.48 140.161 119.332C138.225 120.213 136.258 121.017 134.243 121.701C130.293 123.04 126.14 123.915 121.954 123.908C120.288 123.905 118.008 123.631 117.209 121.937C117.183 121.881 117.07 122.003 117.083 122.051C117.504 123.592 119.019 124.354 120.496 124.581C122.453 124.882 124.558 124.674 126.507 124.4C130.857 123.789 135.038 122.39 139.044 120.621C141.322 119.616 143.646 118.527 145.716 117.134C145.832 117.056 146.084 116.575 145.767 116.704Z" fill="#9C430D"/>
<path d="M76.5374 115.262C78.4001 116.139 80.1692 117.232 81.9963 118.181C83.8835 119.162 85.8057 120.069 87.7821 120.858C91.6561 122.404 95.7567 123.495 99.9376 123.708C101.601 123.793 103.893 123.639 104.78 121.99C104.809 121.935 104.915 122.064 104.899 122.11C104.398 123.626 102.844 124.308 101.358 124.457C99.3878 124.654 97.2962 124.336 95.3652 123.96C91.0535 123.121 86.9529 121.504 83.0447 119.527C80.8231 118.403 78.5591 117.193 76.5664 115.692C76.4542 115.609 76.2276 115.116 76.5374 115.262Z" fill="#9C430D"/>
<path d="M159.575 134.147C157.803 134.904 156.095 135.788 154.298 136.49C152.468 137.205 150.592 137.807 148.676 138.248C144.952 139.104 141.064 139.347 137.279 138.763C136.252 138.604 135.232 138.389 134.232 138.108C133.18 137.812 132.165 137.412 131.136 137.046C131.099 137.033 131.009 137.142 131.046 137.164C132.625 138.104 134.5 138.659 136.291 139.032C138.163 139.421 140.075 139.595 141.986 139.562C145.915 139.495 149.795 138.612 153.472 137.263C155.539 136.505 157.642 135.653 159.529 134.512C159.639 134.447 159.836 134.035 159.575 134.147Z" fill="#FDD4B5"/>
<path d="M91.448 136.86C89.8186 137.318 87.6602 137.878 86.0144 138.286C84.339 138.701 82.636 139.013 80.9174 139.18C77.5761 139.503 74.1605 139.275 70.93 138.336C70.0532 138.081 69.1891 137.778 68.3503 137.42C67.4676 137.042 66.6295 136.579 65.7743 136.144C65.7438 136.129 65.6524 136.214 65.6814 136.237C66.9497 137.235 68.5204 137.931 70.0384 138.459C71.6247 139.011 73.2712 139.378 74.94 139.566C78.3704 139.954 81.8499 139.624 85.2075 138.867C87.0933 138.441 89.0229 137.937 90.7964 137.157C90.8997 137.111 91.688 136.792 91.448 136.86Z" fill="#FDD4B5"/>
<defs>
<radialGradient id="paint0_radial_926_2855" cx="0" cy="0" r="1" gradientUnits="userSpaceOnUse" gradientTransform="translate(112.06 145.732) scale(19.9602 19.9389)">
<stop stop-color="#F37422"/>
<stop offset="1" stop-color="white"/>
</radialGradient>
<radialGradient id="paint1_radial_926_2855" cx="0" cy="0" r="1" gradientUnits="userSpaceOnUse" gradientTransform="translate(71.948 159.099) scale(18.7231 18.7031)">
<stop stop-color="#F37422"/>
<stop offset="1" stop-color="white"/>
</radialGradient>
<radialGradient id="paint2_radial_926_2855" cx="0" cy="0" r="1" gradientUnits="userSpaceOnUse" gradientTransform="translate(153.097 156.507) rotate(175.284) scale(18.7229 18.7032)">
<stop stop-color="#F37422"/>
<stop offset="1" stop-color="white"/>
</radialGradient>
<radialGradient id="paint3_radial_926_2855" cx="0" cy="0" r="1" gradientUnits="userSpaceOnUse" gradientTransform="translate(116.872 169.497) rotate(-4.92827) scale(17.104 17.086)">
<stop stop-color="#F37422"/>
<stop offset="1" stop-color="white"/>
</radialGradient>
</defs>
</svg>
