<svg width="212" height="322" viewBox="0 0 212 322" fill="none" xmlns="http://www.w3.org/2000/svg">
<path d="M38.8054 16.6957C38.9113 16.7182 39.0211 16.727 39.1233 16.7629C41.4756 17.5898 45.3844 24.6956 46.3683 26.8796C47.1932 28.7108 47.7581 30.6813 48.6459 32.4769C49.3564 33.9138 50.3555 35.1252 50.9916 36.6261C50.3266 35.7985 49.6471 34.9831 48.9531 34.18C46.275 31.2194 43.3343 28.4372 40.0695 26.1281C38.5802 25.0748 36.9661 24.2164 35.4883 23.1455L35.3115 23.0154C35.9866 20.7233 36.9635 18.3001 38.8054 16.6957Z" fill="#020203"/>
<path d="M39.0788 18.219C40.8779 18.9989 45.7164 27.9216 46.6987 30.0773L45.287 28.6214C42.6361 25.9783 40.132 23.9935 36.6572 22.5778C37.3544 21.0855 38.1403 19.5738 39.0788 18.219Z" fill="#FCA6A9"/>
<path d="M174.73 13.8687C175.08 13.8275 175.703 13.7303 175.989 13.9685C177.219 14.9945 177.482 18.7711 177.753 20.3132C170.819 20.4416 164.748 22.5634 158.689 25.7752C157.883 26.311 157.1 26.881 156.313 27.4446C158.942 23.6059 165.367 18.2814 169.346 16.0921C171.067 15.145 172.875 14.4952 174.73 13.8687Z" fill="#020203"/>
<path d="M175.372 15.2257C175.635 15.2244 175.485 15.1957 175.791 15.4023C176.155 16.6098 176.249 17.9213 176.408 19.1706C172.193 19.1946 167.906 20.3239 163.979 21.7788C163.748 21.8624 163.499 21.9106 163.261 21.9703C163.673 21.3499 164.482 20.8946 165.094 20.4535C168.402 18.0662 171.582 16.6472 175.372 15.2257Z" fill="#FCA6A9"/>
<path d="M71.2464 0.509452C71.5716 0.495596 71.8968 0.497001 72.2216 0.513487C74.654 0.63082 76.479 1.38901 78.1196 3.18863C75.3364 7.60658 72.2545 11.6789 70.0789 16.4693C69.477 18.0976 68.8421 19.7129 68.1744 21.3154C67.7754 17.992 67.7089 14.3 68.1805 10.9913C68.5029 8.72852 69.6169 1.73224 71.2464 0.509452Z" fill="#020203"/>
<path d="M72.0427 1.97112C73.6934 2.28786 75.1075 2.82629 76.6283 3.53818C74.3946 6.21806 72.5455 8.93794 70.809 11.9609L69.0943 15.3265C68.9411 11.0028 70.0347 5.79784 72.0427 1.97112Z" fill="#FCA6A9"/>
<path d="M93.4437 19.1555C97.5249 14.5348 102.638 11.6555 108.42 9.63577C117.478 6.472 127.6 5.78239 136.406 10.1084C137.026 10.4131 137.464 10.6135 137.696 11.2975C137.432 11.9945 136.517 12.4511 135.916 12.8462C132.96 14.7916 130.541 16.8799 128.386 19.7122C132.563 19.3775 136.488 19.4372 140.476 20.8867C148.088 23.6538 153.909 29.1668 157.279 36.519C158.124 38.3642 160.113 43.4721 159.417 45.3256C159.303 45.4248 159.22 45.579 159.076 45.6236C158.667 45.7497 155.558 44.2643 154.848 44.0875C154.062 43.8846 153.268 43.7168 152.466 43.5844C151.665 43.4519 150.858 43.3553 150.048 43.2946C149.238 43.2339 148.427 43.2092 147.615 43.2206C146.802 43.232 145.992 43.2794 145.184 43.3628C151.804 49.878 154.898 58.5315 155.061 67.727C155.082 68.9489 155.37 71.8047 154.508 72.696C153.251 72.5569 152.049 70.7383 151.21 69.8334C151.273 72.4994 151.463 75.1668 151.616 77.8295C152.197 78.0458 152.747 78.3218 153.268 78.6579C155.498 80.075 156.614 82.6472 157.166 85.1348C158.083 89.2701 157.549 93.714 155.24 97.3176C153.743 99.6541 151.71 100.838 149.049 101.405C148.159 109.053 145.498 114.795 141.56 121.226L141.826 121.818C143.756 119.074 145.468 116.118 147.224 113.26C151.586 106.162 155.713 98.9222 160.043 91.8065C161.546 89.3367 168.946 78.1669 169.412 76.5076C169.317 76.139 169.252 75.8164 169.238 75.4355C171.117 71.5102 174.259 67.0174 177.43 64.0499C177.308 63.8666 177.181 63.6954 177.048 63.5193C176.871 63.2827 176.7 63.0421 176.534 62.7973C176.369 62.5522 176.21 62.3032 176.057 62.0501C175.904 61.7974 175.758 61.5408 175.618 61.2804C175.478 61.0203 175.344 60.7567 175.217 60.4897C175.09 60.2228 174.97 59.9529 174.857 59.6803C174.743 59.4074 174.636 59.1319 174.537 58.8537C174.437 58.5756 174.344 58.2951 174.258 58.0124C174.172 57.7295 174.093 57.4447 174.022 57.1581C173.95 56.8715 173.885 56.5832 173.828 56.2931C173.771 56.0034 173.72 55.7122 173.678 55.4197C173.635 55.1273 173.599 54.8341 173.571 54.54C173.543 54.2457 173.522 53.9508 173.508 53.6558C173.495 53.3605 173.488 53.0651 173.489 52.7696C173.49 52.4741 173.499 52.1789 173.515 51.8838C173.531 51.5884 173.554 51.2939 173.584 51C173.615 50.706 173.653 50.4131 173.697 50.121C174 48.0612 174.701 45.8137 176.473 44.5525C178.231 43.3015 181.412 43.1271 183.483 43.4937C184.827 40.5081 187.86 35.4684 191.089 34.2521C192.625 33.6742 194.334 33.8982 195.784 34.609C197.249 35.3271 198.743 36.526 199.266 38.1106C200.553 38.4908 201.824 38.9139 202.952 39.6599C205.002 41.0167 205.699 42.9165 206.188 45.2011C206.346 45.2614 206.506 45.3189 206.659 45.3915C208.499 46.2606 209.873 48.8948 210.569 50.7232C211.592 53.4092 212.053 56.426 210.771 59.1198C209.355 62.0934 206.45 64.3601 203.384 65.3937C203.21 65.799 203.036 66.2155 202.823 66.6026C200.452 70.9276 195.767 73.4628 191.201 74.7817C193.637 78.6875 193.887 80.4789 194.098 85.0313C192.849 87.2052 186.484 95.9001 184.798 97.1638C184.416 97.1613 184.414 97.0952 184.116 96.8856C183.714 96.2243 183.688 95.4192 183.584 94.6642C182.138 97.0908 181.109 99.9179 179.885 102.479C177.925 106.582 175.802 110.597 173.7 114.628C167.915 125.87 161.614 136.815 154.796 147.463C151.968 151.929 149.158 156.404 146.097 160.716C149.8 169.951 151.884 179.655 153.008 189.516C153.308 192.15 153.689 195.109 153.473 197.751C153.201 201.083 150.987 202.624 148.641 204.606C148.67 207.733 148.423 210.735 148.237 213.848C147.305 214.713 146.34 215.372 145.274 216.059C144.67 218.948 144.229 221.865 143.462 224.718C137.623 246.459 125.92 265.92 114.248 284.938C114.663 285.047 115.096 285.153 115.485 285.337C116.388 285.766 117.148 286.675 117.441 287.627C117.759 288.667 117.633 289.895 117.054 290.824C116.195 292.202 114.916 292.6 113.427 292.94C112.581 294.039 111.748 295.148 110.927 296.266C112.769 296.337 116.418 298.011 118.161 298.841C119.41 299.436 120.182 300.094 120.658 301.409C122.313 301.933 123.891 302.503 125.419 303.335C129.829 305.736 134.642 310.139 136.022 315.128C136.242 315.921 136.379 316.727 135.909 317.454C134.951 318.938 132.767 319.571 131.131 319.971C117.612 323.273 96.7457 321.232 84.7436 313.799C84.0711 313.382 83.0181 312.775 82.8534 311.951C82.2163 308.774 87.099 299.732 88.9125 296.903C88.3605 295.367 87.7046 293.807 88.1236 292.146C88.5884 290.303 90.1819 289.241 91.7309 288.352C90.5292 286.406 89.8311 284.182 90.3967 281.885C90.7565 280.424 91.4652 279.643 92.7231 278.882C94.0672 279.134 95.1907 279.553 96.4072 280.157C100.318 268.56 105.24 256.521 107.681 244.499C106.933 244.667 106.271 244.818 105.648 245.285C103.116 247.181 100.3 250.79 98.0883 253.172C92.6557 259.022 80.8402 270.866 73.2943 272.839C70.9525 273.451 68.5441 273.31 66.4406 272.023C61.5962 269.06 59.5311 262.17 58.4718 256.97C58.0591 254.943 57.8791 252.87 57.3842 250.862L57.3263 250.631C53.545 253.715 48.3533 256.092 43.4271 256.368C40.7356 256.519 37.7134 255.589 35.7194 253.741C34.1057 252.245 33.4373 250.215 33.4175 248.055C33.3294 238.6 41.9298 225.351 48.5064 218.734C51.1351 216.089 56.1062 211.335 60.2054 211.484C62.483 211.567 66.4086 214.748 67.907 216.438C70.03 218.833 71.3242 221.914 71.1523 225.142C72.4461 225.506 73.3805 225.917 74.4116 226.819C76.7143 222.075 79.4878 217.471 81.3732 212.538C80.6609 212.016 79.6811 211.441 79.1614 210.727C78.0796 209.24 79.3087 207.724 79.7893 206.251C80.102 205.291 80.2597 204.292 80.4296 203.3C78.6337 202.159 76.9535 200.9 75.2726 199.6C74.4597 189.408 75.4901 179.333 76.7232 169.218C70.1226 162.367 64.1595 154.932 58.3681 147.397C54.7264 142.741 51.2171 137.989 47.8403 133.139C44.4634 128.289 41.2246 123.349 38.1236 118.318C36.2321 115.214 34.3244 112.106 32.603 108.904C31.3365 106.548 30.2551 104.023 28.8589 101.748L28.7517 101.577C27.836 101.618 26.9356 101.574 26.0213 101.527C23.0282 99.0474 19.3269 94.5737 17.9731 90.9017C16.5707 87.0967 17.9982 82.7363 19.6285 79.2314C18.8781 78.2106 18.1251 76.9973 17.1372 76.1895C15.816 75.1102 13.9152 74.4058 12.4144 73.5847C8.13941 71.2454 3.0515 67.586 1.02054 63.0296C-0.335891 59.9871 -0.0968397 56.7419 1.0956 53.6925C1.77452 51.9562 2.81753 50.4221 4.5705 49.6562C4.71888 48.9669 4.89865 48.2929 5.14156 47.6303C6.07741 45.075 7.68429 43.7831 10.0786 42.6574C11.0008 40.9201 11.9924 39.0377 13.6528 37.894C14.8949 37.0386 16.376 36.7947 17.8419 37.1126C21.7039 37.9501 24.5532 42.5838 26.5043 45.6928C27.5624 44.918 28.4788 44.3836 29.8137 44.2524C30.903 44.1456 31.9443 44.5007 32.7801 45.1972C35.3013 47.2971 36.2015 51.7487 36.5139 54.8427C37.1781 61.4275 35.4541 65.135 31.3983 70.1087L34.2821 69.3442C35.1634 69.9645 36.0176 70.6165 36.7838 71.3762C38.5843 73.1613 44.0058 79.5327 44.4436 81.8458C44.6604 82.9927 44.2645 83.5972 43.6372 84.5324L50.672 94.2594C52.1588 96.3219 53.8311 98.3957 55.0293 100.641C55.0768 98.442 55.154 96.2842 55.5651 94.1159C51.9653 90.1273 48.9917 84.9658 48.043 79.6262C46.9156 73.28 49.5952 67.1652 53.1885 62.0873L43.929 67.54C44.623 64.7961 45.5099 62.2315 47.0298 59.8238C50.8394 53.7888 56.5387 50.701 63.3443 49.1739C61.709 47.5542 60.9177 45.4975 60.3775 43.2932C59.3231 38.9908 59.9215 33.4446 62.452 29.7112C62.7017 29.3429 62.8555 29.2098 63.2833 29.1154C64.304 30.0653 66.0107 36.6614 66.6128 38.3896C67.0379 39.6091 67.5229 40.7899 68.0587 41.9649C68.7102 38.4468 69.5207 35.2532 70.9727 31.9679C75.1603 22.494 82.7698 14.3324 92.5594 10.6111C93.8406 10.124 96.9793 8.91529 98.2605 9.48495C98.2914 9.57229 98.3619 9.65454 98.3536 9.74696C98.3138 10.1856 97.2298 11.6545 96.9649 12.1091C95.7002 14.2801 94.3769 16.5544 93.5247 18.9264L93.4437 19.1555Z" fill="#020203"/>
<path d="M109.262 298.295C110.755 298.037 112.183 298.152 113.679 298.32C112.316 298.583 110.928 298.765 109.575 299.068L109.262 298.295Z" fill="#C7433A"/>
<path d="M89.501 294.196C89.5732 293.58 89.6541 293.068 89.8884 292.492L90.1385 292.415C90.6319 292.85 91.0381 293.333 91.46 293.836C90.7104 294.163 90.3162 294.236 89.501 294.196Z" fill="#C7433A"/>
<path d="M40.6181 78.9939C41.0897 79.6204 41.8636 80.4073 41.9489 81.1988C41.6674 81.4526 41.4652 81.3735 41.0974 81.3914L39.957 79.6581C40.2098 79.4683 40.406 79.227 40.6181 78.9939Z" fill="#F7B28C"/>
<path d="M151.902 58.4174C152.549 60.5183 153.131 62.7387 153.207 64.9457C152.585 64.3768 152.232 63.4529 151.872 62.7013C152.174 61.276 151.737 60.0832 151.396 58.7082L151.902 58.4174Z" fill="#FEB45B"/>
<path d="M99.0981 298.345C100.051 298.299 101.01 298.351 101.964 298.377C100.953 298.9 100.178 299.48 99.3798 300.282C99.126 300.712 98.9313 301.051 98.522 301.356L98.2294 301.243C98.123 300.973 98.0811 300.762 98.0986 300.471C98.1582 299.467 98.371 299.033 99.0981 298.345Z" fill="#C7433A"/>
<path d="M208.248 55.1899L209.013 54.2137C209.281 56.4064 208.845 58.2516 207.632 60.1114C206.82 57.6573 208.388 57.1523 208.248 55.1899Z" fill="#F7F6F5"/>
<path d="M49.8089 228.072C49.6561 229.148 49.4462 234.797 49.2532 235.165C48.8407 234.994 49.0812 234.655 48.6541 234.511C48.1981 233.409 48.5503 230.113 48.8776 228.959C49.1526 228.645 49.5037 228.36 49.8089 228.072Z" fill="#A72823"/>
<path d="M98.9688 151.016L98.8916 150.233L99.1296 150.046C100.535 150.243 101.765 151.039 103.157 151.357C103.631 151.566 103.976 151.605 104.179 152.132C104.269 152.365 104.283 152.688 104.315 152.937C103.792 152.719 103.24 152.56 102.7 152.387C101.436 151.971 100.182 151.567 98.9688 151.016Z" fill="#6F85AB"/>
<path d="M26.5635 47.1978C27.921 46.6555 30.0798 45.6388 31.5218 46.3041C32.0458 46.5456 32.394 46.9758 32.6488 47.4821L32.4015 47.6037L32.0658 47.2098L32.2244 47.3157L31.7952 47.2969L31.4681 47.6426C29.9565 47.6598 28.4668 47.6994 26.9602 47.8359L26.5635 47.1978Z" fill="#F7F6F5"/>
<path d="M26.5637 47.1978L26.9604 47.8357C25.6964 48.7819 24.1008 49.1248 22.8996 50.0315C22.1984 50.5605 21.9483 51.3804 21.0926 51.7247C20.8312 51.6186 20.6566 51.5288 20.417 51.3688C21.8236 49.1604 24.242 48.1587 26.5637 47.1978Z" fill="#F9CCBD"/>
<path d="M69.4072 116.042C70.4178 116.184 71.3612 116.302 72.3846 116.241C72.8134 117.016 73.2176 117.823 73.7007 118.565L73.4544 118.85C72.5456 119.201 71.4403 118.633 70.5856 118.31L69.4072 116.042Z" fill="#F0842C"/>
<path d="M137.08 220.943C137.024 220.549 136.713 219.945 136.589 219.542C136.645 219.457 136.68 219.354 136.757 219.287C137.039 219.039 138.37 218.813 138.805 218.676C140.477 218.15 142.038 217.463 143.616 216.707L143.302 218.403C142.304 218.574 141.419 218.914 140.48 219.279C139.356 219.785 138.092 220.243 137.08 220.943Z" fill="#408BB4"/>
<path d="M48.8679 243.873C50.2959 244.144 55.898 247.038 56.5989 248.26C56.7311 248.491 56.7218 248.505 56.7801 248.728C56.6255 248.901 56.4772 249.08 56.3067 249.237C53.7399 247.888 51.0564 246.021 48.833 244.158L48.8679 243.873Z" fill="#A72823"/>
<path d="M65.21 114.622C66.1218 115.093 66.998 115.51 67.9716 115.839C68.9646 117.598 69.9713 119.335 71.0552 121.04C70.7818 121.387 70.4712 121.504 70.0799 121.677C68.4155 119.359 66.8305 116.973 65.21 114.622Z" fill="#BC813B"/>
<path d="M49.8936 228.425L50.4205 228.663C50.3291 229.518 50.2556 230.374 50.2002 231.232C49.8512 237.029 50.427 240.569 54.3865 245.037C53.3036 244.481 52.4828 244.051 51.7639 243.02C49.1112 239.22 49.1875 232.802 49.8936 228.425Z" fill="#A72823"/>
<path d="M137.08 220.943C138.092 220.243 139.356 219.785 140.48 219.279C140.467 220.903 140.285 223.629 139.521 225.054C138.438 223.823 137.725 222.436 137.08 220.943Z" fill="#60B5DC"/>
<path d="M36.5682 241.524C36.5768 241.627 36.5877 241.731 36.5938 241.834C36.7045 243.656 34.8605 246.695 36.3623 248.285C36.5535 248.487 36.5431 248.441 36.8245 248.528L36.8669 248.206L36.6275 248.353L36.8574 248.364C36.8245 247.57 36.8464 247.127 37.0821 246.354C37.4236 245.236 36.9164 243.668 37.9553 242.8C37.1586 246.524 36.5954 249.793 38.1016 253.407C36.8218 252.516 35.983 251.724 35.1958 250.368C35.0597 247.431 35.4759 244.262 36.5682 241.524Z" fill="#B8B6BE"/>
<path d="M109.577 299.068C105.846 300.275 103.537 300.947 100.706 303.758L100.459 303.724C100.442 303.651 100.419 303.58 100.408 303.506C100.317 302.883 100.6 302.304 100.94 301.798C102.627 299.291 106.54 298.87 109.264 298.294L109.577 299.068Z" fill="#C7433A"/>
<path d="M141.26 41.7737C146.047 46.3581 150.219 51.8843 151.902 58.4174L151.396 58.7082C150.743 55.1699 147.32 49.1874 144.855 46.6106C143.82 45.5278 142.53 44.7019 141.527 43.5787C141.048 43.0414 141.206 42.4408 141.26 41.7737Z" fill="#FEB45B"/>
<path d="M66.041 236.44C67.6339 235.964 69.2709 235.703 70.9051 235.414C70.0051 237.538 69.1306 239.672 68.2816 241.817C67.2882 240.315 66.4127 238.209 66.041 236.44Z" fill="#60B5DC"/>
<path d="M133.598 130.245C136.554 127.399 139.087 124.506 141.56 121.225L141.826 121.817C139.666 125.442 137.2 128.946 134.894 132.484C134.517 131.711 134.042 130.981 133.598 130.245Z" fill="#FDCE49"/>
<path d="M90.5996 193.406C91.8222 192.844 93.079 192.319 94.1903 191.553C95.0998 192.864 95.929 194.273 97.2713 195.187C96.4701 195.686 95.653 196.06 94.7903 196.438C93.1515 195.658 91.8892 194.669 90.5996 193.406Z" fill="#A72823"/>
<path d="M8.26074 46.3525C9.33533 45.0755 10.2012 44.7517 11.8302 44.4843C14.0297 45.7051 16.0757 47.7252 17.3976 49.8609L17.489 50.7008C17.2478 50.5186 17.0498 50.3914 16.7662 50.2792C14.7449 49.4777 13.9255 47.4891 12.0329 46.6731C10.787 46.1364 9.34866 46.8756 8.26074 46.3525Z" fill="#F7F6F5"/>
<path d="M140.48 219.279C141.418 218.914 142.304 218.574 143.301 218.403C142.657 221.274 141.962 224.148 141.003 226.933C140.502 226.313 139.984 225.702 139.521 225.054C140.284 223.628 140.467 220.902 140.48 219.279Z" fill="#96D4F2"/>
<path d="M101.716 174.867C102.207 174.848 102.698 174.838 103.189 174.837C104.035 174.841 105.491 175.151 106.024 175.867C106.246 176.164 106.332 176.459 106.264 176.82C106.139 177.482 105.617 177.989 105.109 178.381C104.512 178.423 103.895 178.454 103.296 178.429C102.468 178.395 101.35 177.989 100.818 177.335C100.592 177.057 100.474 176.661 100.569 176.312C100.745 175.665 101.153 175.192 101.716 174.867Z" fill="#F7F6F5"/>
<path d="M71.0552 121.04C73.1423 123.6 75.1398 125.98 77.914 127.823C77.1977 128.583 76.7345 129.328 76.274 130.257C74.3239 127.31 72.0177 124.623 70.0801 121.677C70.4712 121.504 70.7818 121.387 71.0552 121.04Z" fill="#759E3F"/>
<path d="M114.653 300.121C116.44 299.965 117.332 300.26 118.79 301.244C118.236 301.216 117.681 301.195 117.127 301.182C113.314 301.086 109.941 301.82 107.109 304.521C106.686 305.048 106.27 305.607 105.795 306.087C105.528 306.356 105.499 306.462 105.105 306.465L105.01 306.11C105.235 305.094 105.526 304.203 106.222 303.404C108.166 301.17 111.839 300.382 114.653 300.121Z" fill="#C7433A"/>
<path d="M4.9714 51.6186C8.1578 51.3569 9.68593 52.2731 12.0666 54.2116C10.9366 54.897 8.15096 54.1873 6.76226 54.188C5.41741 54.1887 4.06186 55.031 2.79102 54.9391C3.36558 53.6625 4.00433 52.639 4.9714 51.6186Z" fill="#F7F6F5"/>
<path d="M24.3486 76.1179C26.4276 73.9432 29.9797 71.2913 33.1049 71.1407C34.1185 71.0917 34.7574 71.4465 35.4603 72.1434C37.4071 74.0733 39.0578 76.7372 40.6188 78.9941C40.4067 79.227 40.2105 79.4685 39.9576 79.6583C38.2212 78.3216 36.0556 73.4551 33.7623 72.4552C30.9489 71.2282 27.0887 74.9993 24.61 76.015C24.5235 76.0501 24.4358 76.0837 24.3486 76.1179Z" fill="#F7B28C"/>
<path d="M23.6513 58.5328C24.5775 58.2722 25.4757 57.9228 26.3787 57.5918C26.3496 57.6645 26.3226 57.7381 26.291 57.8097C26.0495 58.3628 25.4008 58.8294 25.0065 59.2947C23.2335 61.3859 22.4466 63.6646 23.3954 66.3348C23.9116 67.7868 25.4202 67.8615 25.9694 69.0245C23.7222 68.5878 22.5594 67.5071 20.987 65.9484L20.6992 65.477C21.0335 63.1107 22.301 60.4827 23.6513 58.5328Z" fill="#E7A388"/>
<path d="M121.98 50.7052C122.432 50.6485 122.887 50.6277 123.342 50.6426C125.812 50.7399 127.884 53.1637 129.424 54.8579C128.404 54.4432 127.367 54.1313 126.312 53.8197C123.548 53.3165 121.551 53.7137 118.959 54.738C119.736 53.1192 120.467 51.7671 121.98 50.7052Z" fill="#E4462A"/>
<path d="M135.364 171.786C135.764 171.766 136.347 171.679 136.724 171.821C137.194 171.997 137.706 172.584 137.82 173.057C137.942 173.561 137.75 174.15 137.465 174.569C136.653 175.767 135.427 175.941 134.104 176.18C133.754 176.191 133.431 176.194 133.087 176.118C132.485 175.984 132.043 175.74 131.7 175.218C131.573 174.68 131.63 174.271 131.908 173.798C132.676 172.494 134.007 172.15 135.364 171.786Z" fill="#F7F6F5"/>
<path d="M20.1781 51.7901C20.2693 51.8353 20.3618 51.8774 20.4512 51.9255C22.2838 52.9013 22.1465 55.0207 24.7252 54.3411C25.8834 54.0359 30.1168 52.02 30.5944 52.0942L30.6204 52.3443C28.4938 54.4712 26.5286 56.1477 23.5762 56.9241C22.3522 56.6258 21.5924 56.2963 20.8541 55.2185C20.1652 54.2129 19.9852 52.9703 20.1781 51.7901Z" fill="#F7B28C"/>
<path d="M63.2032 31.8246C64.2964 36.7742 65.8969 42.4663 69.2806 46.3769C69.5358 46.6341 69.6832 46.738 69.7859 47.0935C69.6958 47.2006 69.5671 47.2768 69.4543 47.3594C66.8619 46.3163 64.6431 42.2462 63.7159 39.7675C63.2588 38.5452 63.2465 37.0681 62.3135 36.133C62.655 34.7038 62.8772 33.2544 63.2032 31.8246Z" fill="#FEB45B"/>
<path d="M170.848 77.5843L171.092 77.1394C172.279 77.0729 174.079 78.7589 174.958 79.5409C178.653 82.8291 181.197 86.9448 183.459 91.2889L182.399 92.9123L182.269 91.8107C179.875 86.4664 175.637 80.9612 170.848 77.5843Z" fill="#759E3F"/>
<path d="M22.7802 43.3963C23.48 44.2969 24.0945 45.1912 24.6684 46.1774C22.4771 47.2764 20.5584 48.2749 18.8896 50.1264C17.7726 48.8142 16.6678 47.4991 15.4531 46.2744L15.7597 46.3039C18.5048 46.5429 20.0138 45.5431 22.0351 43.8759L22.7802 43.3963Z" fill="#F7B28C"/>
<path d="M92.3779 282.182L93.0069 280.536C94.6525 281.229 96.0782 282.289 97.596 283.213C98.8707 283.99 100.216 284.603 101.59 285.179C101.182 286.246 100.678 287.03 100.604 288.202C99.2528 287.44 97.7582 286.714 96.546 285.747C95.132 284.619 93.992 283.017 92.3779 282.182Z" fill="#F7F6F5"/>
<path d="M193.21 51.3973C192.511 52.7102 191.694 53.9658 190.205 54.4558C187.1 55.4786 183.647 53.0692 180.959 52.7646L181.015 52.2998C182.34 50.7134 188.958 52.2714 190.985 52.0672C191.702 51.9953 192.51 51.609 193.21 51.3973Z" fill="#E7A388"/>
<path d="M70.5889 118.31C71.4435 118.632 72.549 119.201 73.4576 118.85L73.7039 118.564C75.7096 121.571 78.2735 123.956 81.1318 126.128L78.9682 126.906C75.269 124.985 72.7417 121.793 70.5889 118.31Z" fill="url(#paint0_linear_264_2501)"/>
<path d="M57.1904 95.6683C57.4963 93.7473 58.2848 91.8921 59.8819 90.6928C61.2953 89.6312 63.1676 89.3006 64.889 89.621C68.135 90.2249 69.9144 93.1801 71.5867 95.7274C71.6953 95.8928 71.797 96.0606 71.8987 96.2302L71.3636 96.337C69.4519 95.4878 68.5938 93.9481 67.5059 92.2543C67.2568 92.0968 67.0088 91.9452 66.7422 91.8182C65.1494 91.0588 62.9937 91.1637 61.3821 91.8128C59.4564 92.5877 58.711 93.7496 57.9732 95.5836C57.9879 95.2383 58.0218 94.8954 57.9323 94.5572C57.9183 94.5034 57.8957 94.4524 57.8772 94.4001L58.0132 94.6653L57.8439 94.7228C57.6154 95.0117 57.5068 95.3352 57.3658 95.6727L57.1904 95.6683Z" fill="#F8D2AD"/>
<path d="M193.11 35.8944C194.408 36.0877 196 36.8124 196.78 37.9128C197.05 38.2944 197.117 38.6197 197.072 39.0829C195.652 41.4092 193.583 43.4299 191.933 45.6164C191.711 45.6024 191.528 45.5917 191.312 45.5311C191.324 43.6344 192.684 38.032 193.11 35.8944Z" fill="#F8D2AD"/>
<path d="M83.5696 143.183C83.7331 142.707 83.8129 142.465 83.5696 141.995C83.3758 141.62 83.0966 141.256 82.8555 140.911C87.5654 144.353 92.5276 147.267 97.994 149.349L98.2373 151.551C95.0752 150.581 85.7328 145.525 83.5696 143.183Z" fill="#759E3F"/>
<path d="M76.5936 115.269C77.1269 115.539 78.4988 118.62 78.9357 119.318C80.3717 121.613 82.0556 123.721 83.7402 125.835C82.9732 125.769 82.3094 125.731 81.5968 125.407C78.4869 122.77 75.6184 119.669 73.5908 116.12C74.6058 115.873 75.597 115.583 76.5936 115.269Z" fill="#C7433A"/>
<path d="M3.24707 58.2071C5.41746 58.3088 9.71369 63.7058 13.1988 62.6754C14.1281 62.4007 14.9163 61.6837 15.6312 61.0567C15.899 61.0531 16.1412 61.0532 16.4081 61.0852C16.3995 61.6436 16.4427 62.2029 16.4188 62.761C16.385 63.5491 15.9613 64.458 15.3669 64.9806C14.7427 65.5298 13.9312 65.6808 13.1218 65.6232C9.18684 65.3451 5.60074 60.9892 3.24707 58.2071Z" fill="#E7A388"/>
<path d="M130.347 132.539C131.046 132.031 131.763 131.536 132.445 131.006C132.956 131.938 133.319 132.804 133.589 133.839C132.31 137.566 130.483 141.882 127.517 144.589C127.433 144.07 127.481 143.67 127.597 143.157C128.409 139.544 129.787 136.264 130.347 132.539Z" fill="#C4E3A0"/>
<path d="M126.869 50.6741C130.96 52.3342 134.756 54.8166 138.381 57.314L139.628 60.7618C137.464 60.3126 133.142 57.75 130.998 56.6456C130.856 54.4642 129.678 53.0736 128.102 51.678C127.705 51.3255 127.295 50.9909 126.869 50.6741Z" fill="#E7A388"/>
<path d="M104.977 151.93C108.284 153.07 111.831 154.445 115.331 154.754C118.636 155.045 121.147 153.073 123.54 151.076C123.843 151.633 124.109 152.214 124.388 152.784C119.878 155.344 117.286 157.584 111.685 156.031C110.583 155.725 106.343 153.961 105.54 154.101L105.437 154.239C105.172 153.591 105.112 152.632 104.977 151.93Z" fill="#759E3F"/>
<path d="M65.2922 49.9945C65.8574 50.5477 66.4113 51.1245 67.0115 51.6401C61.3913 53.2146 55.646 55.4267 51.3261 59.4927C50.7427 60.0418 49.8921 60.7235 49.5079 61.4291C49.4503 61.5362 49.3958 61.6448 49.3441 61.7548C48.7406 62.2834 48.0176 62.7385 47.3682 63.2147L47.4674 63.0058C50.9644 55.825 58.1193 52.4227 65.2922 49.9945Z" fill="#F7B28C"/>
<path d="M125.356 135.106L125.564 135.365C125.56 135.683 125.547 135.976 125.503 136.291C125.04 139.606 122.585 144.8 119.869 146.81L119.694 146.686C120.198 144.576 120.544 140.439 119.776 138.418C119.7 138.218 119.612 138.023 119.54 137.819C120.754 136.93 123.822 135.85 125.356 135.106Z" fill="#475B33"/>
<path d="M115.997 303.007C116.952 302.947 117.948 302.84 118.901 302.927C122.541 303.26 126.414 305.722 129.081 308.094C130.259 309.141 131.377 310.324 132.244 311.645C128.92 311.948 126.268 308.482 123.556 306.97C121.679 305.923 119.551 305.286 117.621 304.329C116.988 304.016 116.228 303.707 115.997 303.007Z" fill="#FCA6A9"/>
<path d="M9.74902 51.1745C11.0665 50.9207 15.2637 52.3105 16.5617 52.9554C17.1643 53.0855 17.8123 53.2814 18.422 53.0923C19.0023 55.3288 19.7353 56.8785 21.7817 58.1296C20.5012 59.2847 19.2047 60.3787 17.8506 61.4468C16.8028 56.5355 13.7894 53.8505 9.74902 51.1745Z" fill="#E7A388"/>
<path d="M198.182 60.9989C198.622 60.9324 199.064 60.8608 199.496 60.7526C202.767 59.9318 206.298 56.59 207.999 53.7732L208.248 55.1899C208.388 57.1523 206.819 57.6573 207.632 60.1114C207.117 60.828 206.526 61.475 205.859 62.0526C204.738 63.0158 203.279 63.9555 201.734 63.7824C200.033 63.5916 199.129 62.2485 198.182 60.9989Z" fill="#E7A388"/>
<path d="M184.988 43.7347C186.286 41.431 188.057 38.6399 190.086 36.9076C191.141 36.0063 191.736 35.7662 193.11 35.8944C192.684 38.0319 191.325 43.6344 191.313 45.531C189.684 44.3441 186.94 44.0991 184.988 43.7347Z" fill="#F7B28C"/>
<path d="M6.90723 49.8126C7.20345 48.6381 7.44706 47.288 8.2626 46.3526C9.35052 46.8756 10.7889 46.1364 12.0348 46.6732C13.9274 47.4891 14.7468 49.4776 16.7681 50.2793C17.0517 50.3917 17.2497 50.5187 17.4908 50.701L17.3995 49.861C17.766 50.2635 18.2987 50.7246 18.432 51.2566C18.3834 51.8859 18.363 52.4641 18.4223 53.0927C17.8125 53.2817 17.1644 53.0858 16.562 52.9557C15.2642 52.3106 11.0668 50.9209 9.74934 51.1748C8.82384 50.6771 7.86097 50.2523 6.90723 49.8126Z" fill="url(#paint1_linear_264_2501)"/>
<path d="M16.5615 52.9555C17.1147 52.2615 17.9225 51.9715 18.4315 51.2564C18.3829 51.8857 18.3626 52.4639 18.4218 53.0925C17.8122 53.2816 17.1641 53.0857 16.5615 52.9555Z" fill="#F7B28C"/>
<path d="M60.716 229.042C60.9672 230.169 59.2451 233.574 59.6849 236.532C59.7686 237.096 59.8337 237.691 60.1604 238.17C57.8592 240.593 57.3765 242.844 57.3737 246.097C55.6555 244.006 55.1475 242.228 55.4013 239.523C55.811 235.157 57.2997 231.838 60.716 229.042Z" fill="#60B5DC"/>
<path d="M60.7176 229.042C62.1039 227.945 63.615 227.278 65.3167 226.84C64.6687 227.885 63.2221 228.549 62.3105 229.392C62.2889 230.313 62.22 231.213 62.9061 231.931C63.5911 232.648 64.6661 232.798 65.6091 232.762C67.7472 232.678 69.9822 232.47 72.1162 232.274L71.4819 233.642C67.1778 233.75 63.4038 235.388 60.162 238.17C59.8353 237.691 59.7702 237.096 59.6865 236.532C59.2467 233.574 60.9686 230.169 60.7176 229.042Z" fill="#B8B6BE"/>
<path d="M119.374 222.329C124.889 222.044 130.107 221.114 135.419 219.639L135.987 221.468C130.195 223.522 124.431 225.005 118.271 225.387C118.62 224.361 118.988 223.342 119.374 222.329Z" fill="#408BB4"/>
<path d="M202.013 58.1759C201.739 58.4558 201.217 58.7157 200.862 58.8785C199.481 59.5125 198.058 59.6928 196.633 59.0844C195.911 58.7754 195.468 58.4099 195.188 57.6748C195.201 57.4631 195.162 57.2407 195.229 57.0394C195.246 56.9866 200.853 50.7499 201.413 50.1152C202.135 50.7754 202.861 51.3792 203.483 52.14C203.114 53.6292 201.924 56.9165 202.013 58.1759Z" fill="#F7B28C"/>
<path d="M204.78 46.6275C206.531 47.443 207.441 48.5807 208.097 50.3968C208.536 51.6123 208.861 52.9303 209.014 54.2136L208.249 55.1898L208.001 53.773L208.017 53.2177L207.85 53.1574L207.718 53.3558C206.295 55.4604 204.243 57.0015 202.015 58.1757C201.925 56.9161 203.116 53.629 203.485 52.1397C202.862 51.3788 202.136 50.775 201.414 50.1148C202.446 48.8654 203.568 47.7029 204.78 46.6275Z" fill="#F8D2AD"/>
<path d="M146.883 81.6731C146.718 81.0855 146.623 80.8845 146.764 80.2779C147.343 79.5479 148.265 79.3373 149.162 79.2424C149.311 79.2266 149.461 79.2184 149.611 79.2173C149.761 79.2165 149.911 79.2231 150.061 79.2375C150.21 79.2519 150.359 79.2736 150.506 79.3029C150.653 79.3322 150.799 79.3687 150.942 79.4125C151.086 79.4564 151.227 79.5072 151.365 79.5653C151.504 79.6233 151.639 79.6882 151.771 79.7598C151.903 79.8315 152.031 79.9098 152.155 79.9945C152.279 80.079 152.399 80.1695 152.514 80.2661C154.492 81.9144 155.277 85.1439 155.443 87.6204C155.659 90.8394 154.985 94.6916 152.788 97.181C152.543 97.4598 152.288 97.7157 151.999 97.9507C152.002 97.5831 151.97 97.6845 152.062 97.3951C153.323 93.3872 153.837 90.1885 153.222 85.9919C153.069 85.3525 152.855 84.7502 152.631 84.1325C151.731 83.2289 151.048 82.9599 149.787 82.7897C148.924 83.0035 148.27 83.318 147.551 83.84C147.266 83.1446 147.089 82.3955 146.883 81.6731Z" fill="#F9CCBD"/>
<path d="M146.882 81.6731C148.342 81.4305 150.052 80.887 151.416 81.7852C151.97 82.1496 152.428 82.7998 152.552 83.4527C152.595 83.677 152.612 83.9052 152.63 84.1327C151.73 83.2291 151.047 82.9601 149.786 82.7899C148.924 83.0037 148.269 83.3182 147.551 83.8401C147.266 83.1446 147.088 82.3955 146.882 81.6731Z" fill="#F7B28C"/>
<path d="M13.0081 44.3003C12.7141 44.14 12.4295 43.9683 12.142 43.7964C12.128 43.6964 12.1029 43.597 12.0996 43.496C12.0589 42.2499 13.3464 40.7521 14.2586 40.0458C15.1571 39.3497 16.1762 39.0356 17.309 39.2027C19.7325 39.56 21.3871 41.5732 22.7791 43.3962L22.0341 43.8757C20.0128 45.5429 18.5038 46.5428 15.7586 46.3037L15.4521 46.2742C14.6958 45.5546 13.8329 44.9392 13.0081 44.3003Z" fill="#F7F6F5"/>
<path d="M14.1694 42.6808C17.0711 42.444 19.4118 42.4866 22.034 43.8758C20.0127 45.5431 18.5037 46.5429 15.7585 46.3039L15.452 46.2744C14.6955 45.5548 13.8326 44.9392 13.0078 44.3003C13.5555 43.8799 13.8358 43.2709 14.1694 42.6808Z" fill="#F8D2AD"/>
<path d="M65.3167 226.84C67.5762 226.246 70.3672 226.437 72.4205 227.602C72.8731 227.862 73.3048 228.154 73.7153 228.476C73.2656 229.792 72.7172 231.021 72.1163 232.274C69.9823 232.47 67.7475 232.678 65.6092 232.761C64.6662 232.798 63.5912 232.648 62.9062 231.931C62.2201 231.213 62.2888 230.312 62.3106 229.391C63.222 228.549 64.6686 227.885 65.3167 226.84Z" fill="#F7F6F5"/>
<path d="M69.2803 46.3769C69.9038 44.476 69.8743 42.2611 70.3264 40.2887C70.4315 39.8318 70.5444 39.3765 70.6653 38.9233C70.7861 38.4703 70.9149 38.0194 71.0513 37.5706C71.1876 37.1221 71.3318 36.676 71.4836 36.2322C71.6355 35.7885 71.7949 35.3476 71.9617 34.9093C72.1289 34.471 72.3036 34.0359 72.4858 33.6039C72.6678 33.1716 72.8573 32.7428 73.0544 32.3173C73.2512 31.8916 73.4555 31.4695 73.6672 31.0508C73.8787 30.6325 74.0972 30.2178 74.3231 29.8067C74.549 29.3955 74.7819 28.9887 75.0219 28.5858C75.262 28.1829 75.5087 27.7843 75.7625 27.39C76.0165 26.9956 76.2771 26.6057 76.5442 26.2202C76.8115 25.8349 77.0853 25.4545 77.3657 25.0784C77.6461 24.7026 77.9329 24.3317 78.2261 23.9654C78.5194 23.5996 78.8189 23.2388 79.1246 22.883C79.4302 22.5275 79.742 22.1772 80.0598 21.8324C80.3778 21.4876 80.7013 21.1484 81.0309 20.8147C84.1008 17.6614 87.5852 15.1685 91.4782 13.1333C92.3929 12.6554 93.4838 11.9905 94.5392 11.9723L94.6667 12.1682L94.38 12.7496C91.2118 13.814 89.6255 15.9079 87.1759 17.9871C79.8851 23.0729 74.7705 30.3596 72.0147 38.7881C71.1202 41.5231 70.5394 44.322 69.7854 47.0933C69.6828 46.7378 69.5355 46.6341 69.2803 46.3769Z" fill="url(#paint2_linear_264_2501)"/>
<path d="M118.478 139.149C118.871 141.421 119.44 145.764 118.02 147.666C117.438 148.447 116.564 148.856 115.609 148.96C112.507 149.298 108.746 147.023 106.179 145.541C107.933 144.581 110.219 144.426 112.088 143.51C114.388 142.384 116.138 140.539 118.312 139.245C118.367 139.212 118.423 139.18 118.478 139.149Z" fill="#F9CCBD"/>
<path d="M177.589 66.0082C179.219 66.8316 180.837 67.6424 182.385 68.6146C180.193 70.6689 176.294 75.7005 175.855 78.6009C175.846 78.6591 175.836 78.717 175.826 78.7752C174.092 77.4602 172.587 76.6008 170.531 75.8303C172.237 72.6876 175.334 68.8654 177.589 66.0082Z" fill="#C7433A"/>
<path d="M193.762 44.6418C195.187 43.0493 197.23 40.5227 199.54 40.4552C200.593 40.4243 201.597 40.9192 202.33 41.6541C203.229 42.5543 203.788 43.7533 204.162 44.9536C202.348 48.1109 199.614 51.3222 197.055 53.9061C196.563 52.834 197.492 48.4983 197.494 46.9777C197.191 46.4526 196.858 45.8046 196.438 45.3694C196.027 44.9436 195.296 44.7807 194.729 44.7735C194.443 44.77 194.251 44.7728 193.964 44.7033C193.896 44.6867 193.829 44.6623 193.762 44.6418Z" fill="url(#paint3_linear_264_2501)"/>
<path d="M113.507 316.428C118.675 316.607 129.632 316.366 133.684 313.554C134.159 314.517 134.572 315.463 134.93 316.475C130.347 319.383 122.155 319.795 116.742 319.725C116.308 319.644 116.039 319.681 115.731 319.345L115.81 319.215C115.027 317.938 113.989 317.358 112.735 316.665L112.725 316.85L112.854 316.476C113.127 316.505 113.012 316.51 113.298 316.464C113.368 316.453 113.437 316.44 113.507 316.428Z" fill="#F7F6F5"/>
<path d="M149.785 82.7898C151.046 82.9601 151.729 83.2289 152.629 84.1325C152.854 84.75 153.067 85.3523 153.22 85.9919C153.835 90.1886 153.322 93.3872 152.06 97.3951C151.969 97.6845 152 97.5831 151.997 97.9507C151.273 98.8978 150.26 99.1849 149.186 99.6015C149.456 95.6509 149.409 88.7157 147.826 85.1141C147.774 84.6531 147.705 84.2828 147.55 83.8401C148.268 83.318 148.923 83.0036 149.785 82.7898Z" fill="#E7A388"/>
<path d="M147.55 83.84C148.268 83.3178 148.923 83.0034 149.785 82.7898L150.475 83.3885L150.033 83.9212C149.256 83.9754 149.076 84.0592 148.555 84.6543C148.266 84.9842 148.254 84.9954 147.826 85.114C147.774 84.6529 147.705 84.2826 147.55 83.84Z" fill="#371818"/>
<path d="M150.477 83.3885C151.804 84.742 151.719 85.7957 152.155 87.5316C152.087 88.6569 151.613 89.6654 151.202 90.7001C151.062 88.2523 151.503 86.0938 150.035 83.9212L150.477 83.3885Z" fill="#020203"/>
<path d="M149.787 82.7898C151.048 82.9601 151.731 83.2289 152.631 84.1325C152.856 84.75 153.069 85.3523 153.222 85.9919C152.97 86.7075 152.833 87.1179 152.155 87.5317C151.719 85.7957 151.804 84.742 150.477 83.3885L149.787 82.7898Z" fill="#723831"/>
<path d="M43.7725 236.676C45.1712 236.012 46.5316 235.637 48.0443 235.332C48.1855 236.133 48.2032 237.524 48.688 238.133L49.0316 238.104C49.4179 240.109 49.9318 241.803 50.8224 243.641C49.8715 242.729 48.9898 241.662 47.9077 240.916L47.7069 240.98C47.8802 241.852 48.4465 242.574 48.9418 243.295L48.8657 243.873L48.8308 244.158C51.0543 246.021 53.7379 247.888 56.3044 249.237C55.8547 249.535 55.8135 249.594 55.2819 249.578L54.9897 249.369C52.6268 248.727 49.7382 247.474 48.2162 245.473C47.9949 245.182 47.8558 244.986 47.5362 244.79L47.2944 245.09C45.1962 244.837 42.8059 243.815 41.4434 242.189C41.8117 240.141 42.7514 238.458 43.7725 236.676Z" fill="#DC6266"/>
<path d="M54.9921 249.369C52.8741 247.902 48.4806 246.324 47.4189 243.826C47.5084 243.411 47.5365 243.425 47.8779 243.163C48.2499 243.162 48.5798 243.223 48.9439 243.296L48.8678 243.873L48.8329 244.159C51.0564 246.021 53.74 247.888 56.3066 249.237C55.8569 249.536 55.8157 249.594 55.2841 249.579L54.9921 249.369Z" fill="#020203"/>
<path d="M20.8218 81.4137C21.6217 82.5565 22.1954 83.8698 22.8905 85.0803C23.8407 86.7361 24.8977 88.3274 25.9453 89.9225C26.4153 90.6374 26.8692 91.5099 27.4738 92.1101C26.4527 95.1628 25.9334 97.0195 27.2025 100.122C24.4495 97.7647 21.5593 94.0044 20.0364 90.7207C18.6374 87.7039 19.7581 84.3517 20.8218 81.4137Z" fill="#A72823"/>
<path d="M142.007 61.3687C144.377 62.8556 147.527 65.0957 149.023 67.463C149.145 69.9817 149.712 74.7973 149.302 77.042L148.996 77.2228C147.928 77.4158 146.911 77.6225 145.882 77.9723C144.904 74.6177 143.761 71.2429 143.051 67.8201C142.608 65.6839 142.505 63.5002 142.007 61.3687Z" fill="#C7433A"/>
<path d="M137.411 176.636C137.699 176.864 139.515 181.202 140.102 182.104C142.004 185.019 144.4 186.621 147.78 187.353C147.322 188.816 146.91 190.296 146.477 191.767L144.812 191.332L144.57 191.238C138.309 188.753 136.336 183.139 133.927 177.389C135.112 177.193 136.264 176.999 137.411 176.636Z" fill="#E4462A"/>
<path d="M59.7992 213.052C60.584 213.269 61.7044 213.609 62.1978 214.295L62.0936 214.487C54.5226 215.908 50.2753 220.976 46.0993 227.069C42.7509 231.954 39.8523 237.176 37.9543 242.8C36.9153 243.667 37.4227 245.236 37.081 246.354C36.8453 247.127 36.8234 247.57 36.8564 248.364L36.6264 248.353L36.8658 248.206L36.8234 248.528C36.5421 248.441 36.5524 248.487 36.3613 248.285C34.8594 246.695 36.7034 243.656 36.5928 241.834C36.5866 241.73 36.5756 241.627 36.5672 241.524C38.5734 233.095 48.8459 219.023 56.0493 214.63C57.2309 213.91 58.4673 213.421 59.7992 213.052Z" fill="#F7F6F5"/>
<path d="M101.155 179.257C102.695 179.612 103.981 179.802 105.564 179.617C104.672 185.339 102.482 191.362 97.6198 194.941C97.5055 195.025 97.3887 195.107 97.2704 195.186C95.9284 194.273 95.099 192.864 94.1895 191.552C98.3896 188.317 100.206 184.369 101.155 179.257Z" fill="#E4462A"/>
<path d="M101.293 137.386C101.628 137.503 101.965 137.612 102.304 137.716C102.643 137.82 102.984 137.918 103.327 138.009C103.669 138.101 104.014 138.186 104.36 138.265C104.705 138.344 105.052 138.416 105.401 138.482C105.749 138.549 106.099 138.608 106.449 138.662C106.8 138.715 107.152 138.762 107.504 138.803C107.856 138.843 108.209 138.877 108.563 138.905C108.916 138.932 109.27 138.953 109.624 138.968C109.979 138.983 110.333 138.991 110.688 138.993C111.043 138.995 111.397 138.99 111.752 138.978C112.106 138.967 112.46 138.949 112.814 138.925C113.168 138.901 113.521 138.87 113.874 138.833C114.226 138.796 114.578 138.752 114.93 138.703C115.28 138.653 115.631 138.596 115.98 138.533C116.329 138.47 116.676 138.401 117.023 138.326C117.369 138.25 117.714 138.168 118.058 138.08C118.449 138.363 118.392 138.691 118.478 139.149C118.423 139.181 118.367 139.212 118.313 139.245C116.139 140.539 114.389 142.384 112.089 143.51C110.22 144.426 107.934 144.581 106.18 145.541C104.923 144.751 103.785 143.803 102.629 142.875C102.257 141.039 101.898 139.16 101.293 137.386Z" fill="#C57E71"/>
<path d="M12.0662 54.2116C14.2342 55.9159 15.753 58.4161 16.4091 61.0851C16.1424 61.0532 15.9001 61.0529 15.6322 61.0567C14.9173 61.6836 14.1291 62.4005 13.1997 62.6754C9.71467 63.7058 5.41844 58.3088 3.24805 58.2071L3.1344 58.2057L2.84115 57.9505L2.52634 58.2858L2.19434 58.072C2.22731 56.9526 2.46285 56.0006 2.79064 54.9391C4.06148 55.0309 5.41704 54.1887 6.76189 54.188C8.15059 54.1873 10.9362 54.897 12.0662 54.2116Z" fill="#F8D2AD"/>
<path d="M83.1817 213.651C86.1321 215.476 89.3979 216.767 92.6055 218.063C91.6316 219.02 90.6245 219.916 89.5845 220.801C86.8197 223.186 83.5186 225.065 79.7794 225.253C79.0042 225.317 78.2232 225.338 77.4463 225.375C79.5106 221.541 81.4223 217.633 83.1817 213.651Z" fill="#408BB4"/>
<path d="M82.7551 218.193C84.8134 219.131 87.8898 219.847 89.5844 220.801C86.8196 223.186 83.5185 225.065 79.7793 225.254C80.7069 222.879 81.7571 220.54 82.7551 218.193Z" fill="#60B5DC"/>
<path d="M101.589 285.179C104.308 286.05 107.026 286.872 109.897 287.034C111.387 287.117 113.238 286.773 114.662 287.102C115.089 287.201 115.424 287.642 115.617 288.028C115.883 288.557 115.916 289.25 115.684 289.8C115.401 290.47 114.753 290.848 114.091 291.067C113.283 291.335 112.455 291.533 111.653 291.82C111.061 292.661 110.654 293.506 110.274 294.458C108.239 296.038 105.92 296.711 103.352 296.626C103.197 296.416 103.077 296.293 102.827 296.2C101.172 295.589 100.575 294.981 99.7764 293.483C101.165 293.497 102.627 293.58 104.004 293.382C105.888 293.111 107.092 292.541 108.23 291.015C105.742 290.105 102.909 289.49 100.603 288.202C100.677 287.03 101.181 286.246 101.589 285.179Z" fill="#F7F6F5"/>
<path d="M126.396 21.8291C133.798 20.8673 140.995 22.0315 147.048 26.6587C151.521 30.0787 154.651 34.4026 156.7 39.6259C157.022 40.4468 157.597 41.6683 157.628 42.5561C157.634 42.7513 157.604 42.8027 157.548 42.9658C157.261 42.9169 157.074 42.8551 156.82 42.7106C156.287 39.1584 153.168 35.6733 150.69 33.2039C143.546 26.0839 134.98 23.759 125.151 23.7896C125.216 23.3695 125.25 22.7699 125.404 22.381C125.587 21.9199 125.98 21.9319 126.396 21.8291Z" fill="#FEB45B"/>
<path d="M85.3775 308.337C91.9946 314.541 104.731 315.812 113.506 316.428C113.437 316.44 113.368 316.454 113.298 316.464C113.011 316.51 113.127 316.505 112.854 316.477L112.724 316.85L112.734 316.665C113.989 317.358 115.027 317.938 115.81 319.216L115.731 319.345C116.038 319.681 116.308 319.644 116.742 319.726C107.274 320.184 92.1388 317.116 84.7188 311.386C84.8434 310.352 85.1256 309.346 85.3775 308.337Z" fill="#B8B6BE"/>
<path d="M92.3779 282.182C93.9919 283.018 95.1319 284.619 96.5461 285.747C97.7583 286.714 99.253 287.44 100.604 288.202C102.91 289.49 105.743 290.105 108.23 291.015C107.093 292.541 105.889 293.111 104.005 293.382C102.628 293.58 101.166 293.497 99.7772 293.483C100.576 294.981 101.173 295.589 102.828 296.2C103.078 296.293 103.197 296.416 103.353 296.626C101.875 296.708 100.345 296.559 98.9025 296.227C96.1067 295.581 93.4412 294.217 91.8994 291.717C92.132 291.1 92.3594 290.485 92.5643 289.859C92.7335 289.802 93.4621 290.154 93.664 290.233L93.6441 290.316C93.7322 290.108 93.8572 289.942 93.816 289.712C93.7089 289.117 93.3176 288.467 93.0829 287.901C92.2786 285.96 92.0473 284.269 92.3779 282.182Z" fill="#B8B6BE"/>
<path d="M98.9697 151.016C100.183 151.567 101.436 151.971 102.701 152.386C103.241 152.559 103.793 152.718 104.317 152.937C104.363 154.534 105.199 157.066 105.444 158.8C105.79 161.28 106.027 163.77 106.157 166.271C106.286 168.772 106.307 171.273 106.219 173.776C105.154 173.392 104.016 173.02 102.877 172.963C102.038 172.921 101.767 173.087 101.145 173.633C100.885 173.859 101.062 173.775 100.629 173.81C100.153 170.88 100.37 167.631 100.277 164.658C100.165 160.079 99.7295 155.532 98.9697 151.016Z" fill="#F7F6F5"/>
<path d="M90.3711 24.8434C90.3895 24.7971 90.4056 24.7499 90.4265 24.7043C92.5736 20.006 102.536 13.8985 107.414 11.9875C116.28 8.51385 125.799 7.69867 134.673 11.6075C134.291 11.9198 133.867 12.1634 133.447 12.4195C131.654 12.2161 129.853 12.1771 128.053 11.9547C117.237 10.4761 106.193 14.0744 97.5882 20.5589C94.1291 23.1657 91.0375 26.1315 88.5066 29.6556L88.3563 29.5995C87.8148 28.7229 90.4221 26.0106 90.3711 24.8434Z" fill="#FEB45B"/>
<path d="M128.192 146.554C128.273 146.594 128.363 146.62 128.434 146.674C128.968 147.081 129.499 148.347 129.815 148.936C133.432 155.66 135.881 163.675 137.111 171.2C135.482 170.794 134.365 171.051 132.87 171.715L131.558 172.572C130.557 169.794 129.983 166.817 129.189 163.97C128.561 161.649 127.842 159.356 127.032 157.092C126.222 154.828 125.324 152.599 124.337 150.406C125.585 149.082 126.886 147.82 128.192 146.554Z" fill="#F7F6F5"/>
<path d="M20.9922 77.8557C19.9844 76.5653 19.0095 75.1193 17.8216 73.9921L17.143 74.1585C13.6623 73.3063 7.14029 68.1725 4.8459 65.5154C2.97963 63.3543 1.97292 60.9701 2.19426 58.0722L2.52626 58.286L2.84108 57.9507L3.13432 58.2059C3.41862 60.5136 6.57835 63.5572 8.32396 64.9143C9.87226 66.1173 11.7249 66.9888 13.7321 66.6726C16.0672 66.305 17.1025 64.5129 18.5559 62.9309C19.1122 62.325 19.8192 61.8193 20.4748 61.3244C20.0471 62.4726 19.5002 63.8057 20.0977 64.9968C20.2475 65.2955 20.2184 65.2379 20.3859 65.4761L20.6993 65.4772L20.9871 65.9486C21.3879 67.054 21.7188 68.0395 22.4933 68.947C23.4274 69.572 24.3198 70.0033 25.3944 70.3537C27.1945 70.6265 28.7893 70.5109 30.5898 70.266C29.5929 70.9474 28.445 71.4467 27.4055 72.0709C24.8482 73.6057 22.8762 75.5678 20.9922 77.8557Z" fill="#E7A388"/>
<path d="M22.493 68.9466C23.4271 69.5717 24.3195 70.003 25.394 70.3534C24.9807 71.1009 23.9012 71.4978 23.113 71.7359C22.5739 71.8991 22.0151 72.0192 21.4509 72.0246C21.6687 71.3029 21.1918 70.494 21.3765 69.6899C21.7745 69.1885 21.9139 69.1639 22.493 68.9466Z" fill="#F7B28C"/>
<path d="M20.384 65.4759L20.6975 65.477L20.9853 65.9484C21.386 67.0539 21.717 68.0394 22.4915 68.9468C21.9122 69.1639 21.7727 69.1887 21.3751 69.6901C21.1905 70.4944 21.6673 71.3031 21.4495 72.0248C19.5552 71.1753 18.5244 69.9939 17.5225 68.2372C18.4099 67.2431 19.5513 66.5239 20.384 65.4759Z" fill="#F8D2AD"/>
<path d="M81.8587 204.143C86.7249 206.635 91.5315 208.654 96.7862 210.188C109.322 213.845 123.947 214.469 136.45 210.324C140.199 209.081 143.672 207.329 147.124 205.435C147.2 206.137 147.303 206.823 147.22 207.529L147.035 207.03C143.707 208.579 140.624 210.389 137.134 211.616C124.214 216.157 108.642 215.998 95.384 213.121C92.6929 212.537 82.9584 209.9 80.8795 210.031L80.6894 209.962C80.4704 209.426 81.7398 205.16 81.8587 204.143Z" fill="#A72823"/>
<path d="M138.336 67.5176L138.61 67.5833C139.26 68.6467 139.53 69.822 140.17 70.8732L140.405 70.9051C140.897 70.7147 141.032 70.6873 141.37 70.2625C141.506 69.4794 140.886 68.0602 140.724 67.2317L140.875 66.9676C141.823 70.1024 142.755 73.242 143.672 76.3863C146.757 86.6216 148.843 95.3957 146.359 106.138C145.574 109.532 144.457 112.826 142.847 115.92C138.084 125.07 129.601 132.78 119.672 135.851C119.25 135.981 118.824 136.1 118.396 136.208C118.311 136.021 118.247 135.861 118.259 135.648C118.365 133.856 124.968 131.797 126.546 130.832C128.953 129.361 132.337 126.52 134.256 124.447C140.909 117.259 145.635 106.342 145.252 96.4365L145.292 95.0881C145.26 93.9595 145.172 92.8276 145.101 91.7004C145.007 89.4265 143.145 81.8202 142.119 79.9229C141.822 79.3734 141.612 79.4067 141.058 79.2396L140.91 78.8059C141.229 74.9528 139.967 70.9553 138.336 67.5176Z" fill="#F7F6F5"/>
<path d="M132.631 140.967C134.424 142.476 137.182 146.957 137.946 147.514C139.957 151.519 142.062 155.517 143.796 159.652C147.724 169.02 149.937 178.96 151.349 188.985C151.754 191.855 152.564 196.371 151.772 199.115C151.486 200.107 150.533 200.767 149.776 201.405C149.198 196.896 149.493 192.301 148.85 187.778L148.917 186.122C148.52 183.129 147.286 179.946 146.343 177.076C144.179 170.49 141.904 163.995 139.136 157.633C137.888 154.764 136.377 152.023 134.861 149.29C133.886 147.532 132.738 145.727 132.07 143.828C131.879 143.287 131.874 142.719 131.87 142.151L132.631 140.967Z" fill="#C4E3A0"/>
<path d="M193.76 44.6418C193.828 44.6623 193.894 44.6867 193.962 44.7032C194.25 44.7726 194.441 44.77 194.728 44.7733C195.294 44.7805 196.026 44.9436 196.437 45.3693C196.856 45.8042 197.19 46.4525 197.492 46.9776C197.491 48.4981 196.561 52.8338 197.053 53.906C196.4 54.5949 195.73 55.0984 194.951 55.6314C194.38 55.2189 193.8 54.8274 193.301 54.329C193.544 57.886 196.597 59.6872 197.801 62.6828C198.123 63.3168 198.444 63.8272 198.917 64.3579C199.775 64.9165 200.589 65.2323 201.556 65.5356C198.801 69.5068 195.038 72.0738 190.521 73.6708C188.512 71.2949 185.924 68.6755 183.143 67.2233C181.756 66.4988 180.089 65.9884 178.917 64.9268C178.803 64.4938 178.792 64.4726 178.957 64.0588C179.425 63.61 179.661 63.4988 180.302 63.4173C182.07 64.7309 184.395 65.8223 186.65 65.4551C188.255 65.1938 188.503 64.263 189.734 63.4967C189.273 65.0356 188.321 66.5337 187.578 67.9575C188.949 66.7682 190.134 65.5186 190.818 63.7975C191.9 61.074 191.323 58.614 190.26 56.0288C191.297 55.5476 192.195 54.9248 193.111 54.2494C194.04 52.8894 194.961 51.4655 194.813 49.7376C194.673 48.1221 193.636 47.0674 192.459 46.0912C192.872 45.5804 193.293 45.1036 193.76 44.6418Z" fill="#E7A388"/>
<path d="M194.265 60.8893C195.827 61.2325 196.507 61.8477 197.802 62.6829C198.123 63.3169 198.444 63.8273 198.918 64.358C198.538 65.4435 198.101 66.3085 197.242 67.1038C195.618 68.6079 193.679 68.844 191.57 68.7672C192.716 66.1968 193.472 63.5819 194.265 60.8893Z" fill="#F8D2AD"/>
<path d="M26.9617 47.8357C28.4683 47.6994 29.958 47.6596 31.4696 47.6424L31.7967 47.2968L32.2259 47.3155L32.0674 47.2096L32.403 47.6035L32.6503 47.482C34.8063 50.4711 35.417 56.284 34.8228 59.8387C34.3293 62.789 32.9015 66.2741 30.4087 68.0862C29.1056 69.0336 27.6961 69.3376 26.1225 69.0533L25.9698 69.0242C25.4206 67.8612 23.9121 67.7865 23.3958 66.3345C22.447 63.6642 23.2337 61.3856 25.0069 59.2943C25.4012 58.8292 26.0499 58.3627 26.2914 57.8093C26.323 57.7378 26.35 57.6641 26.3791 57.5915C28.1319 56.1176 29.8038 54.5316 30.621 52.344L30.595 52.0939C30.1174 52.0195 25.884 54.0354 24.7257 54.3408C22.1471 55.0204 22.2844 52.901 20.4518 51.9252C20.3623 51.8771 20.2699 51.835 20.1787 51.7898L20.4185 51.3685C20.6579 51.5285 20.8325 51.6182 21.094 51.7244C21.9498 51.3801 22.1998 50.56 22.901 50.0312C24.1021 49.1248 25.6977 48.7819 26.9617 47.8357Z" fill="#F8D2AD"/>
<path d="M109.081 285.448C109.036 285.084 109.088 284.819 109.246 284.485C109.961 282.977 111.037 281.52 111.906 280.079C113.45 277.475 114.981 274.863 116.499 272.244C121.933 263.013 127.063 253.407 131.375 243.598C132.921 240.005 134.399 236.384 135.808 232.735C136.544 230.846 137.346 227.869 138.452 226.254C139.117 226.945 139.772 227.647 140.47 228.304C139.567 231.579 138.337 234.76 137.114 237.926C132.271 250.466 125.782 262.01 119.116 273.644C117.844 275.891 116.505 278.098 115.1 280.264C114.005 281.969 112.429 283.886 111.738 285.783L109.081 285.448Z" fill="#96D4F2"/>
<path d="M109.512 305.178C111.637 304.003 113.601 303.39 115.998 303.007C116.228 303.707 116.988 304.016 117.622 304.33C119.552 305.286 121.679 305.923 123.556 306.97C126.268 308.482 128.92 311.949 132.244 311.645L133.256 312.913C132.652 313.077 132.038 313.281 131.424 313.395C125.881 314.948 120.329 315.594 114.585 315.47C113.94 314.886 112.918 314.521 112.144 314.104C109.841 312.864 106.59 310.908 105.688 308.312C106.929 307.206 108.095 306.063 109.512 305.178Z" fill="#DC6266"/>
<path d="M105.688 308.312C106.929 307.206 108.095 306.063 109.512 305.178L109.579 305.479C109.638 305.754 109.651 305.985 109.653 306.264C109.662 307.035 110.141 307.55 110.667 308.064C115.468 312.763 130.008 312.956 130.06 313C130.568 313.431 130.782 313.376 131.424 313.395C125.881 314.948 120.329 315.595 114.584 315.47C113.939 314.886 112.918 314.521 112.144 314.104C109.841 312.864 106.59 310.909 105.688 308.312Z" fill="#C7433A"/>
<path d="M53.4069 219.791C53.4457 221.095 52.1645 224.971 51.6287 226.204L51.3167 226.434C50.8871 227.136 50.6251 227.867 50.4199 228.663L49.8931 228.425C50.3671 227.374 51.367 224.913 51.2616 223.808C50.4853 224.831 50.1777 226.801 49.8089 228.072C49.5037 228.361 49.1526 228.645 48.8776 228.96C48.5505 230.113 48.1983 233.41 48.6541 234.511C48.7673 235.708 48.8579 236.914 49.0323 238.104L48.6887 238.133C48.2039 237.524 48.1862 236.134 48.045 235.332C46.5323 235.637 45.1717 236.012 43.7732 236.676C42.7521 238.458 41.8124 240.141 41.4442 242.189C42.807 243.815 45.1971 244.837 47.2953 245.09C47.3721 245.463 47.518 245.792 47.719 246.117C49.3194 248.7 52.8692 249.901 55.6764 250.505C53.0661 252 50.4464 253.39 47.5268 254.184C44.7425 254.94 42.0223 255.097 39.4382 253.612C38.1419 251.466 38.0974 248.491 38.3668 246.066C39.24 238.204 47.1334 224.761 53.4069 219.791Z" fill="#A72823"/>
<path d="M43.7734 236.676C44.4559 234.48 45.9405 231.812 47.4877 230.113L48.5735 228.901L48.8777 228.96C48.5506 230.113 48.1984 233.41 48.6542 234.511C48.7673 235.708 48.858 236.914 49.0324 238.104L48.6888 238.133C48.204 237.524 48.1863 236.134 48.0451 235.332C46.5328 235.637 45.1721 236.012 43.7734 236.676Z" fill="#C7433A"/>
<path d="M78.1064 56.5948C78.4149 56.2675 78.7299 55.9466 79.0512 55.6319C79.3726 55.3173 79.7 55.0091 80.0334 54.7073C80.3668 54.4056 80.7062 54.1106 81.0515 53.8221C81.3965 53.5336 81.7473 53.2523 82.1035 52.9776C82.4597 52.7032 82.8211 52.4359 83.1881 52.1758C83.5548 51.9155 83.9266 51.6626 84.3033 51.4171C84.6801 51.1715 85.0617 50.9337 85.4481 50.7032C85.8343 50.4728 86.2248 50.2502 86.62 50.0352C87.0148 49.82 87.414 49.6129 87.8172 49.4138C88.2202 49.2147 88.6271 49.0236 89.038 48.8403C89.4488 48.6572 89.863 48.4822 90.2808 48.3156C90.6986 48.1486 91.1193 47.9902 91.543 47.8401C91.9669 47.6898 92.3937 47.5481 92.8232 47.4149C93.2527 47.2817 93.6848 47.1568 94.1194 47.0405C94.5539 46.9246 94.9902 46.8169 95.429 46.7178C95.8677 46.6189 96.3083 46.5287 96.7506 46.4472C104.006 45.15 112.256 46.0403 119.366 47.9339C120.318 48.1873 121.843 48.4252 122.64 48.9783L122.477 49.0194L122.968 49.0241C122.701 49.1963 122.834 49.1516 122.489 49.1876C122.155 49.2225 121.81 49.2379 121.48 49.3061C120.199 49.5717 119.134 51.6824 118.506 52.7347C113.931 51.234 99.5341 50.8799 95.0111 52.3401C93.323 51.6982 91.8456 51.6256 90.1671 52.3548C88.7195 52.9834 87.5248 53.9858 86.4683 55.1401C83.5066 55.0665 81.2588 57.7004 78.6565 58.691L78.1064 56.5948Z" fill="#C57E71"/>
<path d="M182.385 68.6148C186.753 71.4238 191.357 76.1139 192.498 81.3572L192.377 81.5577C191.004 83.7963 186.591 88.8618 186.211 91.2049C186.432 91.749 186.665 92.0376 186.397 92.6113C186.202 93.0314 185.74 93.5054 185.451 93.875C184.278 87.8828 180.425 82.691 175.827 78.7754C175.837 78.7171 175.847 78.6593 175.856 78.601C176.295 75.7007 180.193 70.6691 182.385 68.6148Z" fill="#E4462A"/>
<path d="M24.3483 76.118C24.4353 76.0838 24.523 76.0501 24.6096 76.0148C27.0883 74.9992 30.9486 71.228 33.7619 72.455C36.0553 73.4549 38.2209 78.3215 39.9572 79.6581L41.0976 81.3914C36.0147 82.4311 31.4891 85.8059 28.634 90.0888C28.1978 90.7338 27.8116 91.4077 27.4752 92.1101C26.8707 91.5099 26.4168 90.6374 25.9468 89.9225C24.8992 88.3272 23.8421 86.7361 22.8919 85.0803C22.1969 83.8698 21.6232 82.5563 20.8232 81.4137C21.7573 79.4736 22.783 77.6238 24.3483 76.118Z" fill="#E4462A"/>
<path d="M53.406 219.791C56.537 217.485 59.3512 215.818 63.2599 215.2C65.8077 216.019 67.6305 217.979 68.8248 220.322C69.5771 221.797 69.9285 223.319 70.2998 224.922C66.1262 224.69 62.6983 224.949 59.4537 227.888C59.2553 228.07 59.0613 228.257 58.8721 228.449C58.6828 228.641 58.4982 228.837 58.3182 229.038C58.1385 229.238 57.9638 229.443 57.7942 229.653C57.6242 229.862 57.4595 230.075 57.3003 230.292C57.1409 230.51 56.9869 230.731 56.8381 230.956C56.6894 231.18 56.5465 231.409 56.409 231.64C56.2713 231.872 56.1394 232.107 56.0133 232.345C55.8872 232.583 55.7671 232.824 55.6525 233.068C55.5382 233.312 55.4298 233.559 55.3274 233.808C55.2251 234.058 55.1288 234.309 55.0387 234.563C54.9487 234.817 54.8649 235.073 54.7872 235.331C54.7095 235.589 54.6381 235.849 54.573 236.111C54.508 236.372 54.4494 236.635 54.3973 236.9C54.345 237.164 54.2993 237.429 54.26 237.696C54.2207 237.962 54.1881 238.23 54.1619 238.498C54.1356 238.766 54.116 239.035 54.1027 239.304C54.0043 241.621 54.4117 243.505 55.5585 245.538C52.5137 242.503 50.3696 239.174 50.3452 234.751C50.3384 233.45 50.3994 231.749 50.7639 230.505C50.8012 229.156 51.1074 227.768 51.3158 226.434L51.6278 226.204C52.1636 224.971 53.4448 221.095 53.406 219.791Z" fill="url(#paint4_linear_264_2501)"/>
<path d="M51.6294 226.204C51.9658 226.781 52.0319 227.856 51.8453 228.506C51.7271 228.918 51.5538 229.325 51.3932 229.721L51.4665 229.378C51.2476 229.738 51.1294 229.996 51.0517 230.411L50.7656 230.506C50.803 229.156 51.1092 227.768 51.3176 226.434L51.6294 226.204Z" fill="#C7433A"/>
<path d="M53.6338 227.758C53.903 228.62 53.5788 230.285 53.5509 231.232C53.5154 232.68 53.5326 234.129 53.6023 235.576C53.6447 236.474 53.855 237.416 53.7317 238.308L53.5156 238.179C52.4161 234.626 51.8994 231.202 53.6338 227.758Z" fill="#020203"/>
<path d="M131.87 142.151C131.874 142.719 131.879 143.287 132.07 143.828C132.737 145.727 133.886 147.532 134.861 149.29C136.376 152.022 137.887 154.764 139.136 157.633C141.904 163.994 144.178 170.49 146.342 177.076C147.285 179.946 148.52 183.129 148.917 186.122C148.332 186.113 147.728 186.073 147.152 185.976C144.403 185.514 142.135 183.071 140.656 180.855C139.872 179.681 138.376 177.334 138.311 175.889C138.3 175.643 138.46 175.187 138.513 174.933C138.769 173.686 138.13 171.819 137.86 170.557C136.01 161.893 133.177 153.588 128.883 145.832C129.931 144.657 130.887 143.382 131.87 142.151Z" fill="#9BC865"/>
<path d="M91.4605 293.837C93.3031 295.491 95.0422 296.537 97.3554 297.423C96.7652 298.302 95.9933 299.527 96.3059 300.647C96.5093 301.377 96.9157 301.672 97.516 302.066L97.7356 302.08C97.9661 302.096 98.1885 302.123 98.4163 302.157C98.4386 302.237 98.4594 302.317 98.4824 302.396C98.669 303.044 98.8942 303.823 99.5745 304.129C99.8944 304.273 100.376 304.267 100.725 304.29C100.967 304.492 101.135 304.657 101.327 304.908C101.572 305.228 101.839 305.416 102.165 305.643C102.909 304.57 103.598 303.722 104.617 302.889C103.956 304.282 103.535 305.478 103.338 307.02C104.116 307.617 104.765 307.995 105.688 308.312C106.59 310.909 109.842 312.864 112.144 314.104C112.919 314.521 113.94 314.886 114.585 315.47C106.127 315.454 91.8957 312.987 85.6914 307.234C86.4501 304.881 87.4572 302.724 88.4925 300.488C88.8076 299.807 89.0392 299.039 89.4043 298.389C89.6451 297.961 89.9934 297.888 90.4343 297.748C90.4922 297.73 90.5508 297.713 90.609 297.695C90.6395 296.708 89.7033 295.484 89.5294 294.384C89.5194 294.322 89.5109 294.259 89.5016 294.196C90.3167 294.236 90.7109 294.163 91.4605 293.837Z" fill="#A72823"/>
<path d="M176.056 46.3107C176.343 45.7763 176.574 45.1546 177.202 44.9669C180.073 44.1084 188.809 45.7914 191.376 47.2774C192.246 47.781 193.127 48.5634 193.402 49.5664C193.581 50.2209 193.41 50.7708 193.209 51.3972C192.509 51.6089 191.701 51.9953 190.984 52.0672C188.958 52.2714 182.339 50.7134 181.014 52.2998L180.958 52.7645C182.906 55.3224 185.885 56.0646 188.896 56.5292C190.209 58.8139 190.378 60.9734 189.734 63.4965C188.503 64.2628 188.255 65.1936 186.65 65.4549C184.395 65.8221 182.07 64.7307 180.302 63.4171L179.213 62.7878C178.485 62.4032 177.916 62.0222 177.429 61.3437C175.423 58.544 174.513 53.8405 175.027 50.4709C175.134 49.0022 175.552 47.6847 176.056 46.3107Z" fill="#F8D2AD"/>
<path d="M176.057 46.3107C177.385 47.9208 176.764 50.9854 176.756 52.9873C176.711 52.4357 176.75 51.8045 176.4 51.3509L176.076 51.3674C175.855 51.5921 175.701 51.7186 175.409 51.8401C175.052 51.4411 175.073 50.9786 175.027 50.4709C175.135 49.0022 175.553 47.6847 176.057 46.3107Z" fill="#F7B28C"/>
<path d="M175.027 50.471C175.073 50.9786 175.052 51.4411 175.409 51.8403C175.701 51.7187 175.855 51.5923 176.076 51.3676L176.399 51.3511C176.75 51.8047 176.71 52.4359 176.755 52.9875C176.892 56.543 177.549 59.6244 179.214 62.7882C178.485 62.4035 177.916 62.0226 177.429 61.344C175.423 58.5442 174.513 53.8405 175.027 50.471Z" fill="#E7A388"/>
<path d="M29.1131 92.3137C29.2494 92.6911 29.3862 93.0642 29.539 93.4356C29.7593 93.97 29.8301 94.5565 29.9994 95.1093C30.3522 96.263 30.8773 97.3804 31.424 98.4529C38.649 112.623 49.9135 127.938 59.7473 140.512C63.7496 145.63 67.8685 151.108 72.6542 155.517C74.1087 156.857 75.6908 157.926 77.3781 158.949C77.9121 158.09 78.3635 156.979 79.0812 156.289L79.3838 156.288L79.64 156.675C78.6789 158.039 77.6422 164.812 77.2309 166.829C75.724 164.818 73.9242 163 72.2637 161.114C69.5473 158.025 66.8944 154.883 64.3052 151.686C59.5617 145.789 55.0254 139.736 50.6957 133.529C46.3661 127.321 42.2533 120.973 38.3573 114.484C34.5276 108.174 30.727 101.762 27.6182 95.0576C28.067 94.0986 28.5445 93.2073 29.1131 92.3137Z" fill="#759E3F"/>
<path d="M172.608 110.948L173.255 110.66C168.209 121.037 162.657 131.134 156.598 140.954C152.92 146.926 148.863 152.748 145.395 158.832C143.772 155.432 142.194 151.337 139.804 148.43L139.627 148.412L139.706 149.161C139.439 149.061 139.561 149.148 139.382 148.875C138.987 148.274 138.681 147.719 137.945 147.514C137.18 146.957 134.423 142.476 132.63 140.966C133.001 140.238 133.444 139.555 133.783 138.809C134.575 137.061 134.901 135.365 136.189 133.869C137.047 134.366 137.698 135.435 138.317 136.202C140.137 138.454 142.257 141.231 144.872 142.588C146.256 143.307 147.5 143.498 148.981 142.973C153.89 141.231 164.382 123.908 167.449 119.159C169.195 116.457 171.205 113.849 172.608 110.948Z" fill="#759E3F"/>
<path d="M80.8789 210.031C82.9577 209.9 92.6923 212.537 95.3834 213.121C108.641 215.998 124.213 216.157 137.133 211.616C140.623 210.39 143.706 208.579 147.034 207.03L147.219 207.529C147.118 209.41 146.97 211.349 146.617 213.202C144.664 214.901 141.93 215.888 139.521 216.739C130.387 219.964 121.055 221.123 111.407 220.448C102.07 219.794 95.0269 217.973 86.7717 213.494C84.7698 212.408 82.8823 211.103 80.8789 210.031Z" fill="#E4462A"/>
<path d="M77.3125 131.585C77.4893 131.254 77.674 130.913 77.8862 130.603C79.3224 128.508 82.6561 127.891 84.9793 127.481C85.637 128.003 90.7191 132.797 91.0423 133.271C90.3347 133.352 90.2003 132.742 89.6508 132.436C89.4309 132.313 89.1291 132.241 88.89 132.306C88.8164 132.799 89.1713 133.267 89.3867 133.713C90.6411 135.051 91.9396 136.344 93.2822 137.592C94.6248 138.841 96.0084 140.042 97.4332 141.197C98.8577 142.351 100.32 143.455 101.82 144.51C103.32 145.564 104.854 146.566 106.422 147.516C109.618 148.924 113.188 151.558 116.837 150.231C117.178 150.107 117.509 149.95 117.837 149.793C118.319 149.484 118.793 149.163 119.259 148.83C124.133 145.294 125.749 140.257 126.648 134.614C127.873 133.907 129.105 133.216 130.347 132.539C129.786 136.264 128.409 139.544 127.596 143.157C127.481 143.67 127.432 144.07 127.516 144.589C125.154 147.501 122.223 150.634 119.098 152.712C118.4 153.279 117.717 153.865 117.051 154.469C113.169 152.63 108.736 151.521 104.662 150.147C97.5854 147.759 85.8429 142.846 80.8784 137.257C79.4168 135.611 78.3918 133.493 77.3125 131.585Z" fill="#759E3F"/>
<path d="M106.422 147.516C106.303 147.579 106.231 147.625 106.093 147.659C104.386 148.079 94.7304 141.254 92.9348 139.928C90.4887 138.121 83.8097 132.859 83.3828 130.017L83.6469 129.839C85.9604 129.996 87.1892 132.833 89.1305 133.618C89.2147 133.652 89.3012 133.681 89.3864 133.713C90.6408 135.051 91.9393 136.344 93.2819 137.592C94.6245 138.841 96.0081 140.042 97.4329 141.197C98.8574 142.351 100.32 143.455 101.82 144.51C103.319 145.564 104.853 146.566 106.422 147.516Z" fill="#C4E3A0"/>
<path d="M110.259 242.887C115.364 240.534 120.137 237.548 125.271 235.222C122.67 239.8 120.492 244.693 118.21 249.439C112.85 260.588 107.088 272.453 103.77 284.373C101.605 283.613 99.7134 282.626 97.75 281.461C100.77 275.889 102.604 269.409 104.553 263.39C106.711 256.725 109.144 249.811 110.259 242.887Z" fill="#408BB4"/>
<path d="M128.053 11.9547C129.853 12.1771 131.655 12.2161 133.448 12.4195C131.16 13.9818 126.314 18.4961 125.841 21.23C125.78 21.5807 125.769 21.438 125.989 21.7568L126.395 21.8291C125.979 21.9319 125.586 21.9199 125.403 22.3808C125.249 22.7697 125.215 23.3695 125.15 23.7894C134.979 23.7588 143.545 26.0837 150.688 33.2037C153.167 35.6731 156.285 39.1582 156.819 42.7104C154.948 42.0192 153.034 41.6609 151.063 41.4026C149.547 40.4915 147.626 39.9064 145.966 39.2541C141.001 37.3051 135.945 35.4211 130.81 33.9703C128.577 33.3396 118.076 31.296 117.149 30.2255C116.984 29.7596 116.953 29.3859 117.006 28.8917C117.663 22.6672 123.345 15.7371 128.053 11.9547Z" fill="#F0842C"/>
<path d="M93.6325 218.532C100.509 222.175 110.666 222.493 118.37 222.433L117.462 225.498C115.601 224.904 112.062 225.169 109.976 224.943C104.285 224.327 98.5807 223.195 93.1567 221.359C87.8161 225.759 85.2291 226.881 78.4808 227.977C73.8507 236.714 68.6477 248.128 68.3373 258.094C68.2992 259.309 68.2054 260.94 68.5691 262.108C69.0183 263.547 70.0636 266.043 71.4589 266.725C72.7528 267.358 74.327 266.916 75.5928 266.424C79.5393 264.887 83.3299 262 86.7632 259.554C88.0519 258.635 89.38 257.567 90.7737 256.818C91.1461 256.618 91.44 256.606 91.8559 256.611C88.8261 260.027 80.3573 267.267 76.368 269.46C74.9444 270.243 73.3919 270.846 71.7666 271.015C69.8905 271.209 68.0917 270.555 66.6462 269.374C64.8118 267.876 63.692 265.722 62.7507 263.594C59.7032 256.704 59.2564 249.965 58.5146 242.628C60.5323 240.132 62.8295 237.356 66.0425 236.44C66.4142 238.209 67.2897 240.315 68.2831 241.817C67.4165 244.42 63.2678 253.303 63.6134 255.209C63.681 255.58 63.6604 255.601 63.981 255.826C65.2307 254.155 68.6065 244.649 69.7284 242.059C72.0561 236.686 74.7571 231.489 77.0658 226.1C78.3651 226.409 79.5701 226.573 80.9103 226.465C86.1004 226.046 90.3844 222.312 93.6325 218.532Z" fill="#408BB4"/>
<path d="M57.19 95.6683L57.3654 95.6723C57.5065 95.3349 57.6151 95.0111 57.8435 94.7224L58.0127 94.6649L57.8768 94.3997C57.8952 94.4521 57.9178 94.5032 57.9319 94.5568C58.0213 94.895 57.9873 95.2379 57.9727 95.5832C58.7106 93.7492 59.456 92.5873 61.3817 91.8124C62.9933 91.1633 65.149 91.0584 66.7418 91.8179C67.0084 91.945 67.2564 92.0964 67.5054 92.2539C68.5933 93.9477 69.4515 95.4876 71.3632 96.3367L71.8983 96.2298C73.6097 98.5688 75.3646 100.745 77.3884 102.823C78.9716 105.796 80.2038 108.92 81.9103 111.837C86.8236 120.235 96.2153 131.177 105.732 134.086C108.143 134.823 112.723 135.404 115.25 135.308C116.196 135.272 117.14 134.821 118.074 134.865L117.924 135.043L118.004 135.325C117.907 135.693 117.827 136.076 117.703 136.436C117.253 136.556 116.799 136.664 116.343 136.76C115.887 136.856 115.428 136.94 114.967 137.012C114.507 137.084 114.045 137.143 113.58 137.191C113.117 137.238 112.652 137.273 112.186 137.296C111.721 137.319 111.255 137.33 110.788 137.328C110.322 137.326 109.856 137.312 109.39 137.286C108.925 137.259 108.46 137.22 107.997 137.17C107.533 137.119 107.071 137.056 106.611 136.981C96.4347 135.417 87.8908 129.158 82.0496 120.842C80.2819 118.326 78.9963 115.457 77.1637 113.018C77.1206 112.96 77.076 112.904 77.0322 112.847C76.7554 113.115 76.4741 113.364 76.1347 113.552C73.6437 114.928 70.448 114.876 67.7827 114.081C63.805 112.893 60.8622 109.795 58.9268 106.208C57.4257 103.427 56.2774 98.771 57.19 95.6683Z" fill="#E7A388"/>
<path d="M66.217 95.4717C66.8775 96.0269 67.5142 96.5722 68.101 97.2083C67.6389 97.2539 67.1662 97.2457 66.8446 97.6256C65.8899 98.754 65.1303 100.473 64.8334 101.913C64.6922 101.262 64.633 100.747 64.7454 100.087C64.9671 98.7807 65.1787 97.6426 65.6946 96.4137C65.9155 96.1355 66.0567 95.7884 66.217 95.4717Z" fill="#C7433A"/>
<path d="M65.694 96.4137C65.1782 97.6428 64.9663 98.7807 64.7448 100.087C64.6324 100.747 64.6917 101.262 64.8329 101.913C64.5873 103.563 65.0323 105.383 65.7978 106.84L65.928 107.086C65.5007 106.892 65.2189 106.543 64.9791 106.142C63.5448 103.742 63.6083 100.833 64.3469 98.2471C64.7559 97.5659 65.1361 96.9874 65.694 96.4137Z" fill="#020203"/>
<path d="M71.9668 109.134C71.5865 109.095 71.207 109.051 70.8404 108.935C69.919 108.646 69.2516 107.916 68.8325 107.069C68.2649 105.922 68.1844 104.426 68.6344 103.227C69.0136 102.217 69.6613 101.518 70.6524 101.102L70.8594 101.65C70.11 103.166 68.9952 104.423 69.6536 106.219C70.114 107.475 70.9981 108.273 71.9668 109.134Z" fill="#020203"/>
<path d="M70.8715 101.005C71.4689 101.901 72.4037 103.032 72.7241 104.06L73.3948 104.999C73.7445 105.771 73.5517 106.745 73.2676 107.512C73.0955 107.976 72.8788 108.432 72.6499 108.87C72.3944 109.021 72.269 109.184 71.9673 109.134C70.9986 108.273 70.1145 107.474 69.6541 106.219C68.9957 104.423 70.1105 103.166 70.8599 101.65L70.653 101.102L70.8715 101.005Z" fill="#C7433A"/>
<path d="M72.6488 108.87C72.4018 107.453 72.0583 105.367 72.7228 104.06L73.3935 104.999C73.7432 105.771 73.5504 106.745 73.2663 107.512C73.0944 107.976 72.8775 108.432 72.6488 108.87Z" fill="#DC6266"/>
<path d="M60.2394 100.122C60.1258 98.1047 60.2631 95.5623 61.6302 93.9267C62.0715 93.3984 62.6483 93.0889 63.3358 93.0296C64.9592 92.8902 66.7109 93.9905 67.879 95.0358C70.7136 97.5731 72.5178 101.35 73.3943 104.999L72.7237 104.06C72.4034 103.032 71.4686 101.901 70.8711 101.005C70.1102 99.6671 69.0956 98.3832 68.1016 97.2083C67.5147 96.5722 66.8779 96.0269 66.2176 95.4717C66.0573 95.7886 65.9161 96.1355 65.6951 96.4137C65.137 96.9873 64.7568 97.5659 64.3478 98.2473L64.4002 97.484C64.0423 96.7397 63.6652 95.6072 62.9451 95.1562C62.3823 95.237 61.9836 95.8035 61.516 96.1125L61.2519 96.2844C60.6337 97.5533 60.4093 98.7365 60.2394 100.122Z" fill="#020203"/>
<path d="M61.252 96.2844C61.6548 95.5853 62.0735 94.9392 62.8778 94.6665C64.053 94.2684 65.2171 94.922 66.2176 95.4715C66.0573 95.7884 65.9161 96.1353 65.6952 96.4135C65.1371 96.9872 64.7568 97.5658 64.3478 98.2472L64.4003 97.4839C64.0423 96.7395 63.6653 95.6071 62.9451 95.156C62.3823 95.2368 61.9837 95.8033 61.5161 96.1124L61.252 96.2844Z" fill="#DC6266"/>
<path d="M79.6408 156.675L79.6952 156.866C80.3711 159.323 80.5458 161.912 81.0507 164.41C82.7186 172.659 84.9681 180.589 89.5472 187.753C90.3631 189.03 91.2004 190.405 92.2191 191.527C91.3521 191.829 89.9703 192.142 89.2879 192.72C89.2268 193.159 89.2842 193.381 89.538 193.757C90.6157 195.352 92.839 196.726 94.5426 197.55L96.0963 197.041C98.4133 201.472 105.277 205.292 109.895 206.747C119.34 209.724 129.584 209.095 138.914 206.041C140.892 205.394 145.466 203.404 147.179 203.219C146.17 204.068 144.812 204.767 143.659 205.409C136.601 209.339 128.595 211.098 120.587 211.548C106.846 212.321 87.8848 207.678 77.4688 198.364C77.2396 189.554 77.4146 180.897 78.1686 172.112C78.3896 169.391 78.6544 166.675 78.9629 163.963C79.2509 161.587 79.7473 159.071 79.6408 156.675Z" fill="#759E3F"/>
<path d="M170.85 77.5843C175.639 80.9612 179.877 86.4663 182.271 91.8107L182.401 92.9123C179.441 98.8911 176.33 104.746 173.257 110.66L172.609 110.947C171.207 113.849 169.196 116.457 167.451 119.159C164.384 123.908 153.891 141.231 148.982 142.973C147.502 143.498 146.258 143.307 144.873 142.588C142.259 141.231 140.138 138.454 138.318 136.202C137.699 135.435 137.048 134.366 136.19 133.869C142.825 124.741 148.598 115.003 154.394 105.334C159.918 96.1187 165.522 86.9134 170.85 77.5843Z" fill="#9BC865"/>
<path d="M105.439 154.239L105.542 154.101C106.344 153.961 110.585 155.725 111.687 156.031C117.288 157.584 119.88 155.344 124.39 152.784C126.809 159.118 129.01 165.64 130.574 172.246C130.874 173.518 131.046 174.81 131.326 176.083C131.779 176.413 132.228 176.753 132.688 177.072C134.675 182.943 137.083 188.963 142.978 191.904C144.316 192.571 145.727 192.976 147.195 193.232C147.78 191.424 148.331 189.606 148.849 187.778C149.492 192.301 149.197 196.896 149.775 201.405C149.014 202.132 148.135 202.769 147.179 203.219C145.467 203.403 140.893 205.393 138.915 206.041C129.584 209.094 119.34 209.724 109.895 206.747C105.278 205.291 98.4137 201.472 96.0967 197.041C98.8665 195.822 100.88 194.065 102.598 191.582C104.784 188.421 105.733 185.007 106.409 181.275C106.694 179.702 107.053 178.097 107.199 176.505C107.867 169.215 106.783 161.394 105.439 154.239Z" fill="#9BC865"/>
<path d="M78.4792 227.977C85.2274 226.881 87.8144 225.759 93.155 221.359C98.579 223.195 104.283 224.327 109.974 224.943C112.061 225.169 115.599 224.904 117.46 225.498C116.966 227.211 114.375 235.023 114.414 236.098C115.803 232.563 117.23 229.045 118.27 225.387C124.431 225.006 130.194 223.522 135.986 221.468C136.627 223.251 137.343 224.719 138.453 226.255C137.347 227.869 136.544 230.846 135.808 232.735C134.399 236.384 132.921 240.005 131.375 243.598C127.064 253.407 121.934 263.013 116.499 272.244C114.981 274.863 113.45 277.475 111.906 280.079C111.038 281.52 109.961 282.977 109.247 284.485C109.088 284.819 109.036 285.084 109.082 285.448C107.3 285.292 105.504 284.802 103.77 284.373C107.089 272.453 112.851 260.588 118.211 249.439C120.493 244.693 122.671 239.8 125.272 235.222C126.178 234.588 127.108 234.078 128.089 233.571C122.937 235.121 106.959 241.126 103.216 244.629C99.2116 248.378 96.0152 253.002 91.8551 256.611C91.4392 256.606 91.1453 256.618 90.7729 256.818C89.3792 257.567 88.0511 258.635 86.7624 259.554C83.3291 262 79.5385 264.887 75.592 266.424C74.3262 266.917 72.752 267.358 71.4581 266.725C70.063 266.043 69.0175 263.547 68.5683 262.108C68.2046 260.94 68.2984 259.309 68.3365 258.094C68.646 248.129 73.849 236.715 78.4792 227.977Z" fill="#60B5DC"/>
<path d="M29.1133 92.3137C30.1095 90.7421 31.3326 89.3325 32.6494 88.0213C34.1819 86.4956 37.9048 83.1723 40.1701 83.3247C40.4921 83.3466 40.6298 83.6197 40.8411 83.8389C43.0597 86.3104 44.9551 89.332 46.8742 92.0501C51.923 99.2023 56.6322 106.583 61.7105 113.709C66.3689 120.246 71.2715 126.606 76.0356 133.066C78.1402 135.919 80.9166 139.342 82.6506 142.392C82.9531 142.656 83.2497 142.941 83.5693 143.183C85.7325 145.525 95.0749 150.581 98.2369 151.551C99.9723 159.246 99.6317 169.187 99.8034 177.152C99.8222 178.038 100.357 178.697 100.149 179.591C99.1568 183.87 96.9512 188.681 93.072 191.074C92.7931 191.246 92.5164 191.392 92.2184 191.527C91.1996 190.405 90.3625 189.03 89.5466 187.753C84.9675 180.589 82.718 172.659 81.05 164.41C80.5451 161.912 80.3704 159.323 79.6945 156.866L79.6401 156.675L79.3839 156.288L79.0814 156.289C78.3637 156.979 77.9122 158.09 77.3782 158.949C75.6912 157.926 74.1088 156.857 72.6544 155.517C67.8686 151.108 63.7499 145.63 59.7474 140.512C49.9136 127.938 38.6491 112.623 31.4242 98.4529C30.8775 97.3804 30.3524 96.263 29.9995 95.1093C29.8303 94.5565 29.7594 93.97 29.5391 93.4356C29.3864 93.0642 29.2497 92.6911 29.1133 92.3137Z" fill="#9BC865"/>
<path d="M40.8418 83.8386C43.0604 86.3101 44.9558 89.3316 46.8749 92.0498C51.9237 99.2023 56.6329 106.583 61.7112 113.709C66.3696 120.246 71.2722 126.606 76.0363 133.066C78.1409 135.919 80.9173 139.342 82.6513 142.392C82.5643 143.028 82.3961 143.552 81.9512 144.027C80.4779 143.331 78.0718 139.957 76.9157 138.591C67.8881 127.924 59.6738 116.493 51.6038 105.088C48.6277 100.883 45.6945 96.6627 42.6635 92.4949C41.0082 90.2186 39.3987 87.6886 37.3574 85.7436C38.4902 85.0647 39.6152 84.336 40.8418 83.8386Z" fill="#C4E3A0"/>
<path d="M88.5072 29.6556C91.0383 26.1314 94.1298 23.1657 97.5888 20.5589C106.194 14.0744 117.238 10.476 128.054 11.9547C123.346 15.7371 117.663 22.6674 117.006 28.8918C116.953 29.3861 116.984 29.7598 117.149 30.2256C118.075 31.2962 128.577 33.3398 130.81 33.9705C135.945 35.4211 141.001 37.3052 145.966 39.2543C147.627 39.9065 149.547 40.4916 151.063 41.4027C149.681 41.3068 148.298 41.2844 146.914 41.3352C145.53 41.3861 144.152 41.5103 142.781 41.7076C142.318 41.4054 141.653 40.8224 141.086 40.868L140.947 41.2835L141.26 41.7737C141.206 42.441 141.048 43.0415 141.527 43.5789C142.53 44.7021 143.82 45.528 144.855 46.6108C147.32 49.1874 150.742 55.1701 151.396 58.7083C151.737 60.0834 152.174 61.2761 151.872 62.7015C152.232 63.453 152.585 64.377 153.207 64.9459C153.733 66.0531 153.581 68.5808 153.655 69.8604C152.39 68.1446 151.125 66.3904 149.683 64.8184C144.002 58.6254 136.337 53.5952 128.834 49.9086C118.179 44.6725 103.452 42.2323 92.0726 46.1648C87.5064 47.7429 79.6679 52.3543 77.5084 56.7935C78.7764 61.0983 77.2238 68.357 75.6658 72.539L75.6192 72.8477C75.2947 74.9218 74.5816 76.9477 74.2133 79.0218C72.9544 86.1119 73.7525 92.1116 76.0508 98.845C72.9305 94.4737 69.4407 89.4346 63.6488 88.545C63.5374 88.5276 63.4255 88.5133 63.3134 88.5019C63.2014 88.4903 63.089 88.4815 62.9764 88.4759C62.8639 88.47 62.7513 88.467 62.6386 88.467C62.5258 88.467 62.4132 88.47 62.3008 88.4759C62.1882 88.4817 62.0758 88.4903 61.9637 88.5019C61.8516 88.5133 61.7397 88.5276 61.6283 88.545C61.517 88.5622 61.406 88.5822 61.2958 88.6053C61.1855 88.6285 61.0757 88.6543 60.9666 88.6829C60.8577 88.7115 60.7495 88.7429 60.6422 88.777C60.5346 88.8111 60.428 88.8479 60.3226 88.8877C60.217 88.9272 60.1127 88.9694 60.0095 89.0145C59.9061 89.0594 59.804 89.1071 59.703 89.1573C59.6019 89.2074 59.5025 89.2602 59.4043 89.3155C59.3061 89.3707 59.2094 89.4286 59.1145 89.4888C59.0193 89.5493 58.9257 89.6121 58.8338 89.6771C58.7417 89.7422 58.6514 89.8095 58.5628 89.8792C58.0442 90.2806 57.5992 90.7712 57.1553 91.2514C56.8117 91.5806 56.5285 92.0513 56.2465 92.4387C53.5064 88.7046 51.2142 84.3081 50.3642 79.7182C49.4194 74.6156 50.5652 68.82 53.5301 64.5453C55.2947 61.7406 57.8095 59.2526 60.0327 56.8026C56.1875 58.0135 52.8679 59.8689 49.3447 61.7548C49.3963 61.6446 49.4508 61.5361 49.5085 61.4291C49.8928 60.7235 50.7434 60.0418 51.3268 59.4927C55.6467 55.4265 61.3919 53.2144 67.0121 51.6401C66.412 51.1247 65.8581 50.5477 65.2928 49.9945C65.7727 49.827 66.1766 49.6639 66.6042 49.3868C65.7462 48.8959 65.1706 48.3262 64.5862 47.5381C62.188 44.3047 61.7411 40.0195 62.3134 36.1329C63.2464 37.0681 63.2589 38.5452 63.7158 39.7675C64.643 42.2462 66.8618 46.3163 69.4542 47.3593C69.567 47.2767 69.6957 47.2008 69.7859 47.0935C70.5398 44.3222 71.1207 41.5232 72.0152 38.7883C74.771 30.3598 79.8856 23.0731 87.1763 17.9873C89.6259 15.9082 91.2123 13.8142 94.3804 12.7497C92.9267 15.507 89.9448 21.8443 90.3717 24.8432C90.4227 26.0103 87.8156 28.7226 88.3568 29.5992L88.5072 29.6556Z" fill="url(#paint5_linear_264_2501)"/>
<path d="M58.6797 66.7061C58.8959 65.5582 59.0452 64.3706 59.3111 63.2357C59.7406 61.4007 62.0011 58.8151 63.5799 57.8826C66.3858 56.2257 71.2934 55.42 74.5024 55.8927C75.4488 56.0321 76.3306 56.4774 77.2503 56.7254L77.5087 56.7933C78.7767 61.0981 77.224 68.3568 75.6661 72.5388C75.5596 72.1219 75.6384 71.7445 75.6976 71.3273C75.3171 72.1984 74.8142 73.2623 74.173 73.9696C74.0062 73.3346 74.967 71.5797 75.2864 70.9712C75.3802 70.9788 75.4744 70.9812 75.5679 70.9939C75.6671 71.0076 75.7652 71.0319 75.8639 71.0507C76.6884 67.8147 78.3467 60.8233 77.4557 57.7481C77.2756 57.1267 76.8017 56.8091 76.2284 56.5542C73.1242 55.1762 67.6157 56.3897 64.5618 57.6257C63.5461 58.0368 62.1606 58.7038 61.8117 59.8453C61.5295 60.7712 62.1385 61.2183 62.4612 61.991C62.6118 62.3525 62.5273 62.5805 62.3533 62.8995L61.711 62.7532C60.5802 63.2394 59.3597 65.6616 58.6797 66.7061Z" fill="#F0842C"/>
<path d="M56.3572 84.3423C56.7914 77.4587 60.8845 65.6236 65.8474 60.6323C60.6034 69.2783 56.2167 79.691 56.9158 89.9921C56.0455 88.7481 56.3545 85.8094 56.3572 84.3423Z" fill="#020203"/>
<path d="M56.2457 92.4387C53.5057 88.7046 51.2134 84.3081 50.3635 79.7182C49.4187 74.6156 50.5645 68.82 53.5294 64.5453C53.5229 64.6025 53.5174 64.66 53.5102 64.7172C53.2533 66.791 52.4658 68.7816 52.1547 70.8574C51.275 76.7214 52.8247 83.6263 56.1259 88.5648C56.1417 87.1865 56.0419 85.6882 56.3555 84.3423C56.3527 85.8094 56.0438 88.7481 56.9141 89.9923C57.133 90.4541 57.1426 90.7531 57.1546 91.2515C56.811 91.5806 56.5277 92.0513 56.2457 92.4387Z" fill="#C7433A"/>
<path d="M87.1744 17.9875C89.624 15.9085 91.2103 13.8144 94.3785 12.7499C92.9247 15.5072 89.9428 21.8445 90.3697 24.8434C90.4208 26.0105 87.8137 28.7228 88.3549 29.5994L88.5052 29.6555C88.0678 30.8828 86.0542 33.0967 85.2918 34.3165C83.6383 36.9638 82.4788 39.8778 80.874 42.538C81.6003 38.7155 82.3159 34.9332 83.311 31.1664C83.8307 29.1984 87.1867 18.9975 87.1744 17.9875Z" fill="#F0842C"/>
<path d="M107.316 36.9054C116.348 34.166 126.487 35.1989 135.251 38.4493C137.125 39.1443 138.828 40.6642 140.703 41.2156C140.784 41.2396 140.866 41.2609 140.948 41.2835L141.26 41.7737C141.206 42.441 141.048 43.0415 141.528 43.5789C142.53 44.7021 143.82 45.528 144.856 46.6108C147.32 49.1874 150.743 55.1701 151.396 58.7083C151.737 60.0834 152.175 61.2761 151.873 62.7015C150.291 59.8292 148.498 57.3246 146.266 54.9116C145.958 54.5714 145.645 54.2351 145.328 53.9028C145.011 53.5703 144.69 53.2419 144.365 52.9177C144.04 52.5932 143.711 52.2729 143.378 51.9567C143.045 51.6407 142.708 51.3288 142.367 51.0212C142.026 50.7136 141.681 50.4103 141.332 50.1113C140.984 49.8121 140.631 49.5176 140.275 49.2276C139.919 48.9373 139.56 48.6516 139.197 48.3704C138.834 48.0893 138.467 47.8127 138.097 47.5409C137.727 47.2692 137.354 47.0019 136.977 46.7394C136.6 46.4768 136.22 46.219 135.837 45.9659C135.453 45.7128 135.067 45.4648 134.678 45.2216C134.288 44.9781 133.896 44.7398 133.501 44.5064C133.105 44.2727 132.707 44.0442 132.305 43.8206C131.904 43.5973 131.5 43.3788 131.094 43.1654C130.687 42.9521 130.278 42.7439 129.866 42.5408C129.454 42.3376 129.04 42.1395 128.623 41.9468C128.206 41.7542 127.787 41.5669 127.365 41.3847C126.943 41.2025 126.52 41.0255 126.094 40.8541C125.668 40.6826 125.24 40.5164 124.81 40.3553C124.379 40.1945 123.947 40.0391 123.513 39.8892C123.079 39.7394 122.643 39.5949 122.206 39.4558C121.768 39.3167 121.328 39.1831 120.888 39.055C120.447 38.9272 120.004 38.8048 119.56 38.6878C119.116 38.5708 118.67 38.4596 118.223 38.3539C117.777 38.2481 117.328 38.148 116.879 38.0534C116.43 37.9589 115.979 37.87 115.527 37.7868C115.076 37.7035 114.623 37.626 114.17 37.5543C113.716 37.4824 113.262 37.4161 112.806 37.3556C112.351 37.2952 111.895 37.2405 111.438 37.1914C110.982 37.1425 110.525 37.0993 110.067 37.0616C109.609 37.0241 109.151 36.9923 108.693 36.9664C108.234 36.9403 107.775 36.9199 107.316 36.9054Z" fill="#F0842C"/>
<path d="M95.0115 52.3403C99.5345 50.88 113.931 51.2341 118.507 52.7349C117.79 54.2001 117.416 55.3406 117.564 57.0006L117.841 56.9613C118.463 56.4876 119.15 55.9046 119.86 55.5723C123.529 53.8568 127.496 55.4983 130.998 56.6458C133.142 57.7502 137.465 60.3128 139.629 60.7619C140.337 62.7673 140.506 64.8828 140.875 66.9676L140.724 67.2317C140.886 68.0604 141.506 69.4794 141.37 70.2625C141.032 70.6873 140.897 70.7147 140.405 70.9051L140.17 70.8732C139.531 69.822 139.26 68.6467 138.61 67.5833L138.336 67.5176C139.967 70.9555 141.228 74.9529 140.91 78.8055L141.058 79.2393C141.611 79.4064 141.822 79.3733 142.119 79.9226C143.145 81.8199 145.007 89.4263 145.101 91.7C145.172 92.8274 145.26 93.9592 145.292 95.0878L145.252 96.4361C145.635 106.342 140.909 117.259 134.256 124.446C132.337 126.52 128.953 129.36 126.546 130.832C124.967 131.796 118.365 133.855 118.259 135.648C118.247 135.86 118.311 136.021 118.396 136.208L117.704 136.436C117.827 136.076 117.907 135.693 118.004 135.325L117.925 135.043L118.074 134.865C117.141 134.821 116.197 135.271 115.25 135.307C112.724 135.404 108.144 134.823 105.732 134.086C96.2155 131.177 86.824 120.235 81.9108 111.837C80.2043 108.92 78.972 105.796 77.3888 102.823C77.5333 102.684 77.792 102.473 77.9046 102.296C78.3678 101.568 77.4521 99.4482 77.1797 98.6677C76.81 97.5777 76.4842 96.4749 76.2022 95.3591C75.9203 94.2431 75.6832 93.1177 75.4906 91.9829C75.2984 90.8482 75.1514 89.7076 75.0497 88.5611C74.9481 87.4148 74.8922 86.2661 74.8819 85.1152C74.8706 76.1242 80.2307 67.7919 78.6567 58.691C81.259 57.7004 83.5068 55.0665 86.4685 55.1401C87.525 53.9857 88.7197 52.9834 90.1674 52.3548C91.846 51.6258 93.3234 51.6984 95.0115 52.3403Z" fill="#F8D2AD"/>
<path d="M138.896 96.8483C138.735 96.7297 138.577 96.6063 138.423 96.478C137.888 96.0234 137.357 95.3736 137.384 94.6286C137.407 93.9764 137.818 93.5061 138.263 93.0821C138.372 94.0779 138.41 94.6865 139.23 95.3415C139.517 95.5708 139.821 95.7804 140.124 95.9873C140.202 95.9845 140.28 95.9808 140.358 95.9787C141.358 95.9517 142.528 96.3918 143.447 96.1832C143.553 95.9952 143.66 95.7074 143.774 95.5434C144.041 95.1591 144.868 95.1591 145.29 95.0881L145.251 96.4365L145.055 95.6285C143.225 97.12 141.114 96.9205 138.896 96.8483Z" fill="#F7B28C"/>
<path d="M138.264 93.082C138.702 92.7528 139.145 92.4236 139.636 92.1746C139.845 92.0687 140.058 91.9729 140.277 91.8875C140.495 91.8021 140.717 91.7272 140.942 91.6628C141.168 91.5986 141.396 91.5453 141.626 91.5029C141.857 91.4604 142.089 91.429 142.322 91.4087C142.556 91.3885 142.79 91.3796 143.024 91.3817C143.259 91.3838 143.492 91.3969 143.726 91.4215C143.959 91.4459 144.19 91.4815 144.42 91.5279C144.65 91.5746 144.877 91.632 145.101 91.7002C145.172 92.8276 145.26 93.9593 145.291 95.0879C144.869 95.1588 144.042 95.1588 143.775 95.5432C143.661 95.7074 143.554 95.995 143.448 96.183C142.529 96.3916 141.359 95.9515 140.359 95.9785C140.281 95.9806 140.203 95.9843 140.125 95.9871C139.822 95.7802 139.517 95.5706 139.23 95.3413C138.411 94.6865 138.373 94.0777 138.264 93.082Z" fill="#E7A388"/>
<path d="M85.3673 94.9431C86.7728 94.4632 88.1235 94.2656 89.5837 94.603C90.2583 94.7575 90.9405 94.8962 91.6068 95.0816C92.2326 95.9966 92.6944 96.8642 93.0678 97.9183C91.5051 99.7204 90.0147 100.789 87.561 100.961C85.9061 101.077 84.1208 100.994 82.8177 99.8363C81.9973 99.1078 81.8007 98.4387 81.5494 97.3953C81.5378 97.3478 81.525 97.3001 81.5127 97.2525C81.9256 96.7962 82.3465 96.2204 82.9137 95.9691C83.7062 95.4854 84.4451 95.099 85.3673 94.9431Z" fill="#F7B28C"/>
<path d="M85.3674 94.9431C86.7729 94.4632 88.1236 94.2656 89.5838 94.603C89.6007 94.6979 89.6154 94.7931 89.6338 94.8877C89.7184 95.323 89.9418 95.6711 90.1693 96.0441C90.1524 96.5038 89.9953 96.8371 89.6456 97.1503C88.421 98.2458 86.1231 98.3787 84.5519 98.2163C83.8644 98.1454 83.3389 98.0313 82.8106 97.5754C82.6575 97.0952 82.7165 96.9519 82.9446 96.5044C82.972 96.4509 83.0046 96.4005 83.0348 96.3484L82.9139 95.9689C83.7063 95.4854 84.4452 95.099 85.3674 94.9431Z" fill="#C57E71"/>
<path d="M82.9121 95.9687C83.7048 95.4853 84.4436 95.099 85.3657 94.9431C85.1067 95.3794 84.8598 95.9608 84.3333 96.0995C84.0946 96.1622 83.8304 96.1783 83.5858 96.2095C83.2659 96.2502 83.3974 96.2279 83.033 96.3482L82.9121 95.9687Z" fill="#E7A388"/>
<path d="M86.4688 55.1403C87.5253 53.9859 88.72 52.9836 90.1677 52.355C91.8461 51.6258 93.3235 51.6984 95.0116 52.3403C96.6418 53.4727 98.1226 54.7511 99.0567 56.5409C94.1624 56.6635 89.6973 57.6676 86.1152 61.216C85.3497 61.9744 84.4908 63.2052 83.5074 63.6361L83.2393 63.4999C83.1782 63.3331 83.1423 63.2615 83.1125 63.0966C82.7431 61.0683 85.3688 56.763 86.4688 55.1403Z" fill="#020203"/>
<path d="M84.6953 61.2958C85.55 59.1987 86.4018 57.2153 88.0147 55.58C89.2301 54.3472 90.9031 53.3326 92.6878 53.374C94.382 53.4131 95.397 54.2859 96.5061 55.433C95.1274 55.4988 93.776 55.6112 92.4075 55.7938C90.1738 56.6909 88.4714 57.5131 86.7208 59.1933C86.0402 59.8889 85.3649 60.5897 84.6953 61.2958Z" fill="#F0842C"/>
<path d="M90.2424 55.3601C91.2095 54.8792 91.9487 54.6808 93.0314 54.7024L93.2976 54.8685L93.151 55.15L92.6604 55.3031L92.4063 55.7936C90.1726 56.6907 88.4701 57.5129 86.7196 59.1931C86.683 59.1201 86.6347 59.0519 86.61 58.9742C86.5179 58.6813 86.6423 58.359 86.7666 58.0969C87.405 56.7502 88.8651 55.8092 90.2424 55.3601Z" fill="#F7B28C"/>
<path d="M95.0117 52.3403C99.5347 50.88 113.931 51.2341 118.507 52.7349C117.79 54.2001 117.416 55.3406 117.564 57.0006C112.617 55.9962 104.184 56.134 99.057 56.5409C98.1227 54.7511 96.6419 53.4727 95.0117 52.3403Z" fill="#E7A388"/>
<path d="M118.862 80.1179C117.445 77.2643 117.04 73.6841 117.543 70.5581C118.056 67.371 119.712 64.2212 122.397 62.3469C124.447 60.9154 127.076 60.4211 129.525 60.8828C133.543 61.6411 136.098 64.2847 138.335 67.5176C139.966 70.9555 141.227 74.9529 140.908 78.8055C139.911 83.2887 138.937 87.0116 134.819 89.641C132.094 91.3798 128.955 91.6007 125.857 90.9417C124.783 92.8877 123.314 94.5256 121.115 95.1868C119.031 95.813 116.961 95.3475 114.962 94.6631C116.866 94.822 118.919 95.1195 120.626 94.0393C120.643 94.0293 120.655 94.0149 120.67 94.0026C120.528 93.6635 120.446 93.3977 120.556 93.0291C120.97 91.6442 122.073 90.4011 122.574 88.5082C122.279 87.117 121.931 85.6657 120.736 84.7525C118.907 83.3566 116.305 84.4819 114.281 84.6583C113.582 84.7193 112.751 84.6476 112.201 84.1797L111.84 84.303L111.664 84.1539C111.718 83.7565 111.909 83.5081 112.166 83.2126C113.914 81.2027 116.289 80.3693 118.862 80.1179Z" fill="#020203"/>
<path d="M112.202 84.1799C114.766 82.6826 117.116 81.2394 120.239 82.0349C121.677 82.4011 122.902 83.2715 123.641 84.5683C124.513 86.0995 124.616 88.0624 124.083 89.7243C123.55 91.3861 122.206 93.1368 120.671 94.0028C120.529 93.6636 120.447 93.3979 120.557 93.0293C120.972 91.6444 122.074 90.4013 122.575 88.5084C122.281 87.1172 121.933 85.6659 120.737 84.7527C118.909 83.3568 116.307 84.482 114.282 84.6585C113.583 84.7193 112.752 84.6478 112.202 84.1799Z" fill="url(#paint6_linear_264_2501)"/>
<path d="M127.047 62.725C128.728 62.5058 130.636 63.074 132.104 63.8762C135.65 65.8144 137.913 69.7188 139.009 73.4936C140.115 77.3021 139.81 81.4775 137.833 84.957C136.243 87.7553 133.883 89.2338 130.842 90.0777C129.697 90.2682 128.426 90.3674 127.279 90.1356C127.078 90.0949 126.736 89.9976 126.605 89.829C126.247 89.3665 126.976 85.6578 125.423 83.4343C124.026 81.4346 121.652 80.5685 119.36 80.1253C119.054 79.4815 118.799 78.8182 118.594 78.1354C118.39 77.4526 118.239 76.7581 118.141 76.052C117.662 72.6639 118.451 68.881 120.567 66.1464C122.231 63.9951 124.406 63.0209 127.047 62.725Z" fill="#F7F6F5"/>
<path d="M127.46 70.3997C128.325 70.4004 129.142 70.5374 129.937 70.8953C131.2 71.4643 132.115 72.5776 132.56 73.8762C133.214 75.7814 133.021 78.2059 132.073 79.9841C131.345 81.3502 130.356 82.0265 128.892 82.4337C127.926 82.3755 127.058 82.2947 126.203 81.802C124.621 80.8905 123.635 79.2966 123.225 77.5449C122.843 75.9119 122.931 74.118 123.846 72.6711C124.719 71.2894 125.911 70.7259 127.46 70.3997Z" fill="#020203"/>
<path d="M124.874 73.9612C125.097 73.5321 125.353 73.0857 125.655 72.7058C126.293 71.9005 127.043 71.7186 128.025 71.633C129.268 71.9436 130.351 72.2849 131.034 73.4688C131.28 73.8942 131.394 74.3648 131.51 74.8382C131.595 75.8093 131.556 76.8691 131.349 77.8241C131.129 78.8415 130.601 79.8489 129.692 80.4073C129.61 80.4573 129.526 80.5033 129.44 80.545C129.354 80.5866 129.266 80.6238 129.176 80.6567C129.086 80.6897 128.995 80.7179 128.902 80.7416C128.809 80.7653 128.715 80.7844 128.621 80.7988C128.526 80.8132 128.431 80.8228 128.335 80.8276C128.24 80.8323 128.144 80.8325 128.049 80.8279C127.953 80.8232 127.858 80.8137 127.763 80.7995C127.669 80.7853 127.575 80.7665 127.482 80.743C126.481 80.4968 125.676 79.7668 125.194 78.8717C124.367 77.3316 124.419 75.5976 124.874 73.9612Z" fill="#3A6D79"/>
<path d="M124.873 73.9612C125.096 73.5321 125.352 73.0857 125.653 72.7058C126.292 71.9005 127.042 71.7186 128.023 71.633C127.479 72.4629 127.172 73.3553 127.37 74.3576C127.461 74.8201 127.622 75.1325 127.963 75.4634C127.756 75.6854 127.62 75.9047 127.474 76.1681C127.361 76.3726 127.326 76.4791 127.136 76.6176C126.241 76.0138 125.349 74.9215 124.873 73.9612Z" fill="#408BB4"/>
<path d="M128.025 71.633C129.269 71.9436 130.352 72.2849 131.035 73.4688C131.281 73.8942 131.395 74.3648 131.51 74.8382C130.973 75.415 130.622 75.8182 129.804 75.925C129.268 75.9952 128.445 75.6882 127.965 75.4632C127.624 75.1323 127.463 74.8199 127.372 74.3574C127.174 73.3553 127.481 72.4629 128.025 71.633Z" fill="#60B5DC"/>
<path d="M93.4702 62.7085C96.3055 62.4267 99.2651 63.1103 101.614 64.7361C105.361 67.3296 107.724 72.0088 108.489 76.4143C109.284 80.9877 108.506 85.7118 105.769 89.5212C103.736 92.351 101.107 93.8972 97.6993 94.4741C94.8068 94.7731 91.9468 94.0863 89.5467 92.4312C85.7738 89.8295 83.5588 85.5793 82.7742 81.1443C81.9709 76.6041 82.6175 71.6635 85.3129 67.8377C87.3615 64.9289 89.9841 63.2966 93.4702 62.7085Z" fill="#020203"/>
<path d="M93.6418 64.7521C96.2791 64.573 98.6647 64.8679 100.949 66.2853C104.34 68.3899 106.62 72.2779 107.506 76.1014C108.468 80.2525 108.028 84.6155 105.735 88.264C104.047 90.9497 101.727 92.5864 98.641 93.2851C95.7284 93.6761 93.0815 93.1543 90.6664 91.4261C87.1817 88.9326 85.0904 84.6634 84.4105 80.5111C83.7719 76.615 84.4166 72.2033 86.7994 68.9696C86.9004 68.8305 87.0048 68.6941 87.1124 68.5602C87.2199 68.4264 87.3308 68.2952 87.445 68.1667C87.559 68.0381 87.6759 67.9125 87.7961 67.7899C87.9162 67.667 88.0393 67.5474 88.1653 67.4306C88.2914 67.3136 88.4201 67.1999 88.5516 67.0895C88.6832 66.9791 88.8174 66.872 88.9542 66.7678C89.091 66.664 89.2302 66.5635 89.3721 66.4663C89.5136 66.369 89.6576 66.2753 89.8041 66.185C89.9502 66.095 90.0985 66.0084 90.249 65.9254C90.3995 65.8425 90.5519 65.7634 90.7063 65.688C90.8606 65.6124 91.0167 65.5406 91.1745 65.4728C91.3324 65.4049 91.4918 65.341 91.6528 65.2809C91.8138 65.2209 91.976 65.1646 92.1395 65.1123C92.3033 65.0602 92.4682 65.012 92.6341 64.9678C92.8002 64.9238 92.9671 64.8836 93.1352 64.8475C93.3037 64.8119 93.4724 64.78 93.6418 64.7521Z" fill="#F7F6F5"/>
<path d="M98.3475 73.3143C99.2323 73.2923 99.9526 73.3595 100.754 73.7638C102.09 74.4379 102.933 75.7019 103.345 77.1108C103.888 78.963 103.843 81.2499 102.851 82.9482C102.101 84.2327 101.191 84.7095 99.8016 85.1035C98.9438 84.9723 98.1056 84.8034 97.3582 84.3379C95.812 83.375 94.875 81.6705 94.5483 79.9122C94.2526 78.3231 94.4164 76.5182 95.3702 75.1656C96.121 74.0996 97.0884 73.5512 98.3475 73.3143Z" fill="#020203"/>
<path d="M102.494 78.4846C102.478 79.8384 102.374 81.4781 101.4 82.5242C100.887 83.0763 100.068 83.3954 99.3189 83.3964C98.5145 83.3971 97.8021 83.0083 97.2523 82.4407C96.1195 81.2702 95.6403 79.448 95.7443 77.8534C95.8115 76.8265 96.1646 75.7573 96.9847 75.086C97.8353 74.3895 98.6727 74.3941 99.7161 74.5119C100.789 75.0155 101.657 75.4766 102.089 76.6557C102.303 77.2415 102.397 77.8707 102.494 78.4846Z" fill="#3A6D79"/>
<path d="M102.494 78.4846C101.126 78.6998 99.7542 78.8604 98.4593 78.2466C97.889 77.976 97.2302 77.467 97.062 76.8216C96.9579 76.4229 96.9901 76.0608 97.2302 75.7165C97.8074 74.8899 98.7854 74.6703 99.7161 74.5117C100.789 75.0153 101.657 75.4764 102.089 76.6555C102.303 77.2414 102.397 77.8707 102.494 78.4846Z" fill="#60B5DC"/>
<path d="M99.0931 100.044C102.498 101.515 105.866 102.571 109.496 103.307C116.437 104.714 123.847 104.734 130.609 102.447C131.865 102.022 133.331 101.549 134.419 100.773C135.001 100.358 134.994 100.159 135.114 99.4968L135.269 99.455C135.446 99.8137 135.438 99.9147 135.37 100.302C135.134 101.648 134.48 103.018 134.145 104.372C132.192 112.247 129.286 124.644 122.097 129.273C118.314 131.71 113.502 132.291 109.152 131.352C104.2 130.283 99.6379 127.281 96.8924 122.999C92.9915 116.915 92.1251 108.987 93.6769 102.023C93.944 100.822 94.5068 98.4418 95.5516 97.7733C95.6145 97.7945 95.6759 97.8208 95.7403 97.8369C96.0968 97.9264 96.3743 97.8571 96.7309 97.8006L97.0313 98.0497C96.8443 98.2433 96.7758 98.2624 96.5292 98.3459C96.9511 99.0629 98.3444 99.6983 99.0931 100.044Z" fill="#020203"/>
<path d="M118.15 126.728L119.736 129.177C118.204 129.818 116.726 130.234 115.083 130.475C116.08 129.205 117.172 128.017 118.15 126.728Z" fill="#C57E71"/>
<path d="M115.617 123.28C116.537 124.388 117.352 125.531 118.152 126.728C117.174 128.017 116.083 129.205 115.085 130.475C110.723 131.16 107.16 130.032 103.305 128.049C103.482 127.802 103.67 127.564 103.869 127.334C106.485 124.37 111.868 123.549 115.617 123.28Z" fill="url(#paint7_linear_264_2501)"/>
<path d="M95.0967 115.576C96.8351 114.237 99.2351 113.986 101.357 114.269C106.951 115.017 112.17 119.002 115.616 123.28C111.867 123.549 106.484 124.37 103.868 127.334C103.669 127.564 103.481 127.802 103.303 128.049C103.215 128.005 103.124 127.965 103.037 127.917C98.1824 125.272 96.4408 120.632 95.0967 115.576Z" fill="#C7433A"/>
<path d="M96.5654 100.302C96.8824 100.48 97.2016 100.654 97.5229 100.825C97.844 100.995 98.1672 101.161 98.4926 101.323C98.8179 101.486 99.1453 101.644 99.4747 101.799C99.8041 101.953 100.135 102.103 100.468 102.249C100.801 102.395 101.136 102.537 101.473 102.675C101.809 102.812 102.147 102.946 102.487 103.075C102.827 103.205 103.168 103.33 103.511 103.451C103.854 103.572 104.198 103.689 104.544 103.801C104.89 103.914 105.237 104.022 105.586 104.126C105.934 104.23 106.284 104.329 106.635 104.424C106.986 104.519 107.338 104.61 107.691 104.697C108.044 104.783 108.398 104.866 108.753 104.943C109.109 105.021 109.465 105.094 109.822 105.163C110.179 105.232 110.537 105.297 110.895 105.357C111.254 105.417 111.613 105.472 111.973 105.524C112.333 105.575 112.694 105.622 113.055 105.664C113.416 105.706 113.778 105.744 114.14 105.777C114.502 105.81 114.865 105.839 115.228 105.864C115.59 105.888 115.953 105.908 116.317 105.923C116.68 105.938 117.043 105.949 117.407 105.956C117.771 105.962 118.134 105.964 118.498 105.962C118.862 105.959 119.225 105.952 119.588 105.94C119.952 105.929 120.315 105.913 120.678 105.892C121.041 105.871 121.404 105.846 121.766 105.817C122.129 105.787 122.491 105.753 122.852 105.714C123.214 105.676 123.575 105.633 123.936 105.586C124.296 105.538 124.656 105.486 125.015 105.43C125.375 105.373 125.733 105.313 126.091 105.247C126.448 105.182 126.805 105.112 127.161 105.039C127.517 104.965 127.872 104.886 128.226 104.803C128.58 104.72 128.933 104.633 129.285 104.542C129.637 104.45 129.988 104.354 130.337 104.254L130.545 104.194C130.596 105.604 130.864 107.483 130.372 108.808C124.59 111.854 114.129 111.378 107.751 110.108C104.491 109.459 100.392 108.731 98.4238 105.791C97.6749 103.991 97.0018 102.205 96.5654 100.302Z" fill="#F7F6F5"/>
<path d="M95.096 115.576C95.0186 114.859 94.7822 114.161 94.6766 113.444C94.5219 112.329 94.4288 111.209 94.397 110.084C94.3653 108.959 94.3951 107.835 94.4865 106.713C94.6058 105.245 94.5598 102.513 95.7173 101.529C96.1719 101.856 96.7241 103.871 97.0694 104.506C97.427 105.164 97.6904 105.571 98.4221 105.791C100.39 108.731 104.489 109.459 107.75 110.108C114.127 111.377 124.589 111.853 130.37 108.808C130.634 109.465 130.969 110.178 131.032 110.889C131.259 113.438 129.695 116.666 128.706 118.977C127.052 122.839 124.984 127.328 120.829 129.081C120.416 129.255 120.17 129.254 119.737 129.177L118.151 126.728C117.35 125.531 116.535 124.387 115.615 123.279C112.17 119.001 106.951 115.017 101.356 114.269C99.2343 113.986 96.8344 114.237 95.096 115.576Z" fill="#371818"/>
<defs>
<linearGradient id="paint0_linear_264_2501" x1="74.8015" y1="123.572" x2="76.522" y2="121.374" gradientUnits="userSpaceOnUse">
<stop stop-color="#DB6232"/>
<stop offset="1" stop-color="#F08045"/>
</linearGradient>
<linearGradient id="paint1_linear_264_2501" x1="14.3522" y1="53.5529" x2="10.0269" y2="45.6826" gradientUnits="userSpaceOnUse">
<stop stop-color="#FFDDBD"/>
<stop offset="1" stop-color="#FFF3D4"/>
</linearGradient>
<linearGradient id="paint2_linear_264_2501" x1="77.0721" y1="25.8178" x2="81.8396" y2="29.2974" gradientUnits="userSpaceOnUse">
<stop stop-color="#FFBE5B"/>
<stop offset="1" stop-color="#FDAE74"/>
</linearGradient>
<linearGradient id="paint3_linear_264_2501" x1="194.807" y1="49.1828" x2="203.216" y2="43.4621" gradientUnits="userSpaceOnUse">
<stop stop-color="#FFD9B7"/>
<stop offset="1" stop-color="#FEF8E7"/>
</linearGradient>
<linearGradient id="paint4_linear_264_2501" x1="59.8104" y1="243.734" x2="60.8237" y2="215.508" gradientUnits="userSpaceOnUse">
<stop stop-color="#B11618"/>
<stop offset="1" stop-color="#F8493B"/>
</linearGradient>
<linearGradient id="paint5_linear_264_2501" x1="135.354" y1="18.5492" x2="70.1217" y2="100.651" gradientUnits="userSpaceOnUse">
<stop stop-color="#DB5D23"/>
<stop offset="1" stop-color="#DC7D31"/>
</linearGradient>
<linearGradient id="paint6_linear_264_2501" x1="116.282" y1="91.4523" x2="120.109" y2="82.2546" gradientUnits="userSpaceOnUse">
<stop stop-color="#FCECDF"/>
<stop offset="1" stop-color="white"/>
</linearGradient>
<linearGradient id="paint7_linear_264_2501" x1="109.168" y1="124.171" x2="112.583" y2="131.213" gradientUnits="userSpaceOnUse">
<stop stop-color="#D96965"/>
<stop offset="1" stop-color="#FF9991"/>
</linearGradient>
</defs>
</svg>
