<svg width="154" height="145" viewBox="0 0 154 145" fill="none" xmlns="http://www.w3.org/2000/svg">
<path d="M153.999 14.7546V14.7507C153.999 14.7502 153.999 14.7497 153.999 14.7492L153.999 14.7349H153.998C153.996 14.5526 153.957 14.3695 153.889 14.207C153.751 13.8794 153.525 13.6487 153.322 13.4888C153.129 13.3375 152.944 13.2374 152.77 13.1553C152.444 13.0047 152.143 12.915 151.835 12.8361C151.299 12.7022 150.739 12.6144 150.168 12.5422C149.315 12.4358 148.448 12.373 147.783 12.3344C147.314 12.3073 146.95 12.293 146.77 12.2867L146.95 10.8955C147.084 9.85987 146.515 8.8469 145.465 8.25243L141.893 6.22905L141.898 6.18896H143.783C145.872 6.18896 147.581 4.79649 147.581 3.09463C147.581 1.39277 145.872 0.000305176 143.783 0.000305176H140.196H13.5187H8.74264C6.65373 0.000305176 4.94459 1.39277 4.94459 3.09463C4.94459 4.79649 6.65373 6.18896 8.74264 6.18896H10.5988L6.95578 8.25252C5.90628 8.84699 5.33736 9.85995 5.47137 10.8956L5.93104 14.4799C5.89556 14.483 5.58093 14.5113 5.11325 14.583C4.7623 14.637 4.32531 14.7152 3.84952 14.8299C3.13525 15.0062 2.33462 15.2459 1.56958 15.693C1.1895 15.9191 0.810884 16.2058 0.50676 16.5973C0.202429 16.9844 -0.00399898 17.4917 5.87704e-05 18.0154C5.87704e-05 18.0848 0.00339004 18.1535 0.00973678 18.2215C1.35327 32.7229 6.77901 46.2144 16.3219 56.9521L24.1366 126.626C24.2163 127.228 24.3133 127.806 24.4257 128.361C24.4817 128.639 24.5419 128.911 24.6054 129.177C25.4324 132.64 26.8685 135.148 28.391 136.861C28.5081 136.993 28.6257 137.12 28.7437 137.243C29.155 137.67 29.5692 138.038 29.977 138.355C30.0991 138.451 30.2204 138.541 30.3411 138.627C30.6714 138.861 30.9944 139.061 31.3058 139.227C31.4809 139.32 31.6533 139.406 31.8197 139.478C32.4409 139.749 32.9948 139.876 33.43 139.876V141.627C33.43 143.213 35.0229 144.511 36.9698 144.511H112.602C114.549 144.511 116.142 143.213 116.142 141.627V139.876C119.518 139.876 127.325 136.426 128.39 126.626L136.182 57.1477C137.938 55.2701 139.576 53.3094 141.086 51.2708C148.914 40.7079 153.408 28.1167 153.998 14.8119L154 14.7733L153.999 14.7546ZM3.56162 18.0967C3.63362 18.0442 3.78584 17.9532 3.99892 17.8698C4.41864 17.6977 5.03261 17.5513 5.51465 17.4686C5.75635 17.4262 5.96672 17.397 6.11093 17.3792C6.18303 17.3702 6.23859 17.3641 6.27335 17.3605L6.30737 17.3572L6.31195 17.3922C6.3904 17.9985 6.70503 18.5686 7.20996 19.0186L12.607 23.8305L15.6356 50.8331C8.74847 41.4266 4.69394 30.1655 3.56162 18.0967ZM136.832 51.3545L139.93 23.7268L145.211 19.0186C145.716 18.5685 146.031 17.9985 146.109 17.3922L146.522 15.1745L146.533 15.1748C146.667 15.1784 148.041 15.2252 149.299 15.3638C149.612 15.398 149.916 15.4378 150.184 15.4813C150.261 15.4939 150.332 15.5069 150.402 15.5198C149.652 28.7351 144.902 41.1458 136.832 51.3545Z" fill="#3C89E5"/>
<path d="M6.23047 16.751L6.31412 17.3564L6.30872 17.3569L6.30653 17.3572L6.31111 17.3922C6.38956 17.9985 6.70419 18.5686 7.20912 19.0186L12.6061 23.8305L10.9669 9.21557H47.9677H141.557L139.93 23.7267L145.21 19.0185C145.715 18.5684 146.03 17.9984 146.108 17.3921L146.582 13.7287L146.643 12.2824C146.648 12.2825 146.694 12.2839 146.769 12.2865L146.949 10.8953C147.083 9.85963 146.514 8.84667 145.465 8.2522L141.892 6.22881L141.897 6.18872H10.6273H10.598L6.95494 8.25228C5.90544 8.84675 5.33652 9.85972 5.47053 10.8954L6.12123 15.925L6.31059 17.3568L6.23047 16.751Z" fill="#1C5497"/>
<path d="M33.4297 139.876V141.627C33.4297 143.213 35.0226 144.511 36.9695 144.511H112.602C114.549 144.511 116.142 143.213 116.142 141.627V139.876H66.0423H33.4297Z" fill="#1C5497"/>
<path d="M10.9668 9.21561L12.606 23.8304L15.6347 50.833C15.7901 51.0454 15.9391 51.262 16.0975 51.4724C23.294 61.0312 33.4472 68.6177 46.6014 73.1827C49.1855 74.0787 51.89 74.8548 54.7091 75.5087C51.0989 47.3445 48.6524 20.1369 47.9675 9.21561H10.9668Z" fill="#2369BD"/>
<path d="M55.1125 78.5976C51.657 77.8534 48.354 76.9346 45.2134 75.8452C35.9719 72.641 28.11 67.9996 21.6703 62.2938C19.7626 60.6032 17.9828 58.8181 16.3242 56.9519L24.1389 126.626C24.2186 127.227 24.3156 127.806 24.428 128.361C24.484 128.639 24.5442 128.911 24.6078 129.177C25.4347 132.639 26.8708 135.147 28.3933 136.861C28.5104 136.993 28.6281 137.12 28.746 137.243C29.1573 137.67 29.5715 138.037 29.9793 138.355C30.1014 138.45 30.2227 138.541 30.3434 138.627C30.6737 138.861 30.9967 139.061 31.3082 139.227C31.4833 139.32 31.6557 139.405 31.822 139.478C32.4432 139.748 32.9971 139.876 33.4323 139.876H66.045C61.8618 124.657 58.1111 101.497 55.1125 78.5976Z" fill="#2369BD"/>
<path d="M116.189 122.654C120.696 122.989 124.72 120.258 125.131 116.586L131.25 61.9151C126.089 66.4299 120.13 70.2969 113.446 73.3327L108.741 115.369C108.33 119.041 111.682 122.319 116.189 122.654Z" fill="#A4CDFF"/>
<path d="M127.493 21.6489C122.986 21.3141 118.962 24.0446 118.551 27.7168L113.842 69.796C119.706 66.8994 124.957 63.3157 129.528 59.1711C130.305 58.4668 131.062 57.7458 131.799 57.0098L134.941 28.9343C135.352 25.2621 132 21.9837 127.493 21.6489Z" fill="#A4CDFF"/>
<path d="M153.999 14.7546V14.7507C153.999 14.7502 153.999 14.7496 153.999 14.7491L153.999 14.7348H153.998C153.996 14.5525 153.957 14.3694 153.889 14.207C153.751 13.8793 153.525 13.6486 153.322 13.4887C153.129 13.3374 152.944 13.2373 152.77 13.1553C152.444 13.0046 152.143 12.915 151.835 12.836C151.299 12.7021 150.739 12.6143 150.168 12.5421C149.315 12.4358 148.448 12.3729 147.783 12.3343C147.314 12.3072 146.95 12.2929 146.77 12.2867C146.695 12.284 146.649 12.2827 146.644 12.2826L146.583 13.7289L146.522 15.1746L146.533 15.1749C146.667 15.1785 148.041 15.2253 149.299 15.3639C149.612 15.3981 149.916 15.4379 150.184 15.4814C150.261 15.494 150.332 15.507 150.402 15.5199C149.652 28.7352 144.901 41.146 136.832 51.3546C135.274 53.3246 133.596 55.2141 131.797 57.0099C131.059 57.7458 130.302 58.4668 129.525 59.1712C124.954 63.3157 119.703 66.8994 113.839 69.796C111.557 70.9232 109.185 71.9498 106.72 72.8597C97.9183 76.1071 87.9685 77.9232 76.9997 77.924C68.8837 77.9235 61.4604 77.0746 54.7099 75.5089C51.8908 74.855 49.1864 74.0789 46.6022 73.1828C33.4481 68.6178 23.295 61.0313 16.0983 51.4726C15.94 51.2621 15.791 51.0455 15.6355 50.8332C8.74847 41.4265 4.69394 30.1654 3.56162 18.0966C3.63362 18.0441 3.78584 17.9532 3.99892 17.8697C4.41864 17.6976 5.03261 17.5512 5.51465 17.4685C5.75635 17.4261 5.96672 17.3969 6.11093 17.3791C6.18303 17.3701 6.23859 17.364 6.27335 17.3605L6.30737 17.3571L6.30956 17.3568L6.31496 17.3563L6.23131 16.7509L6.31143 17.3566L6.12207 15.9249L5.93104 14.4796C5.89556 14.4827 5.58093 14.5109 5.11325 14.5827C4.7623 14.6367 4.32531 14.7149 3.84952 14.8296C3.13525 15.0059 2.33462 15.2456 1.56958 15.6927C1.1895 15.9187 0.810884 16.2055 0.50676 16.597C0.202429 16.9841 -0.00399898 17.4913 5.87704e-05 18.015C5.87704e-05 18.0845 0.00339004 18.1532 0.00973678 18.2212C1.35327 32.7226 6.77901 46.2141 16.3219 56.9518C17.9805 58.818 19.7603 60.6031 21.6679 62.2937C28.1076 67.9996 35.9694 72.6409 45.2111 75.8451C48.3517 76.9345 51.6546 77.8533 55.1102 78.5975C61.8226 80.0433 69.1216 80.8179 76.9998 80.8176C88.4506 80.8182 98.9202 78.9156 108.185 75.4955C109.985 74.8314 111.737 74.1078 113.444 73.3326C120.128 70.2969 126.088 66.4298 131.248 61.9151C132.984 60.3963 134.631 58.8064 136.182 57.1474C137.937 55.2699 139.576 53.3091 141.086 51.2706C148.913 40.7077 153.408 28.1164 153.998 14.8117L154 14.773L153.999 14.7546Z" fill="#1C5497"/>
<path d="M11.6191 1.54716C11.6191 2.39814 12.4737 3.09433 13.5182 3.09433H140.196C141.24 3.09433 142.095 2.39814 142.095 1.54716C142.095 0.696274 141.24 0 140.196 0H13.5182C12.4738 8.47668e-05 11.6191 0.696274 11.6191 1.54716Z" fill="#A4CDFF"/>
</svg>
