<svg width="205" height="355" viewBox="0 0 205 355" fill="none" xmlns="http://www.w3.org/2000/svg">
<path d="M186.975 83.0237C187.236 83.4694 187.496 83.9151 187.717 84.8504C187.917 89.703 188.156 94.0659 188.396 98.4288C188.396 98.4288 188.364 98.3773 188.202 98.4811C187.934 99.1627 187.828 99.7406 187.722 100.319C185.974 103.642 184.226 106.966 182.104 110.44C181.602 110.79 181.475 110.99 181.348 111.19C181.348 111.19 181.368 111.13 181.161 111.136C180.187 111.966 178.998 112.672 178.729 113.635C177.887 116.647 177.392 119.756 176.763 122.828C175.331 124.969 173.899 127.109 172.258 129.546C171.948 130.008 171.851 130.177 171.759 130.348C171.759 130.348 171.77 130.277 171.58 130.291C169.624 131.784 167.963 133.414 166.073 134.709C161.858 137.597 157.528 140.318 153.245 143.107C153.245 143.107 153.251 143.045 153.067 143.057C152.383 143.441 151.883 143.811 151.384 144.182C149.245 144.438 147.106 144.694 144.403 144.938C140.367 145.143 136.895 145.361 133.142 145.58C125.127 144.352 117.395 143.12 109.31 141.833C116.227 147.636 123.947 150.438 132.866 150.307C132.869 153.483 131.113 155.271 128.72 156.435C122.496 159.464 116.407 158.926 110.562 155.357C107.691 153.603 106.388 151.015 106.604 147.596C106.67 146.556 106.22 145.484 106.006 144.427C106.307 143.085 106.608 141.744 106.768 141.034C102.112 137.933 97.9159 135.138 93.4373 132.074C92.9462 131.725 92.7381 131.645 92.5299 131.564C92.5299 131.564 92.6004 131.565 92.5442 131.378C91.7017 130.858 90.8724 130.171 90.1376 130.261C88.1108 130.507 86.0906 131.553 84.128 131.417C80.7352 131.182 77.3877 130.293 74.0213 129.678C74.0213 129.678 74.0741 129.672 74.0795 129.469C72.1434 128.122 70.2018 126.978 68.2602 125.834C68.2602 125.834 68.3246 125.829 68.3272 125.631C66.665 123.292 64.5756 121.359 63.4139 118.974C59.7281 111.407 57.5937 103.692 63.5729 96.1054C63.8618 95.7388 63.8008 95.0965 64.1361 94.5543C73.3181 89.5561 80.6264 91.6527 86.4474 100.353C88.9322 92.6018 89.1107 85.367 88.4115 78.0041C87.7256 70.7824 87.3496 63.5312 86.8133 55.9492C93.3598 59.7485 99.4874 63.03 106.883 62.7464C113.378 62.4972 115.757 59.6544 114.25 53.4756C127.262 55.7789 138.98 54.486 146.527 41.7534C152.441 52.2436 161.118 57.5012 174.017 56.4015C175.749 69.3795 177.482 82.3618 179.214 95.344C179.459 95.3882 179.704 95.4325 179.948 95.4767C181.461 90.4494 182.974 85.4221 184.655 80.4615C185.392 80.9263 185.962 81.3243 186.532 81.7223C186.532 81.7223 186.48 81.7302 186.454 81.8942C186.611 82.38 186.793 82.7018 186.975 83.0237ZM129.418 128.274C136.736 127.027 143.549 127.634 149.164 133.275C150.177 134.293 151.606 134.986 152.956 135.564C155.753 136.762 158.587 135.447 159.651 132.622C161.276 128.312 159.345 124.051 154.285 120.168C152.594 113.989 149.518 111.378 144.225 111.627C137.577 111.94 129.014 119.219 127.894 125.677C127.771 126.39 128.604 127.268 129.418 128.274ZM80.4213 107.118C79.0144 105.709 77.7029 103.335 76.1717 103.184C74.86 103.054 72.6587 105.193 71.9591 106.809C69.4172 112.68 73.2794 119.676 79.4887 121.108C82.5125 121.806 84.2138 120.573 83.6253 117.55C82.9641 114.154 81.65 110.884 80.4213 107.118ZM104.178 93.5165C103.276 94.3639 102.374 95.2112 101.472 96.0586C102.758 96.3377 104.037 96.659 105.333 96.8701C105.717 96.9326 106.146 96.6448 106.564 96.5851C110.292 96.0526 114.014 95.6154 117.622 97.4863C114.345 98.9016 111.223 100.086 108.288 101.624C107.482 102.047 107.233 103.531 106.729 104.528C107.843 104.547 109.018 104.805 110.062 104.544C114.432 103.45 118.765 102.205 123.109 101.004C124.211 100.7 125.302 100.357 126.398 100.032C125.727 99.0448 125.257 97.7877 124.353 97.115C118.43 92.709 111.762 91.8652 104.178 93.5165ZM152.534 92.9775C152.216 94.3242 151.898 95.6709 151.58 97.0176C152.758 96.9124 153.94 96.69 155.114 96.7244C158.461 96.8225 161.803 97.0772 165.149 97.1546C166.131 97.1773 167.121 96.8133 168.107 96.6266C167.46 95.7195 166.983 94.2721 166.135 94.0057C163.498 93.1772 160.721 92.7966 157.67 92.1755C160.667 89.5189 164.007 88.748 167.712 88.7138C168.585 88.7058 169.448 87.7105 170.316 87.1694C169.5 86.5287 168.758 85.7331 167.843 85.3022C167.24 85.0183 166.384 85.2025 165.651 85.2746C160.287 85.8024 156.015 88.2709 152.534 92.9775ZM116.144 69.0572C112.935 75.4889 107.38 78.4896 100.621 79.8828C99.7842 80.0554 99.1505 81.2146 98.4227 81.9166C99.2563 82.3755 100.154 83.3186 100.914 83.2182C108.55 82.2096 114.733 78.7534 118.662 71.9185C119.116 71.1287 119.177 69.8873 118.905 69.0167C118.796 68.6701 117.286 68.762 116.144 69.0572ZM157.449 72.2323C160.577 72.5292 163.705 73.0154 166.833 73.0082C167.779 73.006 168.722 71.6376 169.667 70.895C168.61 70.5082 167.527 69.7301 166.501 69.8003C161.162 70.1655 156.408 69.1585 152.581 65.0601C152.09 64.5344 150.862 64.6966 149.975 64.5401C150.075 65.4893 149.811 66.8671 150.337 67.3122C152.413 69.0689 154.736 70.5329 157.449 72.2323ZM137.001 102.921C136.925 103.778 136.85 104.634 136.774 105.49C139.512 101.256 140.954 101.056 145.124 104.395C144.5 100.298 141.324 99.544 137.001 102.921Z" fill="#FDC09F"/>
<path d="M105.734 144.401C106.22 145.484 106.67 146.556 106.605 147.596C106.389 151.015 107.691 153.603 110.563 155.357C116.407 158.926 122.496 159.464 128.72 156.435C131.114 155.271 132.869 153.483 132.949 150.087C133.201 148.703 133.4 147.786 133.856 146.873C136.881 147.273 139.649 147.669 142.417 148.065C147.066 148.941 152.041 149.084 156.248 150.954C159.018 152.185 160.681 155.904 162.869 158.939C163.106 159.449 163.315 159.53 163.523 159.611C163.523 159.611 163.476 159.62 163.377 159.858C163.343 164.426 163.409 168.756 163.474 173.086C163.474 173.086 163.466 173.034 163.362 173.059C163.188 173.138 163.118 173.192 163.048 173.246C163.156 173.36 163.264 173.474 163.372 173.588C161.487 178.396 159.876 183.2 154.92 186.208C153.691 186.954 153.888 190.662 154.047 192.967C154.45 198.804 155.152 204.623 155.829 210.438C156.563 216.75 157.433 223.046 158.176 229.356C158.333 230.697 158.195 232.071 157.775 233.595C157.269 233.963 157.181 234.166 157.094 234.37C157.094 234.37 157.088 234.324 156.889 234.223C156.379 234.21 156.066 234.298 155.496 234.368C140.343 237.52 125.259 239.054 110.084 237.981C101.904 237.403 93.8169 235.449 85.7029 234.03C83.5292 233.65 81.4105 232.955 79.1415 232.201C78 231.722 76.9838 231.447 75.9675 231.171C75.9675 231.171 76.0104 231.119 76.1397 230.906C76.3843 227.634 76.4995 224.574 76.6148 221.514C77.0211 218.445 77.4273 215.376 78.0511 211.845C78.7832 207.535 79.3624 203.696 79.7924 199.84C80.1433 196.694 80.3158 193.527 80.5674 190.369C80.656 189.653 80.7447 188.937 81.1199 187.945C82.1207 187.454 82.8468 187.019 83.5474 187.057C90.5927 187.437 97.6327 188.2 104.677 188.226C109.616 188.245 114.581 187.431 119.478 186.636C120.372 186.491 121.859 184.291 121.595 183.642C119.762 179.143 117.538 174.804 115.361 170.251C113.441 170.47 111.239 170.761 109.029 170.966C101.232 171.691 93.4385 172.49 85.6263 172.984C84.3961 173.062 82.717 172.004 81.856 170.965C77.1207 165.252 72.6214 159.344 67.9312 153.592C66.7965 152.201 65.2461 151.148 63.8061 149.694C63.2459 148.997 62.7665 148.544 62.4668 147.868C63.337 147.436 64.0176 147.093 64.7195 147.042C74.863 146.302 85.0093 145.602 95.1549 144.893C98.5902 144.72 102.025 144.547 105.734 144.401ZM126.514 195.824C127.413 197.535 128.313 199.246 129.347 201.214C131.169 199.893 132.679 198.799 134.573 197.426C133.141 197.002 131.978 196.786 130.93 196.314C129.785 195.798 128.772 194.993 127.635 194.452C127.465 194.371 126.936 195.046 126.514 195.824Z" fill="#3DBC5E"/>
<path d="M184.488 80.3945C182.975 85.4218 181.462 90.4491 179.949 95.4765C179.704 95.4322 179.46 95.388 179.215 95.3438C177.483 82.3615 175.75 69.3793 174.018 56.4013C161.118 57.5009 152.442 52.2433 146.527 41.7532C138.981 54.4858 127.263 55.7786 114.251 53.4754C115.757 59.6542 113.378 62.497 106.884 62.7461C99.4881 63.0298 93.3605 59.7483 86.814 55.9489C87.3503 63.531 87.7264 70.7822 88.4122 78.0039C89.1114 85.3667 88.9329 92.6016 86.4481 100.353C80.6271 91.6525 73.3189 89.5559 64.032 94.3823C63.5619 94.2158 63.4301 94.1927 63.2984 94.1696C61.6392 88.0177 59.9801 81.8659 58.4277 75.3098C57.0856 66.9598 56.943 59.0222 58.7607 50.8813C59.6665 48.6703 60.4948 46.6742 61.3231 44.6781C61.3231 44.6781 61.3292 44.732 61.562 44.7771C62.0543 44.1408 62.3137 43.4594 62.5732 42.778C62.5732 42.778 62.6055 42.8192 62.7998 43.0062C63.2845 42.6255 63.5747 42.0577 63.865 41.4899C63.865 41.4899 63.8843 41.534 64.0312 41.7252C65.5659 40.7094 66.9538 39.5025 68.3416 38.2956C68.3416 38.2956 68.348 38.3402 68.5141 38.4991C70.028 37.9674 71.3759 37.2766 72.7238 36.5859C74.3868 35.8221 76.0499 35.0582 77.7129 34.2944C77.7133 34.0893 77.7137 33.8842 77.7142 33.6791C76.5952 33.5171 75.4762 33.3552 73.9532 32.9779C71.5858 32.2865 69.6224 31.8106 67.659 31.3347C67.659 31.3347 67.7111 31.3329 67.7888 31.1097C66.4782 28.5729 66.9514 26.4571 68.6155 24.5234C70.6412 22.1694 73.3844 21.7776 76.0926 22.5558C78.3196 23.1958 80.341 24.5511 82.4536 25.5894C82.4536 25.5894 82.4082 25.586 82.3313 25.8121C82.528 26.0899 82.8017 26.1417 83.0754 26.1933C83.0754 26.1933 83.0379 26.2228 82.9205 26.4541C83.0907 26.8608 83.3783 27.0361 83.666 27.2114C83.666 27.2114 83.6399 27.1929 83.4698 27.4016C83.6407 28.7426 83.9817 29.8749 84.3227 31.0071C84.5709 30.9851 84.8191 30.9631 85.0673 30.941C85.2326 29.9934 85.3979 29.0457 85.5632 28.0981C85.5632 28.0981 85.5836 28.1352 85.8086 28.1439C86.3006 27.2845 86.5676 26.4163 86.8346 25.5481C86.8346 25.5481 86.8634 25.5835 87.0783 25.6654C87.5696 25.0406 87.8459 24.334 88.1222 23.6274C88.1222 23.6274 88.1387 23.6663 88.3455 23.742C89.2512 22.4831 89.9501 21.1486 90.649 19.814C90.649 19.814 90.6877 19.8412 90.9247 19.9659C91.2083 19.7811 91.2548 19.4715 91.3014 19.162C91.3014 19.162 91.3346 19.1986 91.5163 19.3797C91.9939 19.0014 92.2899 18.4418 92.5858 17.8822C92.5858 17.8822 92.6075 17.921 92.8244 17.9971C93.1033 17.7963 93.1654 17.5194 93.2274 17.2424C93.2274 17.2424 93.246 17.2838 93.4366 17.3979C94.3454 16.5716 95.0637 15.6313 95.7819 14.691C95.7819 14.691 95.7916 14.7346 95.9986 14.7803C96.4971 14.3507 96.7886 13.8754 97.0801 13.4002C97.0801 13.4002 97.0801 13.4591 97.2844 13.5042C97.5648 13.2862 97.641 13.0232 97.7171 12.7601C97.7171 12.7601 97.7168 12.8161 97.9293 12.8898C98.6286 12.2617 99.1154 11.56 99.6022 10.8583C99.6022 10.8583 99.6285 10.9001 99.8002 11.0758C100.702 10.4808 101.431 9.71013 102.161 8.93946C102.161 8.93946 102.174 8.98291 102.398 9.11706C102.81 8.95379 102.998 8.65638 103.186 8.35897C103.186 8.35897 103.161 8.39481 103.392 8.44662C104.418 7.79154 105.213 7.08466 106.009 6.37777C106.009 6.37777 106.009 6.42358 106.201 6.56231C107.329 6.20468 108.252 5.67795 109.206 5.2168C116.707 1.59101 124.267 -0.871189 132.19 4.12092C132.309 4.19596 132.634 3.94401 132.863 3.84466C132.863 3.84466 132.822 3.87094 132.687 4.10057C132.875 4.39028 133.198 4.45037 133.52 4.51047C133.52 4.51047 133.47 4.51179 133.368 4.75211C133.563 5.04266 133.86 5.09288 134.157 5.1431C134.157 5.1431 134.111 5.15583 133.915 5.30365C134.503 6.20238 135.288 6.95329 136.073 7.70421C136.073 7.70421 136.027 7.70477 135.876 7.89005C136.055 8.3833 136.384 8.69127 136.713 8.99924C136.713 8.99924 136.66 8.98892 136.528 9.16042C136.781 10.3225 137.165 11.3131 137.702 12.6976C138.18 11.8573 138.415 11.4453 138.649 11.0332C139.444 10.2965 140.239 9.55981 141.394 8.63745C142.726 8.04374 143.699 7.63774 144.671 7.22733C153.249 3.60431 159.325 7.82073 158.768 17.1918C161.096 17.1918 163.427 17.0472 165.734 17.2163C177.042 18.0451 182.648 25.0666 180.704 35.854C180.704 35.854 180.696 35.7931 180.474 35.7992C179.986 36.4548 179.721 37.1042 179.456 37.7537C179.456 37.7537 179.421 37.7145 179.278 37.5434C177.957 39.9869 179.856 41.3257 181.393 42.8145C181.393 42.8145 181.346 42.8118 181.204 43.0073C181.351 43.6169 181.639 44.031 181.927 44.4452C181.927 44.4452 181.932 44.4231 181.885 44.684C182.161 45.8388 182.482 46.7328 182.803 47.6269C184.821 53.2514 186.16 58.9771 185.643 65.026C185.206 70.1444 184.869 75.2714 184.488 80.3945Z" fill="#E53904"/>
<path d="M79.2662 232.404C81.4101 232.955 83.5287 233.65 85.7025 234.03C93.8165 235.449 101.904 237.403 110.084 237.981C125.259 239.054 140.343 237.52 155.535 234.631C156.607 238.255 157.382 241.6 158.157 244.945C159.659 252.959 161.193 260.967 162.643 268.99C163.071 271.357 163.068 273.813 163.619 276.145C164.133 278.32 163.017 278.441 160.979 278.378C152.488 279.848 144.492 281.333 136.511 282.893C135.71 283.05 134.998 283.66 134.244 284.06C131.128 284.254 129.224 282.615 128.513 279.689C126.61 271.858 124.61 264.048 122.482 256.275C122.094 254.856 120.922 253.652 120.112 252.349C119.716 252.356 119.32 252.364 118.924 252.372C118.452 254.701 117.765 257.01 117.546 259.362C116.808 267.326 116.315 275.314 115.495 283.268C115.397 284.221 113.863 285.026 112.543 285.836C111.383 285.651 110.671 285.406 109.967 285.429C103.097 285.65 96.2285 285.916 89.0826 286.134C86.4731 285.881 84.1404 285.662 81.8076 285.443C81.4271 283.307 80.9148 281.182 80.7132 279.029C80.5829 277.637 81.0936 276.19 80.9924 274.791C80.7157 270.968 80.1357 267.164 79.9395 263.339C79.8347 261.295 80.2744 259.223 80.4509 256.586C80.2302 251.345 80.0269 246.683 79.8236 242.021C79.7337 241.218 79.6439 240.416 79.3761 239.201C79.2208 236.66 79.2435 234.532 79.2662 232.404Z" fill="#465A4C"/>
<path d="M134.445 284.171C134.997 283.66 135.71 283.05 136.511 282.893C144.492 281.333 152.487 279.848 160.734 278.384C158.302 280.482 160.151 283.068 160.391 285.31C161.071 291.658 162.022 297.982 163.07 304.281C163.62 307.589 164.598 310.825 165.355 314.649C165.564 317.473 165.764 319.747 166.049 322.009C166.319 324.154 167.348 325.467 169.758 325.044C170.227 325.685 170.697 326.326 170.992 327.335C170.752 328.745 170.684 329.788 170.35 330.955C167.018 331.544 163.151 330.359 162.302 335.133C158.18 334.8 154.275 334.417 150.361 334.208C148.969 334.133 147.555 334.483 146.119 334.443C146.134 334.121 146.18 333.996 146.321 333.625C146.804 330.525 147.927 327.609 145.704 324.977C143.853 317.981 141.992 310.989 140.154 303.99C138.546 297.867 136.973 291.736 135.357 285.616C135.232 285.142 134.889 284.726 134.445 284.171Z" fill="#FDC09F"/>
<path d="M89.3594 286.169C96.2286 285.916 103.097 285.65 109.968 285.429C110.671 285.406 111.383 285.651 112.324 285.921C112.086 299.445 111.617 312.82 111.131 326.785C111.131 329.515 111.146 331.655 110.902 333.871C105.852 334.435 101.063 334.923 96.1465 335.424C95.8255 332.068 93.869 331.447 91.4559 331.344C89.3845 331.256 87.3184 331.043 85.25 330.885C86.0845 329.347 86.927 327.813 87.7497 326.269C88.1162 325.582 88.4429 324.873 89.0207 323.745C88.9766 313.627 88.6555 303.939 88.4507 294.248C88.3933 291.538 86.9623 288.621 89.3594 286.169Z" fill="#FDC09F"/>
<path d="M31.2388 137.343C31.7606 138.31 32.053 139.592 32.8541 140.176C34.3047 141.233 35.9767 142.22 37.7001 142.627C45.1314 144.384 52.3275 147.26 60.4562 147.611C60.9434 147.892 61.0883 148.025 61.1725 148.371C61.1747 150.79 61.262 152.969 61.3391 155.157C61.3288 155.165 61.3097 155.183 61.0844 155.165C59.5581 154.261 58.2571 153.376 56.9562 152.491C56.6685 152.664 56.3808 152.837 56.0931 153.011C56.4408 154.541 56.5338 156.191 57.1882 157.576C58.6357 160.64 60.3654 163.571 61.9799 166.557C60.4568 166.375 58.9337 166.193 57.0074 165.787C51.5272 163.781 46.4434 162.018 41.3751 160.212C37.315 158.765 33.2738 157.265 29.2242 155.788C29.2242 155.788 29.0462 155.83 28.9259 155.553C25.5528 153.96 22.3002 152.646 19.0475 151.332C19.0475 151.332 18.8447 151.36 18.6687 151.156C18.2773 150.874 18.0619 150.796 17.8465 150.718C17.8465 150.718 17.9062 150.726 17.9018 150.526C17.4329 150.02 16.9686 149.715 16.5042 149.41C16.5042 149.41 16.2936 149.435 16.1434 149.162C15.336 148.657 14.6787 148.425 14.0215 148.192C14.0215 148.192 14.0784 148.179 14.0967 147.975C10.014 144.826 5.91292 141.881 1.13477 138.45C2.83569 137.819 4.31761 136.903 5.86038 136.785C7.93632 136.627 10.0592 137.084 12.4391 137.281C18.078 137.823 18.5843 135.404 17.6516 131.469C16.7696 127.748 14.9003 124.262 13.5627 120.608C13.5824 120.38 13.5045 120.216 13.4443 120.056C13.462 120.06 13.4505 120.094 13.4681 119.844C13.0883 118.26 12.6909 116.924 12.2935 115.589C12.039 114.919 11.7845 114.25 11.6773 113.183C12.044 111.739 12.2634 110.692 12.5526 109.313C14.2818 111.178 15.7259 112.735 17.17 114.292C18.0094 115.403 18.8487 116.514 19.7533 118.063C20.2842 119.009 20.7498 119.517 21.2153 120.024C21.2153 120.024 21.1523 120.03 21.1295 120.242C21.9935 121.585 22.8803 122.717 23.7671 123.849C23.7671 123.849 23.7108 123.856 23.6726 124.07C24.317 125.201 24.9995 126.119 25.682 127.037C25.682 127.037 25.6306 127.045 25.5917 127.232C25.8053 127.728 26.0578 128.037 26.3103 128.346C26.3103 128.346 26.247 128.331 26.2224 128.544C27.0899 130.1 27.982 131.443 28.8741 132.786C28.8741 132.786 28.8176 132.793 28.779 132.994C29.1557 133.748 29.571 134.3 29.9864 134.852C29.9864 134.852 30.0841 135.011 30.046 135.336C30.4182 136.223 30.8285 136.783 31.2388 137.343Z" fill="#FDC09F"/>
<path d="M63.8877 149.94C65.247 151.148 66.7973 152.201 67.932 153.592C72.6223 159.344 77.1215 165.252 81.8568 170.965C82.7178 172.004 84.397 173.062 85.6271 172.984C93.4394 172.49 101.233 171.691 109.03 170.966C111.24 170.761 113.442 170.47 115.362 170.251C117.539 174.804 119.763 179.144 121.596 183.642C121.86 184.291 120.373 186.491 119.479 186.636C114.582 187.431 109.616 188.245 104.677 188.226C97.6335 188.2 90.5935 187.437 83.5483 187.057C82.8477 187.019 82.1216 187.454 81.1893 187.73C79.4164 187.337 77.8143 187.002 76.3179 186.403C74.3151 185.601 72.3941 184.595 70.3583 183.195C70.0691 178.234 69.9942 173.742 69.5886 169.28C69.4058 167.269 68.8366 165.188 67.9654 163.367C65.9133 159.079 63.3127 155.009 63.8877 149.94Z" fill="#FDC09F"/>
<path d="M146.15 334.64C147.554 334.483 148.968 334.133 150.36 334.208C154.274 334.417 158.179 334.8 162.301 335.133C163.15 330.359 167.017 331.544 170.593 331.043C173.617 331.494 176.261 334.541 175.117 336.017C173.61 337.964 174.846 338.512 175.795 339.372C176.874 339.023 177.851 338.707 178.828 338.391C180.943 339.033 183.057 339.675 185.514 340.563C190.308 344.022 194.759 347.235 199.064 350.647C197.38 351.154 195.828 351.777 194.305 351.714C186.389 351.387 178.454 351.149 170.576 350.366C163.556 349.669 156.607 348.269 149.617 347.245C147.03 346.866 145.772 345.78 146.081 342.904C146.374 340.178 146.148 337.397 146.15 334.64Z" fill="#EE5220"/>
<path d="M85.1022 330.965C87.3186 331.043 89.3847 331.256 91.4561 331.344C93.8692 331.447 95.8257 332.069 96.1467 335.424C101.063 334.923 105.853 334.435 111.17 333.907C112.129 334.527 112.91 335.176 112.932 335.848C113.044 339.406 112.965 342.969 112.694 346.558C106.927 347.507 101.421 348.45 95.9075 349.348C84.9357 351.134 73.9153 352.337 62.777 351.72C61.6578 351.658 60.5749 350.941 59.5117 350.314C60.7724 348.722 61.9967 347.344 63.2209 345.967C63.2209 345.967 63.242 346.011 63.4263 346.143C64.7598 345.32 65.9089 344.365 67.058 343.41C67.058 343.41 67.0708 343.455 67.2661 343.582C70.1041 343.017 72.0555 339.977 75.5434 341.469C77.2411 342.213 78.7146 342.883 80.1881 343.554C80.2588 343.396 80.3294 343.239 80.4001 343.081C79.3628 342.104 78.3255 341.126 77.2882 340.148C77.4594 339.88 77.6307 339.612 77.8019 339.344C79.8768 340.155 81.9517 340.966 84.0266 341.777C84.1971 341.379 84.3676 340.98 84.538 340.581C82.4882 339.676 80.4384 338.771 78.3886 337.866C78.5105 337.777 78.646 337.744 79.1871 337.832C82.1782 338.453 84.7773 339.01 87.4317 339.58C87.0964 337.208 82.7822 337.134 83.6856 333.845C83.6856 333.845 83.6933 333.906 83.7428 333.838C83.8087 333.594 83.8251 333.418 83.8414 333.241C84.2124 332.509 84.5833 331.777 85.1022 330.965Z" fill="#EE5220"/>
<path d="M63.8064 149.695C63.3123 155.009 65.9128 159.079 67.9649 163.367C68.8362 165.188 69.4053 167.269 69.5881 169.28C69.9937 173.742 70.0686 178.234 70.2515 182.98C69.2309 182.765 68.237 182.284 67.0874 181.392C65.2629 180.259 63.5943 179.539 61.9257 178.819C61.9257 178.819 61.9707 178.786 62.0041 178.58C59.0958 176.845 56.1541 175.316 52.9238 173.636C53.6745 172.957 54.2675 172.421 54.8605 171.885C58.214 171.885 61.5675 171.885 65.3444 171.885C64.3906 170.241 63.3893 168.514 62.1844 166.673C60.3663 163.571 58.6366 160.64 57.1891 157.576C56.5348 156.191 56.4417 154.541 56.094 153.011C56.3817 152.838 56.6694 152.664 56.9571 152.491C58.2581 153.376 59.559 154.261 61.0874 155.315C61.3974 155.654 61.48 155.824 61.5625 155.993C61.4918 155.712 61.4211 155.431 61.3503 155.149C61.263 152.969 61.1756 150.79 61.3449 148.342C61.8301 148.081 62.0588 148.086 62.2875 148.092C62.7669 148.545 63.2462 148.997 63.8064 149.695Z" fill="#DB9976"/>
<path d="M146.12 334.443C146.149 337.397 146.376 340.178 146.082 342.904C145.773 345.78 147.031 346.866 149.618 347.245C156.608 348.269 163.557 349.668 170.577 350.366C178.455 351.149 186.39 351.387 194.306 351.714C195.83 351.777 197.381 351.154 199.253 350.745C199.45 351.431 199.518 352.777 199.144 352.913C197.337 353.573 195.412 353.907 193.528 354.357C189.99 354.532 186.433 355.025 182.919 354.813C176.755 354.439 170.609 353.697 164.47 352.988C159.528 352.418 154.606 351.671 149.393 350.558C147.919 350.036 146.728 349.958 145.537 349.879C145.537 349.879 145.581 349.863 145.683 349.596C145.932 344.177 146.079 339.024 146.226 333.871C146.18 333.996 146.134 334.121 146.12 334.443Z" fill="#962E16"/>
<path d="M59.4734 350.527C60.5731 350.941 61.656 351.658 62.7752 351.72C73.9135 352.337 84.9339 351.134 95.9057 349.348C101.419 348.45 106.926 347.507 112.752 346.828C113.206 348.527 113.461 350.062 111.172 349.878C108.106 350.72 105.088 351.923 101.965 352.334C93.9524 353.388 85.8938 354.089 77.2631 354.907C74.4399 354.907 72.2072 354.954 69.9747 354.949C67.5113 354.944 65.0479 354.891 62.5845 354.859C61.4877 354.47 60.3909 354.082 59.0901 353.402C59.0819 352.249 59.2776 351.388 59.4734 350.527Z" fill="#962E16"/>
<path d="M180.946 35.7636C182.647 25.0666 177.041 18.0451 165.734 17.2163C163.426 17.0471 161.096 17.1918 158.768 17.1918C159.324 7.8207 153.248 3.60429 144.67 7.2273C143.699 7.63771 142.725 8.04372 141.514 8.47322C141.28 8.09939 141.163 7.41213 141.308 7.35145C144.891 5.85237 148.414 3.79626 152.503 4.7582C157.005 5.81739 159.605 9.36554 159.63 14.0501C159.633 14.5771 159.63 15.1042 159.63 16.0022C161.577 16.0022 163.456 15.9571 165.333 16.0108C170.696 16.164 175.447 17.9333 179.173 21.8469C183.344 26.2283 182.965 30.4587 180.946 35.7636Z" fill="#FDF0E4"/>
<path d="M5.74634 129.685C2.13143 125.796 1.78236 123.533 3.89002 119.086C4.48787 117.825 4.67377 116.375 5.16793 115.056C5.53703 114.071 6.09795 113.158 6.84402 111.675C8.24871 113.589 9.26216 114.969 10.2818 116.597C10.2881 116.843 10.2712 116.858 10.0515 116.864C8.86211 116.129 7.89246 115.389 6.92284 114.649C6.57665 114.818 6.23047 114.988 5.88428 115.158C7.22417 118.778 8.56407 122.397 9.90396 126.017C9.6275 126.253 9.35103 126.489 9.07457 126.725C7.51684 124.799 5.9591 122.873 4.40138 120.947C3.88838 122.413 3.76564 123.59 4.04498 124.662C4.48628 126.356 5.1973 127.979 5.78253 129.646C5.77091 129.66 5.74634 129.685 5.74634 129.685Z" fill="#FDF0E4"/>
<path d="M12.1619 137.277C10.0592 137.084 7.93638 136.627 5.86044 136.785C4.31766 136.903 2.83574 137.819 1.13482 138.45C5.91298 141.881 10.014 144.826 14.0823 148C11.5745 146.864 9.10972 145.48 6.62025 144.142C5.45916 143.518 4.2856 142.888 3.05487 142.429C1.12105 141.709 -0.573651 140.471 0.18523 138.405C0.657371 137.121 2.41561 135.89 3.84018 135.479C5.63371 134.961 7.67581 135.305 9.60439 135.021C9.59807 134.765 9.62274 134.743 9.8344 134.707C10.7514 135.541 11.4567 136.409 12.1619 137.277Z" fill="#FDF0E4"/>
<path d="M184.656 80.4612C184.87 75.2714 185.206 70.1444 185.643 65.026C186.16 58.9771 184.822 53.2514 182.803 47.6269C182.482 46.7328 182.161 45.8388 181.877 44.6769C184.97 48.3418 186.225 53.0168 186.356 57.7813C186.541 64.4765 185.999 71.1902 185.852 77.8979C185.828 78.9875 186.239 80.0866 186.491 81.4517C185.963 81.3241 185.393 80.926 184.656 80.4612Z" fill="#FDF0E4"/>
<path d="M89.0831 286.134C86.9627 288.621 88.3937 291.538 88.451 294.248C88.6559 303.939 88.977 313.628 89.0649 323.511C88.6279 317.201 88.3867 310.696 88.1302 304.192C87.9319 299.165 87.6289 294.141 87.5475 289.112C87.5148 287.094 86.6677 286.581 84.8433 286.618C83.8852 286.637 82.9172 286.17 81.8809 285.682C84.1408 285.662 86.4736 285.881 89.0831 286.134Z" fill="#FDF0E4"/>
<path d="M63.1191 94.3379C63.4298 94.1927 63.5615 94.2158 63.7982 94.4107C63.8012 95.0963 63.8622 95.7386 63.5733 96.1052C57.5941 103.692 59.7285 111.407 63.4143 118.974C64.5761 121.359 66.6654 123.292 68.3249 125.663C63.2438 123.075 60.3907 118.196 59.6798 113.017C58.8974 107.316 58.116 101.059 61.9661 95.7253C62.2702 95.3041 62.6145 94.9119 63.1191 94.3379Z" fill="#FDF0E4"/>
<path d="M29.3066 156.029C33.2742 157.265 37.3154 158.765 41.3755 160.212C46.4438 162.018 51.5276 163.781 56.75 165.74C52.9192 165.048 48.8819 164.388 44.987 163.243C41.9911 162.363 39.1512 160.924 36.2855 159.637C33.9531 158.589 31.6852 157.398 29.3066 156.029Z" fill="#FDF0E4"/>
<path d="M132.847 3.59989C132.634 3.94418 132.309 4.19612 132.189 4.12109C124.267 -0.871027 116.707 1.59117 109.206 5.21697C108.252 5.67811 107.329 6.20484 106.178 6.55906C108.203 5.12444 110.372 3.68429 112.697 2.57085C117.234 0.398575 121.985 -0.889854 126.995 0.724953C129.013 1.37541 130.89 2.46513 132.847 3.59989Z" fill="#FDF0E4"/>
<path d="M62.467 147.868C62.0587 148.086 61.83 148.081 61.4299 148.103C61.0892 148.025 60.9443 147.892 60.7344 147.614C61.7495 147.074 62.8839 146.227 63.9539 146.302C71.6276 146.838 79.0711 145.025 86.6216 144.344C89.3566 144.097 92.1385 144.371 95.0271 144.65C85.0095 145.602 74.8632 146.302 64.7197 147.042C64.0178 147.093 63.3372 147.436 62.467 147.868Z" fill="#FDF0E4"/>
<path d="M193.622 354.599C195.412 353.907 197.338 353.573 199.145 352.913C199.519 352.777 199.451 351.431 199.399 350.545C194.761 347.235 190.31 344.022 185.748 340.613C189.467 339.825 191.841 342.848 194.553 344.508C197.048 346.034 200.317 347.389 201.174 350.934C201.269 351.33 202.288 351.448 202.792 351.815C203.231 352.135 203.547 352.625 204.159 353.31C200.29 353.877 197.003 354.359 193.622 354.599Z" fill="#FDF0E4"/>
<path d="M82.4241 25.3495C80.3404 24.5511 78.319 23.1958 76.092 22.5558C73.3838 21.7776 70.6406 22.1694 68.6148 24.5234C66.9508 26.4571 66.4776 28.5729 67.7883 31.1357C65.3635 29.8366 65.1375 26.9762 67.1718 24.5054C71.5643 19.1704 76.9708 18.9644 82.4241 25.3495Z" fill="#FDF0E4"/>
<path d="M178.853 338.147C177.853 338.707 176.875 339.023 175.796 339.372C174.848 338.512 173.611 337.964 175.119 336.018C176.262 334.541 173.619 331.494 170.861 330.918C170.685 329.788 170.752 328.745 170.987 327.542C173.838 330.244 176.557 333.075 179.155 336.013C179.427 336.32 178.987 337.258 178.853 338.147Z" fill="#FDF0E4"/>
<path d="M153.504 143.065C157.528 140.318 161.857 137.597 166.073 134.709C167.963 133.414 169.624 131.784 171.615 130.298C169.456 134.756 165.357 137.384 161.221 139.845C158.919 141.215 156.261 141.984 153.504 143.065Z" fill="#FDF0E4"/>
<path d="M58.6818 51.0965C56.9416 59.0224 57.0842 66.9601 58.4159 75.0928C55.5137 69.8891 56.2237 64.0896 56.441 58.3825C56.5303 56.0366 57.1471 53.7107 57.9234 51.2175C58.4425 51.0717 58.5622 51.0841 58.6818 51.0965Z" fill="#FDC09F"/>
<path d="M78.1221 337.858C80.4373 338.771 82.4871 339.676 84.5369 340.581C84.3664 340.98 84.196 341.379 84.0255 341.777C81.9506 340.966 79.8757 340.155 77.8008 339.344C77.6296 339.612 77.4583 339.88 77.2871 340.148C78.3244 341.126 79.3617 342.104 80.3989 343.081C80.3283 343.239 80.2577 343.396 80.187 343.553C78.7135 342.883 77.24 342.213 75.5176 341.284C75.088 340.563 74.9073 340.102 74.7266 339.64C75.7699 339.044 76.8133 338.447 78.1221 337.858Z" fill="#FDC09F"/>
<path d="M146.322 333.625C146.08 339.024 145.933 344.177 145.682 349.62C145.374 348.958 144.974 348.001 144.995 347.054C145.156 339.888 145.399 332.723 145.661 325.268C147.928 327.609 146.805 330.525 146.322 333.625Z" fill="#FDF0E4"/>
<path d="M142.341 147.867C139.65 147.669 136.882 147.273 133.793 146.664C133.456 146.16 133.44 145.869 133.424 145.578C136.896 145.361 140.368 145.143 144.127 144.935C143.463 145.531 142.512 146.118 141.429 146.788C141.586 146.953 141.924 147.311 142.341 147.867Z" fill="#FDF0E4"/>
<path d="M111.269 350.124C113.463 350.062 113.208 348.527 113.011 346.801C112.965 342.969 113.044 339.405 112.932 335.848C112.911 335.175 112.129 334.527 111.43 333.831C111.146 331.655 111.131 329.515 111.129 327.079C114.968 334.299 113.338 342.364 113.641 350.37C112.79 350.37 112.077 350.37 111.269 350.124Z" fill="#FDF0E4"/>
<path d="M80.5461 190.63C80.3153 193.527 80.1428 196.694 79.7919 199.84C79.362 203.696 78.7828 207.535 78.1699 211.596C78.8895 204.837 79.7074 197.865 80.5461 190.63Z" fill="#FDF0E4"/>
<path d="M17.216 114.058C15.7255 112.735 14.2814 111.178 12.5522 109.313C12.2631 110.692 12.0436 111.739 11.6678 112.958C11.3451 113.015 11.0215 112.874 11.0356 112.787C11.3361 110.954 11.6746 109.127 12.0057 107.299C13.2565 108.374 14.6528 109.324 15.7092 110.565C16.4633 111.45 16.761 112.724 17.216 114.058Z" fill="#FDF0E4"/>
<path d="M74.1191 129.899C77.3867 130.292 80.7341 131.182 84.1269 131.417C86.0896 131.553 88.1097 130.507 90.1365 130.26C90.8713 130.171 91.7007 130.858 92.54 131.413C88.9734 131.82 85.3349 132.309 81.7403 132.087C79.2021 131.93 76.7233 130.81 74.1191 129.899Z" fill="#FDF0E4"/>
<path d="M83.4811 333.966C82.7814 337.134 87.0956 337.208 87.431 339.58C84.7765 339.01 82.1775 338.452 79.2891 337.86C79.7135 337.151 80.408 336.454 81.1466 335.807C81.8325 335.206 82.5652 334.659 83.4811 333.966Z" fill="#FDC09F"/>
<path d="M54.5963 171.844C54.267 172.421 53.674 172.957 52.9233 173.636C56.1536 175.316 59.0953 176.845 61.9888 178.604C59.3608 177.963 56.6798 177.3 54.2528 176.117C53.3307 175.667 52.9429 174.039 52.4794 172.881C52.4406 172.784 53.6846 172.174 54.5963 171.844Z" fill="#FDF0E4"/>
<path d="M79.5676 242.126C80.0275 246.683 80.2308 251.345 80.448 256.302C80.0373 255.621 79.2753 254.655 79.2478 253.668C79.1416 249.86 79.27 246.045 79.5676 242.126Z" fill="#FDF0E4"/>
<path d="M176.992 122.705C177.391 119.756 177.886 116.647 178.728 113.635C178.997 112.672 180.186 111.966 181.189 111.149C180.024 114.964 178.623 118.773 176.992 122.705Z" fill="#FDF0E4"/>
<path d="M19.166 151.541C22.3004 152.646 25.553 153.96 28.8489 155.503C25.6895 154.404 22.4869 153.077 19.166 151.541Z" fill="#FDF0E4"/>
<path d="M158.16 244.696C157.382 241.6 156.607 238.255 155.793 234.647C156.066 234.298 156.378 234.211 156.91 234.234C157.474 237.712 157.818 241.079 158.16 244.696Z" fill="#FDF0E4"/>
<path d="M59.5115 350.313C59.2792 351.388 59.0835 352.249 58.8733 353.351C58.5585 352.745 57.7472 351.507 58.0451 351.118C59.4479 349.286 61.1548 347.687 62.987 345.986C61.9964 347.344 60.7722 348.722 59.5115 350.313Z" fill="#FDF0E4"/>
<path d="M163.707 172.974C163.408 168.756 163.343 164.426 163.384 159.836C165.993 163.356 165.17 167.33 164.188 171.319C164.063 171.823 164.02 172.347 163.707 172.974Z" fill="#FDF0E4"/>
<path d="M169.765 324.802C167.348 325.467 166.319 324.154 166.048 322.009C165.763 319.747 165.564 317.473 165.352 314.912C165.804 316.442 165.99 318.372 166.73 320.057C167.447 321.689 168.736 323.069 169.765 324.802Z" fill="#FDF0E4"/>
<path d="M74.4712 339.656C74.9079 340.102 75.0886 340.563 75.294 341.21C72.0551 339.977 70.1036 343.017 67.2441 343.573C68.6603 342.377 70.2586 341.256 71.9435 340.285C72.6005 339.906 73.4522 339.866 74.4712 339.656Z" fill="#FDF0E4"/>
<path d="M62.8652 354.893C65.0497 354.891 67.513 354.944 69.9765 354.949C72.209 354.954 74.4416 354.907 76.9695 354.923C72.5579 354.951 67.8511 354.939 62.8652 354.893Z" fill="#FDF0E4"/>
<path d="M188.643 98.2907C188.156 94.0657 187.916 89.7028 187.691 85.0514C188.138 86.3864 188.837 87.9931 188.941 89.6374C189.12 92.4635 188.927 95.3131 188.643 98.2907Z" fill="#FDF0E4"/>
<path d="M68.3008 126.067C70.2027 126.978 72.1443 128.122 74.0715 129.494C72.1517 128.581 70.2461 127.441 68.3008 126.067Z" fill="#FDF0E4"/>
<path d="M79.1416 232.201C79.2441 234.532 79.2214 236.66 79.1668 239.076C78.9398 238.331 78.5021 237.276 78.5994 236.272C78.8104 234.095 78.3752 232.421 76.0527 231.392C76.9839 231.447 78.0002 231.722 79.1416 232.201Z" fill="#FDF0E4"/>
<path d="M76.3686 221.626C76.4984 224.574 76.3832 227.634 76.1197 230.934C75.9415 229.359 75.8732 227.544 75.8944 225.729C75.9099 224.398 76.0429 223.069 76.3686 221.626Z" fill="#FDF0E4"/>
<path d="M58.7598 50.8815C58.5627 51.0841 58.443 51.0717 58.1445 51.0892C58.9396 49.0253 59.9134 46.9314 61.1048 44.7579C60.4939 46.6744 59.6656 48.6704 58.7598 50.8815Z" fill="#FDF0E4"/>
<path d="M181.364 42.5773C179.856 41.3257 177.958 39.987 179.301 37.5582C180.088 39.2762 180.711 40.8081 181.364 42.5773Z" fill="#FDF0E4"/>
<path d="M67.7559 31.5681C69.6203 31.8106 71.5836 32.2865 73.6863 32.9144C71.8354 32.6448 69.8451 32.2231 67.7559 31.5681Z" fill="#FDF0E4"/>
<path d="M68.1111 38.3206C66.9533 39.5026 65.5654 40.7095 64.0098 41.7134C65.1883 40.4554 66.5347 39.4004 68.1111 38.3206Z" fill="#FDF0E4"/>
<path d="M62.0137 179.03C63.594 179.539 65.2626 180.259 67.0108 181.192C65.4275 180.683 63.7647 179.962 62.0137 179.03Z" fill="#FDF0E4"/>
<path d="M12.2494 115.824C12.6907 116.924 13.088 118.26 13.2453 119.844C12.5188 119.441 12.0325 118.789 11.5566 118.126C11.5671 118.114 11.5886 118.091 11.5886 118.091C11.7943 117.414 11.9999 116.736 12.2494 115.824Z" fill="#FDF0E4"/>
<path d="M90.4084 19.8092C89.9487 21.1486 89.2498 22.4831 88.3242 23.7348C88.7881 22.3694 89.4785 21.0869 90.4084 19.8092Z" fill="#FDC09F"/>
<path d="M85.3593 28.1325C85.3968 29.0457 85.2315 29.9934 85.0662 30.941C84.818 30.9631 84.5699 30.9851 84.3216 31.0071C83.9806 29.8749 83.6396 28.7426 83.4727 27.3861C84.15 27.497 84.6533 27.832 85.3593 28.1325Z" fill="#FDC09F"/>
<path d="M28.832 132.556C27.9828 131.443 27.0907 130.1 26.2344 128.513C27.1098 129.621 27.9494 130.974 28.832 132.556Z" fill="#FDF0E4"/>
<path d="M23.7239 123.625C22.8798 122.717 21.993 121.585 21.1309 120.21C21.9974 121.112 22.8393 122.256 23.7239 123.625Z" fill="#FDF0E4"/>
<path d="M66.8298 343.434C65.9086 344.365 64.7595 345.32 63.4043 346.131C64.3328 345.144 65.4674 344.302 66.8298 343.434Z" fill="#FDF0E4"/>
<path d="M72.4809 36.5509C71.3754 37.2769 70.0275 37.9676 68.4922 38.4924C69.616 37.7228 70.9273 37.1192 72.4809 36.5509Z" fill="#FDF0E4"/>
<path d="M138.439 10.9563C138.414 11.4453 138.179 11.8574 137.701 12.6977C137.164 11.3131 136.78 10.3226 136.533 9.13428C137.19 9.58418 137.71 10.2318 138.439 10.9563Z" fill="#FDF0E4"/>
<path d="M95.551 14.6912C95.0635 15.6315 94.3452 16.5718 93.418 17.3849C93.9127 16.4021 94.6165 15.5466 95.551 14.6912Z" fill="#FDC09F"/>
<path d="M101.925 8.96289C101.43 9.71008 100.7 10.4808 99.7773 11.0631C100.286 10.2453 100.988 9.61581 101.925 8.96289Z" fill="#FDF0E4"/>
<path d="M25.6406 126.814C24.9986 126.119 24.3161 125.201 23.6738 124.041C24.3428 124.73 24.9714 125.66 25.6406 126.814Z" fill="#FDF0E4"/>
<path d="M105.763 6.40625C105.211 7.08478 104.416 7.79166 103.369 8.43952C103.918 7.73187 104.719 7.08324 105.763 6.40625Z" fill="#FDF0E4"/>
<path d="M136.044 7.48744C135.288 6.95325 134.503 6.20234 133.926 5.28296C134.761 5.83323 135.388 6.55199 136.044 7.48744Z" fill="#FDF0E4"/>
<path d="M99.3732 10.877C99.1145 11.5601 98.6277 12.2619 97.9004 12.8896C98.1549 12.1756 98.6499 11.5356 99.3732 10.877Z" fill="#FDF0E4"/>
<path d="M145.658 350.109C146.729 349.958 147.92 350.036 149.256 350.329C148.194 350.474 146.986 350.406 145.658 350.109Z" fill="#FDF0E4"/>
<path d="M86.6106 25.6061C86.5671 26.4163 86.3001 27.2845 85.7871 28.1414C85.8231 27.3081 86.1051 26.4861 86.6106 25.6061Z" fill="#FDC09F"/>
<path d="M30.0251 134.627C29.5708 134.3 29.1555 133.748 28.7812 132.966C29.2363 133.291 29.6503 133.846 30.0251 134.627Z" fill="#FDF0E4"/>
<path d="M62.3703 42.8452C62.3139 43.4596 62.0544 44.141 61.5352 44.7798C61.5727 44.1289 61.87 43.5206 62.3703 42.8452Z" fill="#FDF0E4"/>
<path d="M14.1055 148.396C14.679 148.425 15.3363 148.657 16.0499 149.113C15.4672 149.091 14.8282 148.845 14.1055 148.396Z" fill="#FDF0E4"/>
<path d="M31.2829 137.12C30.828 136.783 30.4177 136.223 30.0273 135.428C30.474 135.761 30.9008 136.328 31.2829 137.12Z" fill="#FDF0E4"/>
<path d="M87.9115 23.6815C87.8445 24.3341 87.5682 25.0407 87.0566 25.655C87.115 24.9536 87.4086 24.3446 87.9115 23.6815Z" fill="#FDC09F"/>
<path d="M21.1708 119.811C20.7493 119.517 20.2837 119.009 19.8281 118.26C20.2677 118.545 20.6972 119.071 21.1708 119.811Z" fill="#FDF0E4"/>
<path d="M96.8472 13.4246C96.7888 13.8756 96.4974 14.3509 95.9766 14.7822C96.0362 14.3084 96.3251 13.8786 96.8472 13.4246Z" fill="#FDF0E4"/>
<path d="M179.66 37.6908C179.72 37.1042 179.985 36.4548 180.503 35.7948C180.459 36.3988 180.162 37.0134 179.66 37.6908Z" fill="#FDF0E4"/>
<path d="M92.3503 17.8812C92.2877 18.4418 91.9918 19.0014 91.498 19.36C91.5725 18.7328 91.8447 18.3065 92.3503 17.8812Z" fill="#FDC09F"/>
<path d="M16.5684 149.635C16.969 149.715 17.4334 150.02 17.8941 150.555C17.471 150.476 17.0515 150.168 16.5684 149.635Z" fill="#FDF0E4"/>
<path d="M151.582 144.163C151.883 143.811 152.383 143.441 153.098 143.062C152.803 143.417 152.292 143.781 151.582 144.163Z" fill="#FDF0E4"/>
<path d="M63.6795 41.5486C63.5742 42.0578 63.2839 42.6256 62.7773 42.992C62.8722 42.3961 63.1834 42.0016 63.6795 41.5486Z" fill="#FDF0E4"/>
<path d="M187.94 100.239C187.828 99.7404 187.935 99.1625 188.229 98.4661C188.331 98.9517 188.244 99.5558 187.94 100.239Z" fill="#FDF0E4"/>
<path d="M7.02165 131.603C6.82514 131.302 6.62861 131.001 6.42987 130.488C6.42765 130.277 6.44217 130.264 6.63897 130.341C6.91369 130.795 6.99163 131.172 7.05812 131.563C7.04668 131.577 7.02165 131.603 7.02165 131.603Z" fill="#FDF0E4"/>
<path d="M136.68 8.78985C136.384 8.69124 136.055 8.38327 135.881 7.86768C136.24 7.96685 136.444 8.27366 136.68 8.78985Z" fill="#FDF0E4"/>
<path d="M8.29251 133.522C8.09627 133.222 7.90003 132.923 7.69813 132.413C7.69246 132.202 7.70933 132.186 7.91624 132.244C8.19757 132.69 8.272 133.076 8.33332 133.478C8.32021 133.493 8.29251 133.522 8.29251 133.522Z" fill="#FDF0E4"/>
<path d="M26.2756 128.14C26.0573 128.037 25.8048 127.728 25.5938 127.206C25.8372 127.307 26.0393 127.62 26.2756 128.14Z" fill="#FDF0E4"/>
<path d="M181.94 44.1924C181.638 44.0313 181.35 43.6172 181.207 42.9845C181.552 43.1571 181.753 43.5482 181.94 44.1924Z" fill="#FDF0E4"/>
<path d="M187.019 82.8192C186.793 82.7018 186.61 82.3799 186.455 81.8677C186.676 81.9898 186.87 82.3023 187.019 82.8192Z" fill="#FDF0E4"/>
<path d="M133.474 4.33953C133.196 4.4506 132.873 4.39051 132.695 4.07849C133.036 3.94049 133.233 4.05442 133.474 4.33953Z" fill="#FDF0E4"/>
<path d="M93.0498 17.2703C93.1641 17.5195 93.1021 17.7965 92.8029 17.9882C92.6683 17.7014 92.7709 17.4996 93.0498 17.2703Z" fill="#FDC09F"/>
<path d="M134.108 4.97304C133.858 5.09311 133.561 5.04289 133.367 4.72741C133.667 4.57569 133.865 4.68922 134.108 4.97304Z" fill="#FDF0E4"/>
<path d="M83.7963 333.413C83.8253 333.418 83.8089 333.594 83.7132 333.845C83.6729 333.808 83.712 333.696 83.7963 333.413Z" fill="#FDC09F"/>
<path d="M97.5399 12.8055C97.6394 13.0232 97.5633 13.2862 97.2534 13.5046C97.1345 13.257 97.2494 13.0539 97.5399 12.8055Z" fill="#FDF0E4"/>
<path d="M102.953 8.36353C102.996 8.65652 102.808 8.95393 102.374 9.1119C102.326 8.77096 102.524 8.56945 102.953 8.36353Z" fill="#FDF0E4"/>
<path d="M91.1268 19.1868C91.2539 19.4716 91.2074 19.7811 90.9082 19.9487C90.7548 19.6083 90.8539 19.4099 91.1268 19.1868Z" fill="#FDC09F"/>
<path d="M83.0498 26.0163C82.8009 26.1418 82.5272 26.0901 82.334 25.7898C82.6179 25.6405 82.8214 25.7397 83.0498 26.0163Z" fill="#FDC09F"/>
<path d="M83.6758 26.9804C83.3773 27.0361 83.0897 26.8607 82.9336 26.4349C83.2723 26.3728 83.4795 26.5611 83.6758 26.9804Z" fill="#FDC09F"/>
<path d="M157.253 234.317C157.18 234.167 157.268 233.963 157.545 233.731C157.627 233.89 157.52 234.077 157.253 234.317Z" fill="#FDF0E4"/>
<path d="M10.9483 117.456C11.1373 117.559 11.3263 117.662 11.5527 117.928C11.5901 118.091 11.5686 118.114 11.3742 118.12C11.0901 117.916 11.0004 117.707 10.9199 117.487C10.9291 117.477 10.9483 117.456 10.9483 117.456Z" fill="#FDF0E4"/>
<path d="M6.42006 130.284C6.22082 130.197 6.02977 130.102 5.79309 129.846C5.74749 129.685 5.77205 129.66 5.96552 129.643C6.25355 129.838 6.34814 130.051 6.44272 130.264C6.44272 130.264 6.42821 130.277 6.42006 130.284Z" fill="#FDF0E4"/>
<path d="M10.2971 116.834C10.493 116.928 10.6802 117.031 10.9071 117.295C10.947 117.456 10.9277 117.476 10.7408 117.471C10.4597 117.263 10.3656 117.061 10.2715 116.858C10.2715 116.858 10.2884 116.843 10.2971 116.834Z" fill="#FDF0E4"/>
<path d="M163.406 173.448C163.263 173.474 163.155 173.36 163.047 173.246C163.117 173.192 163.187 173.138 163.387 173.055C163.517 173.027 163.441 173.307 163.406 173.448Z" fill="#FDF0E4"/>
<path d="M171.916 130.288C171.852 130.176 171.948 130.008 172.164 129.754C172.21 129.853 172.141 130.041 171.916 130.288Z" fill="#FDF0E4"/>
<path d="M163.471 159.449C163.314 159.53 163.106 159.45 162.873 159.171C163.038 159.078 163.229 159.183 163.471 159.449Z" fill="#FDF0E4"/>
<path d="M17.9082 150.902C18.0615 150.796 18.277 150.874 18.5784 151.107C18.4331 151.204 18.2017 151.145 17.9082 150.902Z" fill="#FDF0E4"/>
<path d="M7.68461 132.211C7.48939 132.119 7.30331 132.018 7.06958 131.76C7.02189 131.602 7.04692 131.577 7.24538 131.553C7.53279 131.748 7.62173 131.966 7.71066 132.185C7.71066 132.185 7.69379 132.202 7.68461 132.211Z" fill="#FDF0E4"/>
<path d="M92.5898 131.747C92.7385 131.644 92.9466 131.725 93.2432 131.952C93.1042 132.043 92.8768 131.987 92.5898 131.747Z" fill="#FDF0E4"/>
<path d="M181.527 111.14C181.475 110.99 181.603 110.79 181.906 110.531C181.956 110.678 181.831 110.884 181.527 111.14Z" fill="#FDF0E4"/>
<path d="M9.58691 134.776C9.39159 134.682 9.20814 134.576 8.99223 134.299C8.9598 134.128 8.98588 134.103 9.17986 134.091C9.45704 134.3 9.54026 134.521 9.62345 134.742C9.62345 134.742 9.59879 134.765 9.58691 134.776Z" fill="#FDF0E4"/>
<path d="M8.94645 134.14C8.74982 134.047 8.5663 133.942 8.33837 133.679C8.29397 133.522 8.32167 133.493 8.53275 133.458C8.82443 133.649 8.90503 133.876 8.98564 134.103C8.98564 134.103 8.95956 134.128 8.94645 134.14Z" fill="#FDF0E4"/>
<path d="M154.242 120.686C159.345 124.051 161.276 128.312 159.651 132.622C158.587 135.447 155.753 136.762 152.956 135.564C151.606 134.986 150.177 134.293 149.164 133.275C143.549 127.634 136.736 127.027 129.27 127.944C132.419 124.216 136.564 122.262 141.107 121.563C145.428 120.899 149.859 120.95 154.242 120.686Z" fill="#DB9976"/>
<path d="M154.262 120.427C149.858 120.95 145.427 120.898 141.106 121.563C136.563 122.262 132.418 124.216 129.056 127.842C128.603 127.268 127.77 126.39 127.893 125.677C129.013 119.218 137.575 111.939 144.224 111.627C149.517 111.378 152.592 113.989 154.262 120.427Z" fill="#962E16"/>
<path d="M80.5213 107.338C81.6507 110.884 82.9648 114.153 83.626 117.55C84.2145 120.573 82.5132 121.805 79.4894 121.108C73.2801 119.676 69.4179 112.679 71.9598 106.809C72.6594 105.193 74.8607 103.054 76.1724 103.184C77.7036 103.335 79.0151 105.709 80.5213 107.338Z" fill="#DB9976"/>
<path d="M104.428 93.4246C111.762 91.8651 118.431 92.7089 124.353 97.1149C125.258 97.7876 125.727 99.0447 126.398 100.031C125.302 100.357 124.211 100.7 123.109 101.004C118.765 102.204 114.433 103.45 110.062 104.544C109.018 104.805 107.843 104.547 106.729 104.528C107.233 103.531 107.482 102.047 108.288 101.624C111.224 100.086 114.345 98.9015 117.623 97.4863C114.014 95.6153 110.292 96.0525 106.564 96.585C106.146 96.6447 105.718 96.9325 105.334 96.87C104.037 96.6589 102.758 96.3376 101.473 96.0585C102.375 95.2112 103.276 94.3638 104.428 93.4246Z" fill="#962E16"/>
<path d="M152.662 92.7766C156.015 88.2708 160.287 85.8022 165.651 85.2745C166.384 85.2024 167.24 85.0181 167.843 85.3021C168.758 85.733 169.5 86.5286 170.316 87.1693C169.448 87.7104 168.585 88.7056 167.712 88.7137C164.007 88.7479 160.667 89.5188 157.67 92.1754C160.721 92.7965 163.498 93.1771 166.135 94.0056C166.983 94.272 167.46 95.7194 168.107 96.6265C167.121 96.8132 166.131 97.1772 165.149 97.1545C161.803 97.0771 158.461 96.8224 155.114 96.7243C153.94 96.6898 152.758 96.9123 151.58 97.0174C151.898 95.6708 152.216 94.3241 152.662 92.7766Z" fill="#962E16"/>
<path d="M116.28 68.8556C117.288 68.7619 118.797 68.6699 118.906 69.0166C119.178 69.8871 119.118 71.1285 118.664 71.9183C114.734 78.7532 108.551 82.2094 100.915 83.2181C100.155 83.3184 99.2574 82.3753 98.4238 81.9165C99.1517 81.2144 99.7853 80.0552 100.622 79.8827C107.381 78.4894 112.936 75.4887 116.28 68.8556Z" fill="#962E16"/>
<path d="M133.141 145.58C133.438 145.869 133.454 146.16 133.534 146.66C133.399 147.786 133.2 148.703 132.918 149.839C123.946 150.438 116.226 147.635 109.309 141.833C117.393 143.12 125.126 144.351 133.141 145.58Z" fill="#DB9976"/>
<path d="M157.207 72.1688C154.735 70.5328 152.412 69.0688 150.336 67.3121C149.81 66.8671 150.074 65.4893 149.975 64.54C150.861 64.6965 152.089 64.5343 152.58 65.0601C156.407 69.1585 161.161 70.1655 166.5 69.8002C167.526 69.7301 168.609 70.5081 169.666 70.8949C168.722 71.6375 167.778 73.006 166.832 73.0081C163.705 73.0153 160.576 72.5291 157.207 72.1688Z" fill="#962E16"/>
<path d="M137.154 102.73C141.324 99.5438 144.499 100.298 145.123 104.394C140.953 101.056 139.512 101.255 136.773 105.49C136.849 104.633 136.925 103.777 137.154 102.73Z" fill="#DB9976"/>
<path d="M126.543 195.597C126.935 195.046 127.465 194.371 127.635 194.452C128.771 194.993 129.785 195.798 130.93 196.314C131.978 196.786 133.141 197.002 134.572 197.426C132.678 198.799 131.168 199.893 129.347 201.214C128.312 199.246 127.413 197.535 126.543 195.597Z" fill="#465A4C"/>
<path d="M9.17816 134.091C8.90357 133.876 8.82297 133.649 8.5444 133.443C8.272 133.076 8.19757 132.69 7.91624 132.244C7.6204 131.966 7.53146 131.748 7.25551 131.539C6.99054 131.172 6.91261 130.795 6.63788 130.341C6.34651 130.051 6.25191 129.838 5.97549 129.629C5.19681 127.979 4.48578 126.356 4.04449 124.662C3.76515 123.59 3.88789 122.413 4.40089 120.947C5.9586 122.873 7.51634 124.799 9.07408 126.725C9.35053 126.489 9.62701 126.253 9.90347 126.017C8.56357 122.397 7.22368 118.777 5.88378 115.158C6.22998 114.988 6.57615 114.818 6.92235 114.649C7.89197 115.389 8.86161 116.129 10.051 116.863C10.3648 117.061 10.4589 117.263 10.7308 117.482C10.9983 117.707 11.0879 117.916 11.3615 118.131C12.0318 118.789 12.5182 119.441 13.227 120.093C13.4496 120.094 13.4611 120.06 13.4286 120.212C13.3961 120.365 13.4643 120.672 13.4643 120.672C14.8994 124.262 16.7687 127.748 17.6507 131.469C18.5833 135.404 18.0771 137.823 12.4382 137.281C11.4557 136.409 10.7504 135.541 9.83342 134.707C9.53855 134.521 9.45534 134.3 9.17816 134.091Z" fill="#DB9976"/>
<path d="M13.5631 120.608C13.4656 120.672 13.3974 120.365 13.4122 120.208C13.5048 120.216 13.5827 120.381 13.5631 120.608Z" fill="#FDF0E4"/>
<path d="M61.3399 155.157C61.421 155.43 61.4917 155.712 61.5624 155.993C61.4799 155.824 61.3973 155.654 61.3127 155.334C61.3106 155.183 61.3296 155.165 61.3399 155.157Z" fill="#FDC09F"/>
</svg>
