<svg width="284" height="267" viewBox="0 0 284 267" fill="none" xmlns="http://www.w3.org/2000/svg">
<path d="M283.999 27.2103V27.2031L283.999 27.2003L283.998 27.1738H283.996C283.993 26.8376 283.921 26.4999 283.795 26.2004C283.542 25.5962 283.125 25.1707 282.75 24.8759C282.393 24.5969 282.053 24.4122 281.732 24.2609C281.13 23.9831 280.575 23.8177 280.007 23.6722C279.019 23.4252 277.985 23.2633 276.932 23.1302C275.359 22.9341 273.762 22.8181 272.536 22.7469C271.669 22.6969 270.999 22.6706 270.666 22.6591L270.998 20.0935C271.245 18.1835 270.196 16.3155 268.261 15.2192L261.673 11.4878L261.681 11.4138H265.159C269.011 11.4138 272.163 8.8459 272.163 5.7074C272.163 2.5689 269.011 0.000976562 265.159 0.000976562H258.544H24.9306H16.1228C12.2705 0.000976562 9.11859 2.5689 9.11859 5.7074C9.11859 8.8459 12.2705 11.4138 16.1228 11.4138H19.5459L12.8275 15.2193C10.8921 16.3156 9.84292 18.1837 10.0901 20.0937L10.9378 26.7036C10.8723 26.7094 10.2921 26.7615 9.42962 26.8937C8.78243 26.9933 7.97655 27.1376 7.09911 27.3491C5.78188 27.6742 4.30541 28.1163 2.89455 28.9408C2.19363 29.3577 1.4954 29.8865 0.934545 30.6084C0.37331 31.3224 -0.00737475 32.2578 0.000108382 33.2236C0.000108382 33.3516 0.00625176 33.4784 0.0179561 33.6037C2.49564 60.3466 12.5015 85.227 30.1001 105.029L44.5117 233.518C44.6587 234.628 44.8375 235.694 45.0447 236.718C45.1481 237.231 45.259 237.732 45.3763 238.223C46.9013 244.609 49.5497 249.234 52.3575 252.394C52.5733 252.637 52.7903 252.871 53.0079 253.097C53.7664 253.885 54.5302 254.563 55.2822 255.149C55.5075 255.325 55.7312 255.492 55.9538 255.65C56.5628 256.082 57.1586 256.45 57.7328 256.756C58.0558 256.928 58.3737 257.086 58.6805 257.22C59.826 257.718 60.8476 257.953 61.6502 257.953V261.183C61.6502 264.108 64.5878 266.501 68.1781 266.501H207.656C211.247 266.501 214.185 264.108 214.185 261.183V257.953C220.41 257.953 234.808 251.59 236.77 233.518L251.141 105.39C254.379 101.927 257.4 98.3112 260.185 94.5518C274.62 75.0722 282.908 51.852 283.997 27.3159L284 27.2447L283.999 27.2103ZM6.56819 33.3735C6.70097 33.2767 6.98168 33.109 7.37464 32.9551C8.14866 32.6376 9.28092 32.3677 10.1699 32.2153C10.6156 32.137 11.0036 32.0832 11.2695 32.0503C11.4025 32.0338 11.5049 32.0225 11.569 32.016L11.6318 32.0097L11.6402 32.0743C11.7849 33.1924 12.3651 34.2437 13.2963 35.0736L23.2492 43.9475L28.8345 93.7445C16.1335 76.3975 8.65636 55.6303 6.56819 33.3735ZM252.339 94.7061L258.053 43.7563L267.792 35.0736C268.723 34.2436 269.304 33.1924 269.448 32.0743L270.209 27.9845L270.229 27.9852C270.476 27.9917 273.011 28.078 275.33 28.3336C275.907 28.3968 276.469 28.4701 276.963 28.5504C277.105 28.5736 277.236 28.5975 277.365 28.6214C275.982 52.9923 267.221 75.8798 252.339 94.7061Z" fill="#FCCA92"/>
<path d="M11.4899 30.8911L11.6442 32.0075L11.6342 32.0085L11.6301 32.009L11.6386 32.0735C11.7833 33.1917 12.3635 34.243 13.2947 35.0729L23.2476 43.9467L20.2246 16.9946H88.4598H261.054L258.052 43.7554L267.791 35.0727C268.722 34.2427 269.302 33.1915 269.447 32.0734L270.321 25.3175L270.433 22.6504C270.442 22.6505 270.527 22.653 270.665 22.6579L270.997 20.0923C271.244 18.1823 270.195 16.3143 268.259 15.218L261.672 11.4865L261.68 11.4126H19.5983H19.5442L12.8259 15.2181C10.8905 16.3144 9.8413 18.1825 10.0884 20.0924L11.2884 29.3679L11.6376 32.0083L11.4899 30.8911Z" fill="#FCCA92"/>
<path d="M61.6504 257.953V261.183C61.6504 264.108 64.588 266.501 68.1784 266.501H207.657C211.247 266.501 214.185 264.108 214.185 261.183V257.953H121.793H61.6504Z" fill="#D4DCE4"/>
<path d="M20.2246 16.9956L23.2476 43.9476L28.8329 93.7446C29.1196 94.1362 29.3943 94.5356 29.6864 94.9238C42.958 112.552 61.6819 126.542 85.9403 134.961C90.7059 136.613 95.6933 138.045 100.892 139.25C94.2345 87.3112 89.7227 37.1361 88.4596 16.9956H20.2246Z" fill="#E4B27A"/>
<path d="M101.635 144.947C95.2626 143.574 89.1715 141.88 83.3797 139.871C66.3368 133.962 51.8384 125.403 39.9624 114.88C36.4444 111.762 33.1622 108.47 30.1035 105.029L44.5151 233.518C44.662 234.628 44.8409 235.694 45.0481 236.718C45.1515 237.23 45.2624 237.732 45.3797 238.223C46.9047 244.608 49.5531 249.234 52.3608 252.394C52.5767 252.637 52.7937 252.871 53.0113 253.097C53.7698 253.885 54.5336 254.563 55.2856 255.149C55.5108 255.325 55.7346 255.492 55.9571 255.65C56.5662 256.082 57.1619 256.45 57.7362 256.756C58.0591 256.928 58.3771 257.086 58.6839 257.22C59.8294 257.718 60.8509 257.953 61.6535 257.953H121.796C114.082 229.887 107.165 187.178 101.635 144.947Z" fill="#E4B27A"/>
<path d="M214.271 226.193C222.583 226.81 230.004 221.775 230.761 215.003L242.045 114.181C232.529 122.507 221.538 129.639 209.211 135.237L200.536 212.758C199.778 219.53 205.959 225.575 214.271 226.193Z" fill="#E4B27A"/>
<path d="M235.117 39.9238C226.805 39.3063 219.384 44.3418 218.626 51.1139L209.941 128.714C220.756 123.373 230.439 116.764 238.869 109.121C240.302 107.822 241.697 106.492 243.057 105.135L248.852 53.3592C249.609 46.5871 243.429 40.5411 235.117 39.9238Z" fill="#E4B27A"/>
<path d="M21.4277 2.85321C21.4277 4.42254 23.0036 5.70642 24.9298 5.70642H258.543C260.469 5.70642 262.045 4.42254 262.045 2.85321C262.045 1.28404 260.469 0 258.543 0H24.9298C23.0038 0.000156323 21.4277 1.28404 21.4277 2.85321Z" fill="#E4B27A"/>
<path d="M139 86L80 128.78L102.536 198H175.464L198 128.78L139 86Z" fill="white"/>
</svg>
