<svg width="266" height="265" viewBox="0 0 266 265" fill="none" xmlns="http://www.w3.org/2000/svg">
<path d="M132.98 56.178C132.98 -26.285 68.9257 -12.6691 102.837 62.5849C68.9257 -12.6701 15.9468 25.822 77.9058 80.699C15.9468 25.822 -16.7952 82.5339 62.4977 107.387C-16.7952 82.5339 -23.6403 147.661 59.2767 138.035C-23.6403 147.661 -3.40425 209.941 68.7998 167.343C-3.40425 209.941 40.4147 258.606 89.4197 190.244C40.4137 258.606 100.238 285.241 117.572 202.778C100.238 285.241 165.723 285.241 148.389 202.778C165.723 285.241 225.547 258.605 176.541 190.244C225.547 258.606 269.365 209.94 197.161 167.343C269.365 209.941 289.601 147.661 206.684 138.035C289.601 147.661 282.756 82.5339 203.463 107.387C282.756 82.5339 250.013 25.822 188.055 80.699C250.014 25.822 197.035 -12.6691 163.124 62.5849C197.034 -12.6701 132.98 -26.285 132.98 56.178Z" fill="#ED98A1"/>
</svg>
