<svg width="139" height="148" viewBox="0 0 139 148" fill="none" xmlns="http://www.w3.org/2000/svg">
<path d="M110.426 143.512C112.412 149.175 25.5684 149.175 27.5611 143.511C25.5748 137.849 112.419 137.849 110.426 143.512Z" fill="#EAFFDC"/>
<path d="M83.8015 89.5256C93.7693 108.74 82.0442 119.42 83.1296 136.466C83.1296 136.466 89.0088 136.223 89.8486 140.926C90.6885 145.63 69.3554 143.614 69.3554 143.614C69.3554 143.614 66.3319 128.328 67.0037 124.801C67.6757 121.273 60.9565 114.722 62.4684 98.7643L83.8015 89.5256Z" fill="#479E19"/>
<path d="M97.723 31.5736C88.7739 31.039 84.3511 40.1639 88.1483 45.9355C79.8492 44.5282 74.2438 54.2481 79.4555 60.9274C70.7134 58.2498 64.283 66.8179 65.9752 73.0216C58.8168 67.484 48.3462 74.9142 51.2354 83.4782C45.5854 75.6 33.3855 80.4459 34.3537 90.1553C30.4411 86.0041 22.2838 86.2415 18.732 89.5254C20.3983 85.7038 17.8659 79.6921 12.4328 79.4469C15.002 76.1457 12.5102 70.1745 6.63758 71.51C-1.27667 96.8386 25.7461 99.1139 40.4015 95.0676C66.3673 87.8965 96.518 64.2214 97.723 31.5736Z" fill="#479E19"/>
<path d="M107.83 49.4866C107.83 49.4866 109.258 64.99 110.812 65.1804C112.366 65.371 121.269 61.1265 124.796 65.1804C128.324 69.2345 121.941 80.4893 117.909 70.6628C97.7331 82.0013 103.15 77.7759 96.2402 59.5758L107.83 49.4866Z" fill="#479E19"/>
<path d="M95.3753 29.7416C94.5256 65.7951 38.5808 101.705 5.38867 90.6199L22.6375 97.8405H33.976L57.3048 93.8991L89.8732 74.5337L98.7309 41.1485L95.3753 29.7416Z" fill="#CBFFA5"/>
<path d="M110.068 37.3686C110.068 37.3686 117.631 102.601 87.6461 115.953C57.6612 129.306 22.1357 121.777 7.77433 101.622C-6.08637 83.1196 -0.561851 55.5999 17.5987 44.6734C-23.8821 120.883 89.4617 101.641 93.6939 28.8015H113.094L110.068 37.3686Z" fill="#AAEF79"/>
<path d="M110.072 37.4183C111.96 57.6938 112.864 107.357 85.4741 116.877C56.6272 128.271 18.7301 123.777 3.91797 95.0971C25.6007 112.7 58.2253 107.701 73.9554 94.7285C86.8921 84.3016 94.141 70.6036 100.045 56.2524C103.582 46.7607 105.038 38.3824 105.704 32.5831C105.799 32.2403 106.296 30.5506 107.175 28.8015H113.094C113.094 28.8638 110.028 37.3594 110.072 37.4183Z" fill="#93E459"/>
<path d="M110.868 59.0099C110.858 59.6659 110.838 60.3318 110.818 61.0075C105.586 60.8038 101.491 59.1888 99.3242 58.1253C99.5727 57.4942 99.8113 56.8731 100.045 56.252C101.978 57.2062 105.889 58.7963 110.868 59.0099Z" fill="#FFA060"/>
<path d="M107.053 88.6917C106.878 89.3377 106.695 89.9838 106.501 90.6199C98.4556 88.8856 92.0005 83.9311 87.7168 79.6675C88.1093 79.0811 88.4921 78.4998 88.8598 77.9184C92.9743 82.0627 99.2905 87.0221 107.053 88.6917Z" fill="#FFA060"/>
<path d="M87.6152 115.963C86.9047 116.281 86.1941 116.584 85.4734 116.878C77.7264 111.093 74.0143 102.621 72.2402 95.9916C72.8267 95.5792 73.3981 95.1567 73.9547 94.7295C75.6245 101.393 79.3414 110.298 87.6152 115.963Z" fill="#FFA060"/>
<path d="M37.0291 120.262C36.3186 120.078 35.6179 119.879 34.9222 119.67C34.2613 114.537 34.4451 110.104 34.937 106.566C35.6228 106.601 36.3036 106.626 36.9794 106.636C36.4628 110.258 36.264 114.885 37.0291 120.262Z" fill="#FFA060"/>
<path d="M19.686 103.575C18.9655 105.568 18.1951 108.271 17.8126 111.506C17.1765 111.053 16.5602 110.591 15.959 110.114C16.3912 107.197 17.1069 104.747 17.7976 102.874C18.4138 103.118 19.0451 103.351 19.686 103.575Z" fill="#FFA060"/>
<g opacity="0.4">
<path d="M110.869 59.0099C110.284 78.2735 107.136 106.846 87.6473 115.953C64.9429 125.744 39.537 125.09 19.6074 112.723C92.0058 128.647 114.498 86.7277 110.074 37.4183C110.158 38.1487 111.142 47.2029 110.869 59.0099Z" fill="#2D8216"/>
</g>
<path d="M67.4033 89.5256C77.371 108.74 65.6459 119.42 66.7313 136.466C66.7313 136.466 72.6105 136.223 73.4503 140.926C74.2902 145.63 52.9571 143.614 52.9571 143.614C52.9571 143.614 49.9336 128.328 50.6054 124.801C51.2774 121.273 44.5582 114.722 46.0699 98.7643L67.4033 89.5256Z" fill="#AAEF79"/>
<path d="M94.9516 60.035C94.9516 60.035 96.3793 75.5384 97.9332 75.7288C99.487 75.9194 108.39 71.6747 111.917 75.7288C115.445 79.7827 109.062 91.0377 105.03 81.2112C84.8542 92.5497 90.2713 88.3243 83.3613 70.1242L94.9516 60.035Z" fill="#AAEF79"/>
<path d="M129.383 39.5204C129.328 39.5153 129.274 39.5153 129.219 39.5104C122.808 42.6489 113.761 45.5931 98.9807 37.6227C81.5981 27.5444 91.2981 -0.104853 107.17 0.0791226C119.037 0.213401 121.154 5.37153 122.292 11.7968C123.425 18.2221 130.73 19.6037 135.768 20.9901C140.783 22.3713 139.565 40.077 129.383 39.5204Z" fill="#AAEF79"/>
<path d="M137.821 32.6776C136.573 36.5715 133.717 39.8552 129.219 39.5104C117.6 47.717 83.6746 39.4545 90.4639 15.5428C93.841 -2.982 120.497 -5.83166 122.292 11.797C123.425 18.2221 130.73 19.6035 135.769 20.9899C138.591 21.7701 139.441 27.7183 137.821 32.6776Z" fill="#AAEF79"/>
<path d="M113.659 15.1485C113.642 18.9997 107.786 18.9993 107.77 15.1483C107.787 11.2973 113.643 11.2977 113.659 15.1485Z" fill="white"/>
<path d="M137.821 32.6776C136.573 36.5715 133.717 39.8552 129.219 39.5104C117.591 47.725 83.6765 39.4436 90.4637 15.5434C89.4787 41.3578 122.29 34.4784 122.292 34.4716C132.494 41.9056 137.821 32.6776 137.821 32.6776Z" fill="#6ABD3E"/>
<path d="M113.346 15.5584C113.382 17.9902 109.562 17.9902 109.598 15.5582C109.562 13.1266 113.382 13.1266 113.346 15.5584Z" fill="#479E19"/>
<path d="M132.873 26.5343C132.861 29.1704 128.853 29.1702 128.842 26.5341C128.854 23.8983 132.862 23.8983 132.873 26.5343Z" fill="#479E19"/>
<path d="M129.384 39.5204C129.33 39.5153 129.275 39.5153 129.22 39.5105C129.22 39.5105 128.42 40.0174 126.954 40.6285C122.25 37.9048 119.583 32.6289 121.488 32.0565C122.01 31.8975 122.566 32.1957 122.725 32.7174C123.1 34.5501 126.267 38.7823 129.384 39.5204Z" fill="#479E19"/>
</svg>
