<svg width="222" height="129" viewBox="0 0 222 129" fill="none" xmlns="http://www.w3.org/2000/svg">
<path d="M221.897 121.359C227.59 130.461 -4.70725 130.461 1.00199 121.357C-4.69041 112.256 227.606 112.256 221.897 121.359Z" fill="#EAFFDC"/>
<path d="M199.194 77.6772C196.826 77.6772 194.91 75.7609 194.91 73.393V43.9436H215.787C221.389 43.966 221.392 52.4898 215.787 52.5119H203.479V73.393C203.479 75.7612 201.562 77.6772 199.194 77.6772Z" fill="#60AE28"/>
<path d="M162.036 0.0786324H119.41C116.285 0.0786324 113.752 2.61187 113.752 5.73706V19.7627C113.752 22.8875 116.285 25.4211 119.41 25.4211H162.036C165.162 25.4211 167.695 22.8872 167.695 19.7627V5.73706C167.695 2.61187 165.162 0.0786324 162.036 0.0786324Z" fill="#AAEF79"/>
<path opacity="0.4" d="M167.702 5.72923V19.7813C167.702 22.866 165.174 25.4363 162.047 25.4363H119.42C113.548 25.1232 113.539 19.8943 113.764 15.3687H154.635C162.469 15.2165 159.89 5.01093 160.291 0.0745711C163.942 -0.440056 167.746 1.73729 167.702 5.72923Z" fill="#60AE28"/>
<path d="M211.873 67.7636V110.22C211.873 113.176 210.716 115.875 208.873 117.846C206.817 120.03 203.947 121.358 200.734 121.358H74.651C44.962 121.506 20.8388 96.7518 21.0561 67.7636H211.873Z" fill="#AAEF79"/>
<path opacity="0.4" d="M153.563 67.7636H21.0547C21.0547 70.3339 21.2262 72.8191 21.5684 75.3037C66.0031 78.9538 189.071 61.4976 208.957 114.718H71.7785C56.5278 114.718 42.6472 109.32 32.2358 100.495C42.0468 113.176 57.3842 121.358 74.6495 121.358H200.732C203.961 121.358 206.836 119.983 208.873 117.794C208.873 117.811 208.872 117.83 208.872 117.846C209.71 116.833 210.507 115.776 211.014 114.547C211.005 114.548 210.996 114.548 210.987 114.549C213.117 106.357 211.299 75.9983 211.871 67.7636H153.563Z" fill="#60AE28"/>
<path d="M186.123 61.2095C186.338 63.6513 184.366 65.7503 181.924 65.7076L69.679 63.8222C69.1656 63.8222 68.8225 63.2227 69.0795 62.7939L72.8491 56.3676L95.4269 17.896C96.2406 16.5252 97.7405 15.7112 99.3262 15.8397L179.354 22.2229C181.41 22.3944 183.039 24.0225 183.209 26.0358C183.183 26.2048 186.117 61.0155 186.123 61.2095Z" fill="#AAEF79"/>
<path d="M186.123 61.2095C186.338 63.6513 184.366 65.7503 181.924 65.7076L69.679 63.8222C69.1656 63.8222 68.8225 63.2227 69.0795 62.7939L72.8491 56.3676C180.982 65.236 183.209 29.2062 183.209 26.2504L186.123 61.2095Z" fill="#2D8216"/>
<path d="M146.793 40.7738C146.253 35.4927 147.561 26.4275 140.367 25.222C134.68 24.432 122.814 23.3663 117.019 22.6948C111.707 22.5404 101.935 19.0665 99.2401 25.9082C98.3337 29.6266 88.9297 44.8153 91.0562 48.6993C92.3001 52.8821 96.4564 54.2414 100.696 53.8827C107.504 54.0961 125.949 54.4307 132.999 54.6116L139.725 54.7401C148.026 54.3764 147.465 46.9692 146.793 40.7738Z" fill="#0AE3D0"/>
<path d="M214.943 60.5389H15.4576C12.5582 60.5389 10.209 62.889 10.209 65.7884C10.209 68.6878 12.5582 71.0379 15.4576 71.0379H214.943C221.774 70.9412 221.9 60.6621 214.943 60.5389Z" fill="#AAEF79"/>
<path d="M130.476 24.1083L100.7 53.883C96.4716 54.242 92.2903 52.879 91.0605 48.6993L117.023 22.6948L130.476 24.1083Z" fill="#7DF1E6"/>
<path d="M146.797 40.7738L133.003 54.6116L111.453 54.14L140.371 25.222C147.556 26.4197 146.263 35.4996 146.797 40.7738Z" fill="#7DF1E6"/>
<path d="M76.587 71.6383C66.5221 50.1999 35.1308 63.7174 43.7532 85.7385C53.8174 107.176 85.2065 93.6597 76.587 71.6383ZM64.1979 84.5299C56.4513 89.7089 48.5376 78.2686 56.1417 72.8469C63.8882 67.6679 71.8006 79.1073 64.1979 84.5299Z" fill="#F9F1FE"/>
<path d="M67.2216 62.2711L64.1996 72.8469C61.9474 71.1823 58.3955 71.182 56.143 72.8469L53.1211 62.2711C57.3797 60.3312 62.9626 60.3315 67.2216 62.2711Z" fill="#8CD559"/>
<path d="M67.2216 95.105C62.9626 97.0446 57.3797 97.045 53.1211 95.105L56.143 84.5299C58.3959 86.1947 61.9474 86.1941 64.1996 84.5299L67.2216 95.105Z" fill="#8CD559"/>
<path d="M78.0488 78.6881C78.0488 81.206 77.546 83.5727 76.5894 85.7385L66.0137 82.7171C67.6779 80.4646 67.6779 76.9115 66.0137 74.6593L76.5894 71.6386C77.546 73.8035 78.0488 76.1701 78.0488 78.6881Z" fill="#8CD559"/>
<path d="M53.0699 78.6881C53.0699 80.1992 53.5237 81.5587 54.3287 82.7171L43.7542 85.7384C41.8139 81.4792 41.8136 75.8972 43.7542 71.6383L54.3287 74.659C53.5234 75.8174 53.0699 77.1769 53.0699 78.6881Z" fill="#8CD559"/>
<path opacity="0.4" d="M76.637 71.7889C78.9029 92.3226 50.5991 99.7712 42.4434 80.8532C43.4938 92.354 56.7746 99.9818 67.2209 95.1047C76.0366 91.5662 80.5541 80.4531 76.637 71.7889Z" fill="#60AE28"/>
</svg>
