<svg width="161" height="87" viewBox="0 0 161 87" fill="none" xmlns="http://www.w3.org/2000/svg">
<path d="M160.066 81.8929C164.18 88.472 -3.72366 88.472 0.402971 81.8913C-3.71172 75.3135 164.192 75.3135 160.066 81.8929Z" fill="#A4CDFF"/>
<path d="M159.609 68.7196C157.578 70.6011 6.67701 72.9531 5.13863 68.7196C3.59461 64.4803 -2.50235 50.099 2.06749 44.8341C11.2983 34.2018 149.58 26.5267 157.495 37.8827C160.06 42.6282 159.819 48.4853 160.065 54.8566C160.121 62.0873 161.639 66.8381 159.609 68.7196Z" fill="#3C89E5"/>
<path d="M159.607 68.7196C157.579 70.5998 6.67574 72.9531 5.13736 68.7196C3.83816 65.1528 -0.685924 54.3951 0.641678 47.9451C1.47377 53.7797 4.18015 60.3038 5.13736 62.9363C7.45756 65.8911 159.422 67.3395 160.439 61.4777C160.747 65.0446 160.929 67.4946 159.607 68.7196Z" fill="#2369BD"/>
<path d="M60.6056 67.9471C60.2424 89.2142 28.6081 89.2108 28.248 67.9464C28.6112 46.6802 60.2455 46.6836 60.6056 67.9471Z" fill="#A4CDFF"/>
<path d="M50.9266 67.9471C50.7807 76.4918 38.0705 76.4905 37.9258 67.9468C38.0716 59.4025 50.7818 59.4037 50.9266 67.9471Z" fill="#3C89E5"/>
<path d="M60.6052 67.9448C60.0597 90.3375 26.5075 88.5399 28.3379 66.2355C30.1698 85.1827 58.6881 85.1766 60.5139 66.2355C60.5766 66.7937 60.6052 67.3693 60.6052 67.9448Z" fill="#064187"/>
<path d="M139.809 67.9471C139.445 89.2142 107.811 89.2108 107.451 67.9464C107.814 46.6802 139.448 46.6836 139.809 67.9471Z" fill="#A4CDFF"/>
<path d="M139.808 67.9448C139.263 90.3375 105.711 88.5399 107.541 66.2355C109.373 85.1827 137.891 85.1766 139.717 66.2355C139.78 66.7937 139.808 67.3693 139.808 67.9448Z" fill="#064187"/>
<path d="M130.13 67.9471C129.984 76.4918 117.274 76.4905 117.129 67.9468C117.275 59.4023 129.985 59.4036 130.13 67.9471Z" fill="#3C89E5"/>
<path d="M160.061 54.8568C151.05 57.9322 143.98 40.6504 158.807 41.1191C159.719 44.686 160.026 49.9109 160.061 54.8568Z" fill="#0AE3D0"/>
<g opacity="0.5">
<path d="M160.061 54.8568C154.192 57.5456 147.44 48.313 151.411 43.4041C151.656 47.7857 155.639 52.384 159.992 51.5805C160.032 52.6743 160.055 53.7684 160.061 54.8568Z" fill="#5B6DD9"/>
</g>
<path d="M0.396323 57.4502C1.1308 55.819 10.0466 54.176 12.5506 55.0426C15.0545 55.9091 18.4374 67.7778 15.6386 70.1255C12.8396 72.4734 6.48359 75.2661 4.36493 72.2806C2.24604 69.2954 -1.16461 60.917 0.396323 57.4502Z" fill="#0AE3D0"/>
<g opacity="0.5">
<path d="M15.6363 70.1271C12.8386 72.4745 6.47968 75.2666 4.36575 72.2809C2.33726 69.4205 -0.876351 61.6258 0.223333 57.9221C0.895814 61.6941 2.92994 66.2011 4.36575 68.2239C6.46142 71.3081 15.3678 68.1998 16.5193 64.3437C16.8728 66.9022 16.7132 69.221 15.6363 70.1271Z" fill="#5B6DD9"/>
</g>
<path d="M31.5723 38.6231C31.5723 38.6231 45.6966 9.08215 49.3561 5.29029C53.0157 1.49843 99.7063 -1.96857 115.307 1.30568C130.908 4.57994 133.797 37.8825 133.797 37.8825L31.5723 38.6231Z" fill="#3C89E5"/>
<path d="M77.5242 6.39607V37.011C65.8337 37.0892 51.0953 37.2064 39.4336 37.2844C42.3972 31.1022 51.4656 12.6067 53.8893 10.1967C54.3907 9.68386 55.8664 9.17684 58.0374 8.69802C63.1837 7.57286 71.4712 6.78089 77.5242 6.39607Z" fill="#0AE3D0"/>
<path d="M122.515 36.6861C111.777 36.7636 96.2823 36.8755 85.6152 36.9539V6.00876C93.4384 5.86381 101.243 5.64581 108.093 7.10822C118.192 8.76474 122.645 33.3762 122.515 36.6861Z" fill="#0AE3D0"/>
<path d="M68.2821 7.17676L47.6215 37.2274L39.4336 37.2844C39.7546 34.5066 56.079 11.6763 58.0371 8.69801C60.624 8.13397 64.1965 7.60982 68.2821 7.17676Z" fill="#7DF1E6"/>
<path d="M77.5226 6.39607V21.5696L66.8504 37.0849L53.1641 37.1875L74.1778 6.63526C75.2777 6.54982 76.3945 6.47024 77.5226 6.39607Z" fill="#7DF1E6"/>
<path d="M108.095 7.10822L87.5771 36.9424L85.6172 36.9539V26.4129L99.5999 6.07707C103.067 6.28379 105.654 6.50833 108.095 7.10822Z" fill="#7DF1E6"/>
<path d="M118.653 19.581L106.813 36.7999L93.127 36.8966L112.118 9.27897C114.996 11.6781 117.115 15.524 118.653 19.581Z" fill="#7DF1E6"/>
<g opacity="0.5">
<path d="M77.524 6.39607V12.6637C71.4768 13.0487 63.1789 13.8391 58.0371 14.9656C55.8664 15.4442 54.3905 15.9515 53.8891 16.4641C51.9005 18.521 46.1171 29.9225 42.4991 37.2614L39.4336 37.2842C42.3972 31.102 51.4656 12.6064 53.8893 10.1965C54.3907 9.68363 55.8664 9.17662 58.0374 8.69779C63.1834 7.57285 71.471 6.78089 77.524 6.39607Z" fill="#5B6DD9"/>
</g>
<g opacity="0.5">
<path d="M122.517 36.6861L121.605 36.6917C115.962 10.8444 110.016 11.9391 85.6172 12.2762V6.00855C93.4403 5.86359 101.245 5.64559 108.095 7.108C118.194 8.76474 122.646 33.3762 122.517 36.6861Z" fill="#5B6DD9"/>
</g>
</svg>
