<svg width="183" height="191" viewBox="0 0 183 191" fill="none" xmlns="http://www.w3.org/2000/svg">
<path d="M158.659 185.702C161.994 192.691 21.6893 192.691 25.0355 185.7C21.6996 178.714 162.005 178.714 158.659 185.702Z" fill="#A4CDFF"/>
<path d="M49.7192 75.7845C33.6724 82.706 27.5027 103.897 24.825 120.446L14.6348 118.888C17.6482 98.4811 26.8521 72.7135 47.3078 65.7603L49.6621 75.7958L49.7192 75.7845Z" fill="#37B2FF"/>
<path d="M49.7192 75.7845C33.6724 82.706 27.5027 103.897 24.825 120.446C22.4348 120.079 17.0681 119.259 14.6348 118.888C17.6482 98.4811 26.8521 72.7135 47.3078 65.7603C47.8233 67.951 49.1334 73.5398 49.6621 75.7958L49.7192 75.7845Z" fill="#37B2FF"/>
<path d="M39.4392 83.3972C39.1872 83.6778 38.941 83.9757 38.6887 84.2851L32.1816 76.0939C32.4394 75.8017 32.7028 75.5153 32.9606 75.2404L39.4392 83.3972Z" fill="#351777"/>
<path d="M44.7254 78.4825C44.4105 78.7058 44.0897 78.9521 43.7573 79.2213L40.584 68.8764C40.9335 68.6589 41.2714 68.4526 41.5979 68.2637L44.7254 78.4825Z" fill="#351777"/>
<path d="M33.5119 92.1554C33.3345 92.4878 33.1511 92.8371 32.9735 93.1866L24.748 86.7022C24.9372 86.3586 25.126 86.0263 25.3152 85.694L33.5119 92.1554Z" fill="#351777"/>
<path d="M29.7644 100.576C29.6384 100.925 29.5066 101.286 29.3804 101.653L19.7344 98.0036C19.8604 97.6429 19.9921 97.2819 20.1238 96.9326L29.7644 100.576Z" fill="#351777"/>
<path d="M27.0553 109.357C26.9635 109.723 26.8719 110.096 26.7801 110.468L16.6758 108.395C16.7619 108.017 16.8534 107.65 16.945 107.283L27.0553 109.357Z" fill="#351777"/>
<g opacity="0.4">
<path d="M49.7207 75.7845C33.6739 82.706 27.5042 103.897 24.8264 120.446L20.7539 119.822C23.7247 100.747 31.1621 79.1546 48.1341 69.2717L49.6635 75.796L49.7207 75.7845Z" fill="#1C5497"/>
</g>
<path d="M26.8704 143.784C15.6632 141.266 29.4336 126.861 18.6173 124.36C7.55469 123.458 16.2975 141.368 4.8576 140.363C-1.99116 139.052 0.428602 131.865 1.12027 127.115C2.54831 117.925 11.1868 111.611 20.3767 113.04C29.5668 114.468 35.881 123.106 34.4527 132.296C33.6635 137.03 33.8045 144.612 26.8704 143.784Z" fill="#1C5497"/>
<path d="M19.9298 124.742C16.7651 123.309 12.9261 125.434 12.4434 128.873L11.4008 135.58C10.8133 140.476 3.99756 142.136 1.19336 138.186C4.55964 139.753 8.68478 137.528 9.2012 133.839L10.2438 127.131C10.8028 122.474 17.3233 120.933 19.9298 124.742Z" fill="#003370"/>
<path d="M34.4513 132.298L33.4087 139.006C32.828 143.897 26.0079 145.554 23.207 141.606C26.5728 143.173 30.6987 140.948 31.2149 137.258L32.2573 130.551C33.1452 124.834 31.0372 119.33 27.1019 115.652C32.4177 119.18 35.4937 125.59 34.4513 132.298Z" fill="#003370"/>
<path d="M133.416 75.7845C149.463 82.706 155.633 103.897 158.31 120.446L168.5 118.888C165.487 98.4811 156.283 72.7135 135.827 65.7603L133.473 75.7958L133.416 75.7845Z" fill="#37B2FF"/>
<path d="M133.416 75.7845C149.463 82.706 155.633 103.897 158.31 120.446C160.7 120.079 166.067 119.259 168.5 118.888C165.487 98.4811 156.283 72.7135 135.827 65.7603C135.312 67.951 134.002 73.5398 133.473 75.7958L133.416 75.7845Z" fill="#37B2FF"/>
<path d="M143.701 83.3971C143.953 83.6778 144.199 83.9757 144.452 84.2851L150.959 76.0939C150.701 75.8017 150.438 75.5153 150.18 75.2404L143.701 83.3971Z" fill="#351777"/>
<path d="M138.412 78.4825C138.727 78.7058 139.048 78.9521 139.38 79.2213L142.554 68.8764C142.204 68.6589 141.866 68.4526 141.54 68.2637L138.412 78.4825Z" fill="#351777"/>
<path d="M149.629 92.1555C149.806 92.4878 149.99 92.8371 150.167 93.1866L158.393 86.7025C158.204 86.3589 158.015 86.0266 157.826 85.6942L149.629 92.1555Z" fill="#351777"/>
<path d="M153.375 100.576C153.501 100.925 153.633 101.286 153.759 101.653L163.405 98.0037C163.279 97.6429 163.147 97.2819 163.016 96.9326L153.375 100.576Z" fill="#351777"/>
<path d="M156.084 109.357C156.176 109.723 156.267 110.096 156.359 110.468L166.464 108.395C166.377 108.017 166.286 107.65 166.194 107.283L156.084 109.357Z" fill="#351777"/>
<g opacity="0.4">
<path d="M133.416 75.7845C149.463 82.706 155.633 103.897 158.31 120.446L162.383 119.822C159.412 100.747 151.975 79.1546 135.003 69.2717L133.473 75.796L133.416 75.7845Z" fill="#1C5497"/>
</g>
<path d="M156.268 143.784C167.475 141.266 153.705 126.861 164.521 124.36C175.584 123.458 166.841 141.368 178.281 140.363C185.13 139.052 182.71 131.865 182.018 127.115C180.59 117.925 171.952 111.611 162.762 113.04C153.572 114.468 147.258 123.106 148.686 132.296C149.475 137.03 149.334 144.612 156.268 143.784Z" fill="#1C5497"/>
<path d="M163.209 124.742C166.374 123.309 170.213 125.434 170.695 128.873L171.738 135.58C172.325 140.476 179.141 142.136 181.945 138.186C178.579 139.753 174.454 137.528 173.938 133.839L172.895 127.131C172.336 122.474 165.815 120.933 163.209 124.742Z" fill="#003370"/>
<path d="M148.688 132.298L149.731 139.006C150.312 143.897 157.132 145.554 159.933 141.606C156.567 143.173 152.441 140.948 151.925 137.258L150.882 130.551C149.994 124.834 152.102 119.33 156.038 115.652C150.722 119.18 147.646 125.59 148.688 132.298Z" fill="#003370"/>
<path d="M123.559 130.316H96.1445V172.721H123.559V130.316Z" fill="#37B2FF"/>
<path opacity="0.4" d="M96.1445 130.316C96.1445 140.451 96.1445 162.358 96.1445 172.721H102.445V146.463H123.559C123.559 145.693 123.559 130.648 123.559 130.316H96.1445Z" fill="#1C5497"/>
<path d="M123.559 144.075H96.1445V145.22H123.559V144.075Z" fill="#351777"/>
<path d="M123.559 154.723H96.1445V155.869H123.559V154.723Z" fill="#351777"/>
<path d="M123.559 165.372H96.1445V166.517H123.559V165.372Z" fill="#351777"/>
<path d="M138.539 171.415H97.5872C95.9706 171.415 94.6602 172.726 94.6602 174.342V181.703C94.6602 183.32 95.9706 184.63 97.5872 184.63H138.539C140.155 184.63 141.466 183.32 141.466 181.703V174.342C141.466 172.726 140.156 171.415 138.539 171.415Z" fill="#1C5497"/>
<path d="M141.464 177.515C141.369 179.974 142.31 184.579 138.537 184.63H97.5872C93.8352 184.593 94.7416 179.962 94.6601 177.515C94.6601 179.136 95.9719 180.443 97.5872 180.443H138.537C140.153 180.443 141.464 179.136 141.464 177.515Z" fill="#003370"/>
<path d="M87.2545 130.316H59.8398V172.721H87.2545V130.316Z" fill="#37B2FF"/>
<path opacity="0.4" d="M87.2545 130.316C87.2545 140.451 87.2545 162.358 87.2545 172.721H80.9537V146.463H59.8398C59.8398 145.693 59.8398 130.648 59.8398 130.316H87.2545Z" fill="#1C5497"/>
<path d="M87.2525 144.075H59.8379V145.22H87.2525V144.075Z" fill="#351777"/>
<path d="M87.2525 154.723H59.8379V155.869H87.2525V154.723Z" fill="#351777"/>
<path d="M87.2525 165.372H59.8379V166.517H87.2525V165.372Z" fill="#351777"/>
<path d="M44.8587 171.415H85.8105C87.4272 171.415 88.7376 172.726 88.7376 174.342V181.703C88.7376 183.32 87.4272 184.63 85.8105 184.63H44.8587C43.2423 184.63 41.9316 183.32 41.9316 181.703V174.342C41.9316 172.726 43.2423 171.415 44.8587 171.415Z" fill="#1C5497"/>
<path d="M41.9333 177.515C42.0287 179.974 41.0879 184.579 44.8606 184.63H85.8105C89.5624 184.593 88.656 179.962 88.7375 177.515C88.7375 179.136 87.4257 180.443 85.8105 180.443H44.8604C43.2451 180.443 41.9333 179.136 41.9333 177.515Z" fill="#003370"/>
<path d="M131.257 36.7971H126.153C125.143 36.7971 124.324 35.9785 124.324 34.9686V15.9714C124.324 14.9615 125.143 14.1429 126.153 14.1429H131.257C132.267 14.1429 133.086 14.9615 133.086 15.9714V34.9686C133.086 35.9785 132.267 36.7971 131.257 36.7971Z" fill="#351779"/>
<path d="M60.8023 36.7971H55.6976C54.6878 36.7971 53.8691 35.9785 53.8691 34.9686V15.9714C53.8691 14.9615 54.6878 14.1429 55.6976 14.1429H60.8023C61.8122 14.1429 62.6308 14.9615 62.6308 15.9714V34.9686C62.6308 35.9785 61.8122 36.7971 60.8023 36.7971Z" fill="#351779"/>
<path d="M102.275 48.4376H84.6797V66.0333H102.275V48.4376Z" fill="#37B2FF"/>
<path d="M117.705 0.391525H69.25C64.9872 0.391525 61.5312 3.84723 61.5312 8.11032V44.5683C61.5312 48.8311 64.9872 52.2871 69.25 52.2871H117.705C121.968 52.2871 125.424 48.8311 125.424 44.5683V8.11032C125.424 3.84747 121.968 0.391525 117.705 0.391525Z" fill="#3C89E5"/>
<g opacity="0.4">
<path d="M125.425 8.11295V44.5664C125.425 48.8337 121.971 52.2878 117.709 52.2878H69.2496C65.217 52.2878 61.9119 49.2005 61.5684 45.2537C126.951 42.7128 118.685 60.3473 118.809 0.471634C122.55 1.00455 125.425 4.21782 125.425 8.11295Z" fill="#DAF9FD"/>
</g>
<path d="M113.895 20.9199C113.765 28.5555 102.407 28.5543 102.277 20.9196C102.408 13.2843 113.766 13.2855 113.895 20.9199Z" fill="#DAF9FD"/>
<path d="M84.68 20.9199C84.5497 28.5555 73.1918 28.5543 73.0625 20.9196C73.1928 13.2843 84.5507 13.2855 84.68 20.9199Z" fill="#DAF9FD"/>
<path d="M113.419 38.5721H73.5356C72.7447 38.5721 72.1035 39.2131 72.1035 40.0039C72.1035 40.7948 72.7447 41.4361 73.5356 41.4361H113.418C115.265 41.4631 115.285 38.5446 113.419 38.5721Z" fill="#351779"/>
<path d="M132.015 61.081C29.2125 65.8669 44.0371 36.1365 49.8159 131.712C50.1521 136.353 54.0145 139.944 58.6663 139.944H123.138C127.546 139.944 131.286 136.708 131.92 132.346L140.798 71.231C141.575 65.8784 137.425 61.081 132.015 61.081Z" fill="#3C89E5"/>
<g opacity="0.4">
<path d="M140.796 71.2308L131.918 132.344C131.282 136.709 127.542 139.945 123.137 139.945H58.6615C51.0097 139.709 49.3942 133.165 49.4506 126.73C50.4703 127.143 51.5871 127.366 52.75 127.366H117.225C121.63 127.366 125.371 124.13 126.007 119.765L134.484 61.4301C138.62 62.6214 141.449 66.7344 140.796 71.2308Z" fill="#DAF9FD"/>
</g>
<path d="M84.6794 78.6201C84.5548 85.919 73.6978 85.9179 73.5742 78.6199C73.6988 71.3211 84.5558 71.3223 84.6794 78.6201Z" fill="#DAF9FD"/>
<path d="M66.9235 78.6201C66.799 85.9191 55.942 85.9179 55.8184 78.6199C55.9429 71.3214 66.7999 71.3223 66.9235 78.6201Z" fill="#74D3DE"/>
<path d="M116.806 97.2083H66.3503C63.189 97.2083 60.8476 100.147 61.5543 103.229L65.0256 118.365C65.5382 120.601 67.5276 122.186 69.8216 122.186H113.335C115.629 122.186 117.618 120.601 118.131 118.365L121.602 103.229C122.309 100.147 119.968 97.2083 116.806 97.2083Z" fill="#2369BD"/>
<path d="M108.607 63.8078H61.59C59.7452 63.8078 58.25 65.3032 58.25 67.1477C58.25 68.9925 59.7455 70.4877 61.59 70.4877H108.607C112.96 70.4712 112.986 63.8274 108.607 63.8078Z" fill="#DAF9FD"/>
<path d="M93.3999 2.5478H75.2294C72.4228 2.50668 72.4137 6.92348 75.2297 6.88212H93.3999C96.2065 6.92301 96.2156 2.50644 93.3999 2.5478Z" fill="#DAF9FD"/>
</svg>
