<svg width="224" height="297" viewBox="0 0 224 297" fill="none" xmlns="http://www.w3.org/2000/svg">
<path d="M155.093 0.119812C156.967 1.69722 158.626 3.7878 159.794 5.93842C162.133 10.2406 162.403 14.7991 161.009 19.4491C165.768 15.9008 167.645 13.6465 170.42 8.47562C170.629 8.08557 170.766 7.68377 171.202 7.55844C171.265 7.59791 171.329 7.63517 171.39 7.67673C172.835 8.65962 174.604 12.0813 174.907 13.7909C175.095 14.8473 175.292 15.9101 175.388 16.9793C175.864 22.2842 174.019 27.0644 170.671 31.1144C181.538 43.5269 185.508 57.7001 186.927 73.832C188.068 73.8459 189.132 73.9581 190.225 74.2862C193.624 75.3062 196.329 77.9687 197.946 81.0656C200.991 86.8939 200.636 93.8284 198.724 99.9519C197.172 104.924 194.019 110.043 189.245 112.478C186.799 113.726 184.466 113.796 181.864 112.97C181.535 113.755 181.188 114.533 180.823 115.302C180.457 116.071 180.074 116.831 179.673 117.582C179.272 118.333 178.853 119.074 178.417 119.806C177.981 120.537 177.528 121.258 177.058 121.968C176.588 122.678 176.101 123.376 175.598 124.063C175.095 124.751 174.577 125.425 174.042 126.088C173.507 126.751 172.957 127.4 172.392 128.037C171.826 128.674 171.247 129.297 170.652 129.906C174.381 132.132 177.774 135.315 180.899 138.303C194.014 150.84 204.696 166.444 210.776 183.588C211.952 184.195 213.012 184.876 214.037 185.715C219.825 190.452 223.204 198.518 223.9 205.836C224.408 211.182 222.991 216.239 219.535 220.387C214.98 225.856 207.182 230.106 200.071 230.734C195.862 231.106 191.484 230.072 188.227 227.293C185.197 224.709 183.583 221.247 183.27 217.315C180.855 216.509 178.884 215.283 177.439 213.146C174.689 209.079 173.878 203.294 174.844 198.537C176.035 192.673 180.334 189.073 185.102 185.929C183.543 176.932 174.626 161.15 168.443 154.558C168.731 158.899 169.516 163.257 169.926 167.598C170.965 178.571 171.286 194.481 168.214 205.171C165.638 214.131 160.441 218.663 152.527 223.042C155.125 231.836 157.68 240.721 159.413 249.731C161.507 249.845 163.601 249.956 165.66 250.385C165.92 253.645 166.052 256.92 166.23 260.186C168.821 259.212 171.667 258.83 174.424 258.805C180.643 258.75 186.824 260.623 191.316 265.06C195.899 269.586 197.871 275.451 197.898 281.789C198.053 281.885 198.203 281.979 198.348 282.089C199.634 283.061 200.374 284.693 200.579 286.262C200.789 287.874 200.437 289.437 199.407 290.716C196.512 294.312 187.817 295.321 183.323 295.817C172.191 297.046 143.318 296.553 134.503 289.367C133.413 288.479 132.65 287.417 132.432 286.007C132.03 283.413 133.552 281.05 133.385 278.453C133.082 273.76 132.468 268.912 131.646 264.28C131.185 261.675 130.42 259.054 130.164 256.425C131.83 255.207 133.578 254.262 135.417 253.339C133.708 245.345 132.271 237.271 130.721 229.245C129.203 229.45 127.681 229.627 126.156 229.777C124.632 229.927 123.105 230.05 121.575 230.145C120.046 230.24 118.516 230.307 116.984 230.348C115.452 230.388 113.92 230.4 112.388 230.385C110.856 230.371 109.325 230.328 107.795 230.258C106.264 230.189 104.735 230.091 103.208 229.966C101.681 229.841 100.157 229.689 98.635 229.51C97.1134 229.33 95.5955 229.123 94.0813 228.889C92.8598 232.813 92.0114 236.886 91.053 240.881C90.1182 244.901 89.3051 249.005 88.1494 252.965C90.1575 254.086 92.4466 254.983 94.2025 256.492C92.8221 262.251 91.8162 268.074 91.1849 273.962C90.9537 276.065 90.6449 278.254 90.7384 280.371C90.7999 281.763 91.6329 283.068 91.7055 284.519C91.7824 286.048 91.3208 287.532 90.2418 288.634C84.8056 294.188 63.5705 296.215 55.9753 296.342C49.3311 296.454 30.5765 295.99 25.7971 291.14C24.5862 289.911 24.1483 288.361 24.1455 286.67C24.1425 284.665 24.8712 283.268 26.2661 281.892C26.2261 279.811 26.4783 277.831 27.0537 275.828C28.6844 270.153 32.1246 264.67 37.4052 261.773C43.29 258.544 50.468 258.399 56.8173 260.214C57.0999 257.778 57.5193 252.783 58.4394 250.671C59.5966 249.885 63.323 249.782 64.8535 249.608C67.2552 240.606 70.0234 231.682 72.5254 222.704C67.805 220.302 63.3214 216.88 60.223 212.549C59.7488 211.877 59.3033 211.186 58.8866 210.476C58.4696 209.767 58.0828 209.041 57.726 208.3C57.3693 207.558 57.0439 206.803 56.7499 206.035C56.4559 205.267 56.1942 204.487 55.9649 203.697C52.0044 190.06 53.955 168.118 56.3426 154.008C47.6704 162.208 41.5595 173.759 39.3463 185.456C43.7178 187.893 47.7823 192.329 49.3823 197.112C50.8595 201.527 50.6616 206.882 48.5249 211.058C47.4824 213.095 46.1173 214.416 43.9202 215.121C41.6293 220.06 38.3259 225.869 33.5189 228.748C29.3256 231.259 24.0019 231.256 19.3834 230.086C12.8503 228.433 6.86269 224.375 3.444 218.509C0.177604 212.903 -0.447564 206.182 1.21172 199.958C2.99034 193.287 7.40966 186.726 13.4714 183.247C14.3561 180.725 15.6532 178.245 16.783 175.821C23.7734 160.826 33.5868 146.859 46.4061 136.276C48.908 134.21 51.4417 132.228 54.216 130.538C48.8204 124.956 45.4842 119.674 42.441 112.59C39.4418 113.241 36.756 113.211 34.0735 111.526C29.208 108.469 26.2636 101.562 25.0179 96.1929C23.7749 90.8358 23.8681 85.3337 26.894 80.5762C29.1924 76.9629 32.3533 74.9459 36.489 74.036C37.1877 64.5957 37.9626 57.0754 41.6851 48.2058C48.3307 32.3712 60.6605 20.7427 76.488 14.2923C97.9337 5.55236 124.077 5.06627 145.507 14.0657C145.868 13.8907 146.218 13.6982 146.559 13.4883C151.855 10.2457 153.667 5.94451 155.093 0.119812Z" fill="#040403"/>
<path d="M135.859 254.97C136.098 255.416 136.149 256.038 136.249 256.536L133.818 256.577L133.621 256.546C134.101 255.932 135.184 255.402 135.859 254.97Z" fill="#26313A"/>
<path d="M181.066 213.877C182.491 212.96 184.061 211.918 185.723 211.51C184.7 212.684 184.132 213.725 183.541 215.16C182.696 214.764 181.852 214.385 181.066 213.877Z" fill="#BC503A"/>
<path d="M183.791 106.624C184.376 106.811 185.189 106.651 185.795 106.56C189.48 106.005 193.292 102.376 195.274 99.4065C196.046 98.2488 196.558 96.8538 197.395 95.7575C197.456 95.6785 197.518 95.6013 197.579 95.5233C196.657 100.868 194.039 106.589 189.487 109.786C187.906 110.896 185.904 111.758 183.938 111.444C183.479 111.37 183.039 111.251 182.602 111.098C183.008 109.611 183.44 108.126 183.791 106.624Z" fill="#BC503A"/>
<path d="M27.4258 97.1268C27.5067 97.188 27.5891 97.2476 27.669 97.3104C28.6121 98.0493 29.4575 99.3698 30.2315 100.304C32.7404 103.332 36.1434 105.687 40.2555 105.417C40.673 107.135 41.222 108.831 41.7224 110.527C39.4185 110.978 37.4292 110.98 35.3298 109.725C31.3586 107.353 28.4372 101.462 27.4258 97.1268Z" fill="#BC503A"/>
<path d="M132.762 228.817C135.862 228.232 138.932 227.514 141.97 226.664C145.008 225.813 148.004 224.832 150.957 223.721C151.401 225.517 151.879 227.29 152.443 229.053C152.39 229.062 152.336 229.07 152.283 229.08C150.507 229.408 148.797 230.155 147.049 230.62C142.5 231.828 138.09 232.073 133.407 231.918C133.244 230.879 132.985 229.845 132.762 228.817Z" fill="#76ADBF"/>
<path d="M74.163 223.376C79.971 225.876 85.7323 227.168 91.896 228.431C91.5547 229.628 91.2488 230.834 90.9784 232.049C90.4932 231.703 84.9623 232.157 83.7897 232.101C79.8456 231.913 76.1862 230.849 72.4434 229.699C73.0383 227.597 73.6116 225.489 74.163 223.376Z" fill="#76ADBF"/>
<path d="M166.189 34.84C167.254 34.1358 168.319 33.4079 169.249 32.5282C180.025 45.1964 184.876 60.7625 185.329 77.2813L185.049 77.483C185.011 77.1275 184.773 76.8003 184.69 76.4439C184.329 74.8977 184.129 73.2758 183.832 71.7131C181.258 58.1399 176.378 44.5891 166.189 34.84Z" fill="#BC503A"/>
<path d="M2.71289 209.914C2.77503 209.966 2.83801 210.016 2.89889 210.069C3.34877 210.463 5.78394 214.444 6.57307 215.418C11.4865 221.484 20.0668 225.103 27.8407 224.81C31.3611 224.678 34.6518 223.247 37.047 220.655C38.0381 219.582 39.8343 216.898 40.9988 216.355C40.25 218.141 39.0691 219.939 37.923 221.491C35.3144 225.025 32.2522 227.98 27.7502 228.624C21.8456 229.468 15.6262 227.337 10.9498 223.778C6.48794 220.382 3.45058 215.505 2.71289 209.914Z" fill="#BC503A"/>
<path d="M89.6015 283.475C89.7328 284.716 89.8171 285.581 89.008 286.634C85.9695 290.585 71.8795 292.784 66.8622 293.308C56.5435 294.386 43.1108 294.418 32.9721 292.001C31.2829 291.598 29.0903 291.132 27.7228 289.996C26.6455 289.102 26.4131 287.989 26.2637 286.659C37.134 293.524 64.7601 292.185 77.0449 289.46C80.5585 288.681 87.5016 286.761 89.6015 283.475Z" fill="#A65410"/>
<path d="M221.734 208.112C221.608 213.25 219.752 217.342 216.013 220.876C211.498 225.145 204.439 228.745 198.098 228.563C194.518 228.46 190.768 227.136 188.297 224.465C186.821 222.869 185.517 220.397 185.389 218.199C186.417 218.857 187.783 220.366 188.91 221.212C191.753 223.346 196.201 225.068 199.789 224.504C206.377 223.468 214.561 217.379 218.79 212.419C219.892 211.127 220.643 209.599 221.642 208.235L221.734 208.112Z" fill="#BC503A"/>
<path d="M134.244 285.691C134.231 285.081 134.257 284.468 134.27 283.858C134.362 283.889 134.454 283.917 134.545 283.951C135.37 284.259 135.998 285.333 136.723 285.864C138.264 286.993 140.254 287.76 142.052 288.361C154.413 292.497 180.656 293.078 192.687 288.212C194.233 287.586 197.29 286.435 198.172 285.007C198.417 285.948 198.633 287.023 198.354 287.979C198 289.194 196.929 290.002 195.859 290.573C185.195 296.254 153.644 294.057 142.107 290.597C139.189 289.722 135.768 288.531 134.244 285.691Z" fill="#A65410"/>
<path d="M111.665 197.251C114.553 197.301 117.344 197.767 119.551 199.787C120.886 201.01 121.769 202.691 121.82 204.519C121.868 206.205 121.172 207.794 120.015 209.002C117.978 211.127 115.132 211.584 112.338 211.648C109.571 211.661 106.442 211.323 104.254 209.45C102.988 208.365 102.211 206.866 102.122 205.197C102.025 203.384 102.729 201.53 103.944 200.191C105.995 197.932 108.755 197.343 111.665 197.251Z" fill="#F8F7F3"/>
<path d="M89.0089 280.989C89.2688 281.801 89.4253 282.641 89.6021 283.475C87.502 286.761 80.5591 288.681 77.0454 289.46C64.7605 292.185 37.1344 293.524 26.2641 286.659C26.2638 286.504 26.2622 286.35 26.2675 286.196C26.2946 285.406 26.3174 284.499 26.9207 283.937C28.8209 284.894 30.6115 285.55 32.6949 286.024C45.5585 288.951 70.4228 288.254 83.0078 283.943C85.161 283.205 87.0885 282.203 89.0089 280.989Z" fill="#CB6316"/>
<path d="M135.164 281.026C135.619 281.353 136.085 281.662 136.563 281.955C137.041 282.247 137.529 282.521 138.027 282.778C138.525 283.034 139.032 283.273 139.547 283.492C140.062 283.711 140.585 283.912 141.115 284.093C153.29 288.375 176.124 288.375 188.788 286.214C191.843 285.693 194.519 284.858 197.283 283.459C197.62 283.964 197.946 284.439 198.172 285.007C197.289 286.435 194.233 287.586 192.687 288.212C180.656 293.078 154.413 292.497 142.051 288.361C140.253 287.76 138.264 286.993 136.722 285.864C135.997 285.333 135.369 284.259 134.544 283.951C134.454 283.917 134.361 283.889 134.27 283.858C134.505 282.877 134.794 281.965 135.164 281.026Z" fill="#CB6316"/>
<path d="M61.6762 136.832C65.8509 139.479 70.083 141.961 74.6391 143.905C93.4248 151.917 116.265 152.935 136.062 148.495C145.291 146.424 154.982 142.554 162.546 136.796C162.758 137.624 162.925 138.884 163.387 139.593C163.031 139.614 162.739 139.705 162.422 139.861C161.268 140.43 160.177 141.228 159.064 141.881C156.93 143.137 154.734 144.275 152.477 145.294C150.071 146.372 147.571 147.217 145.078 148.068C130.975 152.886 117.006 154.287 102.182 153.003C100.041 152.815 97.9087 152.553 95.786 152.216C93.6631 151.878 91.5546 151.467 89.4607 150.982C87.3666 150.497 85.292 149.939 83.2372 149.309C81.1825 148.679 79.1521 147.977 77.1464 147.204C74.4335 146.139 71.786 144.931 69.2039 143.58C67.937 142.912 62.5453 139.469 61.8728 139.419C61.7928 139.413 61.7126 139.413 61.6326 139.41C61.4552 139.314 61.2802 139.29 61.2221 139.079C61.0531 138.466 61.4839 137.443 61.6762 136.832Z" fill="#242728"/>
<path d="M27.4239 97.1268C27.2631 96.6932 27.1269 96.2578 27.002 95.8129C25.7446 91.3284 25.8291 86.4276 28.1723 82.3075C30.0024 79.0902 32.8911 76.6898 36.477 75.7193C36.5075 79.6407 36.6418 83.5246 36.9808 87.4325C37.1188 88.3443 37.2046 89.2634 37.3021 90.1805C38.0195 95.2569 38.9291 100.463 40.2536 105.417C36.1415 105.687 32.7385 103.332 30.2295 100.304C29.4555 99.3699 28.6101 98.0494 27.667 97.3104C27.5872 97.2477 27.5048 97.188 27.4239 97.1268Z" fill="#E36F54"/>
<path d="M36.981 87.4325C37.1191 88.3443 37.2049 89.2634 37.3023 90.1804C37.263 90.1605 37.2258 90.1352 37.1842 90.1208C36.6166 89.9231 35.5102 90.2085 34.9551 90.4222C33.663 90.9203 32.5636 91.8958 32.0054 93.1603C31.8854 93.4321 31.9941 93.3171 31.6883 93.4599C31.541 93.3064 31.5195 93.2959 31.3876 93.0917C30.8371 92.2387 30.7803 90.8647 30.9952 89.9044C31.1788 89.083 31.6287 88.4176 32.3492 87.976C33.7911 87.0919 35.2788 87.3591 36.8053 87.7551L36.981 87.4325Z" fill="#BC503A"/>
<path d="M186.809 85.5041C186.898 82.0366 186.818 78.5331 186.962 75.0742C190.716 75.9478 193.409 77.5619 195.495 80.8892C198.175 85.1643 198.668 90.6687 197.581 95.5231C197.52 95.6012 197.458 95.6784 197.397 95.7574C196.56 96.8537 196.048 98.2486 195.276 99.4064C193.294 102.376 189.482 106.005 185.797 106.56C185.191 106.651 184.378 106.811 183.793 106.624C184.671 102.803 185.372 98.9872 185.987 95.1141C186.379 91.921 186.653 88.7176 186.809 85.5041Z" fill="#E36F54"/>
<path d="M186.809 85.5041C188.255 85.8343 189.522 86.334 190.365 87.6449C191.036 88.6896 191.175 89.9651 190.875 91.1586C190.51 92.6117 189.544 93.7848 188.233 94.494C187.538 94.8701 186.755 94.9808 185.986 95.1142C186.378 91.921 186.652 88.7176 186.809 85.5041Z" fill="#BC503A"/>
<path d="M72.4434 229.699C76.1861 230.849 79.8456 231.913 83.7897 232.101C84.9623 232.157 90.4932 231.703 90.9784 232.049C89.1989 239.971 87.3549 247.878 85.4466 255.77C78.9251 254.899 72.23 253.921 65.8457 252.299C66.7378 249.642 67.4248 246.895 68.2104 244.203L72.4434 229.699Z" fill="#ABD1DE"/>
<path d="M133.408 231.918C138.091 232.073 142.501 231.828 147.05 230.62C148.799 230.155 150.508 229.408 152.284 229.08C152.338 229.07 152.391 229.062 152.444 229.053C153.883 234.104 155.224 239.18 156.469 244.282C157.112 246.935 157.624 249.646 158.323 252.28C151.626 253.626 144.835 255.113 138.017 255.671C136.428 247.769 135.095 239.796 133.408 231.918Z" fill="#ABD1DE"/>
<path d="M56.1133 192.066C70.5831 198.289 87.9198 199.774 103.512 199.508C103.162 199.871 102.848 200.263 102.57 200.685C101.485 202.3 101.033 204.389 101.46 206.297C101.966 208.553 103.354 209.897 105.251 211.05C105.737 211.307 106.212 211.588 106.691 211.858C103.286 211.897 99.8663 211.648 96.4708 211.415C83.5629 210.53 70.3853 208.47 58.265 203.789C57.0183 200.049 56.5973 195.961 56.1133 192.066Z" fill="#26313A"/>
<path d="M168.046 191.654C168.348 195.193 167.204 200.26 166.554 203.792C157.167 208.285 135.045 210.728 124.724 211.285C122.924 211.382 120.343 211.842 118.617 211.41L118.561 211.25L119.05 210.902C119.175 210.809 119.299 210.715 119.422 210.618C121.057 209.332 122.322 207.485 122.546 205.379C122.773 203.242 122.002 201.304 120.712 199.646C124.088 199.495 127.472 199.571 130.847 199.361C140.786 198.743 151.118 197.172 160.651 194.283C163.156 193.524 165.599 192.577 168.046 191.654Z" fill="#26313A"/>
<path d="M163.284 206.788C164.166 206.431 165.059 206.127 165.962 205.829C162.478 214.208 158.009 218.476 149.62 221.944C129.512 230.256 96.7105 230.507 76.5868 222.117C71.6749 220.069 67.012 217.319 63.5488 213.2C65.4665 213.74 67.4265 214.815 69.3065 215.534C73.6571 217.199 78.0272 218.54 82.6095 219.401C103.656 223.354 140.552 223.766 158.647 211.261C159.828 210.445 163.005 208.279 163.284 206.788Z" fill="#76ADBF"/>
<path d="M162.959 252.404C163.226 252.354 163.272 252.362 163.52 252.434C164.207 253.642 164.039 259.462 164.222 261.263C154.71 266.373 149.872 273.911 146.421 283.884C143.04 283.116 139.96 282.084 136.913 280.41C136.404 280.119 135.961 279.786 135.5 279.424C135.224 275.006 134.743 270.611 134.056 266.239C133.581 263.25 132.923 260.295 132.438 257.308C134.13 257.504 135.887 257.396 137.587 257.321C146.306 256.937 154.624 254.825 162.959 252.404Z" fill="#26313A"/>
<path d="M59.6761 252.329C63.3222 253.635 67.3519 254.359 71.1472 255.094C76.3014 256.092 81.4643 257.077 86.7071 257.464C87.102 256.578 87.3393 255.634 87.6051 254.704C89.0171 255.658 90.5545 256.493 92.0176 257.371C90.4421 264.445 89.2121 271.426 88.6863 278.662C88.6525 278.915 88.6355 279.188 88.4769 279.402C86.8919 281.534 80.2444 283.06 77.5235 283.756C77.0342 282.124 76.479 280.514 75.8581 278.927C72.6356 270.89 66.8181 264.414 58.8301 260.965C59.0863 258.082 59.5236 255.223 59.6761 252.329Z" fill="#26313A"/>
<path d="M58.8477 205.357C80.779 213.668 113.558 214.378 136.856 211.761C141.315 211.256 145.75 210.588 150.16 209.758C154.571 208.928 158.945 207.938 163.282 206.788C163.004 208.28 159.827 210.445 158.646 211.261C140.551 223.766 103.655 223.354 82.6083 219.401C78.0261 218.54 73.656 217.199 69.3053 215.534C67.4255 214.815 65.4654 213.74 63.5477 213.2C61.4753 210.891 60.0011 208.223 58.8477 205.357Z" fill="#ABD1DE"/>
<path d="M42.5879 106.772C42.6156 106.806 42.6438 106.84 42.6712 106.875C43.6755 108.157 44.3791 109.79 45.2085 111.197C46.6333 113.636 48.2428 115.946 50.0368 118.127C61.0237 131.435 78.6792 138.906 95.4717 141.125C100.856 141.836 106.29 141.974 111.714 142C116.614 142.024 121.483 141.958 126.363 141.458C140.183 140.04 154.41 135.453 165.524 126.937C169.611 123.805 173.486 119.981 176.676 115.936C177.748 114.576 180.716 109.538 181.544 108.926C180.448 112.621 178.362 116.518 176.276 119.748C166.864 134.322 150.597 143.277 133.926 146.813C127.358 148.206 120.626 148.732 113.921 148.809C96.6522 149.009 79.5197 145.77 64.8842 136.213C55.9447 130.375 49.8649 123.861 45.3475 114.121C44.2813 111.823 43.1069 109.252 42.5879 106.772Z" fill="#BC503A"/>
<path d="M46.7376 261.051C51.8651 260.338 57.7622 261.997 62.1397 264.621C68.9515 268.706 74.093 276.502 75.9661 284.138C69.782 285.126 63.5908 285.933 57.3194 286.057C50.2349 286.129 34.4069 286.236 28.1628 282.951C27.7959 277.73 30.1444 271.858 33.3724 267.821C36.8384 263.487 41.3358 261.676 46.7376 261.051Z" fill="#26313A"/>
<path d="M55.3962 132.099C55.8153 132.136 59.5433 135.56 60.273 136.136C58.8006 140.753 57.8876 145.755 57.0776 150.53C46.6111 160.613 40.7929 169.901 37.6227 184.146C32.5682 181.771 29.1571 180.747 23.5168 180.74C20.9029 180.812 18.6448 181.287 16.1875 182.166C17.3545 178.975 18.8278 175.954 20.3469 172.918C28.4073 156.814 40.2715 142.058 55.3962 132.099Z" fill="#B21212"/>
<path d="M172.958 260.747C173.11 260.732 173.261 260.715 173.414 260.707C179.152 260.412 185.264 262.253 189.499 266.215C194.162 270.577 195.792 276.237 195.965 282.435C189.746 285.553 178.122 285.845 171.201 285.941C163.316 286.006 155.646 285.336 147.848 284.242C149.666 279.343 151.778 274.645 155.15 270.585C159.745 265.052 165.735 261.412 172.958 260.747Z" fill="#26313A"/>
<path d="M169.281 131.301C171.41 132.32 174.201 135.162 176.021 136.76C176.903 137.538 177.773 138.329 178.633 139.132C179.492 139.936 180.339 140.752 181.174 141.58C182.009 142.408 182.832 143.249 183.642 144.101C184.452 144.954 185.25 145.818 186.035 146.694C186.82 147.57 187.592 148.458 188.351 149.356C189.11 150.255 189.856 151.164 190.588 152.085C191.32 153.005 192.039 153.936 192.744 154.878C193.449 155.82 194.14 156.771 194.816 157.733C195.493 158.695 196.156 159.667 196.805 160.648C197.453 161.629 198.087 162.62 198.706 163.62C199.326 164.62 199.93 165.629 200.52 166.647C201.11 167.664 201.684 168.691 202.244 169.725C202.804 170.76 203.348 171.802 203.877 172.853C204.406 173.903 204.92 174.961 205.418 176.027C205.916 177.093 206.398 178.165 206.864 179.245C207.331 180.325 207.781 181.411 208.216 182.505C205.641 181.741 203.301 181.351 200.613 181.355C195.782 181.48 191.282 182.816 186.904 184.786C183.719 174.59 179.804 166.709 173.715 157.907C172.775 156.543 171.775 155.223 170.717 153.948C169.641 152.64 168.26 151.3 167.509 149.784C166.71 148.171 166.462 145.854 166.05 144.092C165.423 141.409 164.738 138.765 163.908 136.138C165.792 134.65 167.734 133.148 169.281 131.301Z" fill="#B21212"/>
<path d="M181.07 213.877C180.752 213.652 180.43 213.421 180.147 213.152C177.759 210.887 176.835 206.623 176.671 203.472C176.456 199.379 177.29 195.65 180.113 192.571C185.169 187.055 192.784 183.571 200.245 183.258C205.184 183.05 209.712 184.546 213.343 187.943C218.738 192.988 221.463 200.866 221.736 208.112L221.644 208.235C220.645 209.599 219.893 211.127 218.792 212.419C214.563 217.379 206.378 223.468 199.791 224.504C196.203 225.068 191.754 223.346 188.911 221.212C187.784 220.366 186.419 218.856 185.39 218.199C185.027 217.116 184.999 215.418 185.42 214.367C186.211 212.39 188.406 211.454 190.235 210.68C192.269 213.507 193.728 216.616 196.004 219.3C193.984 213.769 191.572 208.627 187.847 204.016C187.284 203.32 186.514 202.235 185.712 201.815C185.383 201.643 185.225 201.64 184.88 201.746C184.834 202.963 188.602 207.9 189.473 209.184C188.107 209.82 186.932 210.611 185.726 211.51C184.064 211.918 182.495 212.96 181.07 213.877Z" fill="#E36F54"/>
<path d="M61.6328 139.41C61.7128 139.413 61.793 139.413 61.873 139.419C62.5455 139.469 67.9371 142.912 69.2041 143.58C71.7862 144.931 74.4337 146.139 77.1466 147.204C79.1523 147.977 81.1827 148.678 83.2375 149.309C85.2922 149.939 87.3668 150.497 89.4609 150.982C91.5548 151.467 93.6633 151.878 95.7862 152.215C97.9089 152.553 100.041 152.815 102.182 153.003C117.007 154.287 130.975 152.886 145.078 148.068C147.571 147.217 150.071 146.372 152.478 145.294C154.734 144.275 156.93 143.137 159.064 141.881C160.177 141.228 161.268 140.43 162.422 139.861C162.739 139.705 163.031 139.614 163.387 139.593C163.391 139.799 163.408 140.027 163.316 140.219C162.808 141.267 159.091 144.254 158.049 145.299C144.067 159.327 129.088 172.201 111.415 181.376C98.7547 174.752 87.1121 165.607 76.9999 155.557C71.7297 150.32 66.799 144.75 61.6328 139.41Z" fill="#26313A"/>
<path d="M2.71404 209.914C2.68653 209.706 2.66166 209.498 2.6393 209.29C2.61694 209.081 2.59721 208.872 2.57999 208.664C2.56299 208.455 2.5484 208.246 2.53633 208.036C2.52426 207.827 2.51481 207.617 2.50799 207.408C2.50106 207.198 2.49665 206.989 2.49508 206.779C2.49329 206.569 2.49403 206.36 2.49749 206.15C2.50096 205.94 2.50705 205.731 2.51565 205.521C2.52426 205.312 2.53539 205.102 2.54914 204.893C2.56289 204.684 2.57916 204.475 2.59805 204.266C2.61715 204.057 2.63867 203.849 2.6626 203.641C2.68664 203.432 2.7132 203.224 2.74259 203.017C2.77166 202.809 2.80336 202.602 2.83758 202.395C2.8718 202.188 2.90864 201.982 2.948 201.776C2.98736 201.57 3.02924 201.364 3.07375 201.16C3.11804 200.955 3.16496 200.75 3.21461 200.546C3.26405 200.343 3.3159 200.139 3.37017 199.937C3.42475 199.734 3.48175 199.533 3.54116 199.332C3.60057 199.131 3.66239 198.93 3.72663 198.731C3.79097 198.531 3.85783 198.332 3.92711 198.134C3.99639 197.937 4.06808 197.74 4.14208 197.543C4.21629 197.347 4.29281 197.152 4.37153 196.958C4.45047 196.763 4.53171 196.57 4.61536 196.378C4.69923 196.186 4.7853 195.994 4.87368 195.804C4.96206 195.614 5.05265 195.425 5.14554 195.237C5.23864 195.049 5.33395 194.863 5.43157 194.677C5.5294 194.491 5.62932 194.307 5.73135 194.124C5.83348 193.941 5.93781 193.759 6.04446 193.579C6.1511 193.398 6.25995 193.219 6.371 193.041C6.48216 192.863 6.59541 192.687 6.71077 192.511C6.82623 192.336 6.94369 192.163 7.06314 191.991C7.1829 191.818 7.30466 191.648 7.42841 191.478C7.55248 191.309 7.67844 191.142 7.80639 190.976C11.2672 186.51 15.8024 183.404 21.4861 182.708C28.3988 181.861 35.1268 184.357 40.5005 188.627C44.4219 191.744 47.5632 196.049 48.1478 201.129C48.5479 204.608 47.8865 208.988 45.6176 211.78C45.095 212.423 44.5862 212.835 43.7421 212.887C41.6294 213.017 39.4566 211.813 37.9488 210.403C37.3304 209.825 36.7788 209.15 36.3033 208.451C37.6939 205.873 38.9873 203.322 39.7361 200.472C36.1692 205.048 31.4403 212.57 29.0155 217.793C31.4572 215.664 33.4591 213.035 35.156 210.284C37.2871 212.549 38.938 213.697 41.8795 214.699C41.5934 215.248 41.329 215.832 41 216.355C39.8354 216.898 38.0392 219.582 37.0481 220.655C34.653 223.247 31.3622 224.678 27.8418 224.81C20.0678 225.103 11.4876 221.484 6.57421 215.418C5.78509 214.444 3.34991 210.463 2.90003 210.069C2.83915 210.016 2.77617 209.966 2.71404 209.914Z" fill="#E36F54"/>
<path d="M60.8459 140.516C63.0529 141.712 69.6004 149.365 71.8539 151.726C74.1842 154.162 76.5679 156.545 79.0048 158.874C85.8305 165.385 93.2984 171.556 101.213 176.702C104.486 178.829 107.898 180.732 111.302 182.639C114.765 181.159 118.157 178.986 121.353 177.005C133.441 169.512 144.416 160.032 154.65 150.198C157.708 147.261 160.573 144.119 163.643 141.203C164.856 145.206 165.49 149.463 166.12 153.588C166.727 157.561 167.323 161.538 167.643 165.545C168.575 173.842 168.549 182.26 168.235 190.589C156.349 194.91 144.297 197.145 131.703 198.128C127.841 198.429 123.963 198.703 120.087 198.69C119.19 198.123 118.297 197.573 117.317 197.16C114.286 195.881 110.449 195.711 107.347 196.846C106.257 197.245 105.256 197.858 104.172 198.271C102.462 198.922 98.7817 198.522 96.8857 198.45C83.7094 197.946 68.0686 196.239 55.9654 190.777C55.9035 188.668 55.8749 186.559 55.8794 184.449C55.8839 182.339 55.9217 180.23 55.9928 178.121C56.0638 176.013 56.168 173.906 56.3056 171.8C56.4434 169.695 56.6141 167.592 56.818 165.492C57.0219 163.392 57.2589 161.296 57.5289 159.203C57.7989 157.111 58.1019 155.023 58.4379 152.941C58.7739 150.857 59.1426 148.78 59.544 146.709C59.9452 144.638 60.3792 142.574 60.8459 140.516Z" fill="#B21212"/>
<path d="M155.594 3.44194C156.079 4.0309 156.572 4.62069 157.016 5.2404C159.391 8.54784 160.424 12.4137 159.726 16.4454C158.795 21.8199 155.558 23.3273 151.487 26.1751C153.922 25.3349 156.075 24.0519 158.248 22.695C164.004 19.1013 167.476 16.3049 171.132 10.3901L171.305 10.651C173.395 13.8677 173.925 18.2604 173.104 21.9623C171.596 28.7579 166.448 33.6049 160.809 37.2132C162.706 36.5804 164.431 35.7903 166.189 34.8399C176.378 44.589 181.258 58.1399 183.832 71.7129C184.129 73.2757 184.329 74.8975 184.69 76.4436C184.773 76.8001 185.011 77.1273 185.049 77.4828L185.329 77.2811C185.552 78.6338 185.453 80.1895 185.453 81.5638C185.436 84.8056 185.286 88.0414 185.004 91.2711C184.722 94.5007 184.309 97.7133 183.765 100.909C183.055 96.5321 182.386 92.1478 181.419 87.8183C177.59 70.6785 170.402 50.965 157.703 38.3711C154.751 39.659 151.758 40.8432 148.724 41.9238C117.76 53.1091 97.6283 51.3479 68.0523 37.4538C66.4994 38.7964 65.0965 40.394 63.7308 41.9248C49.9293 57.3949 42.922 81.1158 41.1861 101.4C40.2522 98.8434 39.9031 95.9046 39.4585 93.2267C37.0598 78.7902 37.638 63.2549 43.0374 49.5217C48.973 34.4234 60.9764 23.0647 75.7495 16.6566C97.1521 7.37255 124.186 6.97242 145.845 15.5205C146.214 15.3375 146.571 15.1345 146.917 14.9113C151.115 12.2578 154.498 8.37506 155.594 3.44194Z" fill="#B21212"/>
<path d="M42.5887 106.772C42.3891 106.148 42.1289 105.465 42.0512 104.815C41.8537 103.17 42.6357 99.0764 42.879 97.2876C44.765 83.4221 48.4419 69.7962 54.8687 57.3173C58.3227 50.6107 62.7847 44.2151 68.2172 38.9553C73.9653 41.4453 79.574 44.0443 85.5401 46.0005C94.1228 48.8149 103.54 50.6128 112.593 50.6045C126.26 50.5922 140.304 46.6216 152.913 41.6291C154.415 41.037 155.908 40.4233 157.392 39.7877C159.483 41.983 161.475 44.2494 163.236 46.7218C172.434 59.6358 178.371 77.4836 181.105 92.9786C181.671 96.1866 182.649 100.761 182.552 103.991C182.501 105.697 182.102 107.322 181.545 108.926C180.717 109.538 177.749 114.576 176.676 115.936C173.487 119.981 169.612 123.805 165.525 126.937C154.411 135.453 140.184 140.04 126.364 141.458C121.484 141.958 116.615 142.024 111.715 142C106.291 141.974 100.856 141.836 95.4725 141.125C78.6801 138.906 61.0245 131.435 50.0377 118.127C48.2436 115.946 46.6342 113.636 45.2094 111.197C44.3801 109.79 43.6765 108.157 42.6721 106.875C42.6446 106.84 42.6163 106.806 42.5887 106.772Z" fill="#E36F54"/>
<path d="M110.674 90.384C115.178 90.0887 119.52 91.2807 123.178 93.9207C120.154 92.9126 117.306 92.3551 114.135 92.0538C109.701 91.8056 105.482 92.4265 101.223 93.6236C104.188 91.6885 107.148 90.7238 110.674 90.384Z" fill="#040403"/>
<path d="M108.027 99.3025C116.17 98.8037 125.59 99.5092 133.164 102.737C142.486 106.71 148.763 115.158 152.472 124.315C151.778 123.982 151.08 123.658 150.378 123.344C149.676 123.029 148.97 122.724 148.259 122.429C147.549 122.133 146.835 121.847 146.117 121.571C145.399 121.294 144.677 121.027 143.952 120.77C143.227 120.512 142.499 120.265 141.767 120.027C141.035 119.789 140.301 119.561 139.563 119.342C138.825 119.124 138.084 118.916 137.341 118.717C136.598 118.518 135.852 118.329 135.104 118.151C134.355 117.972 133.605 117.803 132.852 117.644C132.099 117.485 131.344 117.337 130.588 117.198C129.831 117.059 129.072 116.931 128.312 116.812C127.552 116.694 126.79 116.585 126.027 116.487C125.264 116.389 124.499 116.3 123.734 116.222C122.969 116.145 122.202 116.077 121.435 116.019C120.668 115.962 119.9 115.915 119.131 115.878C118.363 115.84 117.594 115.814 116.825 115.797C112.659 115.5 108.381 115.667 104.221 116.004C92.3519 116.964 82.8669 119.614 72.0449 124.519C74.4666 119.859 76.5487 115.442 80.0169 111.391C87.8211 102.273 96.6292 100.201 108.027 99.3025Z" fill="#040403"/>
<path d="M85.9294 107.545C86.3826 108.365 86.0634 116.355 86.0062 117.756C82.301 118.89 78.7031 120.034 75.1875 121.684C75.0802 121.581 75.1472 121.661 75.0879 121.386C77.5326 116.23 81.554 111.152 85.9294 107.545Z" fill="#F8F7F3"/>
<path d="M138.243 107.276C138.974 107.619 139.637 108.262 140.243 108.787C144.284 112.285 147.142 116.877 149.735 121.487C148.393 121.153 146.988 120.378 145.688 119.867C143.235 118.903 140.787 118.076 138.24 117.399L138.243 107.276Z" fill="#F8F7F3"/>
<path d="M101.942 101.46L102.071 101.553C102.323 102.966 102.158 104.634 102.157 106.075C102.153 108.86 102.163 111.644 102.189 114.429C97.0519 115.195 92.1672 115.953 87.1487 117.366C87.0451 117.351 86.9577 117.279 86.8648 117.231C86.7135 116.103 86.8285 114.862 86.8357 113.716L86.8827 106.802C91.3451 103.616 96.5715 102.157 101.942 101.46Z" fill="#F8F7F3"/>
<path d="M121.604 101.349C127.214 101.935 132.711 103.505 137.423 106.661L137.43 117.159C132.237 115.735 126.919 114.95 121.578 114.342C121.639 110.013 121.6 105.678 121.604 101.349Z" fill="#F8F7F3"/>
<path d="M107.352 100.865C111.704 100.395 116.685 100.676 121.011 101.281L121.017 114.323C119.494 114.194 117.968 114.09 116.441 114.014C111.821 113.866 107.353 114.029 102.746 114.354L102.744 101.379C104.26 101.105 105.819 101.01 107.352 100.865Z" fill="#F8F7F3"/>
<path d="M73.9186 48.2859C75.6151 49.409 78.1008 52.1514 79.7116 53.6656C83.2436 56.9855 86.8631 60.2156 90.4352 63.4928C94.0408 66.8004 97.6768 70.3503 101.703 73.1395C102.9 73.9685 104.782 75.1469 106.259 75.2554C106.493 75.2726 106.904 75.2296 107.063 75.042C107.887 74.07 107.18 69.9767 106.992 68.7561C107.079 68.9139 107.156 69.0777 107.235 69.239C108.318 71.4408 110.214 75.3105 109.275 77.7848C109.053 78.3703 108.643 78.8118 108.062 79.0536C106.42 79.7375 104.387 78.7467 102.862 78.159C103.017 78.8801 103.132 79.5945 103.191 80.3294C103.553 84.9043 101.579 89.3445 98.6571 92.7582C95.5386 95.9406 91.7335 98.0038 87.2379 98.3518C83.0339 98.6774 78.8982 97.1614 75.7277 94.4169C71.8399 91.0514 69.7989 86.1377 69.4425 81.0665C69.0018 74.8011 71.5293 69.1675 75.5687 64.5416C72.4791 62.8312 69.4014 61.0995 66.3359 59.3465C68.1232 55.3117 70.9037 51.4771 73.9186 48.2859Z" fill="#040403"/>
<path d="M73.9979 50.1603C75.1176 50.6935 79.8158 55.61 81.0545 56.7687C83.6672 59.2132 86.3776 61.5521 89.0046 63.9815C92.7775 67.4708 96.4963 71.0801 100.682 74.0833C101.71 74.8207 104.278 76.4681 105.476 76.5886C105.999 76.6415 106.72 76.4407 107.246 76.3548C107.236 76.6528 107.131 76.6673 106.932 76.8754C105.57 77.3942 103.987 76.8087 102.667 76.3935C101.47 75.7915 100.056 75.3907 98.8019 74.8991C96.8759 74.1438 94.9617 73.2566 93.1126 72.3292C91.2057 71.3729 89.401 70.2024 87.5183 69.1951C81.063 65.7411 74.5446 62.2046 67.9473 59.0394C69.7531 55.8787 71.539 52.8722 73.9979 50.1603Z" fill="#242728"/>
<path d="M76.5711 65.2196C81.9779 67.5548 86.8821 70.9089 92.1827 73.4213C90.6811 73.4247 89.2316 73.4431 87.9554 74.3567C86.542 75.3682 85.7892 77.0321 85.499 78.7034C85.1183 80.8967 85.5747 83.3626 86.921 85.1683C87.8189 86.3729 89.1403 87.1271 90.6272 87.3236C90.7276 87.3368 90.8284 87.3475 90.9295 87.3557C91.0305 87.3636 91.1317 87.3691 91.233 87.3719C91.3343 87.3748 91.4357 87.3751 91.5371 87.3729C91.6384 87.3707 91.7396 87.3658 91.8407 87.3584C91.9417 87.351 92.0426 87.3411 92.1433 87.3286C92.2439 87.3159 92.3442 87.3007 92.444 87.283C92.5436 87.2654 92.6429 87.2452 92.7417 87.2225C92.8406 87.1997 92.9387 87.1744 93.0363 87.1465C93.1337 87.1188 93.2304 87.0886 93.3263 87.0561C93.4223 87.0232 93.5174 86.9881 93.6117 86.9506C93.7058 86.9131 93.7989 86.8732 93.8909 86.8309C93.9832 86.7885 94.0742 86.7439 94.1641 86.6972C94.2538 86.6503 94.3424 86.6011 94.4297 86.5496C94.517 86.4982 94.603 86.4445 94.6877 86.3885C94.7724 86.3328 94.8556 86.2748 94.9371 86.2148C95.0187 86.1548 95.0988 86.0926 95.1773 86.0285C96.7007 84.8049 97.5267 82.9441 97.6789 81.0197C97.856 78.7764 97.1374 76.9356 95.6807 75.2716L101.906 77.7213C102.13 79.293 102.315 80.774 102.209 82.3629C101.841 85.658 100.296 89.0572 98.1451 91.5699C95.4067 94.769 91.3851 96.9618 87.1599 97.2386C86.9179 97.2543 86.6759 97.2642 86.4335 97.2681C86.1912 97.2718 85.949 97.2695 85.7068 97.2611C85.4645 97.2529 85.2227 97.2385 84.9811 97.218C84.7398 97.1978 84.499 97.1714 84.2588 97.139C84.0185 97.1066 83.7793 97.0682 83.541 97.0239C83.3027 96.9794 83.0658 96.9293 82.83 96.8733C82.5942 96.8172 82.3599 96.7551 82.1273 96.6873C81.8946 96.6194 81.6638 96.5458 81.4348 96.4665C81.2058 96.3871 80.9789 96.3022 80.7543 96.2115C80.5294 96.1209 80.3071 96.0248 80.0874 95.9231C79.8674 95.8212 79.6501 95.714 79.4354 95.6014C79.2208 95.4888 79.0092 95.371 78.8004 95.2477C78.5915 95.1247 78.3859 94.9964 78.1835 94.863C77.9811 94.7298 77.7823 94.5915 77.5869 94.4482C77.3916 94.3049 77.1997 94.1568 77.0116 94.0039C76.8236 93.851 76.6395 93.6935 76.4593 93.5316C72.8284 90.2916 70.8376 85.5008 70.5907 80.6848C70.2852 74.7343 72.6688 69.5693 76.5711 65.2196Z" fill="#F8F7F3"/>
<path d="M151.069 47.9941L151.264 48.015C154.236 50.2137 156.723 55.5823 158.068 58.9761C155.043 60.9371 151.745 62.5887 148.554 64.2628C152.548 68.8884 155.352 73.7383 155.304 80.0284C155.265 85.1463 153.322 90.3037 149.608 93.8859C146.486 96.8973 142.345 98.6339 137.993 98.5454C133.469 98.4534 129.366 96.3623 126.276 93.1178C125.568 92.3167 124.9 91.515 124.329 90.6082C121.938 86.807 121.104 82.3696 122.072 77.9989C121.194 78.3283 120.353 78.7504 119.461 79.0429C118.467 79.3683 117.262 79.5248 116.306 78.9927C115.769 78.6931 115.429 78.1766 115.264 77.5926C114.501 74.8954 116.206 70.8974 117.493 68.5744C117.316 69.9054 116.606 73.833 117.182 74.9966C117.302 75.2398 117.361 75.2728 117.621 75.3266C122.054 76.2461 145.585 51.8766 150.885 48.123L151.069 47.9941Z" fill="#040403"/>
<path d="M151.147 49.5702C152.894 50.929 155.559 56.2743 156.588 58.4374L137.766 68.7385C132.864 71.3853 127.938 74.255 122.666 76.1074C120.839 76.752 119.02 77.1201 117.121 77.4755C118.174 77.0868 119.199 76.6367 120.198 76.125C121.196 75.6132 122.16 75.0437 123.09 74.4164C125.714 72.6378 128.091 70.392 130.465 68.2948C135.583 63.775 140.506 59.0359 145.587 54.472C147.418 52.8261 149.223 51.108 151.147 49.5702Z" fill="#242728"/>
<path d="M147.294 64.9366C150.144 67.0338 152.654 71.8037 153.541 75.166C154.815 79.9973 153.992 85.4247 151.441 89.7071C149.403 93.1279 145.983 95.9911 142.08 96.9681C141.84 97.0298 141.597 97.0854 141.354 97.1348C141.11 97.1842 140.866 97.2276 140.62 97.2648C140.374 97.3022 140.127 97.3332 139.88 97.3581C139.633 97.383 139.385 97.4018 139.137 97.4143C138.888 97.4268 138.64 97.4331 138.391 97.4331C138.143 97.4331 137.894 97.4269 137.646 97.4146C137.398 97.4021 137.15 97.3835 136.903 97.3587C136.655 97.3341 136.409 97.3032 136.163 97.2658C135.917 97.2286 135.672 97.1854 135.429 97.1361C135.185 97.0868 134.943 97.0314 134.702 96.9697C134.461 96.9082 134.222 96.8407 133.984 96.7673C133.747 96.6939 133.512 96.6146 133.278 96.5293C133.045 96.4439 132.813 96.3528 132.584 96.2559C132.356 96.1591 132.129 96.0567 131.905 95.9484C131.682 95.8402 131.461 95.7265 131.242 95.6073C131.024 95.488 130.809 95.3634 130.598 95.2334C126.541 92.7708 124.054 88.8337 122.945 84.2846C122.554 81.9725 122.369 79.8004 123.263 77.5694C125.028 76.5764 126.99 75.9423 128.804 75.0266C127.955 76.603 127.234 78.0898 127.127 79.9137C127.01 81.9251 127.675 84.2435 129.077 85.7306C130.081 86.7964 131.345 87.2488 132.789 87.2958C134.427 87.3494 135.987 86.8724 137.169 85.7045C138.543 84.3471 139.147 82.3393 139.183 80.4456C139.222 78.4578 138.642 76.3348 137.202 74.9039C135.801 73.5124 134.213 73.2154 132.327 73.183C137.087 70.1604 142.327 67.6243 147.294 64.9366Z" fill="#F8F7F3"/>
</svg>
